<?xml version="1.0" standalone="no"?>
<!DOCTYPE svg PUBLIC "-//W3C//DTD SVG 1.1//EN" "http://www.w3.org/Graphics/SVG/1.1/DTD/svg11.dtd" >
<svg>
<metadata>
Created by FontForge 20110222 at Wed Mar 27 14:48:49 2013
 By Orthosie Webmaster
Copyright (c) ParaType, Inc., 2007. All rights reserved.
</metadata>
<defs>
<font id="BarnaulGroteskRegular" horiz-adv-x="468" >
  <font-face 
    font-family="BarnaulGroteskRegular"
    font-weight="400"
    font-stretch="normal"
    units-per-em="1000"
    panose-1="2 11 5 3 3 5 4 2 2 4"
    ascent="800"
    descent="-200"
    x-height="468"
    cap-height="683"
    bbox="-21 -215 1012 915"
    underline-thickness="20"
    underline-position="-113"
    unicode-range="U+0020-F6DC"
  />
<missing-glyph horiz-adv-x="233" 
 />
    <glyph glyph-name="afii10017.var.accented" unicode="&#x410;`" horiz-adv-x="515" 
d="M505 0h-91l-58 229h-201l-66 -229h-77l221 683h79zM343 280l-82 307l-90 -307h172zM373 886l-104 -164l-36 7l60 186z" />
    <glyph glyph-name="afii10022.var.accented" unicode="&#x415;`" horiz-adv-x="416" 
d="M390 0h-320v683h313v-61h-231v-230h188v-57h-188v-274h238v-61zM324 886l-104 -164l-36 7l60 186z" />
    <glyph glyph-name="afii10026.var.accented" unicode="&#x418;`" horiz-adv-x="566" 
d="M510 0h-82v543l-273 -543h-85v683h82v-550l274 550h84v-683zM399 886l-104 -164l-36 7l60 186z" />
    <glyph glyph-name="afii10032.var.accented" unicode="&#x41e;`" horiz-adv-x="603" 
d="M566 341q0 -170 -70 -262.5t-187 -92.5q-116 0 -186.5 93t-70.5 262q0 86 17 151t43 102t62 59.5t68 29.5t67 7t67 -7t68 -29.5t62 -59.5t43 -102t17 -151zM481 341q0 78 -11.5 134t-28 85.5t-41.5 46t-45 20.5t-46 4t-46 -4t-45 -20.5t-41.5 -46t-28 -85.5t-11.5 -134
q0 -147 44.5 -221t127.5 -74q80 0 126 74.5t46 220.5zM417 886l-104 -164l-36 7l60 186z" />
    <glyph glyph-name="afii10037.var.accented" unicode="&#x423;`" horiz-adv-x="480" 
d="M468 683l-172 -545q-22 -71 -55 -108t-89 -37q-25 0 -38 5v73q12 -4 23 -4q19 0 31 2t30 19t27 50l-200 545h93l152 -451l118 451h80zM356 886l-104 -164l-36 7l60 186z" />
    <glyph glyph-name="afii10045.var.accented" unicode="&#x42b;`" horiz-adv-x="688" 
d="M478 199q0 -23 -6 -48t-23 -54.5t-43.5 -52t-73 -38t-105.5 -15.5q-78 0 -157 15v677h82v-297q50 15 114 15q55 0 96.5 -15.5t63 -37t34 -52t15.5 -52t3 -45.5zM393 199q0 69 -38 106t-108 37q-25 0 -48.5 -3.5t-34.5 -6.5l-12 -4v-270q32 -7 92 -7t104.5 38t44.5 110z
M632 0h-82v683h82v-683zM460 886l-104 -164l-36 7l60 186z" />
    <glyph glyph-name="afii10047.var.accented" unicode="&#x42d;`" horiz-adv-x="477" 
d="M437 351q0 -179 -74.5 -272t-190.5 -93q-71 0 -116 24v66q50 -25 110 -25q82 0 132.5 62.5t53.5 201.5h-233v59h233q0 66 -14.5 115.5t-34.5 75t-47.5 41t-47.5 19t-42 3.5q-54 0 -103 -21v65q46 18 103 18q23 0 42.5 -2t49 -9.5t52.5 -20.5t47.5 -39t41 -60.5t27.5 -88
t11 -119.5zM354 886l-104 -164l-36 7l60 186z" />
    <glyph glyph-name="afii10048.var.accented" unicode="&#x42e;`" horiz-adv-x="816" 
d="M779 341q0 -170 -70 -262.5t-187 -92.5q-112 0 -181 86t-76 254h-113v-326h-82v683h82v-304h114q7 89 34.5 153.5t66.5 97t77.5 46.5t77.5 14q35 0 67 -7t68 -29.5t62 -59.5t43 -102t17 -151zM694 341q0 75 -11 130t-27 85t-40.5 47.5t-45.5 22.5t-48 5q-25 0 -46.5 -6
t-45.5 -25t-41 -50t-28 -84.5t-11 -124.5q0 -145 44.5 -220t127.5 -75q80 0 126 74.5t46 220.5zM524 886l-104 -164l-36 7l60 186z" />
    <glyph glyph-name="afii10049.var.accented" unicode="&#x42f;`" horiz-adv-x="502" 
d="M444 0h-82v304h-43q-40 0 -70.5 -33.5t-66.5 -121.5l-60 -149h-91l57 127q4 8 14 31.5t13.5 30.5t12 25t13 25t13 20.5t16 20.5t18 16t21.5 17v8q-60 8 -96.5 37.5t-48.5 62.5t-12 74q0 78 52.5 135.5t163.5 57.5q104 0 176 -13v-675zM362 356v265q-36 8 -84 8
q-141 0 -141 -138q0 -57 35 -96t116 -39h74zM367 886l-104 -164l-36 7l60 186z" />
    <glyph glyph-name="afii10065.var.accented" unicode="&#x430;`" horiz-adv-x="441" 
d="M421 2q-27 -6 -66 -6q-22 0 -36 17t-17 34l-3 17q-58 -77 -138 -77q-53 0 -91.5 31t-38.5 97q0 90 52 127.5t151 37.5h63v44q0 33 -8 53.5t-26 28.5t-31.5 10t-38.5 2q-60 0 -129 -20v60q77 22 175 22q23 0 42 -4.5t32.5 -9.5t24 -18t17 -20.5t11 -27t6.5 -27t3 -31.5
t1 -30v-32v-177q0 -29 9.5 -44t35.5 -14v-43zM297 132v96h-67q-55 0 -86.5 -20t-31.5 -76q0 -79 67 -79q33 0 62.5 19.5t42.5 39.5zM357 672l-99 -156l-34 7l57 177z" />
    <glyph glyph-name="afii10070.var.accented" unicode="&#x435;`" horiz-adv-x="429" 
d="M396 312q0 -55 -3 -73h-270q0 -104 37.5 -145.5t111.5 -41.5q48 0 103 30v-60q-1 0 -12.5 -5.5t-20.5 -8.5t-25 -7.5t-36.5 -7t-43.5 -2.5q-89 0 -142.5 61t-53.5 180q0 74 19.5 126t51.5 76t62 33.5t63 9.5q66 0 112.5 -40t46.5 -125zM323 290v22q0 46 -21.5 77.5
t-70.5 31.5q-18 0 -32.5 -4t-31.5 -16.5t-28.5 -40.5t-15.5 -70h200zM351 672l-99 -156l-34 7l57 177z" />
    <glyph glyph-name="afii10074.var.accented" unicode="&#x438;`" horiz-adv-x="475" 
d="M420 0h-79v363l-202 -363h-84v468h79v-362l202 363h84v-469zM374 672l-99 -156l-34 7l57 177z" />
    <glyph glyph-name="afii10080.var.accented" unicode="&#x43e;`" horiz-adv-x="458" 
d="M427 232q0 -118 -56 -182t-141 -64t-137 63.5t-52 182.5q0 61 13.5 107t33.5 71.5t47.5 41t50.5 20.5t48 5q26 0 49.5 -5t50.5 -21t47 -41.5t33 -71.5t13 -106zM345 232q0 50 -8 86.5t-19 55.5t-27.5 30t-28.5 13.5t-28 2.5t-28.5 -2.5t-29 -13.5t-27.5 -30t-18.5 -55.5
t-7.5 -86.5q0 -93 30 -141t81 -48q53 0 82 47.5t29 141.5zM366 672l-99 -156l-34 7l57 177z" />
    <glyph glyph-name="afii10085.var.accented" unicode="&#x443;`" horiz-adv-x="398" 
d="M392 468l-147 -494q-29 -96 -54 -137.5t-71 -41.5q-26 0 -39 5v71q18 -3 34 -3q25 0 41.5 17t16.5 48q0 28 -10 58l-149 477h90l111 -408l98 408h79zM336 672l-99 -156l-34 7l57 177z" />
    <glyph glyph-name="afii10093.var.accented" unicode="&#x44b;`" horiz-adv-x="565" 
d="M513 0h-79v468h79v-468zM386 152q0 -79 -57 -120t-140 -41q-64 0 -134 18v459h79v-181q40 10 84 10q17 0 34.5 -2.5t43 -11t44.5 -23.5t32.5 -43t13.5 -65zM304 152q0 42 -25 68t-79 26q-15 0 -31.5 -2t-25.5 -4l-9 -3v-184q21 -5 66 -5q44 0 74 26t30 78zM419 672
l-99 -156l-34 7l57 177z" />
    <glyph glyph-name="afii10095.var.accented" unicode="&#x44d;`" horiz-adv-x="363" 
d="M330 242q0 -124 -54 -187.5t-145 -63.5q-55 0 -105 25v67q47 -28 104 -28q119 0 119 161h-171v53h170q0 148 -118 148q-47 0 -97 -23v66q45 17 104 17q43 0 74.5 -8.5t60 -32t43.5 -72.5t15 -122zM318 672l-99 -156l-34 7l57 177z" />
    <glyph glyph-name="afii10096.var.accented" unicode="&#x44e;`" horiz-adv-x="644" 
d="M611 232q0 -118 -56 -182t-141 -64q-82 0 -133.5 59.5t-55.5 171.5h-91v-217h-79v468h79v-198h92q6 54 23 94.5t37 61.5t47 33t45.5 15t39.5 3q33 0 62.5 -9t61 -33t50.5 -76t19 -127zM529 232q0 62 -10.5 102.5t-29.5 57.5t-34.5 22.5t-36.5 5.5q-51 0 -81 -40t-30 -148
q0 -93 30 -141t81 -48q53 0 82 47.5t29 141.5zM459 672l-99 -156l-34 7l57 177z" />
    <glyph glyph-name="afii10097.var.accented" unicode="&#x44f;`" horiz-adv-x="423" 
d="M370 0h-79v190h-34q-32 0 -55 -19t-46 -77l-36 -94h-93l50 104q16 34 30 53.5t22 26t27 18.5v6q-110 24 -110 124q0 45 19 75.5t51 44.5t61 19.5t62 5.5q36 0 131 -11v-466zM291 237v179q-36 5 -59 5q-20 0 -35 -2.5t-32.5 -11t-27 -27.5t-9.5 -48q0 -39 24 -67t87 -28
h52zM348 672l-99 -156l-34 7l57 177z" />
    <glyph glyph-name=".notdef" horiz-adv-x="233" 
 />
    <glyph glyph-name=".null" horiz-adv-x="0" 
 />
    <glyph glyph-name="nonmarkingreturn" horiz-adv-x="333" 
 />
    <glyph glyph-name="space" unicode=" " horiz-adv-x="233" 
 />
    <glyph glyph-name="exclam" unicode="!" horiz-adv-x="244" 
d="M171 690l-18 -484h-62l-17 484h97zM172 44q0 -20 -16.5 -34t-40.5 -14t-40.5 14t-16.5 34t16.5 34.5t40.5 14.5t40.5 -14.5t16.5 -34.5z" />
    <glyph glyph-name="quotedbl" unicode="&#x22;" horiz-adv-x="369" 
d="M316 690l-21 -203h-51l-21 203h93zM148 690l-21 -203h-50l-21 203h92z" />
    <glyph glyph-name="numbersign" unicode="#" horiz-adv-x="532" 
d="M541 454l-13 -62h-114l-43 -191h109l-13 -62h-111l-41 -191h-54l44 191h-118l-43 -191h-53l43 191h-112l13 62h114l43 191h-109l13 62h111l41 191h54l-44 -191h118l43 191h53l-43 -191h112zM363 393h-120l-43 -193h120z" />
    <glyph glyph-name="dollar" unicode="$" 
d="M445 182q0 -78 -53 -129.5t-139 -58.5v-60h-38v59q-40 0 -78 9t-56 17.5t-28 15.5v76q81 -48 162 -48v258q-36 15 -61 28.5t-57 37.5t-49.5 58t-17.5 76q0 29 8 54.5t27.5 51t57.5 42t92 20.5v81h38v-80q74 -1 133 -25v-76q-3 1 -21.5 8.5t-31 11.5t-35.5 8.5t-45 4.5
v-240q35 -17 50 -24.5t43.5 -23.5t41 -29t29 -32.5t22.5 -41.5t6 -49zM215 400v223q-103 -2 -103 -100q0 -46 26 -72.5t77 -50.5zM361 178q0 46 -25 71.5t-83 55.5v-242q54 4 81 35t27 80z" />
    <glyph glyph-name="percent" unicode="%" horiz-adv-x="722" 
d="M322 525q0 -85 -41.5 -129.5t-101.5 -44.5q-59 0 -97.5 44t-38.5 130q0 54 14 91t37 53.5t44 23t44 6.5q140 0 140 -174zM543 707l-310 -724h-56l311 724h55zM682 151q0 -85 -41 -129t-101 -44q-59 0 -98 44t-39 129q0 54 14 91t37.5 53.5t44.5 23t45 6.5q138 0 138 -174
zM254 525q0 73 -19 96.5t-53 23.5q-71 0 -71 -120t71 -120q38 0 55 28t17 92zM614 151q0 73 -18.5 96.5t-51.5 23.5q-73 0 -73 -120q0 -122 73 -122q70 0 70 122z" />
    <glyph glyph-name="ampersand" unicode="&#x26;" horiz-adv-x="601" 
d="M588 0h-106l-75 89q-92 -103 -209 -103q-85 0 -139 47.5t-54 133.5q0 39 13.5 73.5t41 63.5t41.5 40.5t42 31.5q5 4 8 6q-6 7 -22 25t-21 23.5t-16 20t-14.5 22.5t-9.5 21.5t-7.5 26t-1.5 27.5q0 61 48.5 101.5t130.5 40.5q75 0 122 -35t47 -95q0 -49 -33 -85.5
t-121 -88.5l164 -193l56 89h86l-100 -132zM330 552q0 44 -28.5 64t-73.5 20q-43 0 -67 -23t-24 -61q0 -42 73 -117q6 -7 9 -10q44 28 61.5 40.5t33.5 35.5t16 51zM367 131l-180 212q-3 -2 -17 -13t-22 -17.5t-20.5 -21t-20 -28.5t-13 -35.5t-5.5 -45.5q0 -53 32.5 -93
t99.5 -40q74 0 146 82z" />
    <glyph glyph-name="quotesingle" unicode="'" horiz-adv-x="219" 
d="M162 690l-24 -203h-58l-24 203h106z" />
    <glyph glyph-name="parenleft" unicode="(" horiz-adv-x="309" 
d="M287 -190l-49 -22q-205 230 -205 491q0 144 53 262t152 229l49 -22q-34 -43 -59 -81.5t-56.5 -99.5t-48.5 -134.5t-17 -153.5t17 -153.5t48.5 -134.5t56.5 -99.5t59 -81.5z" />
    <glyph glyph-name="parenright" unicode=")" horiz-adv-x="309" 
d="M82 -212l-49 22q34 43 59 81.5t56.5 99.5t48.5 134.5t17 153.5t-17 153.5t-48.5 134.5t-56.5 99.5t-59 81.5l49 22q99 -111 152 -229t53 -262q0 -261 -205 -491z" />
    <glyph glyph-name="asterisk" unicode="*" horiz-adv-x="464" 
d="M411 600l-143 -72l142 -73l-26 -47l-135 90l9 -163h-53l9 163l-136 -89l-25 47l142 72l-141 74l26 47l134 -91l-9 163h53l-9 -163l136 90z" />
    <glyph glyph-name="plus" unicode="+" horiz-adv-x="619" 
d="M553 246h-219v-218h-50v218h-219v48h219v219h50v-219h219v-48z" />
    <glyph glyph-name="comma" unicode="," horiz-adv-x="169" 
d="M133 37q0 -35 -18.5 -77t-52.5 -70l-19 14q34 52 34 91q-42 7 -42 52q0 21 12.5 35t33.5 14t36.5 -14t15.5 -45z" />
    <glyph glyph-name="hyphen" unicode="-" horiz-adv-x="297" 
d="M255 225h-205v53h205v-53z" />
    <glyph glyph-name="period" unicode="." horiz-adv-x="190" 
d="M153 53q0 -24 -16.5 -40.5t-40.5 -16.5t-40.5 16.5t-16.5 40.5t16.5 40.5t40.5 16.5t40.5 -16.5t16.5 -40.5z" />
    <glyph glyph-name="slash" unicode="/" horiz-adv-x="382" 
d="M355 760l-301 -918h-66l300 918h67z" />
    <glyph glyph-name="zero" unicode="0" 
d="M437 341q0 -168 -56.5 -261.5t-145.5 -93.5q-92 0 -147 92t-55 263q0 98 18.5 169.5t50 109t64.5 54t69 16.5q35 0 68 -16t64.5 -52.5t50.5 -108.5t19 -172zM350 341q0 112 -15.5 178t-39.5 89t-60 23q-35 0 -59 -22.5t-40.5 -89t-16.5 -178.5q0 -153 26.5 -224.5
t89.5 -71.5q62 0 88.5 70.5t26.5 225.5z" />
    <glyph glyph-name="one" unicode="1" 
d="M295 0h-82v555h-83v38q43 4 74.5 26.5t41.5 42.5l10 21h39v-683z" />
    <glyph glyph-name="two" unicode="2" 
d="M419 520q0 -28 -7.5 -55.5t-15 -46t-28.5 -46t-30.5 -38.5t-39.5 -42t-38 -40q-39 -42 -55 -60t-43 -54.5t-38 -63.5h277v-74h-340v69q4 10 9.5 21t10.5 20t13.5 21.5t13.5 20t16 22t16 20.5t17.5 22t16.5 20t18 21t16 20q6 7 23.5 28t22.5 27.5t19.5 24t18.5 25t14 23.5
t13 26t8 24.5t6.5 28.5t1.5 29q0 48 -28 80t-84 32q-61 0 -129 -49l-15 61q73 53 158 53q94 0 138 -51.5t44 -118.5z" />
    <glyph glyph-name="three" unicode="3" 
d="M423 197q0 -29 -7 -56.5t-23.5 -55.5t-41 -48.5t-63.5 -33.5t-87 -13q-81 0 -151 33l22 58q67 -32 132 -32q58 0 96.5 39.5t38.5 111.5q0 62 -38.5 96.5t-110.5 34.5h-56v53h61q51 0 91 36.5t40 101.5q0 46 -26.5 78.5t-81.5 32.5q-61 0 -126 -45l-21 59q68 43 156 43
q94 0 138.5 -45t44.5 -113q0 -59 -31 -102t-86 -66v-5q70 -16 100 -60.5t30 -101.5z" />
    <glyph glyph-name="four" unicode="4" 
d="M451 155h-69v-155h-82v155h-277v60l282 468h77v-460h69v-68zM300 223v361l-208 -361h208z" />
    <glyph glyph-name="five" unicode="5" 
d="M420 208q0 -33 -11 -67.5t-35 -70t-71.5 -58t-112.5 -22.5q-71 0 -141 33l22 58q67 -32 132 -32q52 0 92.5 37.5t40.5 115.5q0 142 -145 142q-46 0 -105 -11l19 350h290v-74h-238l-11 -210q36 5 85 5q77 0 133 -46.5t56 -149.5z" />
    <glyph glyph-name="six" unicode="6" 
d="M451 208q0 -34 -11 -70t-34 -71.5t-65.5 -58t-98.5 -22.5q-96 0 -151.5 70.5t-55.5 213.5q0 80 21.5 149.5t57 118t81.5 84t93.5 53t94.5 19.5l10 -49q-111 -19 -181 -98q-66 -75 -80 -181q61 49 136 49q21 0 42 -4.5t47.5 -18t46.5 -35t33.5 -60.5t13.5 -89zM365 204
q0 147 -123 147q-71 0 -116 -63q-4 -37 -4 -73q0 -67 32 -118.5t89 -51.5q62 0 92 47.5t30 111.5z" />
    <glyph glyph-name="seven" unicode="7" 
d="M438 620l-242 -620h-90l267 609h-318v74h383v-63z" />
    <glyph glyph-name="eight" unicode="8" 
d="M440 179q0 -16 -3.5 -36t-16.5 -49t-34 -52t-59.5 -39.5t-89.5 -16.5t-89.5 16.5t-59.5 39.5t-34 52t-16.5 49t-3.5 36q0 29 4.5 53t16 50t36.5 46.5t62 34.5v5q-43 15 -74.5 55.5t-31.5 96.5q0 69 46 120t144 51q52 0 90.5 -15.5t59 -41t30.5 -54.5t10 -60
q0 -56 -31.5 -96.5t-74.5 -55.5v-5q37 -14 62 -34.5t36.5 -46.5t16 -50t4.5 -53zM343 513q0 48 -23 84t-83 36q-106 0 -106 -120q0 -57 30 -89.5t76 -32.5q47 0 76.5 32t29.5 90zM355 187q0 71 -31.5 109.5t-86.5 38.5t-86.5 -38.5t-31.5 -109.5q0 -56 30 -99t88 -43t88 43
t30 99z" />
    <glyph glyph-name="nine" unicode="9" 
d="M449 410q0 -80 -21.5 -149.5t-57 -118t-81.5 -84t-93.5 -53t-94.5 -19.5l-10 49q107 18 178 98q70 79 83 181q-61 -49 -139 -49q-26 0 -54 9.5t-57.5 31t-49 65t-19.5 101.5q0 39 11 76t34 71t65.5 54.5t98.5 20.5q97 0 152 -69.5t55 -214.5zM362 465q0 72 -31.5 121
t-89.5 49q-62 0 -92 -47.5t-30 -111.5q0 -147 120 -147q74 0 119 63q4 37 4 73z" />
    <glyph glyph-name="colon" unicode=":" horiz-adv-x="190" 
d="M143 421q0 -21 -12 -35t-35 -14t-35 14t-12 35t12 35t35 14t35 -14t12 -35zM143 45q0 -21 -12 -35t-35 -14t-35 14t-12 35t12 35t35 14t35 -14t12 -35z" />
    <glyph glyph-name="semicolon" unicode=";" horiz-adv-x="190" 
d="M143 421q0 -21 -12 -35t-35 -14t-35 14t-12 35t12 35t35 14t35 -14t12 -35zM143 37q0 -35 -18.5 -77t-52.5 -70l-19 14q34 52 34 91q-42 7 -42 52q0 21 12.5 35t33.5 14t36.5 -14t15.5 -45z" />
    <glyph glyph-name="less" unicode="&#x3c;" horiz-adv-x="619" 
d="M530 33l-447 220v35l447 220v-46l-388 -190l388 -193v-46z" />
    <glyph glyph-name="equal" unicode="=" horiz-adv-x="619" 
d="M539 341h-459v50h459v-50zM539 150h-459v51h459v-51z" />
    <glyph glyph-name="greater" unicode="&#x3e;" horiz-adv-x="619" 
d="M529 253l-447 -220v46l388 193l-388 190v46l447 -220v-35z" />
    <glyph glyph-name="question" unicode="?" horiz-adv-x="434" 
d="M376 515q0 -38 -14 -67.5t-37.5 -50t-48 -37.5t-50.5 -40.5t-41 -48.5q-16 -29 -16 -78h-54q3 59 22 97q14 28 43 58t53 50.5t42.5 50.5t18.5 62q0 109 -124 109q-53 0 -131 -45l-6 58q77 44 166 44q85 0 131 -43t46 -119zM194 44q0 -19 -15 -33.5t-35 -14.5
q-21 0 -35.5 14t-14.5 34t14.5 34.5t35.5 14.5q20 0 35 -14.5t15 -34.5z" />
    <glyph glyph-name="at" unicode="@" horiz-adv-x="820" 
d="M796 349q0 -125 -74.5 -217t-161.5 -92q-27 0 -49 16t-31 48q-36 -33 -66.5 -50.5t-70.5 -17.5q-51 0 -84 40.5t-33 112.5q0 62 19.5 121t48.5 97q70 93 166 93q62 0 96 -45l24 28h50l-75 -307q-8 -34 -8 -46q0 -17 8 -31t21 -14q59 0 107 78.5t48 187.5q0 128 -71 206.5
t-209 78.5q-153 0 -249.5 -112.5t-96.5 -292.5q0 -158 88.5 -249t230.5 -91q79 0 141 20t128 63l12 -38q-128 -91 -291 -91q-180 0 -278 109t-98 276q0 202 115 325t298 123q168 0 256.5 -94.5t88.5 -234.5zM535 395q-9 20 -29 33.5t-46 13.5q-50 0 -87 -43t-52.5 -97
t-15.5 -105q0 -49 20.5 -73.5t54.5 -24.5q31 0 63 26.5t42 50.5z" />
    <glyph glyph-name="A" unicode="A" horiz-adv-x="515" 
d="M505 0h-91l-58 229h-201l-66 -229h-77l221 683h79zM343 280l-82 307l-90 -307h172z" />
    <glyph glyph-name="B" unicode="B" horiz-adv-x="517" 
d="M70 675q64 13 169 13q55 0 97 -11t66 -27t39 -39t20 -43t5 -42q0 -119 -122 -166v-6q138 -33 138 -161q0 -23 -5 -47t-21.5 -53t-42.5 -50.5t-73.5 -36.5t-109.5 -15q-81 0 -160 15v669zM381 509q0 59 -34.5 89.5t-116.5 30.5q-22 0 -41.5 -2t-28.5 -4l-8 -2v-243h69
q79 0 119.5 36.5t40.5 94.5zM394 193q0 132 -173 132h-69v-265q34 -9 94 -9q68 0 108 36.5t40 105.5z" />
    <glyph glyph-name="C" unicode="C" horiz-adv-x="469" 
d="M444 11q-47 -25 -137 -25q-123 0 -189 83.5t-66 271.5q0 91 21 158.5t51 103t72 56.5t73.5 26t66.5 5q34 0 100 -11v-70q-53 17 -100 17q-199 0 -199 -285q0 -290 176 -290q76 0 131 31v-71z" />
    <glyph glyph-name="D" unicode="D" horiz-adv-x="550" 
d="M513 351q0 -93 -25.5 -162.5t-70 -109.5t-98.5 -59.5t-118 -19.5h-131v672q77 14 151 14q22 0 43 -2t51.5 -10t56 -21t52.5 -38.5t46 -59.5t31 -86.5t12 -117.5zM429 351q0 76 -19.5 131.5t-44 82t-58.5 41.5t-51.5 17.5t-34.5 2.5q-43 0 -69 -6v-559h52
q110 0 167.5 73.5t57.5 216.5z" />
    <glyph glyph-name="E" unicode="E" horiz-adv-x="416" 
d="M390 0h-320v683h313v-61h-231v-230h188v-57h-188v-274h238v-61z" />
    <glyph glyph-name="F" unicode="F" horiz-adv-x="389" 
d="M373 622h-221v-237h178v-57h-178v-328h-82v683h303v-61z" />
    <glyph glyph-name="G" unicode="G" horiz-adv-x="528" 
d="M477 20q-83 -34 -170 -34q-128 0 -192 82.5t-64 272.5q0 91 21 158.5t51 103t72 56.5t73.5 26t66.5 5q44 0 110 -11v-70q-53 17 -110 17q-199 0 -199 -285q0 -295 177 -295q28 0 48.5 2t27.5 4l7 2v224h-113v57h194v-315z" />
    <glyph glyph-name="H" unicode="H" horiz-adv-x="551" 
d="M497 0h-82v325h-263v-325h-82v683h82v-301h263v301h82v-683z" />
    <glyph glyph-name="I" unicode="I" horiz-adv-x="206" 
d="M152 0h-82v683h82v-683z" />
    <glyph glyph-name="J" unicode="J" horiz-adv-x="213" 
d="M152 14v-8q0 -20 -0.5 -33.5t-3.5 -39t-11.5 -43.5t-21.5 -36.5t-37 -28.5t-55 -10q-26 0 -41 5v64q4 0 12.5 -0.5t12.5 -0.5q63 0 63 93v707h82v-669z" />
    <glyph glyph-name="K" unicode="K" horiz-adv-x="509" 
d="M494 0h-95l-100 221q-26 57 -51 80.5t-61 23.5h-35v-325h-82v683h82v-299h40q39 0 65 30.5t40 68.5l73 200h87l-87 -215q-12 -29 -20 -44.5t-24.5 -34t-39.5 -29.5v-5q29 -15 45 -35.5t45 -80.5z" />
    <glyph glyph-name="L" unicode="L" horiz-adv-x="396" 
d="M390 0h-320v683h82v-622h238v-61z" />
    <glyph glyph-name="M" unicode="M" horiz-adv-x="711" 
d="M653 0h-82v491l2 74l-4 1q-7 -34 -20 -72l-165 -494h-61l-166 494q-13 38 -20 72l-4 -1q2 -37 2 -74v-491h-65v683h107l187 -557l183 557h106v-683z" />
    <glyph glyph-name="N" unicode="N" horiz-adv-x="561" 
d="M501 0h-87l-251 493l-28 65h-3q3 -29 3 -61v-497h-65v683h87l252 -498l28 -65h3q-3 29 -3 61v502h64v-683z" />
    <glyph glyph-name="O" unicode="O" horiz-adv-x="603" 
d="M566 341q0 -170 -70 -262.5t-187 -92.5q-116 0 -186.5 93t-70.5 262q0 86 17 151t43 102t62 59.5t68 29.5t67 7t67 -7t68 -29.5t62 -59.5t43 -102t17 -151zM481 341q0 78 -11.5 134t-28 85.5t-41.5 46t-45 20.5t-46 4t-46 -4t-45 -20.5t-41.5 -46t-28 -85.5t-11.5 -134
q0 -147 44.5 -221t127.5 -74q80 0 126 74.5t46 220.5z" />
    <glyph glyph-name="P" unicode="P" horiz-adv-x="492" 
d="M468 504q0 -35 -10 -67.5t-33.5 -65t-71 -52.5t-112.5 -20q-19 0 -41.5 2.5t-35.5 4.5l-12 2v-308h-82v675q65 13 169 13q65 0 112 -16.5t71 -45t35 -58.5t11 -64zM383 502q0 127 -153 127q-18 0 -37.5 -2t-30.5 -4l-10 -2v-254q49 -10 84 -10q79 0 113 40.5t34 104.5z
" />
    <glyph glyph-name="Q" unicode="Q" horiz-adv-x="603" 
d="M566 341q0 -124 -38.5 -208t-107.5 -121l76 -119l-75 -28l-53 128q-27 -7 -59 -7q-114 0 -185.5 93.5t-71.5 261.5q0 86 17 151t43 102t62 59.5t68 29.5t67 7t67 -7t68 -29.5t62 -59.5t43 -102t17 -151zM481 341q0 78 -11.5 134t-28 85.5t-41.5 46t-45 20.5t-46 4t-46 -4
t-45 -20.5t-41.5 -46t-28 -85.5t-11.5 -134q0 -147 44.5 -221t127.5 -74q80 0 126 74.5t46 220.5z" />
    <glyph glyph-name="R" unicode="R" horiz-adv-x="510" 
d="M490 0h-91l-100 193q-33 63 -54 87.5t-54 24.5h-39v-305h-82v675q74 13 169 13q64 0 110.5 -16t70 -44t34 -58.5t10.5 -65.5q0 -61 -38.5 -114t-126.5 -71v-4q21 -14 37 -33.5t43 -70.5zM379 502q0 127 -149 127q-18 0 -37.5 -2t-30.5 -4l-10 -2v-260h59q168 0 168 141z
" />
    <glyph glyph-name="S" unicode="S" horiz-adv-x="447" 
d="M416 183q0 -95 -63 -146t-160 -51q-98 0 -154 36v75q23 -17 66.5 -34t83.5 -17q148 0 148 122q0 27 -7 45.5t-24.5 34t-34 25.5t-50 28.5t-58.5 34.5q-29 19 -40 26t-32.5 26t-30 34.5t-16.5 41.5t-8 57q0 72 50.5 120.5t159.5 48.5q62 0 134 -22v-72q-60 34 -129 34
q-136 0 -136 -109q0 -16 3 -29.5t12 -25.5t15.5 -19.5t22.5 -18.5t24 -16t29.5 -17t29.5 -16q3 -2 23 -13t27.5 -15.5t26.5 -17t28 -21.5t22.5 -24.5t20 -30t12 -34t5.5 -40.5z" />
    <glyph glyph-name="T" unicode="T" horiz-adv-x="427" 
d="M410 622h-154v-622h-82v622h-154v61h390v-61z" />
    <glyph glyph-name="U" unicode="U" horiz-adv-x="549" 
d="M497 210q0 -224 -215 -224q-114 0 -163 53t-49 161v483h82v-483q0 -156 130 -156q145 0 145 156v483h70v-473z" />
    <glyph glyph-name="V" unicode="V" horiz-adv-x="474" 
d="M482 683l-198 -683h-80l-185 683h88l149 -575l146 575h80z" />
    <glyph glyph-name="W" unicode="W" horiz-adv-x="771" 
d="M765 683l-162 -683h-84l-129 533l-139 -533h-84l-145 683h85l115 -559l147 559h65l137 -558l115 558h79z" />
    <glyph glyph-name="X" unicode="X" horiz-adv-x="485" 
d="M469 0h-99l-134 286l-127 -286h-83l181 339l-175 344h96l125 -268l124 268h80l-176 -318z" />
    <glyph glyph-name="Y" unicode="Y" horiz-adv-x="466" 
d="M463 683l-184 -446v-237h-82v237l-179 446h92l143 -378l130 378h80z" />
    <glyph glyph-name="Z" unicode="Z" horiz-adv-x="435" 
d="M410 636l-276 -575h264v-61h-362v47l278 575h-256v61h352v-47z" />
    <glyph glyph-name="bracketleft" unicode="[" horiz-adv-x="320" 
d="M255 -191h-174v951h174v-51h-102v-850h102v-50z" />
    <glyph glyph-name="backslash" unicode="\" horiz-adv-x="382" 
d="M393 -158h-66l-302 918h67z" />
    <glyph glyph-name="bracketright" unicode="]" horiz-adv-x="320" 
d="M255 -191h-174v50h102v850h-102v51h174v-951z" />
    <glyph glyph-name="asciicircum" unicode="^" horiz-adv-x="467" 
d="M452 505h-77l-131 160l-131 -160h-77l181 222h54z" />
    <glyph glyph-name="underscore" unicode="_" horiz-adv-x="488" 
d="M492 -129h-495v60h495v-60z" />
    <glyph glyph-name="grave" unicode="`" horiz-adv-x="212" 
d="M169 571l-27 -12l-99 156l69 33z" />
    <glyph glyph-name="a" unicode="a" horiz-adv-x="441" 
d="M421 2q-27 -6 -66 -6q-22 0 -36 17t-17 34l-3 17q-58 -77 -138 -77q-53 0 -91.5 31t-38.5 97q0 90 52 127.5t151 37.5h63v44q0 33 -8 53.5t-26 28.5t-31.5 10t-38.5 2q-60 0 -129 -20v60q77 22 175 22q23 0 42 -4.5t32.5 -9.5t24 -18t17 -20.5t11 -27t6.5 -27t3 -31.5
t1 -30v-32v-177q0 -29 9.5 -44t35.5 -14v-43zM297 132v96h-67q-55 0 -86.5 -20t-31.5 -76q0 -79 67 -79q33 0 62.5 19.5t42.5 39.5z" />
    <glyph glyph-name="b" unicode="b" horiz-adv-x="466" 
d="M430 250q0 -133 -57.5 -196t-138.5 -63q-69 0 -114 37l-14 -28h-51v684h79v-259q50 52 128 52q83 0 125.5 -59.5t42.5 -167.5zM348 250q0 71 -25.5 117.5t-83.5 46.5q-40 0 -66 -19t-39 -41v-270q39 -36 93 -36q121 0 121 202z" />
    <glyph glyph-name="c" unicode="c" horiz-adv-x="356" 
d="M331 13l-9 -4q-8 -4 -14.5 -6t-19 -5.5t-29 -5t-36.5 -1.5q-84 0 -130.5 60.5t-46.5 180.5q0 73 19 124.5t51 76t62.5 34.5t64.5 10q45 0 88 -8v-65q-38 12 -82 12q-22 0 -39.5 -5.5t-38 -22.5t-32 -57t-11.5 -99q0 -94 30.5 -135.5t95.5 -41.5q43 0 77 21v-63z" />
    <glyph glyph-name="d" unicode="d" horiz-adv-x="460" 
d="M409 0h-68l-7 48q-53 -57 -134 -57q-85 0 -125.5 62.5t-40.5 165.5q0 73 17.5 125.5t46.5 79.5t59 38.5t63 11.5q70 0 110 -26v235h79v-683zM330 112v268q-3 4 -9 10.5t-30 17.5t-53 11q-62 0 -92 -47t-30 -153q0 -45 8 -79.5t33.5 -61.5t65.5 -27q37 0 66 19.5t41 41.5z
" />
    <glyph glyph-name="e" unicode="e" horiz-adv-x="429" 
d="M396 312q0 -55 -3 -73h-270q0 -104 37.5 -145.5t111.5 -41.5q48 0 103 30v-60q-1 0 -12.5 -5.5t-20.5 -8.5t-25 -7.5t-36.5 -7t-43.5 -2.5q-89 0 -142.5 61t-53.5 180q0 74 19.5 126t51.5 76t62 33.5t63 9.5q66 0 112.5 -40t46.5 -125zM323 290v22q0 46 -21.5 77.5
t-70.5 31.5q-18 0 -32.5 -4t-31.5 -16.5t-28.5 -40.5t-15.5 -70h200z" />
    <glyph glyph-name="f" unicode="f" horiz-adv-x="290" 
d="M271 643q-33 3 -46 3q-65 0 -65 -97v-81h106v-59h-106v-409h-79v409h-60v59h60v42v8q0 27 0.5 42t4 42t11.5 42.5t21.5 33t37 25.5t54.5 8q33 0 61 -7v-61z" />
    <glyph glyph-name="g" unicode="g" horiz-adv-x="473" 
d="M421 -7q0 -107 -56.5 -153.5t-146.5 -46.5q-75 0 -137 20v57q69 -21 129 -21t96.5 29t36.5 107v63q-61 -57 -130 -57q-85 0 -125.5 65t-40.5 169q0 132 53.5 192t132.5 60q73 0 114 -32l15 31h59v-483zM342 119v268q-2 4 -8 10t-29 15.5t-54 9.5q-64 0 -93 -48.5
t-29 -148.5q0 -72 24.5 -123t82.5 -51q30 0 56.5 17t37.5 34z" />
    <glyph glyph-name="h" unicode="h" horiz-adv-x="454" 
d="M401 0h-79v308q0 52 -18 74t-59 22q-40 0 -75.5 -42t-35.5 -92v-270h-79v683h79v-298q65 89 148 89q119 0 119 -143v-331z" />
    <glyph glyph-name="i" unicode="i" horiz-adv-x="193" 
d="M59 463h79v-463h-79v463zM151 583q0 -20 -14 -34t-37 -14t-37 14t-14 34q0 21 14 35t37 14t37 -14t14 -35z" />
    <glyph glyph-name="j" unicode="j" horiz-adv-x="207" 
d="M148 -5v-13q0 -33 -0.5 -50.5t-7 -47.5t-19.5 -46.5t-39 -29.5t-63 -13q-25 0 -40 5v59q4 0 12.5 -1t12.5 -1q65 0 65 99v508h79v-469zM165 584q0 -20 -15.5 -34t-37.5 -14t-37 14t-15 34t15 34t37 14t37.5 -14t15.5 -34z" />
    <glyph glyph-name="k" unicode="k" horiz-adv-x="404" 
d="M398 0h-86l-72 142q-20 38 -39 57.5t-45 19.5h-22v-219h-79v683h79v-416h22q41 0 78 72l63 123h83l-71 -127q-41 -73 -74 -87v-6q29 -11 45 -26t38 -59z" />
    <glyph glyph-name="l" unicode="l" horiz-adv-x="192" 
d="M137 0h-79v683h79v-683z" />
    <glyph glyph-name="m" unicode="m" horiz-adv-x="665" 
d="M616 0h-79v312q0 47 -13.5 72.5t-50.5 25.5q-39 0 -68.5 -38t-29.5 -104v-268h-79v312q0 98 -64 98q-41 0 -69.5 -41.5t-28.5 -100.5v-268h-79v467h72l7 -66q61 79 139 79q35 0 59.5 -22.5t30.5 -68.5q34 51 68 71t76 20q109 0 109 -133v-347z" />
    <glyph glyph-name="n" unicode="n" horiz-adv-x="452" 
d="M401 0h-79v308q0 98 -74 98q-43 0 -78.5 -33t-35.5 -88v-285h-79v467h73l6 -71q56 78 148 78q48 0 83.5 -36.5t35.5 -122.5v-315z" />
    <glyph glyph-name="o" unicode="o" horiz-adv-x="458" 
d="M425 232q0 -118 -56 -182t-141 -64t-137 63.5t-52 182.5q0 61 13.5 107t33.5 71.5t47.5 41t50.5 20.5t48 5q26 0 49.5 -5t50.5 -21t47 -41.5t33 -71.5t13 -106zM343 232q0 50 -8 86.5t-19 55.5t-27.5 30t-28.5 13.5t-28 2.5t-28.5 -2.5t-29 -13.5t-27.5 -30t-18.5 -55.5
t-7.5 -86.5q0 -93 30 -141t81 -48q53 0 82 47.5t29 141.5z" />
    <glyph glyph-name="p" unicode="p" horiz-adv-x="463" 
d="M430 250q0 -132 -58.5 -195.5t-137.5 -63.5q-60 0 -100 21v-227h-79v683h72l7 -46q5 6 15 15t44 24.5t72 15.5q85 0 125 -61t40 -166zM348 250q0 42 -7.5 75.5t-32.5 61t-65 27.5q-24 0 -43.5 -7t-31 -17t-20 -19.5t-11.5 -16.5l-3 -7v-268q35 -33 92 -33q60 0 91 46.5
t31 157.5z" />
    <glyph glyph-name="q" unicode="q" horiz-adv-x="473" 
d="M425 -207h-78v253q-51 -55 -130 -55q-85 0 -125.5 65t-40.5 169q0 132 53.5 193.5t132.5 61.5q74 0 114 -35l15 31h59v-683zM346 112v275q-3 4 -8.5 10.5t-29 17t-53.5 10.5q-64 0 -93 -49.5t-29 -150.5q0 -72 24.5 -123t82.5 -51q32 0 58.5 15.5t37.5 30.5z" />
    <glyph glyph-name="r" unicode="r" horiz-adv-x="322" 
d="M301 389q-26 14 -69 14q-34 0 -66 -21.5t-32 -63.5v-318h-79v463h79v-61q5 8 15 19.5t41.5 31t64.5 19.5q15 0 26.5 -2t15.5 -4l4 -2v-75z" />
    <glyph glyph-name="s" unicode="s" horiz-adv-x="353" 
d="M331 135q0 -71 -48.5 -106.5t-125.5 -35.5q-55 0 -113 18v70q48 -27 105 -27q104 0 104 75q0 16 -6.5 28t-20 21t-26 15.5t-33.5 16t-35 16.5q-58 32 -75 50q-27 31 -27 83q0 50 36 84t120 34q55 0 113 -18v-70q-48 27 -105 27q-92 0 -92 -57q0 -14 4.5 -24t16.5 -18.5
t21.5 -14t30.5 -15.5t33 -16q2 -1 21.5 -11t25.5 -13.5t22 -13.5t22 -18t15.5 -20.5t13 -27.5t3.5 -32z" />
    <glyph glyph-name="t" unicode="t" horiz-adv-x="290" 
d="M266 2q-23 -7 -56 -7q-36 0 -61.5 13t-38 29.5t-19 43.5t-7 41.5t-0.5 37.5v6v243h-60v40q21 7 35.5 18.5t22.5 30t11.5 32t7.5 39.5l7 42l55 4v-151h103v-55h-103v-251q0 -63 15 -86.5t53 -23.5q8 0 35 3v-49z" />
    <glyph glyph-name="u" unicode="u" horiz-adv-x="454" 
d="M400 0h-70l-9 73q-60 -82 -147 -82q-21 0 -39 5.5t-37.5 20t-31 45.5t-11.5 76v330h79v-309q0 -55 19.5 -77.5t59.5 -22.5q39 0 74 39t35 82v288l78 -1v-467z" />
    <glyph glyph-name="v" unicode="v" horiz-adv-x="382" 
d="M373 468l-152 -468h-75l-137 468h89l96 -375l104 375h75z" />
    <glyph glyph-name="w" unicode="w" horiz-adv-x="585" 
d="M575 468l-121 -468h-82l-81 306l-90 -306h-85l-106 468h86l74 -372l109 372h51l95 -372l74 372h76z" />
    <glyph glyph-name="x" unicode="x" horiz-adv-x="386" 
d="M373 0h-96l-92 178l-88 -178h-87l140 230l-138 238h95l85 -167l81 167h84l-128 -223z" />
    <glyph glyph-name="y" unicode="y" horiz-adv-x="398" 
d="M392 468l-147 -494q-29 -96 -54 -137.5t-71 -41.5q-26 0 -39 5v71q18 -3 34 -3q25 0 41.5 17t16.5 48q0 28 -10 58l-149 477h90l111 -408l98 408h79z" />
    <glyph glyph-name="z" unicode="z" horiz-adv-x="361" 
d="M336 427l-219 -366h212v-61h-305v41l219 366h-201v61h294v-41z" />
    <glyph glyph-name="braceleft" unicode="{" horiz-adv-x="434" 
d="M393 711h-20q-66 0 -100 -29t-34 -113v-88q0 -36 -10 -66q-41 -116 -130 -125v-9q88 -9 130 -128q10 -30 10 -66v-88q0 -84 34 -113t100 -29h9v-49h-28q-89 0 -138 47t-49 136v74q0 39 -5 69.5t-19 59.5t-42.5 45t-70.5 16h-1v58h1q137 0 137 190v74q0 86 63 134.5
t156 48.5h7v-49z" />
    <glyph glyph-name="bar" unicode="|" horiz-adv-x="229" 
d="M143 -171h-62v861h62v-861z" />
    <glyph glyph-name="braceright" unicode="}" horiz-adv-x="434" 
d="M57 711h-20v49h7q93 0 156 -48.5t63 -134.5v-74q0 -190 137 -190h1v-58h-1q-42 0 -70.5 -16t-42.5 -45t-19 -59.5t-5 -69.5v-74q0 -89 -49 -136t-138 -47h-28v49h9q66 0 100 29t34 113v88q0 36 10 66q42 119 130 128v9q-89 9 -130 125q-10 30 -10 66v88q0 84 -34 113
t-100 29z" />
    <glyph glyph-name="asciitilde" unicode="~" horiz-adv-x="619" 
d="M578 381q-2 -83 -35.5 -134.5t-101.5 -51.5q-19 0 -34 3t-32 14t-23.5 16t-28 24.5t-26.5 23.5q-23 20 -34.5 29t-30.5 18.5t-37 9.5q-42 0 -64 -36.5t-24 -98.5h-52q2 83 35.5 134.5t101.5 51.5q16 0 30.5 -3.5t24 -7t24 -14t20 -15t23 -20.5t22.5 -21q67 -57 103 -57
q41 0 63 36.5t24 98.5h52z" />
    <glyph glyph-name="nbspace" unicode="&#xa0;" horiz-adv-x="233" 
 />
    <glyph glyph-name="currency" unicode="&#xa4;" horiz-adv-x="603" 
d="M536 522l-74 -70q44 -65 44 -129q0 -65 -44 -128l73 -69l-41 -41l-70 72q-64 -45 -129 -45t-128 45l-71 -73l-38 42l71 69q-43 60 -43 128q0 67 43 130l-71 70l38 41l71 -74q60 42 128 42q67 0 129 -42l70 72zM448 323q0 65 -45 110t-108 45t-107 -45t-44 -110t44 -111
t107 -46t108 46t45 111z" />
    <glyph glyph-name="brokenbar" unicode="&#xa6;" horiz-adv-x="231" 
d="M147 337h-62v339h62v-339zM147 -155h-62v339h62v-339z" />
    <glyph glyph-name="section" unicode="&#xa7;" horiz-adv-x="491" 
d="M442 305q0 -41 -22.5 -76t-76.5 -71q34 -22 50 -45t16 -62q0 -73 -57 -112t-149 -39q-64 0 -118 25l-1 78q4 -5 13.5 -12.5t43 -20t73.5 -12.5q30 0 55.5 5.5t47.5 26t22 53.5q0 48 -75 76l-72 28q-74 29 -107.5 64.5t-33.5 83.5q0 44 23 76.5t75 69.5q-34 22 -50 45
t-16 62q0 73 57 112t149 39q64 0 118 -25l1 -78q-4 5 -13.5 12.5t-43 20t-73.5 12.5q-30 0 -55.5 -5.5t-47.5 -26t-22 -53.5q0 -50 75 -76l72 -24q80 -27 110.5 -63.5t31.5 -87.5zM371 284q0 44 -25 66.5t-78 42.5l-74 27q-73 -36 -73 -105q0 -19 7 -35t16 -26t23.5 -19
t24 -13t22.5 -9t14 -5l70 -29q73 37 73 105z" />
    <glyph glyph-name="copyright" unicode="&#xa9;" horiz-adv-x="803" 
d="M783 366q0 -104 -50 -196t-138 -148t-193 -56q-162 0 -271 113.5t-109 286.5q0 170 109.5 284.5t270.5 114.5q162 0 271.5 -114.5t109.5 -284.5zM743 366q0 151 -98.5 255t-242.5 104t-242 -104t-98 -255q0 -150 98 -255t242 -105t242.5 105.5t98.5 254.5zM538 538
q-59 28 -107 28q-162 0 -162 -203q0 -207 158 -207q48 0 107 28v-50q-50 -25 -112 -25q-230 0 -230 249q0 63 18 111t43.5 74.5t59.5 43t61 21.5t52 5q63 0 112 -20v-55z" />
    <glyph glyph-name="guillemotleft" unicode="&#xab;" horiz-adv-x="467" 
d="M278 88l-26 -37l-212 211l212 211l26 -37l-145 -174zM294 262l133 165l-26 29l-187 -194l187 -194l26 29z" />
    <glyph glyph-name="logicalnot" unicode="&#xac;" horiz-adv-x="498" 
d="M460 125h-48v92h-372v47h420v-139z" />
    <glyph glyph-name="uni00AD" unicode="&#xad;" horiz-adv-x="297" 
d="M255 225h-205v53h205v-53z" />
    <glyph glyph-name="registered" unicode="&#xae;" horiz-adv-x="799" 
d="M783 366q0 -104 -50 -196t-138 -148t-193 -56q-162 0 -271 113.5t-109 286.5q0 170 109.5 284.5t270.5 114.5q162 0 271.5 -114.5t109.5 -284.5zM743 366q0 151 -98.5 255t-242.5 104t-242 -104t-98 -255q0 -150 98 -255t242 -105t242.5 105.5t98.5 254.5zM577 120h-80
l-125 213h-50v-213h-70v482q70 10 144 10q181 0 181 -131q0 -19 -6 -38.5t-19.5 -41t-41 -38.5t-66.5 -24zM505 481q0 86 -112 86l-71 -4v-191h50q133 0 133 109z" />
    <glyph glyph-name="degree" unicode="&#xb0;" horiz-adv-x="327" 
d="M295 588q0 -53 -37.5 -90.5t-90.5 -37.5t-90.5 37.5t-37.5 90.5t37.5 90.5t90.5 37.5t90.5 -37.5t37.5 -90.5zM244 588q0 32 -23 54.5t-54 22.5t-54 -22.5t-23 -54.5q0 -30 23 -53.5t54 -23.5t54 22.5t23 54.5z" />
    <glyph glyph-name="plusminus" unicode="&#xb1;" horiz-adv-x="599" 
d="M546 286h-219v-148h-50v148h-219v48h219v149h50v-149h219v-48zM546 68h-488v48h488v-48z" />
    <glyph glyph-name="acute" unicode="&#xb4;" horiz-adv-x="306" 
d="M290 672l-99 -156l-34 7l57 177z" />
    <glyph glyph-name="mu" unicode="&#xb5;" horiz-adv-x="491" 
d="M426 0h-78v70q-18 -36 -49 -57.5t-64 -21.5q-65 0 -101 54v-224h-79v642h79v-260q0 -47 26.5 -96t74.5 -49q35 0 62 27t39 60t12 61v257h78v-463z" />
    <glyph glyph-name="paragraph" unicode="&#xb6;" horiz-adv-x="400" 
d="M351 -142h-52v808h52v-808zM206 -142h-52v567q-64 0 -94.5 34t-30.5 88q0 59 35.5 89t87.5 30h54v-808z" />
    <glyph glyph-name="periodcentered" unicode="&#xb7;" horiz-adv-x="277" 
d="M195 329q0 -23 -16.5 -39t-38.5 -16t-38.5 16t-16.5 39t16.5 39t38.5 16t38.5 -16t16.5 -39z" />
    <glyph glyph-name="guillemotright" unicode="&#xbb;" horiz-adv-x="467" 
d="M212 51l-26 37l145 174l-145 174l26 37l212 -211zM170 262l-133 165l26 29l187 -194l-187 -194l-26 29z" />
    <glyph glyph-name="divide" unicode="&#xf7;" horiz-adv-x="549" 
d="M274 222q18 0 30.5 -12.5t12.5 -30.5q0 -17 -12.5 -30t-30.5 -13q-17 0 -30 13t-13 30q0 18 12.5 30.5t30.5 12.5zM538 353v-41h-527v41h527zM274 525q18 0 30.5 -12.5t12.5 -30.5q0 -17 -12.5 -29.5t-30.5 -12.5t-30.5 12.5t-12.5 29.5q0 18 12.5 30.5t30.5 12.5z" />
    <glyph glyph-name="dotlessi" unicode="&#x131;" horiz-adv-x="193" 
d="M59 463h79v-463h-79v463z" />
    <glyph glyph-name="circumflex" unicode="&#x2c6;" horiz-adv-x="467" 
d="M452 505h-77l-131 160l-131 -160h-77l181 222h54z" />
    <glyph glyph-name="tilde" unicode="&#x2dc;" horiz-adv-x="475" 
d="M461 558q-57 -93 -129 -93q-12 0 -25 3t-20.5 6t-24.5 10.5t-24 10.5q-63 26 -85 26q-55 0 -86 -43l-22 24q50 82 129 82q12 0 25 -3t20 -5.5t24.5 -10l24.5 -10.5q5 -2 17 -7.5t17.5 -8t15 -5.5t18 -4.5t17.5 -1.5q44 0 86 54z" />
    <glyph glyph-name="uni037E" unicode="&#x37e;" horiz-adv-x="190" 
d="M143 421q0 -21 -12 -35t-35 -14t-35 14t-12 35t12 35t35 14t35 -14t12 -35zM143 37q0 -35 -18.5 -77t-52.5 -70l-19 14q34 52 34 91q-42 7 -42 52q0 21 12.5 35t33.5 14t36.5 -14t15.5 -45z" />
    <glyph glyph-name="uni0394" unicode="&#x394;" horiz-adv-x="612" 
d="M74 40h409l-194 472zM319 677l280 -677h-586z" />
    <glyph glyph-name="uni03BC" unicode="&#x3bc;" horiz-adv-x="491" 
d="M426 0h-78v70q-18 -36 -49 -57.5t-64 -21.5q-65 0 -101 54v-224h-79v642h79v-260q0 -47 26.5 -96t74.5 -49q35 0 62 27t39 60t12 61v257h78v-463z" />
    <glyph glyph-name="afii10023" unicode="&#x401;" horiz-adv-x="416" 
d="M335 779q0 -17 -12 -29t-29 -12t-29.5 11.5t-12.5 29.5q0 17 12.5 28.5t29.5 11.5t29 -12t12 -28zM192 779q0 -18 -12.5 -29.5t-29.5 -11.5t-29 12t-12 29q0 16 12 28t29 12t29.5 -11.5t12.5 -28.5zM390 0h-320v683h313v-61h-231v-230h188v-57h-188v-274h238v-61z" />
    <glyph glyph-name="afii10051" unicode="&#x402;" horiz-adv-x="613" 
d="M576 199q0 -37 -12.5 -72t-38 -66.5t-72 -50.5t-108.5 -19q-26 0 -59 9v62q40 -9 63 -9q136 0 136 146q0 65 -36.5 101t-109.5 36q-21 0 -44.5 -3t-36.5 -6l-14 -3v-324h-82v622h-134v61h440v-61h-224v-237q57 12 114 12t99 -15.5t64 -37.5t35.5 -51.5t16.5 -51t3 -42.5z
" />
    <glyph glyph-name="afii10052" unicode="&#x403;" horiz-adv-x="391" 
d="M383 622h-231v-622h-82v683h313v-61zM343 886l-104 -164l-36 7l60 186z" />
    <glyph glyph-name="afii10053" unicode="&#x404;" horiz-adv-x="449" 
d="M429 11q-47 -25 -137 -25q-123 0 -189 83.5t-66 271.5q0 91 21 158.5t51 103t72 56.5t73.5 26t66.5 5q34 0 100 -11v-70q-53 17 -100 17q-188 0 -198 -254h222v-57h-223q8 -264 176 -264q76 0 131 31v-71z" />
    <glyph glyph-name="afii10054" unicode="&#x405;" horiz-adv-x="447" 
d="M416 183q0 -95 -63 -146t-160 -51q-98 0 -154 36v75q23 -17 66.5 -34t83.5 -17q148 0 148 122q0 27 -7 45.5t-24.5 34t-34 25.5t-50 28.5t-58.5 34.5q-29 19 -40 26t-32.5 26t-30 34.5t-16.5 41.5t-8 57q0 72 50.5 120.5t159.5 48.5q62 0 134 -22v-72q-60 34 -129 34
q-136 0 -136 -109q0 -16 3 -29.5t12 -25.5t15.5 -19.5t22.5 -18.5t24 -16t29.5 -17t29.5 -16q3 -2 23 -13t27.5 -15.5t26.5 -17t28 -21.5t22.5 -24.5t20 -30t12 -34t5.5 -40.5z" />
    <glyph glyph-name="afii10055" unicode="&#x406;" horiz-adv-x="206" 
d="M152 0h-82v683h82v-683z" />
    <glyph glyph-name="afii10056" unicode="&#x407;" horiz-adv-x="276" 
d="M182 0h-82v683h82v-683zM245 779q0 -17 -12 -29t-29 -12t-29.5 11.5t-12.5 29.5q0 17 12.5 28.5t29.5 11.5t29 -12t12 -28zM132 779q0 -18 -12.5 -29.5t-29.5 -11.5t-29 12t-12 29q0 16 12 28t29 12t29.5 -11.5t12.5 -28.5z" />
    <glyph glyph-name="afii10057" unicode="&#x408;" horiz-adv-x="213" 
d="M152 14v-8q0 -20 -0.5 -33.5t-3.5 -39t-11.5 -43.5t-21.5 -36.5t-37 -28.5t-55 -10q-26 0 -41 5v64q4 0 12.5 -0.5t12.5 -0.5q63 0 63 93v707h82v-669z" />
    <glyph glyph-name="afii10058" unicode="&#x409;" horiz-adv-x="819" 
d="M796 199q0 -23 -6 -48t-23 -54.5t-43.5 -52t-73 -38t-105.5 -15.5q-78 0 -157 15v616h-191l-20 -422q-10 -208 -126 -208q-27 0 -42 5v71q3 0 11 -0.5t12 -0.5q35 0 54 33t23 133l19 450h342v-294q57 12 114 12q56 0 98 -16t63 -38t33.5 -53t15 -52t2.5 -43zM711 199
q0 141 -146 141q-21 0 -44.5 -3t-36.5 -6l-14 -3v-268q32 -7 92 -7t104.5 37t44.5 109z" />
    <glyph glyph-name="afii10059" unicode="&#x40a;" horiz-adv-x="832" 
d="M808 199q0 -23 -6 -48t-23 -54.5t-43.5 -52t-73 -38t-105.5 -15.5q-78 0 -157 15v319h-263v-325h-82v683h82v-301h263v301h82v-294q57 12 114 12q56 0 98 -16t63 -38t33.5 -53t15 -52t2.5 -43zM723 199q0 141 -146 141q-21 0 -44.5 -3t-36.5 -6l-14 -3v-268q32 -7 92 -7
t104.5 37t44.5 109z" />
    <glyph glyph-name="afii10060" unicode="&#x40b;" horiz-adv-x="616" 
d="M568 0h-82v208q0 145 -133 145q-32 0 -59.5 -5.5t-38.5 -11.5l-11 -5v-331h-82v622h-134v61h440v-61h-224v-231q71 22 128 22q53 0 90.5 -15t57.5 -36t31.5 -54.5t14 -60.5t2.5 -65v-182z" />
    <glyph glyph-name="afii10061" unicode="&#x40c;" horiz-adv-x="514" 
d="M492 0h-91l-78 225q-36 105 -114 105h-57v-330h-82v683h82v-298h61q65 0 99 100l30 88q10 28 15.5 42t17.5 33t29 27t41 8h37v-68h-15q-16 0 -28 -8t-22.5 -29.5t-16.5 -37.5t-17 -53q-29 -92 -76 -122v-6q19 -8 30.5 -15t31 -35.5t37.5 -76.5zM373 886l-104 -164l-36 7
l60 186z" />
    <glyph glyph-name="afii10062" unicode="&#x40e;" horiz-adv-x="480" 
d="M468 683l-172 -545q-22 -71 -55 -108t-89 -37q-25 0 -38 5v73q12 -4 23 -4q19 0 31 2t30 19t27 50l-200 545h93l152 -451l118 451h80zM380 821q-4 -50 -41 -75t-82 -25q-46 0 -82.5 23.5t-40.5 76.5h56q4 -21 23 -35t44 -14q26 0 44.5 13.5t22.5 35.5h56z" />
    <glyph glyph-name="afii10145" unicode="&#x40f;" horiz-adv-x="534" 
d="M481 0h-181v-129h-64v129h-181v683h82v-622h262v622h82v-683z" />
    <glyph glyph-name="afii10017" unicode="&#x410;" horiz-adv-x="515" 
d="M505 0h-91l-58 229h-201l-66 -229h-77l221 683h79zM343 280l-82 307l-90 -307h172z" />
    <glyph glyph-name="afii10018" unicode="&#x411;" horiz-adv-x="487" 
d="M463 199q0 -23 -6 -48t-23 -54.5t-43.5 -52t-73 -38t-105.5 -15.5q-78 0 -157 15v677h341v-61h-259v-236q50 15 114 15q55 0 96.5 -15.5t63 -37t34 -52t15.5 -52t3 -45.5zM378 199q0 69 -38 106t-108 37q-25 0 -48.5 -3.5t-35.5 -6.5l-11 -4v-270q32 -7 92 -7t104.5 38
t44.5 110z" />
    <glyph glyph-name="afii10019" unicode="&#x412;" horiz-adv-x="517" 
d="M70 675q64 13 169 13q55 0 97 -11t66 -27t39 -39t20 -43t5 -42q0 -119 -122 -166v-6q138 -33 138 -161q0 -23 -5 -47t-21.5 -53t-42.5 -50.5t-73.5 -36.5t-109.5 -15q-81 0 -160 15v669zM381 509q0 59 -34.5 89.5t-116.5 30.5q-22 0 -41.5 -2t-28.5 -4l-8 -2v-243h69
q79 0 119.5 36.5t40.5 94.5zM394 193q0 132 -173 132h-69v-265q34 -9 94 -9q68 0 108 36.5t40 105.5z" />
    <glyph glyph-name="afii10020" unicode="&#x413;" horiz-adv-x="391" 
d="M383 622h-231v-622h-82v683h313v-61z" />
    <glyph glyph-name="afii10021" unicode="&#x414;" horiz-adv-x="575" 
d="M545 61l-8 -187h-63v126h-378v-126h-66l-7 187h24q40 24 69 125.5t36 278.5l9 218h335v-622h49zM416 61v561h-187l-10 -190q-13 -239 -82 -371h279z" />
    <glyph glyph-name="afii10022" unicode="&#x415;" horiz-adv-x="416" 
d="M390 0h-320v683h313v-61h-231v-230h188v-57h-188v-274h238v-61z" />
    <glyph glyph-name="afii10024" unicode="&#x416;" horiz-adv-x="748" 
d="M731 0h-91l-78 225q-36 105 -114 105h-26v-330h-81v330h-26q-78 0 -114 -105l-78 -225h-91l86 232q18 48 37.5 76.5t31 35.5t30.5 15v6q-47 30 -76 122q-11 37 -17 53t-16.5 37.5t-22.5 29.5t-28 8h-15v68h37q24 0 41 -8t29 -27t17.5 -33t15.5 -42l30 -88
q18 -52 41.5 -76t57.5 -24h30v298h81v-298h30q34 0 57.5 24t41.5 76l30 88q10 28 15.5 42t17.5 33t29 27t41 8h37v-68h-15q-16 0 -28 -8t-22.5 -29.5t-16.5 -37.5t-17 -53q-29 -92 -76 -122v-6q19 -8 30.5 -15t31 -35.5t37.5 -76.5z" />
    <glyph glyph-name="afii10025" unicode="&#x417;" horiz-adv-x="420" 
d="M388 185q0 -21 -4.5 -43t-20 -51.5t-40.5 -51.5t-70.5 -37.5t-105.5 -15.5q-53 0 -120 21v70q59 -28 126 -28q68 0 108 36.5t40 105.5q0 140 -163 140h-55v53h64q65 0 103 32.5t38 91.5q0 120 -128 120q-62 0 -121 -25v68q14 6 52 12.5t76 6.5q116 0 161.5 -46t45.5 -123
q0 -54 -34.5 -99.5t-76.5 -58.5v-5q125 -39 125 -173z" />
    <glyph glyph-name="afii10026" unicode="&#x418;" horiz-adv-x="566" 
d="M510 0h-82v543l-273 -543h-85v683h82v-550l274 550h84v-683z" />
    <glyph glyph-name="afii10027" unicode="&#x419;" horiz-adv-x="556" 
d="M406 822q-4 -52 -43 -78.5t-86 -26.5q-49 0 -87 24.5t-42 80.5h59q4 -21 23.5 -36t46.5 -15t46.5 14t23.5 37h59zM510 0h-82v543l-273 -543h-85v683h82v-550l274 550h84v-683z" />
    <glyph glyph-name="afii10028" unicode="&#x41a;" horiz-adv-x="514" 
d="M492 0h-91l-78 225q-36 105 -114 105h-57v-330h-82v683h82v-298h61q65 0 99 100l30 88q10 28 15.5 42t17.5 33t29 27t41 8h37v-68h-15q-16 0 -28 -8t-22.5 -29.5t-16.5 -37.5t-17 -53q-29 -92 -76 -122v-6q19 -8 30.5 -15t31 -35.5t37.5 -76.5z" />
    <glyph glyph-name="afii10029" unicode="&#x41b;" horiz-adv-x="526" 
d="M470 0h-82v622h-191l-20 -422q-10 -208 -126 -208q-27 0 -42 5v71q3 0 11 -0.5t12 -0.5q35 0 54 33t23 133l19 450h342v-683z" />
    <glyph glyph-name="afii10030" unicode="&#x41c;" horiz-adv-x="711" 
d="M653 0h-82v491l2 74l-4 1q-7 -34 -20 -72l-165 -494h-61l-166 494q-13 38 -20 72l-4 -1q2 -37 2 -74v-491h-65v683h107l187 -557l183 557h106v-683z" />
    <glyph glyph-name="afii10031" unicode="&#x41d;" horiz-adv-x="551" 
d="M497 0h-82v325h-263v-325h-82v683h82v-301h263v301h82v-683z" />
    <glyph glyph-name="afii10032" unicode="&#x41e;" horiz-adv-x="603" 
d="M566 341q0 -170 -70 -262.5t-187 -92.5q-116 0 -186.5 93t-70.5 262q0 86 17 151t43 102t62 59.5t68 29.5t67 7t67 -7t68 -29.5t62 -59.5t43 -102t17 -151zM481 341q0 78 -11.5 134t-28 85.5t-41.5 46t-45 20.5t-46 4t-46 -4t-45 -20.5t-41.5 -46t-28 -85.5t-11.5 -134
q0 -147 44.5 -221t127.5 -74q80 0 126 74.5t46 220.5z" />
    <glyph glyph-name="afii10033" unicode="&#x41f;" horiz-adv-x="546" 
d="M492 0h-82v622h-258v-622h-82v683h422v-683z" />
    <glyph glyph-name="afii10034" unicode="&#x420;" horiz-adv-x="492" 
d="M468 504q0 -35 -10 -67.5t-33.5 -65t-71 -52.5t-112.5 -20q-19 0 -41.5 2.5t-35.5 4.5l-12 2v-308h-82v675q65 13 169 13q65 0 112 -16.5t71 -45t35 -58.5t11 -64zM383 502q0 127 -153 127q-18 0 -37.5 -2t-30.5 -4l-10 -2v-254q49 -10 84 -10q79 0 113 40.5t34 104.5z
" />
    <glyph glyph-name="afii10035" unicode="&#x421;" horiz-adv-x="469" 
d="M444 11q-47 -25 -137 -25q-123 0 -189 83.5t-66 271.5q0 91 21 158.5t51 103t72 56.5t73.5 26t66.5 5q34 0 100 -11v-70q-53 17 -100 17q-199 0 -199 -285q0 -290 176 -290q76 0 131 31v-71z" />
    <glyph glyph-name="afii10036" unicode="&#x422;" horiz-adv-x="427" 
d="M410 622h-154v-622h-82v622h-154v61h390v-61z" />
    <glyph glyph-name="afii10037" unicode="&#x423;" horiz-adv-x="480" 
d="M468 683l-172 -545q-22 -71 -55 -108t-89 -37q-25 0 -38 5v73q12 -4 23 -4q19 0 31 2t30 19t27 50l-200 545h93l152 -451l118 451h80z" />
    <glyph glyph-name="afii10038" unicode="&#x424;" horiz-adv-x="716" 
d="M674 350q0 -121 -56 -204.5t-151 -83.5q-18 0 -33.5 2t-22.5 4l-7 1v-79h-79v79q-23 -7 -63 -7q-97 0 -152 79.5t-55 208.5q0 55 10 101.5t33 87.5t66.5 64.5t103.5 23.5q16 0 30 -1.5t20 -3.5l7 -2v89h79v-89q22 7 57 7q213 0 213 -277zM590 350q0 107 -30.5 164.5
t-104.5 57.5q-13 0 -26 -1.5t-19 -2.5l-6 -2v-441q25 -10 53 -10q69 0 101 63.5t32 171.5zM325 125v441q-21 6 -51 6q-73 0 -104 -57.5t-31 -164.5q0 -108 32 -171.5t101 -63.5q12 0 25.5 2.5t20.5 4.5z" />
    <glyph glyph-name="afii10039" unicode="&#x425;" horiz-adv-x="470" 
d="M469 0h-99l-134 286l-127 -286h-83l181 339l-175 344h96l125 -268l124 268h80l-176 -318z" />
    <glyph glyph-name="afii10040" unicode="&#x426;" horiz-adv-x="581" 
d="M554 61l-8 -187h-63v126h-413v683h82v-622h262v622h82v-622h58z" />
    <glyph glyph-name="afii10041" unicode="&#x427;" horiz-adv-x="514" 
d="M458 0h-82v332q-8 -6 -21.5 -14t-55.5 -22t-82 -14q-172 0 -169 178v5v218h82v-198q0 -33 2.5 -53t12.5 -43t33.5 -34t60.5 -11q34 0 68 12t51 24l18 13v290h82v-683z" />
    <glyph glyph-name="afii10042" unicode="&#x428;" horiz-adv-x="804" 
d="M750 0h-680v683h82v-622h217v622h82v-622h217v622h82v-683z" />
    <glyph glyph-name="afii10043" unicode="&#x429;" horiz-adv-x="837" 
d="M808 61l-8 -187h-63v126h-667v683h82v-622h217v622h82v-622h217v622h82v-622h58z" />
    <glyph glyph-name="afii10044" unicode="&#x42a;" horiz-adv-x="607" 
d="M585 199q0 -23 -6 -48t-23 -54.5t-43.5 -52t-73 -38t-105.5 -15.5q-78 0 -157 15v616h-151v61h233v-297q50 15 114 15q55 0 96.5 -15.5t63 -37t34 -52t15.5 -52t3 -45.5zM500 199q0 69 -38 106t-108 37q-25 0 -48.5 -3.5t-35.5 -6.5l-11 -4v-270q32 -7 92 -7t104.5 38
t44.5 110z" />
    <glyph glyph-name="afii10045" unicode="&#x42b;" horiz-adv-x="688" 
d="M478 199q0 -23 -6 -48t-23 -54.5t-43.5 -52t-73 -38t-105.5 -15.5q-78 0 -157 15v677h82v-297q50 15 114 15q55 0 96.5 -15.5t63 -37t34 -52t15.5 -52t3 -45.5zM393 199q0 69 -38 106t-108 37q-25 0 -48.5 -3.5t-34.5 -6.5l-12 -4v-270q32 -7 92 -7t104.5 38t44.5 110z
M632 0h-82v683h82v-683z" />
    <glyph glyph-name="afii10046" unicode="&#x42c;" horiz-adv-x="499" 
d="M478 199q0 -23 -6 -48t-23 -54.5t-43.5 -52t-73 -38t-105.5 -15.5q-78 0 -157 15v677h82v-297q50 15 114 15q55 0 96.5 -15.5t63 -37t34 -52t15.5 -52t3 -45.5zM393 199q0 69 -38 106t-108 37q-25 0 -48.5 -3.5t-34.5 -6.5l-12 -4v-270q32 -7 92 -7t104.5 38t44.5 110z
" />
    <glyph glyph-name="afii10047" unicode="&#x42d;" horiz-adv-x="477" 
d="M437 351q0 -179 -74.5 -272t-190.5 -93q-71 0 -116 24v66q50 -25 110 -25q82 0 132.5 62.5t53.5 201.5h-233v59h233q0 66 -14.5 115.5t-34.5 75t-47.5 41t-47.5 19t-42 3.5q-54 0 -103 -21v65q46 18 103 18q23 0 42.5 -2t49 -9.5t52.5 -20.5t47.5 -39t41 -60.5t27.5 -88
t11 -119.5z" />
    <glyph glyph-name="afii10048" unicode="&#x42e;" horiz-adv-x="816" 
d="M779 341q0 -170 -70 -262.5t-187 -92.5q-112 0 -181 86t-76 254h-113v-326h-82v683h82v-304h114q7 89 34.5 153.5t66.5 97t77.5 46.5t77.5 14q35 0 67 -7t68 -29.5t62 -59.5t43 -102t17 -151zM694 341q0 75 -11 130t-27 85t-40.5 47.5t-45.5 22.5t-48 5q-25 0 -46.5 -6
t-45.5 -25t-41 -50t-28 -84.5t-11 -124.5q0 -145 44.5 -220t127.5 -75q80 0 126 74.5t46 220.5z" />
    <glyph glyph-name="afii10049" unicode="&#x42f;" horiz-adv-x="502" 
d="M444 0h-82v304h-43q-40 0 -70.5 -33.5t-66.5 -121.5l-60 -149h-91l57 127q4 8 14 31.5t13.5 30.5t12 25t13 25t13 20.5t16 20.5t18 16t21.5 17v8q-60 8 -96.5 37.5t-48.5 62.5t-12 74q0 78 52.5 135.5t163.5 57.5q104 0 176 -13v-675zM362 356v265q-36 8 -84 8
q-141 0 -141 -138q0 -57 35 -96t116 -39h74z" />
    <glyph glyph-name="afii10065" unicode="&#x430;" horiz-adv-x="441" 
d="M421 2q-27 -6 -66 -6q-22 0 -36 17t-17 34l-3 17q-58 -77 -138 -77q-53 0 -91.5 31t-38.5 97q0 90 52 127.5t151 37.5h63v44q0 33 -8 53.5t-26 28.5t-31.5 10t-38.5 2q-60 0 -129 -20v60q77 22 175 22q23 0 42 -4.5t32.5 -9.5t24 -18t17 -20.5t11 -27t6.5 -27t3 -31.5
t1 -30v-32v-177q0 -29 9.5 -44t35.5 -14v-43zM297 132v96h-67q-55 0 -86.5 -20t-31.5 -76q0 -79 67 -79q33 0 62.5 19.5t42.5 39.5z" />
    <glyph glyph-name="afii10066" unicode="&#x431;" horiz-adv-x="451" 
d="M417 234q0 -118 -54 -183t-139 -65q-86 0 -135.5 65.5t-49.5 188.5v19v56.5t3.5 59.5t9.5 65.5t18.5 62.5t30.5 62t46 53.5t64 46.5q19 10 76 39t77 42l6 -81q-38 -25 -155 -83q-59 -29 -87 -77.5t-29 -90.5h7q50 66 132 66q179 0 179 -246zM338 234q0 62 -10 102.5
t-28 58t-34 23t-38 5.5q-17 0 -30 -3t-29 -14.5t-26.5 -31t-17.5 -56.5t-7 -88q0 -92 29.5 -139.5t81.5 -47.5t80.5 48.5t28.5 142.5z" />
    <glyph glyph-name="afii10067" unicode="&#x432;" horiz-adv-x="418" 
d="M55 465q88 11 135 11q36 0 61 -3t58.5 -13.5t51.5 -37t18 -67.5t-24.5 -68t-54.5 -38v-6q91 -26 91 -109q0 -143 -202 -143q-58 0 -134 18v456zM300 350q0 71 -103 71l-63 -5v-150h63q103 0 103 84zM308 134q0 83 -108 83h-66v-163q34 -8 66 -8q59 0 83.5 26.5t24.5 61.5
z" />
    <glyph glyph-name="afii10068" unicode="&#x433;" horiz-adv-x="306" 
d="M290 407h-156v-407h-79v468h235v-61z" />
    <glyph glyph-name="afii10069" unicode="&#x434;" 
d="M442 61l-8 -171h-59v110h-295v-110h-60l-9 171h30q27 16 46.5 67t22.5 139l6 201h284v-407h42zM321 61v346h-139l-9 -180q-6 -120 -43 -166h191z" />
    <glyph glyph-name="afii10070" unicode="&#x435;" horiz-adv-x="429" 
d="M396 312q0 -55 -3 -73h-270q0 -104 37.5 -145.5t111.5 -41.5q48 0 103 30v-60q-1 0 -12.5 -5.5t-20.5 -8.5t-25 -7.5t-36.5 -7t-43.5 -2.5q-89 0 -142.5 61t-53.5 180q0 74 19.5 126t51.5 76t62 33.5t63 9.5q66 0 112.5 -40t46.5 -125zM323 290v22q0 46 -21.5 77.5
t-70.5 31.5q-18 0 -32.5 -4t-31.5 -16.5t-28.5 -40.5t-15.5 -70h200z" />
    <glyph glyph-name="afii10072" unicode="&#x436;" horiz-adv-x="622" 
d="M609 0h-86l-53 133q-17 44 -38 63.5t-52 19.5h-29v-216h-79v216h-29q-31 0 -52 -19.5t-38 -63.5l-53 -133h-86l66 160q31 74 73 87v6q-34 23 -51 75q-14 44 -27 59.5t-43 15.5h-6v67h32q36 0 54.5 -20.5t33.5 -58.5l20 -50q17 -42 36 -55.5t49 -13.5h21v196h79v-196h21
q30 0 49 13.5t36 55.5l20 50q15 38 33.5 58.5t54.5 20.5h32v-67h-6q-30 0 -43 -15.5t-27 -59.5q-17 -52 -51 -75v-6q42 -13 73 -87z" />
    <glyph glyph-name="afii10073" unicode="&#x437;" horiz-adv-x="366" 
d="M43 458q57 19 117 19q165 0 165 -116q0 -78 -82 -112v-5q90 -28 90 -112q0 -67 -54 -103t-119 -36q-73 0 -131 18v70q48 -27 105 -27q116 0 116 83q0 79 -117 79h-35v52h44q101 0 101 78q0 71 -90 71q-59 0 -110 -28v69z" />
    <glyph glyph-name="afii10074" unicode="&#x438;" horiz-adv-x="475" 
d="M420 0h-79v363l-202 -363h-84v468h79v-362l202 363h84v-469z" />
    <glyph glyph-name="afii10075" unicode="&#x439;" horiz-adv-x="475" 
d="M420 0h-79v363l-202 -363h-84v468h79v-362l202 363h84v-469zM362 637q0 -55 -39 -83t-84 -28q-46 0 -84.5 27t-38.5 84h56q0 -24 20.5 -41.5t46.5 -17.5q27 0 47 16t20 43h56z" />
    <glyph glyph-name="afii10076" unicode="&#x43a;" horiz-adv-x="421" 
d="M402 0h-86l-53 133q-17 44 -38 63.5t-52 19.5h-39v-216h-79v468h79v-196h31q30 0 49 13.5t36 55.5l20 50q15 38 33.5 58.5t54.5 20.5h32v-67h-6q-30 0 -43 -15.5t-27 -59.5q-17 -52 -51 -75v-6q42 -13 73 -87z" />
    <glyph glyph-name="afii10077" unicode="&#x43b;" horiz-adv-x="461" 
d="M406 0h-79v407h-146l-8 -234q-3 -91 -38.5 -135t-85.5 -44q-26 0 -32 2v64q7 -1 13 -1q39 0 58 35.5t21 132.5l6 241h291v-468z" />
    <glyph glyph-name="afii10078" unicode="&#x43c;" horiz-adv-x="589" 
d="M532 0h-77v373l-150 -373h-39l-147 373v-373h-64v468h105l137 -346l137 346h98v-468z" />
    <glyph glyph-name="afii10079" unicode="&#x43d;" horiz-adv-x="453" 
d="M403 0h-79v217h-190v-217h-79v468h79v-195h190v195h79v-468z" />
    <glyph glyph-name="afii10080" unicode="&#x43e;" horiz-adv-x="458" 
d="M427 232q0 -118 -56 -182t-141 -64t-137 63.5t-52 182.5q0 61 13.5 107t33.5 71.5t47.5 41t50.5 20.5t48 5q26 0 49.5 -5t50.5 -21t47 -41.5t33 -71.5t13 -106zM345 232q0 50 -8 86.5t-19 55.5t-27.5 30t-28.5 13.5t-28 2.5t-28.5 -2.5t-29 -13.5t-27.5 -30t-18.5 -55.5
t-7.5 -86.5q0 -93 30 -141t81 -48q53 0 82 47.5t29 141.5z" />
    <glyph glyph-name="afii10081" unicode="&#x43f;" horiz-adv-x="454" 
d="M398 0h-79v407h-185v-407h-79v468h343v-468z" />
    <glyph glyph-name="afii10082" unicode="&#x440;" horiz-adv-x="463" 
d="M430 250q0 -132 -58.5 -195.5t-137.5 -63.5q-60 0 -100 21v-227h-79v683h72l7 -46q5 6 15 15t44 24.5t72 15.5q85 0 125 -61t40 -166zM348 250q0 42 -7.5 75.5t-32.5 61t-65 27.5q-24 0 -43.5 -7t-31 -17t-20 -19.5t-11.5 -16.5l-3 -7v-268q35 -33 92 -33q60 0 91 46.5
t31 157.5z" />
    <glyph glyph-name="afii10083" unicode="&#x441;" horiz-adv-x="356" 
d="M331 13l-9 -4q-8 -4 -14.5 -6t-19 -5.5t-29 -5t-36.5 -1.5q-84 0 -130.5 60.5t-46.5 180.5q0 73 19 124.5t51 76t62.5 34.5t64.5 10q45 0 88 -8v-65q-38 12 -82 12q-22 0 -39.5 -5.5t-38 -22.5t-32 -57t-11.5 -99q0 -94 30.5 -135.5t95.5 -41.5q43 0 77 21v-63z" />
    <glyph glyph-name="afii10084" unicode="&#x442;" horiz-adv-x="369" 
d="M355 407h-128v-407h-79v407h-128v61h335v-61z" />
    <glyph glyph-name="afii10085" unicode="&#x443;" horiz-adv-x="398" 
d="M392 468l-147 -494q-29 -96 -54 -137.5t-71 -41.5q-26 0 -39 5v71q18 -3 34 -3q25 0 41.5 17t16.5 48q0 28 -10 58l-149 477h90l111 -408l98 408h79z" />
    <glyph glyph-name="afii10086" unicode="&#x444;" horiz-adv-x="651" 
d="M625 240q0 -126 -50.5 -187t-128.5 -61q-48 0 -77 26v-233h-79v233q-29 -26 -77 -26q-78 0 -128.5 61t-50.5 187q0 66 13 116t51 85.5t98 35.5q28 0 51.5 -8.5t32.5 -16.5l10 -8v264h79v-264q30 33 94 33q60 0 98 -35.5t51 -85.5t13 -116zM547 240q0 85 -24.5 130.5
t-82.5 45.5q-49 0 -71 -33v-311q24 -23 67 -23q111 0 111 191zM290 72v311q-22 33 -71 33q-58 0 -82.5 -45.5t-24.5 -130.5q0 -191 111 -191q19 0 36 6t24 11z" />
    <glyph glyph-name="afii10087" unicode="&#x445;" horiz-adv-x="386" 
d="M373 0h-96l-92 178l-88 -178h-87l140 230l-138 238h95l85 -167l81 167h84l-128 -223z" />
    <glyph glyph-name="afii10088" unicode="&#x446;" horiz-adv-x="481" 
d="M455 61l-8 -171h-59v110h-333v468h79v-407h184v407h79v-407h58z" />
    <glyph glyph-name="afii10089" unicode="&#x447;" horiz-adv-x="432" 
d="M380 0h-79v219q-53 -56 -131 -56q-61 0 -95 33t-34 97v175h79v-139q0 -58 21 -81.5t61 -23.5q34 0 61.5 18t36.5 42v184h80v-468z" />
    <glyph glyph-name="afii10090" unicode="&#x448;" horiz-adv-x="663" 
d="M612 0h-557v468h79v-407h160v407h79v-407h160v407h79v-468z" />
    <glyph glyph-name="afii10091" unicode="&#x449;" horiz-adv-x="689" 
d="M670 61l-8 -171h-59v110h-548v468h79v-407h160v407h79v-407h160v407h79v-407h58z" />
    <glyph glyph-name="afii10092" unicode="&#x44a;" horiz-adv-x="472" 
d="M453 152q0 -79 -57 -120t-140 -41q-64 0 -134 18v400h-102v59h181v-181q40 10 84 10q17 0 34.5 -2.5t43 -11t44.5 -23.5t32.5 -43t13.5 -65zM371 152q0 42 -25 68t-79 26q-15 0 -31.5 -2t-25.5 -4l-9 -3v-184q21 -5 66 -5q44 0 74 26t30 78z" />
    <glyph glyph-name="afii10093" unicode="&#x44b;" horiz-adv-x="565" 
d="M513 0h-79v468h79v-468zM386 152q0 -79 -57 -120t-140 -41q-64 0 -134 18v459h79v-181q40 10 84 10q17 0 34.5 -2.5t43 -11t44.5 -23.5t32.5 -43t13.5 -65zM304 152q0 42 -25 68t-79 26q-15 0 -31.5 -2t-25.5 -4l-9 -3v-184q21 -5 66 -5q44 0 74 26t30 78z" />
    <glyph glyph-name="afii10094" unicode="&#x44c;" horiz-adv-x="404" 
d="M386 152q0 -79 -57 -120t-140 -41q-64 0 -134 18v459h79v-181q40 10 84 10q17 0 34.5 -2.5t43 -11t44.5 -23.5t32.5 -43t13.5 -65zM304 152q0 42 -25 68t-79 26q-15 0 -31.5 -2t-25.5 -4l-9 -3v-184q21 -5 66 -5q44 0 74 26t30 78z" />
    <glyph glyph-name="afii10095" unicode="&#x44d;" horiz-adv-x="363" 
d="M330 242q0 -124 -54 -187.5t-145 -63.5q-55 0 -105 25v67q47 -28 104 -28q119 0 119 161h-171v53h170q0 148 -118 148q-47 0 -97 -23v66q45 17 104 17q43 0 74.5 -8.5t60 -32t43.5 -72.5t15 -122z" />
    <glyph glyph-name="afii10096" unicode="&#x44e;" horiz-adv-x="644" 
d="M611 232q0 -118 -56 -182t-141 -64q-82 0 -133.5 59.5t-55.5 171.5h-91v-217h-79v468h79v-198h92q6 54 23 94.5t37 61.5t47 33t45.5 15t39.5 3q33 0 62.5 -9t61 -33t50.5 -76t19 -127zM529 232q0 62 -10.5 102.5t-29.5 57.5t-34.5 22.5t-36.5 5.5q-51 0 -81 -40t-30 -148
q0 -93 30 -141t81 -48q53 0 82 47.5t29 141.5z" />
    <glyph glyph-name="afii10097" unicode="&#x44f;" horiz-adv-x="423" 
d="M370 0h-79v190h-34q-32 0 -55 -19t-46 -77l-36 -94h-93l50 104q16 34 30 53.5t22 26t27 18.5v6q-110 24 -110 124q0 45 19 75.5t51 44.5t61 19.5t62 5.5q36 0 131 -11v-466zM291 237v179q-36 5 -59 5q-20 0 -35 -2.5t-32.5 -11t-27 -27.5t-9.5 -48q0 -39 24 -67t87 -28
h52z" />
    <glyph glyph-name="afii10071" unicode="&#x451;" horiz-adv-x="454" 
d="M209 583q0 -19 -13 -32t-34 -13q-22 0 -35.5 13t-13.5 32t13.5 32.5t35.5 13.5q21 0 34 -13.5t13 -32.5zM343 583q0 -19 -13.5 -32t-35.5 -13q-21 0 -34 13t-13 32t13 32.5t34 13.5q22 0 35.5 -13.5t13.5 -32.5zM396 312q0 -55 -3 -73h-270q0 -104 37.5 -145.5
t111.5 -41.5q48 0 103 30v-60q-1 0 -12.5 -5.5t-20.5 -8.5t-25 -7.5t-36.5 -7t-43.5 -2.5q-89 0 -142.5 61t-53.5 180q0 74 19.5 126t51.5 76t62 33.5t63 9.5q66 0 112.5 -40t46.5 -125zM323 290v22q0 46 -21.5 77.5t-70.5 31.5q-18 0 -32.5 -4t-31.5 -16.5t-28.5 -40.5
t-15.5 -70h200z" />
    <glyph glyph-name="afii10099" unicode="&#x452;" horiz-adv-x="454" 
d="M401 271q0 -185 -62.5 -312.5t-164.5 -156.5l-14 46q37 22 63.5 48.5t50.5 71.5t36 115t12 165q0 81 -17 118.5t-60 37.5q-41 0 -76 -42t-35 -92v-270h-79v529h-42v59h42v95h79v-95h184v-59h-184v-144q22 43 61 66t77 23q129 0 129 -203z" />
    <glyph glyph-name="afii10100" unicode="&#x453;" horiz-adv-x="306" 
d="M290 407h-156v-407h-79v468h235v-61zM290 672l-99 -156l-34 7l57 177z" />
    <glyph glyph-name="afii10101" unicode="&#x454;" horiz-adv-x="356" 
d="M331 13l-9 -4q-8 -4 -14.5 -6t-19 -5.5t-29 -5t-36.5 -1.5q-84 0 -130.5 60.5t-46.5 180.5q0 73 19 124.5t51 76t62.5 34.5t64.5 10q45 0 88 -8v-65q-38 12 -82 12q-20 0 -36.5 -4.5t-35.5 -18.5t-31.5 -45.5t-16.5 -78.5h139v-53h-140q3 -86 34.5 -125t96.5 -39
q15 0 37.5 7.5t34.5 16.5v-63z" />
    <glyph glyph-name="afii10102" unicode="&#x455;" horiz-adv-x="348" 
d="M331 135q0 -71 -48.5 -106.5t-125.5 -35.5q-55 0 -113 18v70q48 -27 105 -27q104 0 104 75q0 16 -6.5 28t-20 21t-26 15.5t-33.5 16t-35 16.5q-58 32 -75 50q-27 31 -27 83q0 50 36 84t120 34q55 0 113 -18v-70q-48 27 -105 27q-92 0 -92 -57q0 -14 4.5 -24t16.5 -18.5
t21.5 -14t30.5 -15.5t33 -16q2 -1 21.5 -11t25.5 -13.5t22 -13.5t22 -18t15.5 -20.5t13 -27.5t3.5 -32z" />
    <glyph glyph-name="afii10103" unicode="&#x456;" horiz-adv-x="193" 
d="M138 0h-79v463h79v-463zM151 583q0 -20 -14 -34t-37 -14t-37 14t-14 34q0 21 14 35t37 14t37 -14t14 -35z" />
    <glyph glyph-name="afii10104" unicode="&#x457;" horiz-adv-x="226" 
d="M151 0h-79v463h79v-463zM207 583q0 -19 -11.5 -32t-30.5 -13q-18 0 -29 13t-11 32t11 32.5t29 13.5q19 0 30.5 -13.5t11.5 -32.5zM101 583q0 -19 -11 -32t-29 -13q-19 0 -30.5 13t-11.5 32t11.5 32.5t30.5 13.5q18 0 29 -13.5t11 -32.5z" />
    <glyph glyph-name="afii10105" unicode="&#x458;" horiz-adv-x="207" 
d="M148 -5v-13q0 -33 -0.5 -50.5t-7 -47.5t-19.5 -46.5t-39 -29.5t-63 -13q-25 0 -40 5v59q4 0 12.5 -1t12.5 -1q65 0 65 99v508h79v-469zM165 584q0 -20 -15.5 -34t-37.5 -14t-37 14t-15 34t15 34t37 14t37.5 -14t15.5 -34z" />
    <glyph glyph-name="afii10106" unicode="&#x459;" horiz-adv-x="673" 
d="M658 152q0 -79 -57 -120t-140 -41q-64 0 -134 18v398h-146l-8 -234q-3 -91 -38.5 -135t-85.5 -44q-26 0 -32 2v64q7 -1 13 -1q39 0 58 35.5t21 132.5l6 241h291v-181q40 10 84 10q17 0 34.5 -2.5t43 -11t44.5 -23.5t32.5 -43t13.5 -65zM576 152q0 42 -25 68t-79 26
q-15 0 -31.5 -2t-25.5 -4l-9 -3v-184q21 -5 66 -5q44 0 74 26t30 78z" />
    <glyph glyph-name="afii10107" unicode="&#x45a;" horiz-adv-x="675" 
d="M655 152q0 -79 -57 -120t-140 -41q-64 0 -134 18v208h-190v-217h-79v468h79v-195h190v195h79v-181q40 10 84 10q17 0 34.5 -2.5t43 -11t44.5 -23.5t32.5 -43t13.5 -65zM573 152q0 42 -25 68t-79 26q-15 0 -31.5 -2t-25.5 -4l-9 -3v-184q21 -5 66 -5q44 0 74 26t30 78z
" />
    <glyph glyph-name="afii10108" unicode="&#x45b;" horiz-adv-x="454" 
d="M401 0h-79v308q0 52 -18 74t-59 22q-40 0 -75.5 -42t-35.5 -92v-270h-79v529h-42v59h42v95h79v-95h184v-59h-184v-144q65 89 148 89q119 0 119 -143v-331z" />
    <glyph glyph-name="afii10109" unicode="&#x45c;" horiz-adv-x="421" 
d="M402 0h-86l-53 133q-17 44 -38 63.5t-52 19.5h-39v-216h-79v468h79v-196h31q30 0 49 13.5t36 55.5l20 50q15 38 33.5 58.5t54.5 20.5h32v-67h-6q-30 0 -43 -15.5t-27 -59.5q-17 -52 -51 -75v-6q42 -13 73 -87zM330 672l-99 -156l-34 7l57 177z" />
    <glyph glyph-name="afii10110" unicode="&#x45e;" horiz-adv-x="398" 
d="M392 468l-147 -494q-29 -96 -54 -137.5t-71 -41.5q-26 0 -39 5v71q18 -3 34 -3q25 0 41.5 17t16.5 48q0 28 -10 58l-149 477h90l111 -408l98 408h79zM332 637q0 -55 -39 -83t-84 -28q-46 0 -84.5 27t-38.5 84h56q0 -24 20.5 -41.5t46.5 -17.5q27 0 47 16t20 43h56z" />
    <glyph glyph-name="afii10193" unicode="&#x45f;" horiz-adv-x="452" 
d="M397 0h-138v-96h-66v96h-138v468h79v-407h184v407h79v-468z" />
    <glyph glyph-name="afii10050" unicode="&#x490;" horiz-adv-x="379" 
d="M363 622h-211v-622h-82v683h233v54h60v-115z" />
    <glyph glyph-name="afii10098" unicode="&#x491;" horiz-adv-x="316" 
d="M294 413h-160v-413h-79v468h178v59h61v-114z" />
    <glyph glyph-name="figuredash" unicode="&#x2012;" horiz-adv-x="488" 
d="M448 303h-405v55h405v-55z" />
    <glyph glyph-name="endash" unicode="&#x2013;" horiz-adv-x="488" 
d="M448 213h-405v55h405v-55z" />
    <glyph glyph-name="emdash" unicode="&#x2014;" horiz-adv-x="648" 
d="M608 213h-565v55h565v-55z" />
    <glyph glyph-name="quoteleft" unicode="&#x2018;" horiz-adv-x="169" 
d="M35 584q0 35 18.5 77t52.5 70l19 -14q-34 -52 -34 -91q42 -7 42 -52q0 -21 -12.5 -35t-33.5 -14t-36.5 14t-15.5 45z" />
    <glyph glyph-name="quoteright" unicode="&#x2019;" horiz-adv-x="169" 
d="M133 658q0 -35 -18.5 -77t-52.5 -70l-19 14q34 52 34 91q-42 7 -42 52q0 21 12.5 35t33.5 14t36.5 -14t15.5 -45z" />
    <glyph glyph-name="quotesinglbase" unicode="&#x201a;" horiz-adv-x="169" 
d="M133 37q0 -35 -18.5 -77t-52.5 -70l-19 14q34 52 34 91q-42 7 -42 52q0 21 12.5 35t33.5 14t36.5 -14t15.5 -45z" />
    <glyph glyph-name="quotedblleft" unicode="&#x201c;" horiz-adv-x="300" 
d="M35 584q0 35 18.5 77t52.5 70l19 -14q-34 -52 -34 -91q42 -7 42 -52q0 -21 -12.5 -35t-33.5 -14t-36.5 14t-15.5 45zM155 584q0 35 18.5 77t52.5 70l19 -14q-34 -52 -34 -91q42 -7 42 -52q0 -21 -12.5 -35t-33.5 -14t-36.5 14t-15.5 45z" />
    <glyph glyph-name="quotedblright" unicode="&#x201d;" horiz-adv-x="300" 
d="M253 658q0 -35 -18.5 -77t-52.5 -70l-19 14q34 52 34 91q-42 7 -42 52q0 21 12.5 35t33.5 14t36.5 -14t15.5 -45zM133 658q0 -35 -18.5 -77t-52.5 -70l-19 14q34 52 34 91q-42 7 -42 52q0 21 12.5 35t33.5 14t36.5 -14t15.5 -45z" />
    <glyph glyph-name="quotedblbase" unicode="&#x201e;" horiz-adv-x="288" 
d="M254 36q0 -35 -18.5 -77t-52.5 -70l-19 14q34 52 34 91q-42 7 -42 52q0 21 12.5 35t33.5 14t36.5 -14t15.5 -45zM134 36q0 -35 -18.5 -77t-52.5 -70l-19 14q34 52 34 91q-42 7 -42 52q0 21 12.5 35t33.5 14t36.5 -14t15.5 -45z" />
    <glyph glyph-name="dagger" unicode="&#x2020;" horiz-adv-x="499" 
d="M447 437l-172 5l10 -466h-78l10 466l-172 -5v64l172 -1l-6 202h70l-6 -202l172 1v-64z" />
    <glyph glyph-name="daggerdbl" unicode="&#x2021;" horiz-adv-x="538" 
d="M470 167l-172 5l5 -201h-69l5 201l-172 -5v65l172 -8v225l-172 -6v64l172 -5l-5 200h69l-5 -200l172 5v-64l-172 6v-225l172 8v-65z" />
    <glyph glyph-name="bullet" unicode="&#x2022;" horiz-adv-x="445" 
d="M385 273q0 -66 -46.5 -112.5t-112.5 -46.5t-112.5 46.5t-46.5 112.5t46.5 112.5t112.5 46.5t112.5 -46.5t46.5 -112.5z" />
    <glyph glyph-name="ellipsis" unicode="&#x2026;" horiz-adv-x="684" 
d="M153 53q0 -24 -16.5 -40.5t-40.5 -16.5t-40.5 16.5t-16.5 40.5t16.5 40.5t40.5 16.5t40.5 -16.5t16.5 -40.5zM403 53q0 -24 -16.5 -40.5t-40.5 -16.5t-40.5 16.5t-16.5 40.5t16.5 40.5t40.5 16.5t40.5 -16.5t16.5 -40.5zM643 53q0 -24 -16.5 -40.5t-40.5 -16.5
t-40.5 16.5t-16.5 40.5t16.5 40.5t40.5 16.5t40.5 -16.5t16.5 -40.5z" />
    <glyph glyph-name="perthousand" unicode="&#x2030;" horiz-adv-x="1064" 
d="M325 525q0 -85 -42 -129.5t-103 -44.5q-59 0 -98 44t-39 130q0 54 14 91t37.5 53.5t44.5 23t44 6.5q142 0 142 -174zM256 525q0 73 -19.5 96.5t-53.5 23.5q-71 0 -71 -120t71 -120q39 0 56 28t17 92zM688 151q0 -85 -41.5 -129t-101.5 -44t-99.5 44t-39.5 129q0 54 14 91
t38 53.5t45.5 23t45.5 6.5q139 0 139 -174zM619 151q0 73 -18.5 96.5t-51.5 23.5t-53.5 -25.5t-20.5 -94.5q0 -122 74 -122q70 0 70 122zM1012 151q0 -85 -41 -129t-101 -44q-59 0 -98 44t-39 129q0 54 14 91t37.5 53.5t44.5 23t45 6.5q138 0 138 -174zM944 151
q0 73 -18.5 96.5t-51.5 23.5q-73 0 -73 -120q0 -122 73 -122q70 0 70 122zM548 707l-313 -724h-57l314 724h56z" />
    <glyph glyph-name="guilsinglleft" unicode="&#x2039;" horiz-adv-x="312" 
d="M278 88l-26 -37l-212 211l212 211l26 -37l-145 -174z" />
    <glyph glyph-name="guilsinglright" unicode="&#x203a;" horiz-adv-x="312" 
d="M60 51l-26 37l145 174l-145 174l26 37l212 -211z" />
    <glyph glyph-name="Euro" unicode="&#x20ac;" 
d="M428 11q-47 -25 -137 -25q-92 0 -155.5 67.5t-79.5 201.5h-44l16 52h25q-1 11 -1 34v22h-40l16 52v0h1h1h1h1h1h1h1h2h1h1h2h1h2h1h2h9q11 81 42.5 139t73.5 85.5t80 39t76 11.5q34 0 100 -11v-70q-53 17 -100 17q-27 0 -53 -9.5t-54 -31.5t-49 -65.5t-30 -104.5h207
l-16 -52h-196l1 -56h177l-16 -52h-157q9 -102 58 -153t115 -51q58 0 113 31v-71z" />
    <glyph glyph-name="afii61352" unicode="&#x2116;" horiz-adv-x="862" 
d="M816 370q0 -79 -35.5 -121.5t-92.5 -42.5t-91.5 42.5t-34.5 121.5q0 162 126 162q128 0 128 -162zM805 90h-236v47h236v-47zM753 370q0 70 -17.5 92t-47.5 22q-19 0 -31 -6t-22 -32.5t-10 -75.5q0 -116 63 -116q65 0 65 116zM501 0h-87l-251 493l-28 65h-3q3 -29 3 -61
v-497h-65v683h87l252 -498l28 -65h3q-3 29 -3 61v502h64v-683z" />
    <glyph glyph-name="trademark" unicode="&#x2122;" horiz-adv-x="676" 
d="M634 316h-51v279l-111 -279h-36l-113 279v-279h-41v361h65l113 -281l110 281h64v-361zM253 636h-92v-320h-51v320h-92v41h235v-41z" />
    <glyph glyph-name="Delta" unicode="&#x2206;" horiz-adv-x="612" 
d="M74 40h409l-194 472zM319 677l280 -677h-586z" />
    <glyph glyph-name="minus" unicode="&#x2212;" horiz-adv-x="619" 
d="M553 246h-488v48h488v-48z" />
    <glyph glyph-name="uni2219" unicode="&#x2219;" horiz-adv-x="277" 
d="M195 329q0 -23 -16.5 -39t-38.5 -16t-38.5 16t-16.5 39t16.5 39t38.5 16t38.5 -16t16.5 -39z" />
    <glyph glyph-name="radical" unicode="&#x221a;" horiz-adv-x="549" 
d="M385 119l127 794h36l-152 -951l-242 498l-97 -44l-16 31l146 74z" />
    <glyph glyph-name="infinity" unicode="&#x221e;" horiz-adv-x="713" 
d="M305 288q-24 55 -55 80t-76 25q-52 0 -86.5 -37t-34.5 -97q0 -66 34 -104q35 -39 78 -39q46 0 82 42q24 29 58 130zM366 227q34 -74 69.5 -101.5t82.5 -27.5q61 0 101 44t40 115q0 73 -43 119q-42 47 -95 47q-66 0 -104 -72q-13 -24 -51 -124zM319 326q33 76 72 105
q41 30 109 30q78 0 133 -57q54 -56 54 -147q0 -88 -53 -147q-52 -58 -118 -58q-48 0 -90 36q-27 23 -74 104q-32 -61 -69 -87.5t-90 -26.5q-70 0 -118 50q-49 50 -49 130t45 130q45 49 105 49q43 0 74 -22q31 -21 69 -89z" />
    <glyph glyph-name="approxequal" unicode="&#x2248;" horiz-adv-x="549" 
d="M514 267h21q-2 -61 -35.5 -97.5t-82.5 -36.5q-23 0 -74 15l-109 45q-75 31 -108 31q-73 0 -90 -90h-21q-1 61 32.5 96.5t79.5 37.5q21 0 44 -6q49 -15 142 -54q44 -19 77 -28q12 -4 32 -4q38 0 62.5 23.5t29.5 67.5zM514 507h21q-2 -61 -35.5 -97t-82.5 -36q-25 0 -49 7
q-26 8 -134 52q-75 31 -108 31q-72 0 -90 -89h-21q-1 60 33 95.5t80 37.5q22 0 43 -7q47 -12 142 -53q50 -22 77 -29q13 -3 32 -3q38 0 62.5 23.5t29.5 67.5z" />
    <glyph glyph-name="notequal" unicode="&#x2260;" horiz-adv-x="549" 
d="M12 354v45h294l103 261h39l-101 -261h190v-45h-208l-70 -181h278v-46h-296l-103 -258h-39l102 258h-189v46h207l71 181h-278z" />
    <glyph glyph-name="lessequal" unicode="&#x2264;" horiz-adv-x="549" 
d="M12 -79v45h525v-45h-525zM536 170v-50l-524 223v40l524 222v-50l-464 -192z" />
    <glyph glyph-name="greaterequal" unicode="&#x2265;" horiz-adv-x="549" 
d="M12 -79v45h525v-45h-525zM12 555v50l524 -223v-40l-524 -222v50l464 192z" />
    <glyph glyph-name="dotmath" unicode="&#x22c5;" horiz-adv-x="277" 
d="M195 329q0 -23 -16.5 -39t-38.5 -16t-38.5 16t-16.5 39t16.5 39t38.5 16t38.5 -16t16.5 -39z" />
    <glyph glyph-name="uniF639" unicode="&#xf639;" horiz-adv-x="452" 
d="M428 341q0 -168 -56.5 -261.5t-145.5 -93.5q-92 0 -147 92t-55 263q0 98 18.5 169.5t50 109t64.5 54t69 16.5q35 0 68 -16t64.5 -52.5t50.5 -108.5t19 -172zM341 341q0 112 -15.5 178t-39.5 89t-60 23q-35 0 -59 -22.5t-40.5 -89t-16.5 -178.5q0 -153 26.5 -224.5
t89.5 -71.5q62 0 88.5 70.5t26.5 225.5z" />
    <glyph glyph-name="uniF63A" unicode="&#xf63a;" horiz-adv-x="404" 
d="M385 520q0 -28 -7.5 -55.5t-15 -46t-28.5 -46t-30.5 -38.5t-39.5 -42t-38 -40q-39 -42 -55 -60t-43 -54.5t-38 -63.5h277v-74h-340v69q4 10 9.5 21t10.5 20t13.5 21.5t13.5 20t16 22t16 20.5t17.5 22t16.5 20t18 21t16 20q6 7 23.5 28t22.5 27.5t19.5 24t18.5 25t14 23.5
t13 26t8 24.5t6.5 28.5t1.5 29q0 48 -28 80t-84 32q-61 0 -129 -49l-15 61q73 53 158 53q94 0 138 -51.5t44 -118.5z" />
    <glyph glyph-name="uniF63B" unicode="&#xf63b;" horiz-adv-x="413" 
d="M390 197q0 -29 -7 -56.5t-23.5 -55.5t-41 -48.5t-63.5 -33.5t-87 -13q-81 0 -151 33l22 58q67 -32 132 -32q58 0 96.5 39.5t38.5 111.5q0 62 -38.5 96.5t-110.5 34.5h-56v53h61q51 0 91 36.5t40 101.5q0 46 -26.5 78.5t-81.5 32.5q-61 0 -126 -45l-21 59q68 43 156 43
q94 0 138.5 -45t44.5 -113q0 -59 -31 -102t-86 -66v-5q70 -16 100 -60.5t30 -101.5z" />
    <glyph glyph-name="uniF63C" unicode="&#xf63c;" horiz-adv-x="450" 
d="M432 155h-69v-155h-82v155h-277v60l282 468h77v-460h69v-68zM281 223v361l-208 -361h208z" />
    <glyph glyph-name="uniF63D" unicode="&#xf63d;" horiz-adv-x="408" 
d="M390 208q0 -33 -11 -67.5t-35 -70t-71.5 -58t-112.5 -22.5q-71 0 -141 33l22 58q67 -32 132 -32q52 0 92.5 37.5t40.5 115.5q0 142 -145 142q-46 0 -105 -11l19 350h290v-74h-238l-11 -210q36 5 85 5q77 0 133 -46.5t56 -149.5z" />
    <glyph glyph-name="uniF63E" unicode="&#xf63e;" horiz-adv-x="454" 
d="M435 208q0 -34 -11 -70t-34 -71.5t-65.5 -58t-98.5 -22.5q-96 0 -151.5 70.5t-55.5 213.5q0 80 21.5 149.5t57 118t81.5 84t93.5 53t94.5 19.5l10 -49q-111 -19 -181 -98q-66 -75 -80 -181q61 49 136 49q21 0 42 -4.5t47.5 -18t46.5 -35t33.5 -60.5t13.5 -89zM349 204
q0 147 -123 147q-71 0 -116 -63q-4 -37 -4 -73q0 -67 32 -118.5t89 -51.5q62 0 92 47.5t30 111.5z" />
    <glyph glyph-name="uniF63F" unicode="&#xf63f;" horiz-adv-x="405" 
d="M397 620l-242 -620h-90l267 609h-318v74h383v-63z" />
    <glyph glyph-name="uniF640" unicode="&#xf640;" horiz-adv-x="454" 
d="M430 179q0 -16 -3.5 -36t-16.5 -49t-34 -52t-59.5 -39.5t-89.5 -16.5t-89.5 16.5t-59.5 39.5t-34 52t-16.5 49t-3.5 36q0 29 4.5 53t16 50t36.5 46.5t62 34.5v5q-43 15 -74.5 55.5t-31.5 96.5q0 69 46 120t144 51q52 0 90.5 -15.5t59 -41t30.5 -54.5t10 -60
q0 -56 -31.5 -96.5t-74.5 -55.5v-5q37 -14 62 -34.5t36.5 -46.5t16 -50t4.5 -53zM333 513q0 48 -23 84t-83 36q-106 0 -106 -120q0 -57 30 -89.5t76 -32.5q47 0 76.5 32t29.5 90zM345 187q0 71 -31.5 109.5t-86.5 38.5t-86.5 -38.5t-31.5 -109.5q0 -56 30 -99t88 -43t88 43
t30 99z" />
    <glyph glyph-name="uniF641" unicode="&#xf641;" horiz-adv-x="454" 
d="M435 410q0 -80 -21.5 -149.5t-57 -118t-81.5 -84t-93.5 -53t-94.5 -19.5l-10 49q107 18 178 98q70 79 83 181q-61 -49 -139 -49q-26 0 -54 9.5t-57.5 31t-49 65t-19.5 101.5q0 39 11 76t34 71t65.5 54.5t98.5 20.5q97 0 152 -69.5t55 -214.5zM348 465q0 72 -31.5 121
t-89.5 49q-62 0 -92 -47.5t-30 -111.5q0 -147 120 -147q74 0 119 63q4 37 4 73z" />
    <glyph glyph-name="Acute" unicode="&#xf6c9;" horiz-adv-x="514" 
d="M373 886l-104 -164l-36 7l60 186z" />
    <glyph glyph-name="cyrBreve" unicode="&#xf6d1;" horiz-adv-x="480" 
d="M380 821q-4 -50 -41 -75t-82 -25q-46 0 -82.5 23.5t-40.5 76.5h56q4 -21 23 -35t44 -14q26 0 44.5 13.5t22.5 35.5h56z" />
    <glyph glyph-name="cyrbreve" unicode="&#xf6d4;" horiz-adv-x="393" 
d="M332 637q0 -55 -39 -83t-84 -28q-46 0 -84.5 27t-38.5 84h56q0 -24 20.5 -41.5t46.5 -17.5q27 0 47 16t20 43h56z" />
    <glyph glyph-name="uniF6DC" unicode="&#xf6dc;" horiz-adv-x="200" 
d="M166 0h-82v555h-83v38q43 4 74.5 26.5t41.5 42.5l10 21h39v-683z" />
    <glyph glyph-name="dollar.fitted" horiz-adv-x="443" 
d="M430 182q0 -78 -53 -129.5t-139 -58.5v-60h-38v59q-40 0 -78 9t-56 17.5t-28 15.5v76q81 -48 162 -48v258q-36 15 -61 28.5t-57 37.5t-49.5 58t-17.5 76q0 29 8 54.5t27.5 51t57.5 42t92 20.5v81h38v-80q74 -1 133 -25v-76q-3 1 -21.5 8.5t-31 11.5t-35.5 8.5t-45 4.5
v-240q35 -17 50 -24.5t43.5 -23.5t41 -29t29 -32.5t22.5 -41.5t6 -49zM200 400v223q-103 -2 -103 -100q0 -46 26 -72.5t77 -50.5zM346 178q0 46 -25 71.5t-83 55.5v-242q54 4 81 35t27 80z" />
    <glyph glyph-name="Euro.fitted" horiz-adv-x="454" 
d="M431 11q-47 -25 -137 -25q-92 0 -155.5 67.5t-79.5 201.5h-44l16 52h25q-1 11 -1 34v22h-40l16 52v0h1h1h1h1h1h1h1h2h1h1h2h1h2h1h2h9q11 81 42.5 139t73.5 85.5t80 39t76 11.5q34 0 100 -11v-70q-53 17 -100 17q-27 0 -53 -9.5t-54 -31.5t-49 -65.5t-30 -104.5h207
l-16 -52h-196l1 -56h177l-16 -52h-157q9 -102 58 -153t115 -51q58 0 113 31v-71z" />
    </font>
</defs>
</svg>
