<?xml version="1.0" standalone="no"?>
<!DOCTYPE svg PUBLIC "-//W3C//DTD SVG 1.1//EN" "http://www.w3.org/Graphics/SVG/1.1/DTD/svg11.dtd" >
<svg>
<metadata>
Created by FontForge 20110222 at Wed Mar 27 15:19:18 2013
 By Orthosie Webmaster
Copyright (c) ParaType, Inc., 2007. All rights reserved.
</metadata>
<defs>
<font id="BarnaulGroteskItalic" horiz-adv-x="465" >
  <font-face 
    font-family="BarnaulGroteskItalic"
    font-weight="400"
    font-style="italic"
    font-stretch="normal"
    units-per-em="1000"
    panose-1="2 11 5 3 3 5 4 9 2 4"
    ascent="800"
    descent="-200"
    x-height="468"
    cap-height="683"
    bbox="-106 -226 967 915"
    underline-thickness="20"
    underline-position="-113"
    slope="-12"
    unicode-range="U+0020-F6DC"
  />
<missing-glyph horiz-adv-x="233" 
 />
    <glyph glyph-name="afii10017.var.accented" unicode="&#x410;`" horiz-adv-x="504" 
d="M456 0h-85l-9 229h-203l-115 -229h-77l363 683h83zM360 280l-15 315l-159 -315h174zM542 886l-139 -164l-34 7l100 186z" />
    <glyph glyph-name="afii10022.var.accented" unicode="&#x415;`" horiz-adv-x="405" 
d="M479 683l-13 -61h-231l-49 -230h188l-12 -57h-188l-59 -274h238l-13 -61h-320l146 683h313zM493 886l-139 -164l-34 7l100 186z" />
    <glyph glyph-name="afii10026.var.accented" unicode="&#x418;`" horiz-adv-x="566" 
d="M606 683l-146 -683h-82l116 543l-389 -543h-85l146 683h82l-118 -550l392 550h84zM573 886l-139 -164l-34 7l100 186z" />
    <glyph glyph-name="afii10032.var.accented" unicode="&#x41e;`" horiz-adv-x="609" 
d="M603 460q0 -103 -30.5 -200t-88.5 -161q-52 -57 -104.5 -85t-124.5 -28q-36 0 -68 11t-62.5 36t-49 74.5t-18.5 118.5q0 86 31.5 187.5t87.5 163.5q52 57 104.5 85t124.5 28q25 0 49.5 -5t52.5 -20.5t48.5 -40t34 -67t13.5 -97.5zM517 471q0 48 -12 81.5t-32 49.5
t-39.5 22t-40.5 6q-73 0 -128.5 -56.5t-88.5 -161.5q-33 -107 -33 -207q0 -46 12 -79t32 -49.5t40 -23.5t41 -7q73 0 128 56.5t88 161.5q33 107 33 207zM595 886l-139 -164l-34 7l100 186z" />
    <glyph glyph-name="afii10037.var.accented" unicode="&#x423;`" horiz-adv-x="448" 
d="M546 683l-290 -545q-37 -69 -79 -107t-98 -38q-27 0 -37 5l14 71q13 -4 22 -4q66 0 99 69l-69 549h86l48 -455l224 455h80zM514 886l-139 -164l-34 7l100 186z" />
    <glyph glyph-name="afii10045.var.accented" unicode="&#x42b;`" horiz-adv-x="691" 
d="M731 683l-146 -683h-82l146 683h82zM477 234q0 -42 -15.5 -82.5t-48 -77.5t-93.5 -60t-142 -23q-82 0 -157 15l145 677h82l-63 -294q55 12 112 12q45 0 79 -11.5t52.5 -28.5t30 -40.5t15 -44t3.5 -42.5zM389 227q0 68 -34 91t-93 23q-22 0 -44.5 -3.5t-33.5 -6.5l-12 -3
l-57 -268q33 -7 93 -7q78 0 129.5 46.5t51.5 127.5zM636 886l-139 -164l-34 7l100 186z" />
    <glyph glyph-name="afii10047.var.accented" unicode="&#x42d;`" horiz-adv-x="473" 
d="M466 454q0 -100 -29.5 -192.5t-78.5 -153.5q-46 -57 -110 -89.5t-136 -32.5q-71 0 -111 24l14 66q45 -25 105 -25q82 0 148.5 64t94.5 194h-239l13 62h237q6 27 6 88q0 84 -35 126.5t-100 42.5q-54 0 -113 -21l1 63q59 20 133 20q34 0 66 -11t63.5 -35.5t51 -73.5
t19.5 -116zM527 886l-139 -164l-34 7l100 186z" />
    <glyph glyph-name="afii10048.var.accented" unicode="&#x42e;`" horiz-adv-x="824" 
d="M817 470q0 -32 -7.5 -90.5t-17.5 -93.5q-88 -300 -323 -300q-36 0 -68 10.5t-62.5 34t-49 70t-18.5 111.5q0 45 11 114h-115l-70 -326h-82l146 683h82l-65 -304h113l5 17q46 157 126 225.5t197 68.5q36 0 68 -9.5t63 -32t49 -68t18 -110.5zM731 476q0 154 -125 154
q-75 0 -133 -58.5t-91 -175.5q-25 -92 -25 -190q0 -89 38.5 -124.5t85.5 -35.5q157 0 225 240q25 92 25 190zM702 886l-139 -164l-34 7l100 186z" />
    <glyph glyph-name="afii10049.var.accented" unicode="&#x42f;`" horiz-adv-x="504" 
d="M549 675l-144 -675h-82l65 304h-36q-44 0 -81.5 -29t-98.5 -129l-90 -146h-93l82 126q4 7 16.5 26t17 25.5t15 22.5t15.5 22t14.5 19t15.5 19l15.5 15.5t17.5 15t17.5 12t19.5 11.5l2 8q-119 33 -119 155q0 92 69.5 151.5t188.5 59.5q105 0 173 -13zM456 621q-35 8 -83 8
q-84 0 -125.5 -46.5t-41.5 -110.5q0 -18 4 -34t16.5 -36.5t42.5 -33t74 -12.5h56zM542 886l-139 -164l-34 7l100 186z" />
    <glyph glyph-name="afii10065.var.accented" unicode="&#x430;`" horiz-adv-x="452" 
d="M449 468l-100 -468h-61v53q-33 -31 -62.5 -46t-71.5 -15q-53 0 -87.5 40.5t-34.5 113.5q0 66 20.5 131.5t49.5 104.5q72 98 171 98q30 0 58.5 -13t39.5 -38l30 39h48zM350 365q-9 21 -29.5 36t-47.5 15q-52 0 -89.5 -45t-53 -100.5t-15.5 -109.5q0 -51 21.5 -77t55.5 -26
q32 0 64.5 28t42.5 53zM448 672l-133 -156l-32 7l95 177z" />
    <glyph glyph-name="afii10070.var.accented" unicode="&#x435;`" horiz-adv-x="413" 
d="M415 374q0 -60 -57 -101t-168 -41h-66q-3 -24 -3 -55q0 -56 26 -90.5t82 -34.5q34 0 66 11t47 22l15 11l-11 -66q-55 -40 -136 -40t-126 47.5t-45 136.5q0 140 77 223t173 83q126 0 126 -106zM333 368q0 51 -59 51q-36 0 -79 -34.5t-59 -99.5h67q62 0 96 22t34 61z
M429 672l-133 -156l-32 7l95 177z" />
    <glyph glyph-name="afii10074.var.accented" unicode="&#x438;`" horiz-adv-x="454" 
d="M460 467l-100 -467h-63v73q-77 -81 -160 -81q-37 0 -65.5 23.5t-28.5 79.5q0 41 18 120l56 253h79l-52 -230q-21 -92 -21 -117q0 -61 52 -61q54 0 97 53t55 105l55 250zM449 672l-133 -156l-32 7l95 177z" />
    <glyph glyph-name="afii10080.var.accented" unicode="&#x43e;`" horiz-adv-x="456" 
d="M441 300q0 -125 -62 -214q-70 -100 -188 -100q-63 0 -109 41.5t-46 135.5q0 125 62 214q70 100 188 100q25 0 50 -9t49.5 -28t40 -55t15.5 -85zM357 312q0 57 -26 82.5t-57 25.5q-80 0 -121 -95q-33 -75 -33 -174q0 -57 26 -82.5t57 -25.5q80 0 121 95q33 75 33 174z
M450 672l-133 -156l-32 7l95 177z" />
    <glyph glyph-name="afii10085.var.accented" unicode="&#x443;`" horiz-adv-x="401" 
d="M444 468l-239 -495q-47 -97 -81.5 -137.5t-89.5 -40.5q-26 0 -38 5l15 71q18 -3 34 -3q29 0 51.5 23t22.5 63q0 45 -6 101l-41 413h80l34 -408l179 408h79zM423 672l-133 -156l-32 7l95 177z" />
    <glyph glyph-name="afii10093.var.accented" unicode="&#x44b;`" horiz-adv-x="567" 
d="M573 468l-100 -468h-79l100 468h79zM373 202q0 -81 -61.5 -145t-145.5 -64q-118 0 -118 121q0 26 20 114l56 240h79l-40 -176q49 22 98 22q15 0 31.5 -4t36 -14.5t32 -35t12.5 -58.5zM290 184q0 74 -67 74q-40 0 -74 -25l-10 -39q-12 -48 -12 -80q0 -65 56 -65
q46 0 76.5 41t30.5 94zM506 672l-133 -156l-32 7l95 177z" />
    <glyph glyph-name="afii10095.var.accented" unicode="&#x44d;`" horiz-adv-x="371" 
d="M352 324q0 -155 -74.5 -244t-186.5 -89q-16 0 -30 1.5t-23 3.5t-18 5.5t-12.5 5.5t-9.5 5l-7 4l15 67q40 -28 98 -28q57 0 99.5 46t53.5 115h-171l11 53h170q4 11 4 55q0 50 -25.5 71.5t-64.5 21.5q-46 0 -102 -23l14 66q51 17 108 17q66 0 108.5 -38t42.5 -115zM408 672
l-133 -156l-32 7l95 177z" />
    <glyph glyph-name="afii10096.var.accented" unicode="&#x44e;`" horiz-adv-x="643" 
d="M625 300q0 -125 -62 -214q-70 -100 -188 -100q-63 0 -109 41.5t-46 135.5q0 27 3 54h-83l-46 -217h-79l100 468h79l-42 -198h81q57 207 237 207q65 0 110 -41t45 -136zM541 312q0 108 -83 108q-80 0 -121 -95q-33 -75 -33 -174q0 -57 26 -82.5t57 -25.5q80 0 121 95
q33 75 33 174zM544 672l-133 -156l-32 7l95 177z" />
    <glyph glyph-name="afii10097.var.accented" unicode="&#x44f;`" horiz-adv-x="432" 
d="M440 466l-100 -466h-79l41 190h-34q-31 0 -57.5 -18.5t-61.5 -77.5l-56 -94h-96l72 104q34 50 52.5 67.5t46.5 33.5l1 6q-17 7 -28 12.5t-26 17.5t-23 31.5t-8 44.5q0 45 22 78.5t58.5 50t72.5 24t74 7.5q34 0 129 -11zM350 416q-35 5 -58 5q-50 0 -86.5 -25t-36.5 -79
q0 -35 23 -57.5t76 -22.5h44zM438 672l-133 -156l-32 7l95 177z" />
    <glyph glyph-name=".notdef" horiz-adv-x="233" 
 />
    <glyph glyph-name=".null" horiz-adv-x="0" 
 />
    <glyph glyph-name="nonmarkingreturn" horiz-adv-x="333" 
 />
    <glyph glyph-name="space" unicode=" " horiz-adv-x="233" 
 />
    <glyph glyph-name="exclam" unicode="!" horiz-adv-x="244" 
d="M302 690l-135 -514h-38l92 514h81zM175 56q0 -21 -15.5 -40.5t-41.5 -19.5q-44 0 -44 47q0 24 16 41t40 17q45 0 45 -45z" />
    <glyph glyph-name="quotedbl" unicode="&#x22;" horiz-adv-x="369" 
d="M367 690l-64 -203h-43l22 203h85zM229 690l-64 -203h-42l22 203h84z" />
    <glyph glyph-name="numbersign" unicode="#" horiz-adv-x="532" 
d="M541 454l-13 -62h-114l-43 -191h109l-13 -62h-111l-41 -191h-54l44 191h-118l-43 -191h-53l43 191h-112l13 62h114l43 191h-109l13 62h111l41 191h54l-44 -191h118l43 191h53l-43 -191h112zM363 393h-120l-43 -193h120z" />
    <glyph glyph-name="dollar" unicode="$" horiz-adv-x="513" 
d="M533 668l-16 -72q-17 12 -55.5 22t-66.5 10h-12l-53 -247l12 -9q65 -48 87 -75q36 -46 36 -103q0 -92 -62.5 -149t-157.5 -57l-11 -54h-38l11 52q-57 1 -97.5 12.5t-55.5 23.5l16 75q15 -13 62 -29t89 -18l58 270l-20 18q-1 1 -16.5 14t-20 18t-18.5 19t-20 24.5
t-14 25.5t-11.5 31.5t-3.5 34.5q0 68 48 120.5t154 62.5l18 82h38l-17 -80h7q61 0 130 -22zM344 625q-107 -14 -107 -116q0 -46 60 -101zM384 181q0 38 -18 63.5t-54 51.5l-13 -61q-13 -61 -27 -122l-13 -61q52 3 88.5 36t36.5 93z" />
    <glyph glyph-name="percent" unicode="%" horiz-adv-x="654" 
d="M358 581q0 -84 -39 -147q-44 -70 -130 -70q-43 0 -73.5 31.5t-30.5 94.5q0 92 39 147q48 69 129 69q43 0 74 -29.5t31 -95.5zM629 707l-465 -724h-56l466 724h55zM652 190q0 -86 -39 -148q-45 -70 -130 -70q-42 0 -73 32t-31 95q0 90 39 146q48 69 129 69q44 0 74.5 -29
t30.5 -95zM294 589q0 35 -14.5 51t-35.5 16q-46 0 -74 -61q-21 -48 -21 -114q0 -33 15 -50t35 -17q48 0 74 62q21 49 21 113zM588 198q0 34 -14.5 50.5t-34.5 16.5q-47 0 -74 -61q-22 -49 -22 -114q0 -33 15.5 -50t35.5 -17q48 0 74 62q20 49 20 113z" />
    <glyph glyph-name="ampersand" unicode="&#x26;" horiz-adv-x="601" 
d="M602 282l-117 -132l97 -150h-98l-56 89q-114 -103 -231 -103q-78 0 -119 43t-41 110q0 49 16 88t47.5 69t61 49.5t73.5 42.5q-3 4 -14 21.5t-14 22.5t-11.5 19.5t-11.5 21.5t-7.5 19t-6 22t-1.5 21q0 80 59 120.5t149 40.5q65 0 102 -30t37 -87q0 -58 -39.5 -94
t-147.5 -93l123 -199l75 89h75zM444 572q0 33 -21 52t-61 19q-112 0 -112 -96q0 -5 1 -11t1.5 -10.5t3 -11t4 -10t5.5 -11t6 -11t7.5 -12t7.5 -12t8.5 -13.5t9.5 -14q35 17 53.5 27.5t42 28.5t34 39t10.5 46zM397 131l-135 218q-31 -17 -45.5 -26.5t-42 -33t-40.5 -54.5
t-13 -70q0 -48 26.5 -82t85.5 -34q74 0 164 82z" />
    <glyph glyph-name="quotesingle" unicode="'" horiz-adv-x="219" 
d="M222 690l-67 -203h-44l19 203h92z" />
    <glyph glyph-name="parenleft" unicode="(" horiz-adv-x="309" 
d="M447 748q-32 -26 -52 -42.5t-54.5 -52t-57 -66.5t-50 -80.5t-43.5 -101t-27 -121t-11 -146.5q0 -166 94 -328l-53 -22q-113 166 -113 370q0 210 92 367.5t252 258.5z" />
    <glyph glyph-name="parenright" unicode=")" horiz-adv-x="309" 
d="M-44 -190q32 26 52 42.5t54.5 52t57 66.5t50 80.5t43.5 101t27 121t11 146.5q0 166 -94 328l53 22q113 -166 113 -370q0 -210 -92 -367.5t-252 -258.5z" />
    <glyph glyph-name="asterisk" unicode="*" horiz-adv-x="464" 
d="M441 600l-143 -72l142 -73l-26 -47l-135 90l9 -163h-53l9 163l-136 -89l-25 47l142 72l-141 74l26 47l134 -91l-9 163h53l-9 -163l136 90z" />
    <glyph glyph-name="plus" unicode="+" horiz-adv-x="619" 
d="M553 246h-219v-218h-50v218h-219v48h219v219h50v-219h219v-48z" />
    <glyph glyph-name="comma" unicode="," horiz-adv-x="169" 
d="M149 46q0 -36 -29 -81.5t-77 -80.5l-21 20q44 42 55 83q-34 17 -34 50q0 27 17 43t40 16q22 0 35.5 -13t13.5 -37z" />
    <glyph glyph-name="hyphen" unicode="-" horiz-adv-x="297" 
d="M266 272v-57h-205v57h205z" />
    <glyph glyph-name="period" unicode="." horiz-adv-x="190" 
d="M155 56q0 -22 -16.5 -42.5t-43.5 -20.5q-47 0 -47 50q0 25 17 43t42 18q48 0 48 -48z" />
    <glyph glyph-name="slash" unicode="/" horiz-adv-x="382" 
d="M517 760l-497 -918h-66l496 918h67z" />
    <glyph glyph-name="zero" unicode="0" 
d="M481 479q0 -61 -19 -153q-34 -161 -112 -250.5t-175 -89.5q-67 0 -111.5 50t-44.5 161q0 61 19 153q34 161 112 250.5t175 89.5q80 0 118 -47.5t38 -163.5zM397 498q0 78 -20.5 105.5t-64.5 27.5q-68 0 -112 -75t-74 -210q-23 -101 -23 -168q0 -133 84 -133q36 0 66 21
t52 61.5t38.5 89t30.5 113.5q23 101 23 168z" />
    <glyph glyph-name="one" unicode="1" 
d="M381 683l-146 -683h-82l122 570h-83l8 38q41 5 74.5 24t46.5 35l13 16h47z" />
    <glyph glyph-name="two" unicode="2" 
d="M473 554q0 -29 -5.5 -55t-20 -51t-26 -42.5t-38 -42t-40 -36.5t-48.5 -40t-48 -39q-46 -38 -67.5 -56.5t-53 -53.5t-43.5 -64h281l-16 -74h-346l14 64q47 105 180 213q98 79 143 134t45 115q0 47 -21.5 73t-76.5 26q-35 0 -75 -18t-69 -43l-8 73q83 53 185 53
q75 0 114.5 -40t39.5 -96z" />
    <glyph glyph-name="three" unicode="3" 
d="M478 547q0 -64 -42.5 -110.5t-115.5 -72.5v-7q51 -14 76 -53.5t25 -86.5q0 -26 -7.5 -53.5t-27 -59.5t-50 -56.5t-81.5 -41t-115 -16.5q-82 0 -144 33l34 58q49 -31 128 -31q76 0 125.5 41.5t49.5 117.5q0 122 -138 122h-49l11 53h56q72 0 123 40t51 105q0 103 -103 103
q-62 0 -126 -29l-9 59q79 28 166 28q45 0 77.5 -12t48.5 -27.5t25 -38.5t10.5 -36.5t1.5 -28.5z" />
    <glyph glyph-name="four" unicode="4" 
d="M483 683l-98 -460h69l-15 -68h-69l-33 -155h-82l33 155h-277l13 60l382 468h77zM381 575l-277 -351l199 -1z" />
    <glyph glyph-name="five" unicode="5" 
d="M491 683l-16 -74h-233l-57 -207h42q86 0 143 -38.5t57 -132.5q0 -29 -7.5 -59t-27 -63.5t-50 -59t-81.5 -42.5t-115 -17q-82 0 -144 33l34 58q49 -31 128 -31q76 0 125.5 46t49.5 127q0 122 -143 122l-89 -4l94 342h290z" />
    <glyph glyph-name="six" unicode="6" 
d="M493 639q-110 -9 -206.5 -77.5t-139.5 -188.5q57 44 142 44q25 0 49 -7t50 -25t42 -56t16 -92q0 -39 -15 -81t-44 -81t-79 -64t-113 -25q-77 0 -124.5 53.5t-47.5 147.5q0 112 45 208t107 154q140 133 318 145v-55zM357 221q0 65 -24 100.5t-82 35.5q-79 0 -128 -64
q-18 -45 -19 -105q0 -18 3.5 -37.5t13.5 -46t34 -43t59 -16.5q63 0 103 50.5t40 125.5z" />
    <glyph glyph-name="seven" unicode="7" 
d="M507 683l-10 -63l-364 -620h-90l387 609h-308l16 74h369z" />
    <glyph glyph-name="eight" unicode="8" 
d="M494 544q0 -128 -134 -183v-3q85 -33 85 -143q0 -43 -22.5 -93t-69.5 -86q-63 -50 -158 -50q-51 0 -88.5 16t-56.5 42.5t-28 54.5t-9 57q0 73 39.5 130.5t125.5 85.5v4q-32 20 -50.5 47t-18.5 76q0 85 62 138.5t162 53.5q48 0 81.5 -14.5t50 -38t23 -46.5t6.5 -48z
M409 540q0 48 -24 72q-22 22 -63 22q-51 0 -82 -28q-46 -42 -46 -114q0 -44 22 -72t65 -28q55 0 91 41q37 43 37 107zM356 225q0 51 -28.5 79t-73.5 28q-58 0 -97 -33q-24 -20 -39.5 -58.5t-15.5 -77.5q0 -52 26.5 -85t79.5 -33q58 0 99 42q22 22 35.5 60.5t13.5 77.5z" />
    <glyph glyph-name="nine" unicode="9" 
d="M480 500q0 -119 -47 -214.5t-112 -154.5q-59 -54 -124 -86t-103 -39.5t-90 -13.5v55q44 3 93 20t98.5 47t91.5 79.5t65 109.5q-58 -39 -134 -39q-26 0 -50 7t-50.5 24t-42.5 53.5t-16 88.5q0 42 15.5 85t45.5 81t80.5 62.5t113.5 24.5q76 0 121 -48t45 -142zM398 495
q0 136 -105 136q-62 0 -104 -51t-42 -137q0 -61 27.5 -92.5t77.5 -31.5q75 0 127 67q19 51 19 109z" />
    <glyph glyph-name="colon" unicode=":" horiz-adv-x="190" 
d="M202 426q0 -21 -15.5 -40.5t-41.5 -19.5q-44 0 -44 47q0 24 16 41t40 17q45 0 45 -45zM125 56q0 -21 -15.5 -40.5t-41.5 -19.5q-44 0 -44 47q0 24 16 41t40 17q45 0 45 -45z" />
    <glyph glyph-name="semicolon" unicode=";" horiz-adv-x="190" 
d="M202 426q0 -21 -15.5 -40.5t-41.5 -19.5q-44 0 -44 47q0 24 16 41t40 17q45 0 45 -45zM135 46q0 -35 -31.5 -80t-75.5 -76l-16 14q44 42 55 83q-34 17 -34 50q0 27 17 43t40 16q45 0 45 -50z" />
    <glyph glyph-name="less" unicode="&#x3c;" horiz-adv-x="619" 
d="M545 33l-447 220v35l447 220v-46l-388 -190l388 -193v-46z" />
    <glyph glyph-name="equal" unicode="=" horiz-adv-x="619" 
d="M570 341h-459v50h459v-50zM570 150h-459v51h459v-51z" />
    <glyph glyph-name="greater" unicode="&#x3e;" horiz-adv-x="619" 
d="M640 253l-447 -220v46l388 193l-388 190v46l447 -220v-35z" />
    <glyph glyph-name="question" unicode="?" horiz-adv-x="434" 
d="M445 557q0 -49 -24.5 -90t-56 -65.5t-78.5 -62.5t-75 -72q-30 -36 -39 -91h-54q10 63 46 114q22 31 74.5 77.5t85 87.5t32.5 86q0 43 -21 64t-68 21q-83 0 -156 -62l-8 73q87 53 188 53q77 0 115.5 -35.5t38.5 -97.5zM175 56q0 -21 -15.5 -40.5t-41.5 -19.5q-44 0 -44 47
q0 24 16 41t40 17q45 0 45 -45z" />
    <glyph glyph-name="at" unicode="@" horiz-adv-x="808" 
d="M802 349q0 -125 -74.5 -217t-161.5 -92q-27 0 -49 16t-31 48q-36 -33 -66.5 -50.5t-70.5 -17.5q-51 0 -84 40.5t-33 112.5q0 62 19.5 121t48.5 97q70 93 166 93q62 0 96 -45l24 28h50l-75 -307q-8 -34 -8 -46q0 -17 8 -31t21 -14q59 0 107 78.5t48 187.5q0 128 -71 206.5
t-209 78.5q-153 0 -249.5 -112.5t-96.5 -292.5q0 -158 88.5 -249t230.5 -91q79 0 141 20t128 63l12 -38q-128 -91 -291 -91q-180 0 -278 109t-98 276q0 202 115 325t298 123q168 0 256.5 -94.5t88.5 -234.5zM541 395q-9 20 -29 33.5t-46 13.5q-50 0 -87 -43t-52.5 -97
t-15.5 -105q0 -49 20.5 -73.5t54.5 -24.5q31 0 63 26.5t42 50.5z" />
    <glyph glyph-name="A" unicode="A" horiz-adv-x="504" 
d="M456 0h-85l-9 229h-203l-115 -229h-77l363 683h83zM360 280l-15 315l-159 -315h174z" />
    <glyph glyph-name="B" unicode="B" horiz-adv-x="523" 
d="M528 538q0 -57 -35.5 -107t-106.5 -76l-1 -6q49 -18 72 -51.5t23 -87.5q0 -88 -75.5 -153.5t-226.5 -65.5q-82 0 -157 15l143 669q67 13 172 13q55 0 93.5 -12t57 -26.5t28.5 -39t11.5 -38t1.5 -34.5zM440 531q0 45 -24.5 71.5t-101.5 26.5q-22 0 -42 -2t-28 -4l-9 -2
l-52 -243h82q80 0 127.5 42.5t47.5 110.5zM390 210q0 60 -33.5 87.5t-116.5 27.5h-69l-56 -265q33 -7 93 -7q80 0 131 43t51 114z" />
    <glyph glyph-name="C" unicode="C" horiz-adv-x="463" 
d="M545 677l-20 -73q-27 21 -105 21q-49 0 -106.5 -29t-102.5 -106q-65 -110 -65 -253q0 -101 44.5 -143t108.5 -42q62 0 122 36l-16 -71q-62 -31 -134 -31q-94 0 -152.5 62t-58.5 179q0 178 94 310q109 153 280 153q22 0 42 -1.5t30.5 -3.5t23.5 -5t15 -3z" />
    <glyph glyph-name="D" unicode="D" horiz-adv-x="557" 
d="M549 459q0 -221 -135 -359q-97 -100 -263 -100h-131l144 672q85 15 152 15q25 0 48.5 -3t59 -16.5t61.5 -36t45 -67.5t19 -105zM465 445q0 51 -14.5 88t-33 54t-45 27t-39.5 11t-28 1q-43 0 -71 -6l-119 -559h36q145 0 222 96q92 116 92 288z" />
    <glyph glyph-name="E" unicode="E" horiz-adv-x="405" 
d="M479 683l-13 -61h-231l-49 -230h188l-12 -57h-188l-59 -274h238l-13 -61h-320l146 683h313z" />
    <glyph glyph-name="F" unicode="F" horiz-adv-x="378" 
d="M469 683l-13 -61h-221l-51 -237h178l-12 -57h-178l-70 -328h-82l146 683h303z" />
    <glyph glyph-name="G" unicode="G" horiz-adv-x="529" 
d="M555 677l-20 -73q-37 21 -115 21q-49 0 -106.5 -29t-102.5 -106q-65 -110 -65 -253q0 -53 15 -91.5t40 -58t49.5 -28.5t49.5 -9t44.5 3.5t26.5 6.5l7 4l43 214h-113l13 57h194l-68 -315q-64 -34 -178 -34q-95 0 -152 62t-57 179q0 178 94 310q109 153 280 153
q47 0 121 -13z" />
    <glyph glyph-name="H" unicode="H" horiz-adv-x="552" 
d="M593 683l-146 -683h-82l69 325h-263l-69 -325h-82l146 683h82l-64 -301h263l64 301h82z" />
    <glyph glyph-name="I" unicode="I" horiz-adv-x="217" 
d="M251 683l-146 -683h-82l146 683h82z" />
    <glyph glyph-name="J" unicode="J" horiz-adv-x="209" 
d="M248 683l-143 -669q-19 -93 -50 -136q-45 -63 -122 -63q-27 0 -39 5l13 64q4 0 12.5 -0.5t12.5 -0.5q64 0 83 93l151 707h82z" />
    <glyph glyph-name="K" unicode="K" horiz-adv-x="488" 
d="M545 683l-126 -218q-30 -51 -54 -75t-55 -39v-4q22 -15 35.5 -39t27.5 -73l65 -235h-90l-55 217q-14 55 -34 81t-57 26h-35l-70 -324h-82l145 683h82l-64 -302h40q66 0 124 104l111 198h92z" />
    <glyph glyph-name="L" unicode="L" horiz-adv-x="369" 
d="M348 61l-13 -61h-320l146 683h82l-133 -622h238z" />
    <glyph glyph-name="M" unicode="M" horiz-adv-x="705" 
d="M749 683l-146 -683h-82l105 491l18 74l-4 1q-17 -39 -35 -72l-271 -494h-61l-60 494q-5 45 -5 72l-4 -1q-6 -37 -14 -74l-105 -491h-65l146 683h107l68 -557l302 557h106z" />
    <glyph glyph-name="N" unicode="N" horiz-adv-x="555" 
d="M591 683l-146 -683h-81l-146 493l-14 65h-3q-3 -29 -10 -61l-106 -497h-65l146 683h81l146 -498l14 -65h3q3 29 10 61l107 502h64z" />
    <glyph glyph-name="O" unicode="O" horiz-adv-x="609" 
d="M603 460q0 -103 -30.5 -200t-88.5 -161q-52 -57 -104.5 -85t-124.5 -28q-36 0 -68 11t-62.5 36t-49 74.5t-18.5 118.5q0 86 31.5 187.5t87.5 163.5q52 57 104.5 85t124.5 28q25 0 49.5 -5t52.5 -20.5t48.5 -40t34 -67t13.5 -97.5zM517 471q0 48 -12 81.5t-32 49.5
t-39.5 22t-40.5 6q-73 0 -128.5 -56.5t-88.5 -161.5q-33 -107 -33 -207q0 -46 12 -79t32 -49.5t40 -23.5t41 -7q73 0 128 56.5t88 161.5q33 107 33 207z" />
    <glyph glyph-name="P" unicode="P" horiz-adv-x="487" 
d="M525 525q0 -39 -15 -78t-45 -73.5t-81.5 -56t-117.5 -21.5q-19 0 -43.5 3t-39.5 6l-15 3l-66 -308h-82l144 675q54 13 162 13q199 0 199 -163zM439 519q0 20 -4 36t-15 34.5t-38 29t-68 10.5q-21 0 -41 -2t-29 -4l-9 -2l-55 -254q32 -12 92 -12q82 0 124.5 47t42.5 117z
" />
    <glyph glyph-name="Q" unicode="Q" horiz-adv-x="622" 
d="M610 470q0 -32 -7.5 -90.5t-17.5 -93.5q-64 -220 -204 -278l48 -115l-81 -28l-25 126q-32 -5 -61 -5q-36 0 -68 10.5t-62.5 34t-49 70t-18.5 111.5q0 32 7.5 90.5t17.5 93.5q43 146 126 220t197 74q36 0 68 -9.5t63 -32t49 -68t18 -110.5zM524 476q0 154 -125 154
q-75 0 -133 -58.5t-91 -175.5q-25 -92 -25 -190q0 -89 38.5 -124.5t85.5 -35.5q158 0 225 240q25 92 25 190z" />
    <glyph glyph-name="R" unicode="R" horiz-adv-x="501" 
d="M519 530q0 -85 -52.5 -142t-145.5 -74q21 -13 30 -31.5t25 -72.5l62 -210h-90l-55 217q-13 51 -30 67.5t-56 16.5h-41l-64 -301h-82l144 675q69 13 150 13q205 0 205 -158zM435 524q0 45 -28.5 75t-92.5 30q-20 0 -40 -2t-30 -4l-9 -2l-56 -262h66q91 0 140.5 46
t49.5 119z" />
    <glyph glyph-name="S" unicode="S" horiz-adv-x="448" 
d="M472 664l-16 -72q-52 36 -127 36q-131 0 -131 -113q0 -27 16.5 -54t28 -37t35.5 -29l36 -29q53 -42 79.5 -79t26.5 -88q0 -98 -67 -155.5t-172 -57.5q-112 0 -165 42l16 75q59 -53 148 -53q69 0 113 38.5t44 104.5q0 27 -12 50.5t-23.5 35t-34.5 29.5l-40 32
q-55 44 -82 80.5t-27 85.5q0 87 55 135.5t164 48.5q53 0 135 -26z" />
    <glyph glyph-name="T" unicode="T" horiz-adv-x="443" 
d="M521 683l-13 -61h-154l-133 -622h-82l133 622h-154l13 61h390z" />
    <glyph glyph-name="U" unicode="U" horiz-adv-x="548" 
d="M593 683l-101 -473q-48 -224 -263 -224q-89 0 -131.5 39t-42.5 105q0 61 23 163l88 390h82l-88 -390q-23 -103 -23 -147q0 -45 24 -73.5t80 -28.5q145 0 179 156l103 483h70z" />
    <glyph glyph-name="V" unicode="V" horiz-adv-x="463" 
d="M562 683l-344 -683h-76l-39 683h84l26 -575l269 575h80z" />
    <glyph glyph-name="W" unicode="W" horiz-adv-x="760" 
d="M850 683l-314 -683h-74l-22 546l-256 -546h-73v683h81l-5 -559l263 559h61l25 -559l235 559h79z" />
    <glyph glyph-name="X" unicode="X" horiz-adv-x="481" 
d="M555 683l-240 -331l106 -352h-91l-74 281l-183 -281h-87l251 340l-99 343h88l71 -270l178 270h80z" />
    <glyph glyph-name="Y" unicode="Y" horiz-adv-x="448" 
d="M554 683l-279 -446l-51 -237h-82l51 237l-90 446h90l64 -374l213 374h84z" />
    <glyph glyph-name="Z" unicode="Z" horiz-adv-x="424" 
d="M506 683l-10 -47l-399 -575h264l-13 -61h-362l10 47l401 575h-256l13 61h352z" />
    <glyph glyph-name="bracketleft" unicode="[" horiz-adv-x="320" 
d="M417 760l-10 -51h-102l-182 -850h102l-11 -50h-174l203 951h174z" />
    <glyph glyph-name="backslash" unicode="\" horiz-adv-x="382" 
d="M375 -158h-66l-272 918h67z" />
    <glyph glyph-name="bracketright" unicode="]" horiz-adv-x="320" 
d="M-55 -192l10 51h102l182 850h-102l11 50h174l-203 -951h-174z" />
    <glyph glyph-name="asciicircum" unicode="^" horiz-adv-x="467" 
d="M500 505h-77l-131 160l-131 -160h-77l181 222h54z" />
    <glyph glyph-name="underscore" unicode="_" horiz-adv-x="488" 
d="M477 -69l-13 -60h-495l13 60h495z" />
    <glyph glyph-name="grave" unicode="`" horiz-adv-x="206" 
d="M162 549l-26 -16l-101 136l74 37z" />
    <glyph glyph-name="a" unicode="a" horiz-adv-x="452" 
d="M449 468l-100 -468h-61v53q-33 -31 -62.5 -46t-71.5 -15q-53 0 -87.5 40.5t-34.5 113.5q0 66 20.5 131.5t49.5 104.5q72 98 171 98q30 0 58.5 -13t39.5 -38l30 39h48zM350 365q-9 21 -29.5 36t-47.5 15q-52 0 -89.5 -45t-53 -100.5t-15.5 -109.5q0 -51 21.5 -77t55.5 -26
q32 0 64.5 28t42.5 53z" />
    <glyph glyph-name="b" unicode="b" horiz-adv-x="461" 
d="M437 313q0 -56 -18.5 -118t-45.5 -104q-64 -100 -172 -100q-61 0 -107 46l-22 -37h-57l146 684h79l-53 -252q49 45 121 45q62 0 95.5 -43.5t33.5 -120.5zM354 304q0 46 -19 77t-62 31q-63 0 -103 -58l-53 -252q3 -6 8.5 -14t27.5 -22t50 -14q73 0 117 93q14 30 24 78.5
t10 80.5z" />
    <glyph glyph-name="c" unicode="c" horiz-adv-x="358" 
d="M382 469l-14 -65q-36 12 -83 12q-23 0 -49 -11.5t-53.5 -36.5t-45.5 -74t-18 -114q0 -55 23 -90t75 -35q63 0 102 25l-13 -63q-43 -26 -124 -26q-70 0 -108 50t-38 117q0 68 18.5 124.5t46.5 91.5t64 59t68.5 34t62.5 10q46 0 86 -8z" />
    <glyph glyph-name="d" unicode="d" horiz-adv-x="457" 
d="M510 683l-150 -683h-61v53q-33 -31 -62.5 -46t-71.5 -15q-53 0 -87.5 40.5t-34.5 113.5q0 66 20.5 131.5t49.5 104.5q72 98 171 98q29 0 55 -11.5t38 -31.5l54 246h79zM361 365q-9 21 -29.5 36t-47.5 15q-52 0 -89.5 -45t-53 -100.5t-15.5 -109.5q0 -51 21.5 -77
t55.5 -26q32 0 64.5 28t42.5 53z" />
    <glyph glyph-name="e" unicode="e" horiz-adv-x="413" 
d="M415 374q0 -60 -57 -101t-168 -41h-66q-3 -24 -3 -55q0 -56 26 -90.5t82 -34.5q34 0 66 11t47 22l15 11l-11 -66q-55 -40 -136 -40t-126 47.5t-45 136.5q0 140 77 223t173 83q126 0 126 -106zM333 368q0 51 -59 51q-36 0 -79 -34.5t-59 -99.5h67q62 0 96 22t34 61z" />
    <glyph glyph-name="f" unicode="f" horiz-adv-x="290" 
d="M376 704l-13 -61q-30 3 -45 3q-66 0 -86 -97l-17 -81h106l-13 -59h-106l-87 -409h-79l87 409h-60l13 59h60l9 42q20 94 42 130q43 71 130 71q33 0 59 -7z" />
    <glyph glyph-name="g" unicode="g" horiz-adv-x="460" 
d="M463 468l-101 -476q-42 -200 -245 -200q-75 0 -133 20l12 57q66 -21 125 -21q132 0 162 136l13 60q-55 -52 -128 -52q-53 0 -87.5 40.5t-34.5 113.5q0 66 20.5 131.5t49.5 104.5q72 98 171 98q30 0 58.5 -13t39.5 -38l28 39h50zM364 365q-9 21 -29.5 36t-47.5 15
q-52 0 -89.5 -45t-53 -100.5t-15.5 -109.5q0 -51 21.5 -77t55.5 -26q32 0 64.5 28t42.5 53z" />
    <glyph glyph-name="h" unicode="h" horiz-adv-x="454" 
d="M433 380q0 -38 -17 -120l-55 -260h-79l56 260q14 61 14 93q0 17 -3 28t-16 20.5t-37 9.5q-48 0 -89.5 -42t-57.5 -114l-55 -255h-79l146 683h79l-63 -286q75 78 158 78q98 0 98 -95z" />
    <glyph glyph-name="i" unicode="i" horiz-adv-x="187" 
d="M193 463l-99 -463h-79l99 463h79zM233 591q0 -22 -16.5 -42.5t-43.5 -20.5q-47 0 -47 50q0 25 17 43t42 18q48 0 48 -48z" />
    <glyph glyph-name="j" unicode="j" horiz-adv-x="204" 
d="M207 464l-100 -469q-19 -90 -37 -124q-42 -76 -135 -76q-24 0 -39 5l13 59q9 -2 24 -2q65 0 87 99l108 508h79zM243 591q0 -22 -16.5 -42.5t-43.5 -20.5q-47 0 -47 50q0 25 17 43t42 18q48 0 48 -48z" />
    <glyph glyph-name="k" unicode="k" horiz-adv-x="416" 
d="M439 462l-98 -127q-55 -72 -93 -87l-1 -7q14 -9 20.5 -14t18.5 -24.5t22 -50.5l50 -152h-86l-42 142q-22 77 -67 77h-22l-47 -219h-79l146 683h79l-89 -416h22q41 0 93 72l90 123h83z" />
    <glyph glyph-name="l" unicode="l" horiz-adv-x="188" 
d="M240 683l-146 -683h-79l146 683h79z" />
    <glyph glyph-name="m" unicode="m" horiz-adv-x="672" 
d="M652 385q0 -31 -18 -117l-58 -268h-79l53 235q22 99 22 126q0 17 -2.5 27.5t-14 18.5t-33.5 8q-39 0 -77.5 -40t-52.5 -107l-57 -268h-79l67 312q6 28 6 45q0 28 -10 43t-39 15q-41 0 -79 -46.5t-52 -110.5l-55 -258h-79l100 468h70l-5 -67q61 79 143 79q32 0 54.5 -22.5
t22.5 -72.5q33 47 75.5 71t84.5 24q39 0 65.5 -21.5t26.5 -73.5z" />
    <glyph glyph-name="n" unicode="n" horiz-adv-x="456" 
d="M433 376q0 -35 -17 -116l-55 -260h-79l56 260q14 65 14 94q0 57 -56 57q-47 0 -89.5 -44t-57.5 -112l-55 -255h-79l99 468h70l-7 -71q73 78 158 78q98 0 98 -99z" />
    <glyph glyph-name="o" unicode="o" horiz-adv-x="456" 
d="M441 300q0 -125 -62 -214q-70 -100 -188 -100q-63 0 -109 41.5t-46 135.5q0 125 62 214q70 100 188 100q25 0 50 -9t49.5 -28t40 -55t15.5 -85zM357 312q0 57 -26 82.5t-57 25.5q-80 0 -121 -95q-33 -75 -33 -174q0 -57 26 -82.5t57 -25.5q80 0 121 95q33 75 33 174z" />
    <glyph glyph-name="p" unicode="p" horiz-adv-x="456" 
d="M437 313q0 -56 -18.5 -118t-45.5 -104q-64 -100 -172 -100q-62 0 -101 40l-52 -246h-79l146 683h65l7 -36q49 45 121 45q62 0 95.5 -43.5t33.5 -120.5zM354 304q0 47 -18.5 79.5t-61.5 32.5q-62 0 -104 -62l-53 -252q1 -2 2.5 -5.5t8 -13t15 -16.5t24.5 -12.5t34 -5.5
q36 0 67 26t52 70q14 30 24 78.5t10 80.5z" />
    <glyph glyph-name="q" unicode="q" horiz-adv-x="446" 
d="M451 468l-142 -675h-78l53 251q-65 -52 -128 -52q-53 0 -87.5 39.5t-34.5 114.5q0 70 19.5 133t48.5 103q72 98 173 98q29 0 58.5 -12.5t41.5 -32.5l26 33h50zM352 365q-9 21 -29.5 35.5t-47.5 14.5q-52 0 -89.5 -44.5t-53 -100t-15.5 -109.5q0 -51 21 -75t56 -24
q30 0 64 26.5t43 50.5z" />
    <glyph glyph-name="r" unicode="r" horiz-adv-x="315" 
d="M360 464l-16 -75q-22 14 -66 14q-35 0 -72.5 -32t-47.5 -78l-64 -293h-79l99 463h79l-13 -61q6 8 18 19.5t47.5 31t70.5 19.5q15 0 26 -2t14 -4z" />
    <glyph glyph-name="s" unicode="s" horiz-adv-x="375" 
d="M367 461l-15 -70q-11 9 -43 17t-49 8q-103 0 -103 -62q0 -12 3.5 -22t14 -19.5t15.5 -14t24.5 -16t24.5 -14.5q3 -2 18.5 -11.5t20 -12.5t17 -12.5t17.5 -17t12 -18.5t9.5 -24t2.5 -28q0 -73 -57.5 -112t-145.5 -39q-56 0 -110 18l15 70q42 -27 100 -27q118 0 118 79
q0 13 -4 23.5t-15 20.5t-18.5 15.5t-27.5 17.5t-29 18q-26 17 -40.5 28.5t-28 34.5t-13.5 50q0 63 45 99.5t140 36.5q54 0 102 -16z" />
    <glyph glyph-name="t" unicode="t" horiz-adv-x="283" 
d="M325 464l-12 -55h-103l-53 -251q-8 -38 -8 -59q0 -29 12 -40t40 -11q9 0 36 3l-11 -49q-23 -7 -57 -7q-55 0 -78 28t-23 66q0 29 11 77l52 243h-60l9 40q43 13 63.5 41t39.5 79l16 42l55 4l-32 -151h103z" />
    <glyph glyph-name="u" unicode="u" horiz-adv-x="454" 
d="M460 467l-100 -467h-63v73q-77 -81 -160 -81q-37 0 -65.5 23.5t-28.5 79.5q0 41 18 120l56 253h79l-52 -230q-21 -92 -21 -117q0 -61 52 -61q54 0 97 53t55 105l55 250z" />
    <glyph glyph-name="v" unicode="v" horiz-adv-x="382" 
d="M433 468l-252 -468h-75l-37 468h85l20 -375l181 375h78z" />
    <glyph glyph-name="w" unicode="w" horiz-adv-x="585" 
d="M635 468l-221 -468h-82l-16 306l-155 -306h-85l-6 468h82l-1 -372l188 372h49l15 -372l156 372h76z" />
    <glyph glyph-name="x" unicode="x" horiz-adv-x="372" 
d="M422 468l-176 -225l92 -243h-92l-54 178l-126 -178h-87l189 230l-87 238h91l49 -169l117 169h84z" />
    <glyph glyph-name="y" unicode="y" horiz-adv-x="401" 
d="M444 468l-239 -495q-47 -97 -81.5 -137.5t-89.5 -40.5q-26 0 -38 5l15 71q18 -3 34 -3q29 0 51.5 23t22.5 63q0 45 -6 101l-41 413h80l34 -408l179 408h79z" />
    <glyph glyph-name="z" unicode="z" horiz-adv-x="371" 
d="M392 468l-7 -41l-288 -372h206l-12 -55h-298l7 41l290 372h-198l12 55h288z" />
    <glyph glyph-name="braceleft" unicode="{" horiz-adv-x="434" 
d="M555 760l-10 -49h-20q-66 0 -106 -29t-58 -113l-19 -88q-38 -178 -180 -196l-2 -9q106 -27 106 -118q0 -31 -8 -71l-19 -88q-9 -43 -9 -60q0 -47 29 -64.5t83 -17.5h9l-10 -49h-28q-155 0 -155 125q0 28 7 58l16 74q11 51 11 86q0 91 -109 104l13 58q47 3 80 19t52 46
t28 56t18 69l16 74q20 92 81.5 137.5t176.5 45.5h7z" />
    <glyph glyph-name="bar" unicode="|" horiz-adv-x="236" 
d="M196 -171h-62v861h62v-861z" />
    <glyph glyph-name="braceright" unicode="}" horiz-adv-x="434" 
d="M-3 -192l10 49h20q66 0 106 29t58 113l19 88q38 178 180 196l2 9q-106 27 -106 118q0 31 8 71l19 88q9 43 9 60q0 47 -29 64.5t-83 17.5h-9l10 49h28q155 0 155 -125q0 -28 -7 -58l-16 -74q-11 -51 -11 -86q0 -91 109 -104l-13 -58q-47 -3 -80 -19t-52 -46t-28 -56
t-18 -69l-16 -74q-20 -92 -81.5 -137.5t-176.5 -45.5h-7z" />
    <glyph glyph-name="asciitilde" unicode="~" horiz-adv-x="619" 
d="M659 381q-20 -83 -64 -134.5t-112 -51.5q-19 0 -33.5 3t-28.5 14t-20 15.5t-23.5 24t-21.5 24.5q-19 20 -28 29t-26.5 18.5t-35.5 9.5q-42 0 -72 -36.5t-45 -98.5h-52q20 83 64.5 134.5t112.5 51.5q16 0 30 -3.5t22.5 -7t20.5 -14t17 -15.5t18.5 -20.5t18.5 -20.5
q17 -18 26 -26.5t28.5 -19.5t36.5 -11q41 0 70.5 36.5t44.5 98.5h52z" />
    <glyph glyph-name="nbspace" unicode="&#xa0;" horiz-adv-x="233" 
 />
    <glyph glyph-name="currency" unicode="&#xa4;" horiz-adv-x="603" 
d="M572 522l-74 -70q44 -65 44 -129q0 -65 -44 -128l73 -69l-41 -41l-70 72q-64 -45 -129 -45q-74 0 -128 45l-71 -73l-38 42l71 69q-43 60 -43 128q0 67 43 130l-71 70l38 41l71 -74q54 42 128 42t129 -42l70 72zM484 323q0 65 -45 110t-108 45t-107 -45t-44 -110t44 -111
t107 -46t108 46t45 111z" />
    <glyph glyph-name="brokenbar" unicode="&#xa6;" horiz-adv-x="231" 
d="M173 337h-62v339h62v-339zM173 -155h-62v339h62v-339z" />
    <glyph glyph-name="section" unicode="&#xa7;" horiz-adv-x="491" 
d="M485 669l-13 -64q-66 36 -146 36q-18 0 -36.5 -3t-40.5 -11.5t-35.5 -27.5t-13.5 -47q0 -48 65 -75l64 -26q67 -28 93 -57t26 -76q0 -93 -134 -160q55 -43 55 -102q0 -75 -61.5 -116t-161.5 -41q-33 0 -73.5 9.5t-62.5 20.5l13 64q66 -36 146 -36q18 0 36.5 3t40.5 11.5
t35.5 27.5t13.5 47q0 48 -65 75l-64 26q-67 28 -93 57t-26 76q0 92 133 161q-54 42 -54 101q0 75 61.5 116t161.5 41q33 0 73.5 -9.5t62.5 -20.5zM373 298q0 32 -21.5 54t-66.5 40l-61 24q-10 -4 -21 -10.5t-32.5 -21.5t-35 -37t-13.5 -47q0 -32 21.5 -54t66.5 -40l60 -24
q9 3 21.5 10.5t33 22t34.5 36.5t14 47z" />
    <glyph glyph-name="copyright" unicode="&#xa9;" horiz-adv-x="803" 
d="M783 366q0 -104 -50 -196t-138 -148t-193 -56q-162 0 -271 113.5t-109 286.5q0 170 109.5 284.5t270.5 114.5q162 0 271.5 -114.5t109.5 -284.5zM743 366q0 151 -98.5 255t-242.5 104t-242 -104t-98 -255q0 -150 98 -255t242 -105t242.5 105.5t98.5 254.5zM538 538
q-59 28 -107 28q-162 0 -162 -203q0 -207 158 -207q48 0 107 28v-50q-50 -25 -112 -25q-230 0 -230 249q0 63 18 111t43.5 74.5t59.5 43t61 21.5t52 5q63 0 112 -20v-55z" />
    <glyph glyph-name="guillemotleft" unicode="&#xab;" horiz-adv-x="432" 
d="M429 440l-137 -169l81 -166l-21 -27l-143 199l210 190zM311 461l-168 -192l90 -176l-22 -27l-163 211l253 211z" />
    <glyph glyph-name="logicalnot" unicode="&#xac;" horiz-adv-x="498" 
d="M470 125h-48v92h-372v47h420v-139z" />
    <glyph glyph-name="uni00AD" unicode="&#xad;" horiz-adv-x="297" 
d="M266 272v-57h-205v57h205z" />
    <glyph glyph-name="registered" unicode="&#xae;" horiz-adv-x="799" 
d="M783 366q0 -104 -50 -196t-138 -148t-193 -56q-162 0 -271 113.5t-109 286.5q0 170 109.5 284.5t270.5 114.5q162 0 271.5 -114.5t109.5 -284.5zM743 366q0 151 -98.5 255t-242.5 104t-242 -104t-98 -255q0 -150 98 -255t242 -105t242.5 105.5t98.5 254.5zM577 120h-80
l-125 213h-50v-213h-70v482q70 10 144 10q181 0 181 -131q0 -19 -6 -38.5t-19.5 -41t-41 -38.5t-66.5 -24zM505 481q0 86 -112 86l-71 -4v-191h50q133 0 133 109z" />
    <glyph glyph-name="degree" unicode="&#xb0;" horiz-adv-x="327" 
d="M332 588q0 -51 -36 -87t-87 -36t-87 36t-36 87t36 87t87 36t87 -36t36 -87zM291 588q0 34 -24 58t-58 24t-58 -24t-24 -58q0 -33 24.5 -57.5t57.5 -24.5q34 0 58 24t24 58z" />
    <glyph glyph-name="plusminus" unicode="&#xb1;" horiz-adv-x="599" 
d="M546 286h-219v-148h-50v148h-219v48h219v149h50v-149h219v-48zM546 68h-488v48h488v-48z" />
    <glyph glyph-name="acute" unicode="&#xb4;" horiz-adv-x="383" 
d="M414 672l-133 -156l-32 7l95 177z" />
    <glyph glyph-name="mu" unicode="&#xb5;" horiz-adv-x="491" 
d="M525 463l-99 -463h-78l15 70q-25 -36 -61 -57.5t-69 -21.5q-66 0 -89 54l-48 -224h-79l137 642h79l-56 -260q-4 -27 -3 -59.5t20.5 -59t52.5 -26.5q51 0 93 50.5t52 97.5l55 257h78z" />
    <glyph glyph-name="paragraph" unicode="&#xb6;" horiz-adv-x="400" 
d="M493 666l-172 -808h-52l172 808h52zM348 666l-172 -808h-52l121 567q-64 0 -87 34t-12 88q13 59 54.5 89t93.5 30h54z" />
    <glyph glyph-name="periodcentered" unicode="&#xb7;" horiz-adv-x="277" 
d="M217 329q0 -23 -16.5 -39t-38.5 -16t-38.5 16t-16.5 39t16.5 39t38.5 16t38.5 -16t16.5 -39z" />
    <glyph glyph-name="guillemotright" unicode="&#xbb;" horiz-adv-x="410" 
d="M41 104l137 169l-81 166l21 27l143 -199l-210 -190zM159 83l168 192l-90 176l22 27l163 -211l-253 -211z" />
    <glyph glyph-name="divide" unicode="&#xf7;" horiz-adv-x="549" 
d="M274 222q18 0 30.5 -12.5t12.5 -30.5q0 -17 -12.5 -30t-30.5 -13q-17 0 -30 13t-13 30q0 18 12.5 30.5t30.5 12.5zM538 353v-41h-527v41h527zM274 525q18 0 30.5 -12.5t12.5 -30.5q0 -17 -12.5 -29.5t-30.5 -12.5t-30.5 12.5t-12.5 29.5q0 18 12.5 30.5t30.5 12.5z" />
    <glyph glyph-name="dotlessi" unicode="&#x131;" horiz-adv-x="187" 
d="M193 463l-99 -463h-79l99 463h79z" />
    <glyph glyph-name="circumflex" unicode="&#x2c6;" horiz-adv-x="467" 
d="M500 505h-77l-131 160l-131 -160h-77l181 222h54z" />
    <glyph glyph-name="uni037E" unicode="&#x37e;" horiz-adv-x="190" 
d="M202 426q0 -21 -15.5 -40.5t-41.5 -19.5q-44 0 -44 47q0 24 16 41t40 17q45 0 45 -45zM135 46q0 -35 -31.5 -80t-75.5 -76l-16 14q44 42 55 83q-34 17 -34 50q0 27 17 43t40 16q45 0 45 -50z" />
    <glyph glyph-name="uni0394" unicode="&#x394;" horiz-adv-x="612" 
d="M74 40h409l-194 472zM319 677l280 -677h-586z" />
    <glyph glyph-name="uni03BC" unicode="&#x3bc;" horiz-adv-x="491" 
d="M525 463l-99 -463h-78l15 70q-25 -36 -61 -57.5t-69 -21.5q-66 0 -89 54l-48 -224h-79l137 642h79l-56 -260q-4 -27 -3 -59.5t20.5 -59t52.5 -26.5q51 0 93 50.5t52 97.5l55 257h78z" />
    <glyph glyph-name="afii10023" unicode="&#x401;" horiz-adv-x="405" 
d="M455 781q0 -17 -13.5 -33.5t-34.5 -16.5q-39 0 -39 41q0 20 14 34t33 14q40 0 40 -39zM315 781q0 -17 -13.5 -33.5t-34.5 -16.5q-39 0 -39 41q0 20 14 34t33 14q40 0 40 -39zM479 683l-13 -61h-231l-49 -230h188l-12 -57h-188l-59 -274h238l-13 -61h-320l146 683h313z
" />
    <glyph glyph-name="afii10051" unicode="&#x402;" horiz-adv-x="613" 
d="M585 229q0 -41 -16.5 -82t-47.5 -76.5t-83.5 -57.5t-117.5 -22q-36 0 -67 9l13 62q38 -9 61 -9q73 0 120 45t47 124q0 51 -28.5 84t-87.5 33q-25 0 -49.5 -3.5t-36.5 -7.5l-12 -4l-69 -324h-82l133 622h-134l13 61h440l-13 -61h-224l-51 -237q40 12 117 12
q175 0 175 -168z" />
    <glyph glyph-name="afii10052" unicode="&#x403;" horiz-adv-x="383" 
d="M479 683l-13 -61h-231l-133 -622h-82l146 683h313zM482 886l-139 -164l-34 7l100 186z" />
    <glyph glyph-name="afii10053" unicode="&#x404;" horiz-adv-x="460" 
d="M544 677l-20 -73q-27 21 -105 21q-29 0 -60 -9t-74 -41t-75 -85q-35 -58 -50 -118h264l-12 -57h-262q-5 -38 -5 -78q0 -186 139 -186q66 0 128 31l-16 -71q-50 -25 -132 -25q-93 0 -149 62t-56 179q0 178 94 310q109 153 280 153q22 0 42 -1.5t30.5 -3.5t23.5 -5t15 -3z
" />
    <glyph glyph-name="afii10054" unicode="&#x405;" horiz-adv-x="448" 
d="M472 664l-16 -72q-52 36 -127 36q-131 0 -131 -113q0 -27 16.5 -54t28 -37t35.5 -29l36 -29q53 -42 79.5 -79t26.5 -88q0 -98 -67 -155.5t-172 -57.5q-112 0 -165 42l16 75q59 -53 148 -53q69 0 113 38.5t44 104.5q0 27 -12 50.5t-23.5 35t-34.5 29.5l-40 32
q-55 44 -82 80.5t-27 85.5q0 87 55 135.5t164 48.5q53 0 135 -26z" />
    <glyph glyph-name="afii10055" unicode="&#x406;" horiz-adv-x="217" 
d="M251 683l-146 -683h-82l146 683h82z" />
    <glyph glyph-name="afii10056" unicode="&#x407;" horiz-adv-x="262" 
d="M358 767q0 -16 -12.5 -32t-32.5 -16q-37 0 -37 39q0 19 13 32.5t31 13.5q38 0 38 -37zM243 767q0 -16 -12.5 -32t-32.5 -16q-37 0 -37 39q0 19 13 32.5t31 13.5q38 0 38 -37zM281 683l-146 -683h-82l146 683h82z" />
    <glyph glyph-name="afii10057" unicode="&#x408;" horiz-adv-x="209" 
d="M248 683l-143 -669q-19 -93 -50 -136q-45 -63 -122 -63q-27 0 -39 5l13 64q4 0 12.5 -0.5t12.5 -0.5q64 0 83 93l151 707h82z" />
    <glyph glyph-name="afii10058" unicode="&#x409;" horiz-adv-x="833" 
d="M810 234q0 -42 -15.5 -82.5t-48 -77.5t-93.5 -60t-142 -23q-82 0 -157 15l132 616h-187l-110 -422q-31 -117 -75 -162.5t-100 -45.5q-26 0 -41 5l16 74q10 -1 22 -1q33 0 60.5 32.5t52.5 130.5l115 450h342l-63 -294q55 12 112 12q53 0 91 -16.5t56 -43.5t25.5 -53
t7.5 -54zM722 222q0 119 -127 119q-22 0 -44.5 -3.5t-34.5 -6.5l-11 -3l-57 -268q33 -7 93 -7q81 0 131 47t50 122z" />
    <glyph glyph-name="afii10059" unicode="&#x40a;" horiz-adv-x="880" 
d="M857 234q0 -42 -15.5 -82.5t-48 -77.5t-93.5 -60t-142 -23q-82 0 -157 15l68 319h-263l-69 -325h-82l146 683h82l-64 -301h263l64 301h82l-63 -294q55 12 112 12q53 0 91 -16.5t56 -43.5t25.5 -53t7.5 -54zM769 222q0 119 -127 119q-22 0 -44.5 -3.5t-33.5 -6.5l-12 -3
l-57 -268q33 -7 93 -7q81 0 131 47t50 122z" />
    <glyph glyph-name="afii10060" unicode="&#x40b;" horiz-adv-x="616" 
d="M584 281q0 -42 -13 -99l-39 -182h-82l44 208q8 42 8 65q0 87 -103 87q-31 0 -61 -7t-44 -15l-15 -7l-71 -331h-82l133 622h-134l13 61h440l-13 -61h-224l-49 -231q49 28 131 28q161 0 161 -138z" />
    <glyph glyph-name="afii10061" unicode="&#x40c;" horiz-adv-x="509" 
d="M578 683l-15 -68h-15q-16 0 -29.5 -8t-29 -30t-24 -37t-28.5 -53q-51 -98 -106 -128l-1 -6q43 -27 67 -139l46 -214h-87l-41 214q-4 23 -7 36t-10 30.5t-15.5 26.5t-23.5 16t-34 7h-52l-71 -330h-82l146 683h82l-64 -298h51q72 0 127 101l48 88q29 53 57.5 81t73.5 28h37
zM512 886l-139 -164l-34 7l100 186z" />
    <glyph glyph-name="afii10062" unicode="&#x40e;" horiz-adv-x="448" 
d="M546 683l-290 -545q-37 -69 -79 -107t-98 -38q-27 0 -37 5l14 71q13 -4 22 -4q66 0 99 69l-69 549h86l48 -455l224 455h80zM475 821q-25 -100 -144 -100q-46 0 -77.5 23.5t-24.5 76.5h56q0 -21 16 -35t41 -14q26 0 47.5 13.5t29.5 35.5h56z" />
    <glyph glyph-name="afii10145" unicode="&#x40f;" horiz-adv-x="541" 
d="M587 683l-146 -683h-181l-28 -129h-64l28 129h-181l146 683h82l-133 -622h262l133 622h82z" />
    <glyph glyph-name="afii10017" unicode="&#x410;" horiz-adv-x="504" 
d="M456 0h-85l-9 229h-203l-115 -229h-77l363 683h83zM360 280l-15 315l-159 -315h174z" />
    <glyph glyph-name="afii10018" unicode="&#x411;" horiz-adv-x="490" 
d="M505 683l-13 -61h-257l-50 -233q55 12 112 12q53 0 91 -16.5t56 -43.5t25.5 -53t7.5 -54q0 -42 -15.5 -82.5t-48 -77.5t-93.5 -60t-142 -23q-82 0 -157 15l145 677h339zM389 222q0 119 -127 119q-22 0 -44.5 -3.5t-33.5 -6.5l-12 -3l-57 -268q33 -7 93 -7q81 0 131 47
t50 122z" />
    <glyph glyph-name="afii10019" unicode="&#x412;" horiz-adv-x="523" 
d="M528 538q0 -57 -35.5 -107t-106.5 -76l-1 -6q49 -18 72 -51.5t23 -87.5q0 -88 -75.5 -153.5t-226.5 -65.5q-82 0 -157 15l143 669q67 13 172 13q55 0 93.5 -12t57 -26.5t28.5 -39t11.5 -38t1.5 -34.5zM440 531q0 45 -24.5 71.5t-101.5 26.5q-22 0 -42 -2t-28 -4l-9 -2
l-52 -243h82q80 0 127.5 42.5t47.5 110.5zM390 210q0 60 -33.5 87.5t-116.5 27.5h-69l-56 -265q33 -7 93 -7q80 0 131 43t51 114z" />
    <glyph glyph-name="afii10020" unicode="&#x413;" horiz-adv-x="383" 
d="M479 683l-13 -61h-231l-133 -622h-82l146 683h313z" />
    <glyph glyph-name="afii10021" unicode="&#x414;" horiz-adv-x="580" 
d="M604 683l-133 -622h55l-48 -187h-63l27 126h-402l-33 -126h-58l31 187h24q84 32 154 219q28 73 56 185l56 218h334zM511 622h-184l-51 -190q-31 -116 -68 -208q-48 -120 -106 -163h289z" />
    <glyph glyph-name="afii10022" unicode="&#x415;" horiz-adv-x="405" 
d="M479 683l-13 -61h-231l-49 -230h188l-12 -57h-188l-59 -274h238l-13 -61h-320l146 683h313z" />
    <glyph glyph-name="afii10024" unicode="&#x416;" horiz-adv-x="755" 
d="M817 683l-15 -68h-15q-16 0 -28.5 -6t-24 -21.5t-18 -27t-20 -39t-20.5 -41.5q-31 -60 -53.5 -83t-54.5 -38l-1 -6q15 -7 26.5 -17.5t25 -41t21.5 -78.5l36 -216h-86l-30 225q-7 50 -27 77.5t-64 27.5h-26l-71 -330h-81l71 330h-23q-82 0 -140 -105l-126 -225h-91
l136 232q26 45 49 72t37 36.5t34 19.5q5 2 7 3l1 6q-42 32 -51 118q-3 36 -5.5 52.5t-8.5 38t-16.5 29.5t-26.5 8h-15l15 68h37q19 0 33 -7t21 -14.5t13 -27t7 -27.5t5 -34l12 -88q13 -100 82 -100h25l64 298h81l-64 -298h30q68 0 121 100l46 88q2 3 9.5 18t10 19t9.5 16.5
t11 16.5t12 12.5t15 12t17 8t21 6t24 1.5h37z" />
    <glyph glyph-name="afii10025" unicode="&#x417;" horiz-adv-x="424" 
d="M438 553q0 -71 -41.5 -120.5t-99.5 -69.5l-2 -8q92 -32 92 -138q0 -29 -8 -59t-29 -61.5t-52.5 -55.5t-83 -39.5t-115.5 -15.5q-53 0 -116 21l15 70q53 -28 120 -28q75 0 128.5 45.5t53.5 117.5q0 67 -33.5 93t-102.5 26h-55l11 53h64q74 0 123.5 41t49.5 110
q0 93 -108 93q-62 0 -126 -25l14 68q49 19 132 19q169 0 169 -137z" />
    <glyph glyph-name="afii10026" unicode="&#x418;" horiz-adv-x="566" 
d="M606 683l-146 -683h-82l116 543l-389 -543h-85l146 683h82l-118 -550l392 550h84z" />
    <glyph glyph-name="afii10027" unicode="&#x419;" horiz-adv-x="566" 
d="M542 822q-16 -52 -60.5 -78.5t-91.5 -26.5q-49 0 -81.5 24.5t-24.5 80.5h59q-1 -21 15.5 -36t43.5 -15t49.5 14t31.5 37h59zM606 683l-146 -683h-82l116 543l-389 -543h-85l146 683h82l-118 -550l392 550h84z" />
    <glyph glyph-name="afii10028" unicode="&#x41a;" horiz-adv-x="509" 
d="M578 683l-15 -68h-15q-16 0 -29.5 -8t-29 -30t-24 -37t-28.5 -53q-51 -98 -106 -128l-1 -6q43 -27 67 -139l46 -214h-87l-41 214q-4 23 -7 36t-10 30.5t-15.5 26.5t-23.5 16t-34 7h-52l-71 -330h-82l146 683h82l-64 -298h51q72 0 127 101l48 88q29 53 57.5 81t73.5 28h37
z" />
    <glyph glyph-name="afii10029" unicode="&#x41b;" horiz-adv-x="540" 
d="M581 683l-146 -683h-82l133 622h-183l-114 -422q-33 -120 -75.5 -164t-99.5 -44q-26 0 -41 5l16 74q10 -1 22 -1q32 0 59.5 32.5t53.5 130.5l119 450h338z" />
    <glyph glyph-name="afii10030" unicode="&#x41c;" horiz-adv-x="705" 
d="M749 683l-146 -683h-82l105 491l18 74l-4 1q-17 -39 -35 -72l-271 -494h-61l-60 494q-5 45 -5 72l-4 -1q-6 -37 -14 -74l-105 -491h-65l146 683h107l68 -557l302 557h106z" />
    <glyph glyph-name="afii10031" unicode="&#x41d;" horiz-adv-x="552" 
d="M593 683l-146 -683h-82l69 325h-263l-69 -325h-82l146 683h82l-64 -301h263l64 301h82z" />
    <glyph glyph-name="afii10032" unicode="&#x41e;" horiz-adv-x="609" 
d="M603 460q0 -103 -30.5 -200t-88.5 -161q-52 -57 -104.5 -85t-124.5 -28q-36 0 -68 11t-62.5 36t-49 74.5t-18.5 118.5q0 86 31.5 187.5t87.5 163.5q52 57 104.5 85t124.5 28q25 0 49.5 -5t52.5 -20.5t48.5 -40t34 -67t13.5 -97.5zM517 471q0 48 -12 81.5t-32 49.5
t-39.5 22t-40.5 6q-73 0 -128.5 -56.5t-88.5 -161.5q-33 -107 -33 -207q0 -46 12 -79t32 -49.5t40 -23.5t41 -7q73 0 128 56.5t88 161.5q33 107 33 207z" />
    <glyph glyph-name="afii10033" unicode="&#x41f;" horiz-adv-x="548" 
d="M588 683l-146 -683h-82l133 622h-258l-133 -622h-82l146 683h422z" />
    <glyph glyph-name="afii10034" unicode="&#x420;" horiz-adv-x="487" 
d="M525 525q0 -39 -15 -78t-45 -73.5t-81.5 -56t-117.5 -21.5q-19 0 -43.5 3t-39.5 6l-15 3l-66 -308h-82l144 675q54 13 162 13q199 0 199 -163zM439 519q0 20 -4 36t-15 34.5t-38 29t-68 10.5q-21 0 -41 -2t-29 -4l-9 -2l-55 -254q32 -12 92 -12q82 0 124.5 47t42.5 117z
" />
    <glyph glyph-name="afii10035" unicode="&#x421;" horiz-adv-x="463" 
d="M545 677l-20 -73q-27 21 -105 21q-49 0 -106.5 -29t-102.5 -106q-65 -110 -65 -253q0 -101 44.5 -143t108.5 -42q62 0 122 36l-16 -71q-62 -31 -134 -31q-94 0 -152.5 62t-58.5 179q0 178 94 310q109 153 280 153q22 0 42 -1.5t30.5 -3.5t23.5 -5t15 -3z" />
    <glyph glyph-name="afii10036" unicode="&#x422;" horiz-adv-x="443" 
d="M521 683l-13 -61h-154l-133 -622h-82l133 622h-154l13 61h390z" />
    <glyph glyph-name="afii10037" unicode="&#x423;" horiz-adv-x="448" 
d="M546 683l-290 -545q-37 -69 -79 -107t-98 -38q-27 0 -37 5l14 71q13 -4 22 -4q66 0 99 69l-69 549h86l48 -455l224 455h80z" />
    <glyph glyph-name="afii10038" unicode="&#x424;" horiz-adv-x="709" 
d="M715 440q0 -159 -76 -271q-37 -54 -89.5 -82t-110.5 -28q-22 0 -39.5 2t-24.5 5l-7 2l-21 -100h-79l21 100q-24 -9 -61 -9q-86 0 -129 54.5t-43 129.5q0 149 76 261q75 109 200 109q21 0 39 -2.5t25 -4.5l7 -2l21 100h79l-21 -100q26 9 62 9q87 0 129 -48.5t42 -124.5z
M635 421q0 134 -120 134q-12 0 -23 -2.5t-16 -4.5l-6 -2l-89 -419q15 -12 60 -12q46 0 86 28.5t65 82.5q43 92 43 195zM390 545q-19 12 -61 12q-98 0 -150 -110q-43 -91 -43 -195q0 -58 27.5 -96.5t90.5 -38.5q13 0 24.5 2.5t16.5 4.5l5 2z" />
    <glyph glyph-name="afii10039" unicode="&#x425;" horiz-adv-x="481" 
d="M555 683l-240 -331l106 -352h-91l-74 281l-183 -281h-87l251 340l-99 343h88l71 -270l178 270h80z" />
    <glyph glyph-name="afii10040" unicode="&#x426;" horiz-adv-x="562" 
d="M589 683l-133 -622h58l-48 -187h-63l27 126h-413l146 683h82l-133 -622h262l133 622h82z" />
    <glyph glyph-name="afii10041" unicode="&#x427;" horiz-adv-x="502" 
d="M544 683l-146 -683h-82l71 332q-8 -6 -22.5 -14.5t-56.5 -23t-81 -14.5q-40 0 -69 12t-42.5 32.5t-19.5 40t-6 40.5q0 28 14 91l40 187h82l-42 -198q-11 -55 -11 -68q0 -36 18.5 -55.5t66.5 -19.5q36 0 72 15t54 29l18 15l60 282h82z" />
    <glyph glyph-name="afii10042" unicode="&#x428;" horiz-adv-x="844" 
d="M881 683l-146 -683h-680l146 683h82l-133 -622h217l133 622h82l-133 -622h217l133 622h82z" />
    <glyph glyph-name="afii10043" unicode="&#x429;" horiz-adv-x="822" 
d="M846 683l-133 -622h58l-48 -187h-63l27 126h-667l146 683h82l-133 -622h217l133 622h82l-133 -622h217l133 622h82z" />
    <glyph glyph-name="afii10044" unicode="&#x42a;" horiz-adv-x="610" 
d="M584 234q0 -42 -15.5 -82.5t-48 -77.5t-93.5 -60t-142 -23q-82 0 -157 15l132 616h-151l13 61h233l-63 -294q55 12 112 12q53 0 91 -16.5t56 -43.5t25.5 -53t7.5 -54zM496 222q0 119 -127 119q-22 0 -44.5 -3.5t-34.5 -6.5l-11 -3l-57 -268q33 -7 93 -7q81 0 131 47
t50 122z" />
    <glyph glyph-name="afii10045" unicode="&#x42b;" horiz-adv-x="691" 
d="M731 683l-146 -683h-82l146 683h82zM477 234q0 -42 -15.5 -82.5t-48 -77.5t-93.5 -60t-142 -23q-82 0 -157 15l145 677h82l-63 -294q55 12 112 12q45 0 79 -11.5t52.5 -28.5t30 -40.5t15 -44t3.5 -42.5zM389 227q0 68 -34 91t-93 23q-22 0 -44.5 -3.5t-33.5 -6.5l-12 -3
l-57 -268q33 -7 93 -7q78 0 129.5 46.5t51.5 127.5z" />
    <glyph glyph-name="afii10046" unicode="&#x42c;" horiz-adv-x="500" 
d="M477 234q0 -42 -15.5 -82.5t-48 -77.5t-93.5 -60t-142 -23q-82 0 -157 15l145 677h82l-63 -294q55 12 112 12q45 0 79 -11.5t52.5 -28.5t30 -40.5t15 -44t3.5 -42.5zM389 227q0 68 -34 91t-93 23q-22 0 -44.5 -3.5t-33.5 -6.5l-12 -3l-57 -268q33 -7 93 -7
q78 0 129.5 46.5t51.5 127.5z" />
    <glyph glyph-name="afii10047" unicode="&#x42d;" horiz-adv-x="473" 
d="M466 454q0 -100 -29.5 -192.5t-78.5 -153.5q-46 -57 -110 -89.5t-136 -32.5q-71 0 -111 24l14 66q45 -25 105 -25q82 0 148.5 64t94.5 194h-239l13 62h237q6 27 6 88q0 84 -35 126.5t-100 42.5q-54 0 -113 -21l1 63q59 20 133 20q34 0 66 -11t63.5 -35.5t51 -73.5
t19.5 -116z" />
    <glyph glyph-name="afii10048" unicode="&#x42e;" horiz-adv-x="824" 
d="M817 470q0 -32 -7.5 -90.5t-17.5 -93.5q-88 -300 -323 -300q-36 0 -68 10.5t-62.5 34t-49 70t-18.5 111.5q0 45 11 114h-115l-70 -326h-82l146 683h82l-65 -304h113l5 17q46 157 126 225.5t197 68.5q36 0 68 -9.5t63 -32t49 -68t18 -110.5zM731 476q0 154 -125 154
q-75 0 -133 -58.5t-91 -175.5q-25 -92 -25 -190q0 -89 38.5 -124.5t85.5 -35.5q157 0 225 240q25 92 25 190z" />
    <glyph glyph-name="afii10049" unicode="&#x42f;" horiz-adv-x="504" 
d="M549 675l-144 -675h-82l65 304h-36q-44 0 -81.5 -29t-98.5 -129l-90 -146h-93l82 126q4 7 16.5 26t17 25.5t15 22.5t15.5 22t14.5 19t15.5 19l15.5 15.5t17.5 15t17.5 12t19.5 11.5l2 8q-119 33 -119 155q0 92 69.5 151.5t188.5 59.5q105 0 173 -13zM456 621q-35 8 -83 8
q-84 0 -125.5 -46.5t-41.5 -110.5q0 -18 4 -34t16.5 -36.5t42.5 -33t74 -12.5h56z" />
    <glyph glyph-name="afii10065" unicode="&#x430;" horiz-adv-x="452" 
d="M449 468l-100 -468h-61v53q-33 -31 -62.5 -46t-71.5 -15q-53 0 -87.5 40.5t-34.5 113.5q0 66 20.5 131.5t49.5 104.5q72 98 171 98q30 0 58.5 -13t39.5 -38l30 39h48zM350 365q-9 21 -29.5 36t-47.5 15q-52 0 -89.5 -45t-53 -100.5t-15.5 -109.5q0 -51 21.5 -77t55.5 -26
q32 0 64.5 28t42.5 53z" />
    <glyph glyph-name="afii10066" unicode="&#x431;" horiz-adv-x="446" 
d="M473 665q-12 -11 -35 -23.5t-40 -20t-53.5 -22t-45.5 -18.5q-135 -55 -162 -167h7q30 31 70 48.5t78 17.5q24 0 46 -7t44.5 -22.5t36 -47.5t13.5 -76q0 -132 -71 -236.5t-180 -104.5q-72 0 -109 44.5t-37 149.5q0 93 38 215q30 93 81 160t149 110q12 5 45.5 19t50.5 21.5
t39.5 19.5t34.5 21v-81zM348 316q0 102 -85 102q-65 0 -107.5 -68.5t-42.5 -189.5q0 -46 18.5 -81t62.5 -35q65 0 109.5 83t44.5 189z" />
    <glyph glyph-name="afii10067" unicode="&#x432;" horiz-adv-x="435" 
d="M427 383q0 -46 -32.5 -84.5t-78.5 -46.5v-5q31 -6 54.5 -28t23.5 -60q0 -73 -65.5 -120t-145.5 -47q-66 0 -108 35.5t-42 112.5q0 70 25.5 140.5t60.5 110.5q77 89 186 89q55 0 88.5 -24t33.5 -73zM345 365q0 31 -17 42.5t-52 11.5q-47 0 -81 -43t-53 -100h65
q49 0 93.5 22.5t44.5 66.5zM308 157q0 72 -110 72h-72q-14 -46 -14 -81q0 -94 83 -94q42 0 77.5 26.5t35.5 76.5z" />
    <glyph glyph-name="afii10068" unicode="&#x433;" horiz-adv-x="378" 
d="M376 379q0 -30 -12 -54t-37 -43t-43.5 -29t-51.5 -25q-8 -4 -28.5 -12.5t-29 -12.5t-24 -12.5t-22.5 -14.5t-15.5 -14.5t-12 -18.5t-3.5 -21q0 -60 86 -60q59 0 134 51l-6 -72q-62 -48 -157 -48q-71 0 -105.5 32t-34.5 86q0 16 3 30t10.5 26.5t13.5 21.5t19.5 19t20.5 16
t24 14.5t22.5 11t23.5 10.5t20 9q7 3 25.5 11t26.5 12l22 11t20.5 13t14.5 14.5t11 17.5t3 20q0 48 -62 48q-77 0 -147 -63l-7 71q76 56 162 56q73 0 104.5 -25.5t31.5 -75.5z" />
    <glyph glyph-name="afii10069" unicode="&#x434;" horiz-adv-x="448" 
d="M439 385q0 -173 -74 -286t-180 -113q-73 0 -110.5 52t-37.5 122q0 142 70.5 229.5t172.5 87.5q47 0 75 -19l4 6q-11 96 -58 159.5t-121 73.5l20 52q124 -21 181.5 -117.5t57.5 -246.5zM355 362q-14 56 -75 56q-42 0 -74 -25t-50 -64.5t-27 -81t-9 -80.5q0 -121 85 -121
q64 0 107 93t43 223z" />
    <glyph glyph-name="afii10070" unicode="&#x435;" horiz-adv-x="413" 
d="M415 374q0 -60 -57 -101t-168 -41h-66q-3 -24 -3 -55q0 -56 26 -90.5t82 -34.5q34 0 66 11t47 22l15 11l-11 -66q-55 -40 -136 -40t-126 47.5t-45 136.5q0 140 77 223t173 83q126 0 126 -106zM333 368q0 51 -59 51q-36 0 -79 -34.5t-59 -99.5h67q62 0 96 22t34 61z" />
    <glyph glyph-name="afii10072" unicode="&#x436;" horiz-adv-x="629" 
d="M660 470l-13 -74h-6q-32 0 -48.5 -13.5t-38.5 -54.5q-34 -64 -68 -79l-1 -6q38 -19 53 -90l32 -153h-82l-25 133q-8 44 -25.5 63.5t-48.5 19.5h-28l-46 -216h-79l46 216h-29q-64 0 -110 -83l-75 -133h-92l96 153q50 81 105 97l1 6q-27 13 -38 76q-8 43 -17.5 55.5
t-40.5 12.5h-14l14 70h40q36 0 50.5 -21t21.5 -58l9 -50q13 -69 73 -69h18l42 196h79l-42 -196h20q60 0 100 70l28 49q44 79 107 79h32z" />
    <glyph glyph-name="afii10073" unicode="&#x437;" horiz-adv-x="366" 
d="M361 373q0 -50 -31 -81.5t-71 -45.5v-6q69 -25 69 -94t-61 -111t-143 -42q-67 0 -123 27l15 70q57 -36 115 -36q47 0 79.5 24.5t32.5 67.5q0 32 -20 51t-79 19h-35l11 52h44q52 0 82 26.5t30 63.5q0 21 -7 34t-20.5 18t-22.5 6t-25 1q-47 0 -112 -31l5 68q66 23 127 23
q140 0 140 -104z" />
    <glyph glyph-name="afii10074" unicode="&#x438;" horiz-adv-x="454" 
d="M460 467l-100 -467h-63v73q-77 -81 -160 -81q-37 0 -65.5 23.5t-28.5 79.5q0 41 18 120l56 253h79l-52 -230q-21 -92 -21 -117q0 -61 52 -61q54 0 97 53t55 105l55 250z" />
    <glyph glyph-name="afii10075" unicode="&#x439;" horiz-adv-x="454" 
d="M450 639q-7 -56 -45 -89t-94 -33q-51 0 -86 26.5t-35 77.5q0 10 1 18h61q0 -63 59 -63q33 0 52.5 18t25.5 45h61zM460 467l-100 -467h-63v73q-77 -81 -160 -81q-37 0 -65.5 23.5t-28.5 79.5q0 41 18 120l56 253h79l-52 -230q-21 -92 -21 -117q0 -61 52 -61q54 0 97 53
t55 105l55 250z" />
    <glyph glyph-name="afii10076" unicode="&#x43a;" horiz-adv-x="421" 
d="M450 470l-13 -74h-6q-32 0 -48.5 -13.5t-38.5 -54.5q-34 -64 -68 -79l-1 -6q37 -26 52 -92l33 -151h-84l-25 133q-8 44 -24.5 63.5t-47.5 19.5h-39l-46 -216h-79l100 468h79l-42 -196h31q60 0 100 70l28 49q44 79 107 79h32z" />
    <glyph glyph-name="afii10077" unicode="&#x43b;" horiz-adv-x="457" 
d="M463 468l-100 -468h-79l87 407h-140l-60 -220q-30 -108 -69.5 -150.5t-92.5 -42.5q-14 0 -32 6l13 65q13 -3 19 -3q31 0 56 38t52 141l59 227h287z" />
    <glyph glyph-name="afii10078" unicode="&#x43c;" horiz-adv-x="577" 
d="M588 468l-100 -468h-77l80 373l-230 -373h-39l-67 373l-80 -373h-64l100 468h105l63 -346l211 346h98z" />
    <glyph glyph-name="afii10079" unicode="&#x43d;" horiz-adv-x="453" 
d="M463 468l-100 -468h-79l46 217h-190l-46 -217h-79l100 468h79l-42 -195h190l42 195h79z" />
    <glyph glyph-name="afii10080" unicode="&#x43e;" horiz-adv-x="456" 
d="M441 300q0 -125 -62 -214q-70 -100 -188 -100q-63 0 -109 41.5t-46 135.5q0 125 62 214q70 100 188 100q25 0 50 -9t49.5 -28t40 -55t15.5 -85zM357 312q0 57 -26 82.5t-57 25.5q-80 0 -121 -95q-33 -75 -33 -174q0 -57 26 -82.5t57 -25.5q80 0 121 95q33 75 33 174z" />
    <glyph glyph-name="afii10081" unicode="&#x43f;" horiz-adv-x="456" 
d="M433 376q0 -35 -17 -116l-55 -260h-79l56 260q14 65 14 94q0 57 -56 57q-47 0 -89.5 -44t-57.5 -112l-55 -255h-79l99 468h70l-7 -71q73 78 158 78q98 0 98 -99z" />
    <glyph glyph-name="afii10082" unicode="&#x440;" horiz-adv-x="456" 
d="M437 313q0 -56 -18.5 -118t-45.5 -104q-64 -100 -172 -100q-62 0 -101 40l-52 -246h-79l146 683h65l7 -36q49 45 121 45q62 0 95.5 -43.5t33.5 -120.5zM354 304q0 47 -18.5 79.5t-61.5 32.5q-62 0 -104 -62l-53 -252q1 -2 2.5 -5.5t8 -13t15 -16.5t24.5 -12.5t34 -5.5
q36 0 67 26t52 70q14 30 24 78.5t10 80.5z" />
    <glyph glyph-name="afii10083" unicode="&#x441;" horiz-adv-x="358" 
d="M382 469l-14 -65q-36 12 -83 12q-23 0 -49 -11.5t-53.5 -36.5t-45.5 -74t-18 -114q0 -55 23 -90t75 -35q63 0 102 25l-13 -63q-43 -26 -124 -26q-70 0 -108 50t-38 117q0 68 18.5 124.5t46.5 91.5t64 59t68.5 34t62.5 10q46 0 86 -8z" />
    <glyph glyph-name="afii10084" unicode="&#x442;" horiz-adv-x="672" 
d="M652 385q0 -31 -18 -117l-58 -268h-79l53 235q22 99 22 126q0 17 -2.5 27.5t-14 18.5t-33.5 8q-39 0 -77.5 -40t-52.5 -107l-57 -268h-79l67 312q6 28 6 45q0 28 -10 43t-39 15q-41 0 -79 -46.5t-52 -110.5l-55 -258h-79l100 468h70l-5 -67q61 79 143 79q32 0 54.5 -22.5
t22.5 -72.5q33 47 75.5 71t84.5 24q39 0 65.5 -21.5t26.5 -73.5z" />
    <glyph glyph-name="afii10085" unicode="&#x443;" horiz-adv-x="401" 
d="M444 468l-239 -495q-47 -97 -81.5 -137.5t-89.5 -40.5q-26 0 -38 5l15 71q18 -3 34 -3q29 0 51.5 23t22.5 63q0 45 -6 101l-41 413h80l34 -408l179 408h79z" />
    <glyph glyph-name="afii10086" unicode="&#x444;" horiz-adv-x="670" 
d="M647 329q0 -161 -74 -249t-169 -88q-48 0 -71 26l-50 -233h-79l51 236q-37 -33 -101 -33q-62 0 -91 45.5t-29 106.5q0 153 74 243t167 90q48 0 71 -26l55 261h79l-56 -264q37 33 101 33t93 -42t29 -106zM567 315q0 44 -19 72.5t-59 28.5q-49 0 -78 -33l-67 -311
q19 -23 62 -23q68 0 114.5 75t46.5 191zM335 393q-19 23 -62 23q-68 0 -113.5 -75t-45.5 -187q0 -45 18 -75t58 -30q49 0 78 33z" />
    <glyph glyph-name="afii10087" unicode="&#x445;" horiz-adv-x="372" 
d="M422 468l-176 -225l92 -243h-92l-54 178l-126 -178h-87l189 230l-87 238h91l49 -169l117 169h84z" />
    <glyph glyph-name="afii10088" unicode="&#x446;" horiz-adv-x="495" 
d="M460 467l-62 -289q-15 -71 -15 -85q0 -47 49 -47h27l-69 -196h-48l33 151q-36 0 -51 25.5t-15 58.5q-81 -93 -172 -93q-37 0 -65.5 23.5t-28.5 79.5q0 37 18 120l54 253h79l-50 -230q-21 -95 -21 -117q0 -61 52 -61q54 0 97 53t55 105l55 250z" />
    <glyph glyph-name="afii10089" unicode="&#x447;" horiz-adv-x="436" 
d="M438 468l-100 -468h-79l46 215q-64 -55 -149 -55q-45 0 -71 21t-26 62q0 28 11 79l31 146h79l-30 -139q-10 -45 -10 -62q0 -50 55 -50q33 0 69 21t56 46l38 184h80z" />
    <glyph glyph-name="afii10090" unicode="&#x448;" horiz-adv-x="668" 
d="M675 468l-100 -468h-70l5 67q-65 -75 -143 -75q-28 0 -52.5 24.5t-25.5 71.5q-66 -96 -153 -96q-37 0 -65.5 23.5t-28.5 79.5q0 37 18 120l54 253h79l-50 -230q-21 -95 -21 -117q0 -61 52 -61q37 0 66 31.5t43 68t23 79.5l49 229h79l-67 -312q-6 -28 -6 -45q0 -54 49 -54
q42 0 80 50t56 131l50 230h79z" />
    <glyph glyph-name="afii10091" unicode="&#x449;" horiz-adv-x="706" 
d="M675 468l-62 -290q-15 -71 -15 -85q0 -47 49 -47h27l-69 -196h-48l33 151q-36 0 -51 25.5t-15 58.5q-69 -93 -147 -93q-37 0 -62.5 25t-25.5 71q-66 -96 -153 -96q-37 0 -65.5 23.5t-28.5 79.5q0 37 18 120l54 253h79l-50 -230q-21 -95 -21 -117q0 -61 52 -61
q37 0 66 31.5t43 68t23 79.5l49 229h79l-67 -312q-6 -28 -6 -45q0 -54 49 -54q41 0 80 51.5t56 129.5l50 230h79z" />
    <glyph glyph-name="afii10092" unicode="&#x44a;" horiz-adv-x="438" 
d="M415 202q0 -81 -61.5 -145t-145.5 -64q-118 0 -118 121q0 32 20 114l43 181h-103l13 59h182l-40 -176q49 22 98 22q15 0 31.5 -4t36 -14.5t32 -35t12.5 -58.5zM332 184q0 74 -67 74q-40 0 -74 -25l-10 -39q-12 -48 -12 -80q0 -65 56 -65q46 0 76.5 41t30.5 94z" />
    <glyph glyph-name="afii10093" unicode="&#x44b;" horiz-adv-x="567" 
d="M573 468l-100 -468h-79l100 468h79zM373 202q0 -81 -61.5 -145t-145.5 -64q-118 0 -118 121q0 26 20 114l56 240h79l-40 -176q49 22 98 22q15 0 31.5 -4t36 -14.5t32 -35t12.5 -58.5zM290 184q0 74 -67 74q-40 0 -74 -25l-10 -39q-12 -48 -12 -80q0 -65 56 -65
q46 0 76.5 41t30.5 94z" />
    <glyph glyph-name="afii10094" unicode="&#x44c;" horiz-adv-x="396" 
d="M373 202q0 -81 -61.5 -145t-145.5 -64q-118 0 -118 121q0 26 20 114l56 240h79l-40 -176q49 22 98 22q15 0 31.5 -4t36 -14.5t32 -35t12.5 -58.5zM290 184q0 74 -67 74q-40 0 -74 -25l-10 -39q-12 -48 -12 -80q0 -65 56 -65q46 0 76.5 41t30.5 94z" />
    <glyph glyph-name="afii10095" unicode="&#x44d;" horiz-adv-x="371" 
d="M352 324q0 -155 -74.5 -244t-186.5 -89q-16 0 -30 1.5t-23 3.5t-18 5.5t-12.5 5.5t-9.5 5l-7 4l15 67q40 -28 98 -28q57 0 99.5 46t53.5 115h-171l11 53h170q4 11 4 55q0 50 -25.5 71.5t-64.5 21.5q-46 0 -102 -23l14 66q51 17 108 17q66 0 108.5 -38t42.5 -115z" />
    <glyph glyph-name="afii10096" unicode="&#x44e;" horiz-adv-x="643" 
d="M625 300q0 -125 -62 -214q-70 -100 -188 -100q-63 0 -109 41.5t-46 135.5q0 27 3 54h-83l-46 -217h-79l100 468h79l-42 -198h81q57 207 237 207q65 0 110 -41t45 -136zM541 312q0 108 -83 108q-80 0 -121 -95q-33 -75 -33 -174q0 -57 26 -82.5t57 -25.5q80 0 121 95
q33 75 33 174z" />
    <glyph glyph-name="afii10097" unicode="&#x44f;" horiz-adv-x="432" 
d="M440 466l-100 -466h-79l41 190h-34q-31 0 -57.5 -18.5t-61.5 -77.5l-56 -94h-96l72 104q34 50 52.5 67.5t46.5 33.5l1 6q-17 7 -28 12.5t-26 17.5t-23 31.5t-8 44.5q0 45 22 78.5t58.5 50t72.5 24t74 7.5q34 0 129 -11zM350 416q-35 5 -58 5q-50 0 -86.5 -25t-36.5 -79
q0 -35 23 -57.5t76 -22.5h44z" />
    <glyph glyph-name="afii10071" unicode="&#x451;" horiz-adv-x="413" 
d="M424 593q0 -18 -13.5 -36t-36.5 -18q-42 0 -42 45q0 21 15 36.5t35 15.5q42 0 42 -43zM279 593q0 -18 -14 -36t-37 -18q-41 0 -41 45q0 21 14.5 36.5t34.5 15.5q43 0 43 -43zM415 374q0 -60 -57 -101t-168 -41h-66q-3 -24 -3 -55q0 -56 26 -90.5t82 -34.5q34 0 66 11
t47 22l15 11l-11 -66q-55 -40 -136 -40t-126 47.5t-45 136.5q0 140 77 223t173 83q126 0 126 -106zM333 368q0 51 -59 51q-36 0 -79 -34.5t-59 -99.5h67q62 0 96 22t34 61z" />
    <glyph glyph-name="afii10099" unicode="&#x452;" horiz-adv-x="454" 
d="M429 358q0 -79 -30.5 -177t-75.5 -174q-43 -73 -110.5 -132.5t-120.5 -72.5l-4 51q112 54 176 178q30 58 56 151t26 150q0 40 -12.5 56t-42.5 16q-42 0 -85 -43t-56 -100l-56 -261h-79l113 529h-72l13 59h72l20 95h79l-20 -95h184l-13 -59h-184l-31 -142q70 87 157 87
q46 0 71 -23.5t25 -92.5z" />
    <glyph glyph-name="afii10100" unicode="&#x453;" horiz-adv-x="378" 
d="M376 379q0 -30 -12 -54t-37 -43t-43.5 -29t-51.5 -25q-8 -4 -28.5 -12.5t-29 -12.5t-24 -12.5t-22.5 -14.5t-15.5 -14.5t-12 -18.5t-3.5 -21q0 -60 86 -60q59 0 134 51l-6 -72q-62 -48 -157 -48q-71 0 -105.5 32t-34.5 86q0 16 3 30t10.5 26.5t13.5 21.5t19.5 19t20.5 16
t24 14.5t22.5 11t23.5 10.5t20 9q7 3 25.5 11t26.5 12l22 11t20.5 13t14.5 14.5t11 17.5t3 20q0 48 -62 48q-77 0 -147 -63l-7 71q76 56 162 56q73 0 104.5 -25.5t31.5 -75.5zM414 672l-133 -156l-32 7l95 177z" />
    <glyph glyph-name="afii10101" unicode="&#x454;" horiz-adv-x="356" 
d="M379 469l-14 -65q-36 12 -83 12q-25 0 -53 -12.5t-58.5 -47.5t-43.5 -87h178l-11 -53h-176q-2 -22 -2 -36q0 -55 23 -90t75 -35q63 0 102 25l-13 -63q-43 -26 -124 -26q-70 0 -108 50t-38 117q0 68 18.5 124.5t46.5 91.5t64 59t68.5 34t62.5 10q46 0 86 -8z" />
    <glyph glyph-name="afii10102" unicode="&#x455;" horiz-adv-x="375" 
d="M367 461l-15 -70q-11 9 -43 17t-49 8q-103 0 -103 -62q0 -12 3.5 -22t14 -19.5t15.5 -14t24.5 -16t24.5 -14.5q3 -2 18.5 -11.5t20 -12.5t17 -12.5t17.5 -17t12 -18.5t9.5 -24t2.5 -28q0 -73 -57.5 -112t-145.5 -39q-56 0 -110 18l15 70q42 -27 100 -27q118 0 118 79
q0 13 -4 23.5t-15 20.5t-18.5 15.5t-27.5 17.5t-29 18q-26 17 -40.5 28.5t-28 34.5t-13.5 50q0 63 45 99.5t140 36.5q54 0 102 -16z" />
    <glyph glyph-name="afii10103" unicode="&#x456;" horiz-adv-x="187" 
d="M193 463l-99 -463h-79l99 463h79zM233 591q0 -22 -16.5 -42.5t-43.5 -20.5q-47 0 -47 50q0 25 17 43t42 18q48 0 48 -48z" />
    <glyph glyph-name="afii10104" unicode="&#x457;" horiz-adv-x="226" 
d="M348 593q0 -18 -13.5 -36t-36.5 -18q-42 0 -42 45q0 21 15 36.5t35 15.5q42 0 42 -43zM233 593q0 -18 -14 -36t-37 -18q-41 0 -41 45q0 21 14.5 36.5t34.5 15.5q43 0 43 -43zM250 463l-99 -463h-79l99 463h79z" />
    <glyph glyph-name="afii10105" unicode="&#x458;" horiz-adv-x="204" 
d="M207 464l-100 -469q-19 -90 -37 -124q-42 -76 -135 -76q-24 0 -39 5l13 59q9 -2 24 -2q65 0 87 99l108 508h79zM243 591q0 -22 -16.5 -42.5t-43.5 -20.5q-47 0 -47 50q0 25 17 43t42 18q48 0 48 -48z" />
    <glyph glyph-name="afii10106" unicode="&#x459;" horiz-adv-x="656" 
d="M636 202q0 -81 -61.5 -145t-145.5 -64q-118 0 -118 121q0 18 20 114l37 179h-137l-60 -220q-30 -108 -69.5 -150.5t-92.5 -42.5q-14 0 -32 6l13 65q13 -3 19 -3q31 0 56 38t52 141l59 227h284l-36 -176q49 22 100 22q15 0 31.5 -4t36 -14.5t32 -35t12.5 -58.5zM553 184
q0 74 -67 74q-40 0 -74 -25l-10 -39q-12 -48 -12 -80q0 -65 56 -65q46 0 76.5 41t30.5 94z" />
    <glyph glyph-name="afii10107" unicode="&#x45a;" horiz-adv-x="699" 
d="M673 201q0 -81 -61.5 -145t-145.5 -64q-118 0 -118 121q0 18 18 104h-186l-46 -217h-79l100 468h79l-42 -195h186l42 195h79l-36 -177q49 22 98 22q15 0 31.5 -4t36 -14.5t32 -35t12.5 -58.5zM590 183q0 74 -67 74q-40 0 -74 -25l-10 -39q-12 -48 -12 -80q0 -65 56 -65
q46 0 76.5 41t30.5 94z" />
    <glyph glyph-name="afii10108" unicode="&#x45b;" horiz-adv-x="454" 
d="M433 380q0 -38 -17 -120l-55 -260h-79l56 260q14 61 14 93q0 17 -3 28t-16 20.5t-37 9.5q-48 0 -89.5 -42t-57.5 -114l-55 -255h-79l113 529h-72l13 59h72l20 95h79l-21 -95h165l-13 -59h-165l-29 -132q75 78 158 78q98 0 98 -95z" />
    <glyph glyph-name="afii10109" unicode="&#x45c;" horiz-adv-x="421" 
d="M450 470l-13 -74h-6q-32 0 -48.5 -13.5t-38.5 -54.5q-34 -64 -68 -79l-1 -6q37 -26 52 -92l33 -151h-84l-25 133q-8 44 -24.5 63.5t-47.5 19.5h-39l-46 -216h-79l100 468h79l-42 -196h31q60 0 100 70l28 49q44 79 107 79h32zM424 672l-133 -156l-32 7l95 177z" />
    <glyph glyph-name="afii10110" unicode="&#x45e;" horiz-adv-x="401" 
d="M444 468l-239 -495q-47 -97 -81.5 -137.5t-89.5 -40.5q-26 0 -38 5l15 71q18 -3 34 -3q29 0 51.5 23t22.5 63q0 45 -6 101l-41 413h80l34 -408l179 408h79zM420 639q-7 -56 -45 -89t-94 -33q-51 0 -86 26.5t-35 77.5q0 10 1 18h61q0 -63 59 -63q33 0 52.5 18t25.5 45h61z
" />
    <glyph glyph-name="afii10193" unicode="&#x45f;" horiz-adv-x="454" 
d="M242 -42l-22 -146h-70l46 146h46zM460 467l-100 -467h-63v73q-77 -81 -160 -81q-37 0 -65.5 23.5t-28.5 79.5q0 41 18 120l56 253h79l-52 -230q-21 -92 -21 -117q0 -61 52 -61q54 0 97 53t55 105l55 250z" />
    <glyph glyph-name="afii10050" unicode="&#x490;" horiz-adv-x="388" 
d="M462 748l-26 -126h-201l-133 -622h-82l146 683h219l16 65h61z" />
    <glyph glyph-name="afii10098" unicode="&#x491;" horiz-adv-x="316" 
d="M407 527l-25 -114h-160l-88 -413h-79l100 468h178l13 59h61z" />
    <glyph glyph-name="figuredash" unicode="&#x2012;" horiz-adv-x="488" 
d="M483 303h-405v55h405v-55z" />
    <glyph glyph-name="endash" unicode="&#x2013;" horiz-adv-x="488" 
d="M483 213h-405v55h405v-55z" />
    <glyph glyph-name="emdash" unicode="&#x2014;" horiz-adv-x="648" 
d="M641 213h-565v55h565v-55z" />
    <glyph glyph-name="quoteleft" unicode="&#x2018;" horiz-adv-x="169" 
d="M19 575q0 36 29 81.5t77 80.5l21 -20q-44 -42 -55 -83q34 -17 34 -50q0 -27 -17 -43t-40 -16q-22 0 -35.5 13t-13.5 37z" />
    <glyph glyph-name="quoteright" unicode="&#x2019;" horiz-adv-x="169" 
d="M155 667q0 -36 -29 -81.5t-77 -80.5l-21 20q44 42 55 83q-34 17 -34 50q0 27 17 43t40 16q22 0 35.5 -13t13.5 -37z" />
    <glyph glyph-name="quotesinglbase" unicode="&#x201a;" horiz-adv-x="169" 
d="M149 46q0 -36 -29 -81.5t-77 -80.5l-21 20q44 42 55 83q-34 17 -34 50q0 27 17 43t40 16q22 0 35.5 -13t13.5 -37z" />
    <glyph glyph-name="quotedblleft" unicode="&#x201c;" horiz-adv-x="324" 
d="M38 575q0 36 29 81.5t77 80.5l21 -20q-44 -42 -55 -83q34 -17 34 -50q0 -27 -17 -43t-40 -16q-22 0 -35.5 13t-13.5 37zM178 575q0 36 29 81.5t77 80.5l21 -20q-44 -42 -55 -83q34 -17 34 -50q0 -27 -17 -43t-40 -16q-22 0 -35.5 13t-13.5 37z" />
    <glyph glyph-name="quotedblright" unicode="&#x201d;" horiz-adv-x="324" 
d="M289 667q0 -36 -29 -81.5t-77 -80.5l-21 20q44 42 55 83q-34 17 -34 50q0 27 17 43t40 16q22 0 35.5 -13t13.5 -37zM149 667q0 -36 -29 -81.5t-77 -80.5l-21 20q44 42 55 83q-34 17 -34 50q0 27 17 43t40 16q22 0 35.5 -13t13.5 -37z" />
    <glyph glyph-name="quotedblbase" unicode="&#x201e;" horiz-adv-x="305" 
d="M290 45q0 -36 -29 -81.5t-77 -80.5l-21 20q44 42 55 83q-34 17 -34 50q0 27 17 43t40 16q22 0 35.5 -13t13.5 -37zM150 45q0 -36 -29 -81.5t-77 -80.5l-21 20q44 42 55 83q-34 17 -34 50q0 27 17 43t40 16q22 0 35.5 -13t13.5 -37z" />
    <glyph glyph-name="dagger" unicode="&#x2020;" horiz-adv-x="499" 
d="M554 501l-14 -64l-171 5l-89 -466h-78l109 466l-173 -5l14 64l172 -1l37 202h70l-49 -202z" />
    <glyph glyph-name="daggerdbl" unicode="&#x2021;" horiz-adv-x="538" 
d="M578 507l-13 -64l-171 6l-48 -225l174 8l-14 -65l-171 5l-38 -201h-69l48 201l-173 -5l14 65l170 -8l48 225l-173 -6l13 64l171 -5l38 200h69l-48 -200z" />
    <glyph glyph-name="bullet" unicode="&#x2022;" horiz-adv-x="445" 
d="M415 273q0 -66 -46.5 -112.5t-112.5 -46.5t-112.5 46.5t-46.5 112.5t46.5 112.5t112.5 46.5t112.5 -46.5t46.5 -112.5z" />
    <glyph glyph-name="ellipsis" unicode="&#x2026;" horiz-adv-x="684" 
d="M155 56q0 -22 -16.5 -42.5t-43.5 -20.5q-47 0 -47 50q0 25 17 43t42 18q48 0 48 -48zM405 56q0 -22 -16.5 -42.5t-43.5 -20.5q-47 0 -47 50q0 25 17 43t42 18q48 0 48 -48zM645 56q0 -22 -16.5 -42.5t-43.5 -20.5q-47 0 -47 50q0 25 17 43t42 18q48 0 48 -48z" />
    <glyph glyph-name="perthousand" unicode="&#x2030;" horiz-adv-x="988" 
d="M967 190q0 -86 -39 -148q-45 -70 -130 -70q-42 0 -73 32t-31 95q0 90 39 146q48 69 129 69q44 0 74.5 -29t30.5 -95zM903 198q0 34 -14.5 50.5t-34.5 16.5q-47 0 -74 -61q-22 -49 -22 -114q0 -33 15.5 -50t35.5 -17q48 0 74 62q20 49 20 113zM361 581q0 -84 -39 -147
q-45 -70 -132 -70q-43 0 -74 31.5t-31 94.5q0 90 40 147q48 69 130 69q44 0 75 -29.5t31 -95.5zM634 707l-469 -724h-56l470 724h55zM658 190q0 -87 -40 -148q-45 -70 -131 -70q-42 0 -73.5 32t-31.5 95q0 90 39 146q29 40 60 54.5t71 14.5q44 0 75 -29t31 -95zM296 589
q0 35 -14.5 51t-35.5 16q-47 0 -75 -61q-21 -48 -21 -114q0 -33 15 -50t35 -17q49 0 75 62q21 49 21 113zM593 198q0 34 -14.5 50.5t-34.5 16.5q-48 0 -75 -61q-22 -49 -22 -114q0 -33 15.5 -50t35.5 -17q49 0 75 62q20 49 20 113z" />
    <glyph glyph-name="guilsinglleft" unicode="&#x2039;" horiz-adv-x="312" 
d="M365 456l-168 -192l90 -176l-22 -27l-163 211l253 211z" />
    <glyph glyph-name="guilsinglright" unicode="&#x203a;" horiz-adv-x="312" 
d="M31 88l168 192l-90 176l22 27l163 -211l-253 -211z" />
    <glyph glyph-name="Euro" unicode="&#x20ac;" 
d="M518 677l-20 -73q-27 21 -105 21q-121 0 -199 -135q-18 -32 -34 -73h247l-24 -50h-238q-4 -16 -10 -52h226l-24 -50h-207q-1 -9 -1 -28q0 -185 143 -185q62 0 122 36l-16 -71q-62 -31 -134 -31q-85 0 -143 63t-58 178q0 26 1 38h-30l24 50h1h1h9q5 33 10 52h-45l24 50h37
q26 71 62 120q109 153 270 153q22 0 42 -1.5t30.5 -3.5t23.5 -5t15 -3z" />
    <glyph glyph-name="afii61352" unicode="&#x2116;" horiz-adv-x="862" 
d="M852 415q0 -84 -39 -147q-44 -70 -130 -70q-43 0 -73.5 31.5t-30.5 94.5q0 92 39 147q48 69 129 69q43 0 74 -29.5t31 -95.5zM806 137l-10 -47h-236l10 47h236zM788 423q0 35 -14.5 51t-35.5 16q-46 0 -74 -61q-21 -48 -21 -114q0 -33 15 -50t35 -17q48 0 74 62
q21 49 21 113zM591 683l-146 -683h-81l-146 493l-14 65h-3q-3 -29 -10 -61l-106 -497h-65l146 683h81l146 -498l14 -65h3q3 29 10 61l107 502h64z" />
    <glyph glyph-name="trademark" unicode="&#x2122;" horiz-adv-x="676" 
d="M671 316h-51v279l-111 -279h-36l-113 279v-279h-41v361h65l113 -281l110 281h64v-361zM290 636h-92v-320h-51v320h-92v41h235v-41z" />
    <glyph glyph-name="Delta" unicode="&#x2206;" horiz-adv-x="612" 
d="M74 40h409l-194 472zM319 677l280 -677h-586z" />
    <glyph glyph-name="minus" unicode="&#x2212;" horiz-adv-x="619" 
d="M553 246h-488v48h488v-48z" />
    <glyph glyph-name="uni2219" unicode="&#x2219;" horiz-adv-x="277" 
d="M217 329q0 -23 -16.5 -39t-38.5 -16t-38.5 16t-16.5 39t16.5 39t38.5 16t38.5 -16t16.5 -39z" />
    <glyph glyph-name="radical" unicode="&#x221a;" horiz-adv-x="549" 
d="M385 119l127 794h36l-152 -951l-242 498l-97 -44l-16 31l146 74z" />
    <glyph glyph-name="infinity" unicode="&#x221e;" horiz-adv-x="713" 
d="M305 288q-24 55 -55 80t-76 25q-52 0 -86.5 -37t-34.5 -97q0 -66 34 -104q35 -39 78 -39q46 0 82 42q24 29 58 130zM366 227q34 -74 69.5 -101.5t82.5 -27.5q61 0 101 44t40 115q0 73 -43 119q-42 47 -95 47q-66 0 -104 -72q-13 -24 -51 -124zM319 326q33 76 72 105
q41 30 109 30q78 0 133 -57q54 -56 54 -147q0 -88 -53 -147q-52 -58 -118 -58q-48 0 -90 36q-27 23 -74 104q-32 -61 -69 -87.5t-90 -26.5q-70 0 -118 50q-49 50 -49 130t45 130q45 49 105 49q43 0 74 -22q31 -21 69 -89z" />
    <glyph glyph-name="approxequal" unicode="&#x2248;" horiz-adv-x="549" 
d="M514 267h21q-2 -61 -35.5 -97.5t-82.5 -36.5q-23 0 -74 15l-109 45q-75 31 -108 31q-73 0 -90 -90h-21q-1 61 32.5 96.5t79.5 37.5q21 0 44 -6q49 -15 142 -54q44 -19 77 -28q12 -4 32 -4q38 0 62.5 23.5t29.5 67.5zM514 507h21q-2 -61 -35.5 -97t-82.5 -36q-25 0 -49 7
q-26 8 -134 52q-75 31 -108 31q-72 0 -90 -89h-21q-1 60 33 95.5t80 37.5q22 0 43 -7q47 -12 142 -53q50 -22 77 -29q13 -3 32 -3q38 0 62.5 23.5t29.5 67.5z" />
    <glyph glyph-name="notequal" unicode="&#x2260;" horiz-adv-x="549" 
d="M12 354v45h294l103 261h39l-101 -261h190v-45h-208l-70 -181h278v-46h-296l-103 -258h-39l102 258h-189v46h207l71 181h-278z" />
    <glyph glyph-name="lessequal" unicode="&#x2264;" horiz-adv-x="549" 
d="M12 -79v45h525v-45h-525zM536 170v-50l-524 223v40l524 222v-50l-464 -192z" />
    <glyph glyph-name="greaterequal" unicode="&#x2265;" horiz-adv-x="549" 
d="M12 -79v45h525v-45h-525zM12 555v50l524 -223v-40l-524 -222v50l464 192z" />
    <glyph glyph-name="dotmath" unicode="&#x22c5;" horiz-adv-x="277" 
d="M217 329q0 -23 -16.5 -39t-38.5 -16t-38.5 16t-16.5 39t16.5 39t38.5 16t38.5 -16t16.5 -39z" />
    <glyph glyph-name="uniF639" unicode="&#xf639;" horiz-adv-x="505" 
d="M483 479q0 -61 -19 -153q-34 -161 -112 -250.5t-175 -89.5q-67 0 -111.5 50t-44.5 161q0 61 19 153q34 161 112 250.5t175 89.5q80 0 118 -47.5t38 -163.5zM399 498q0 78 -20.5 105.5t-64.5 27.5q-68 0 -112 -75t-74 -210q-23 -101 -23 -168q0 -133 84 -133q36 0 66 21
t52 61.5t38.5 89t30.5 113.5q23 101 23 168z" />
    <glyph glyph-name="uniF63A" unicode="&#xf63a;" horiz-adv-x="501" 
d="M486 554q0 -29 -5.5 -55t-20 -51t-26 -42.5t-38 -42t-40 -36.5t-48.5 -40t-48 -39q-46 -38 -67.5 -56.5t-53 -53.5t-43.5 -64h281l-16 -74h-346l14 64q47 105 180 213q98 79 143 134t45 115q0 47 -21.5 73t-76.5 26q-35 0 -75 -18t-69 -43l-8 73q83 53 185 53
q75 0 114.5 -40t39.5 -96z" />
    <glyph glyph-name="uniF63B" unicode="&#xf63b;" horiz-adv-x="509" 
d="M490 547q0 -64 -42.5 -110.5t-115.5 -72.5v-7q51 -14 76 -53.5t25 -86.5q0 -26 -7.5 -53.5t-27 -59.5t-50 -56.5t-81.5 -41t-115 -16.5q-82 0 -144 33l34 58q49 -31 128 -31q76 0 125.5 41.5t49.5 117.5q0 122 -138 122h-49l11 53h56q72 0 123 40t51 105q0 103 -103 103
q-62 0 -126 -29l-9 59q79 28 166 28q45 0 77.5 -12t48.5 -27.5t25 -38.5t10.5 -36.5t1.5 -28.5z" />
    <glyph glyph-name="uniF63C" unicode="&#xf63c;" horiz-adv-x="493" 
d="M474 683l-98 -460h69l-15 -68h-69l-33 -155h-82l33 155h-277l13 60l382 468h77zM372 575l-277 -351l199 -1z" />
    <glyph glyph-name="uniF63D" unicode="&#xf63d;" horiz-adv-x="513" 
d="M499 683l-16 -74h-233l-57 -207h42q86 0 143 -38.5t57 -132.5q0 -29 -7.5 -59t-27 -63.5t-50 -59t-81.5 -42.5t-115 -17q-82 0 -144 33l34 58q49 -31 128 -31q76 0 125.5 46t49.5 127q0 122 -143 122l-89 -4l94 342h290z" />
    <glyph glyph-name="uniF63E" unicode="&#xf63e;" horiz-adv-x="503" 
d="M486 639q-110 -9 -206.5 -77.5t-139.5 -188.5q57 44 142 44q25 0 49 -7t50 -25t42 -56t16 -92q0 -39 -15 -81t-44 -81t-79 -64t-113 -25q-77 0 -124.5 53.5t-47.5 147.5q0 112 45 208t107 154q140 133 318 145v-55zM350 221q0 65 -24 100.5t-82 35.5q-79 0 -128 -64
q-18 -45 -19 -105q0 -18 3.5 -37.5t13.5 -46t34 -43t59 -16.5q63 0 103 50.5t40 125.5z" />
    <glyph glyph-name="uniF63F" unicode="&#xf63f;" horiz-adv-x="481" 
d="M477 683l-10 -63l-364 -620h-90l387 609h-308l16 74h369z" />
    <glyph glyph-name="uniF640" unicode="&#xf640;" horiz-adv-x="519" 
d="M499 544q0 -128 -134 -183v-3q85 -33 85 -143q0 -43 -22.5 -93t-69.5 -86q-63 -50 -158 -50q-51 0 -88.5 16t-56.5 42.5t-28 54.5t-9 57q0 73 39.5 130.5t125.5 85.5v4q-32 20 -50.5 47t-18.5 76q0 85 62 138.5t162 53.5q48 0 81.5 -14.5t50 -38t23 -46.5t6.5 -48z
M414 540q0 48 -24 72q-22 22 -63 22q-51 0 -82 -28q-46 -42 -46 -114q0 -44 22 -72t65 -28q55 0 91 41q37 43 37 107zM361 225q0 51 -28.5 79t-73.5 28q-58 0 -97 -33q-24 -20 -39.5 -58.5t-15.5 -77.5q0 -52 26.5 -85t79.5 -33q59 0 99 42q22 22 35.5 60.5t13.5 77.5z" />
    <glyph glyph-name="uniF641" unicode="&#xf641;" horiz-adv-x="508" 
d="M492 500q0 -119 -47 -214.5t-112 -154.5q-59 -54 -124 -86t-103 -39.5t-90 -13.5v55q44 3 93 20t98.5 47t91.5 79.5t65 109.5q-58 -39 -134 -39q-26 0 -50 7t-50.5 24t-42.5 53.5t-16 88.5q0 42 15.5 85t45.5 81t80.5 62.5t113.5 24.5q76 0 121 -48t45 -142zM410 495
q0 136 -105 136q-62 0 -104 -51t-42 -137q0 -61 27.5 -92.5t77.5 -31.5q75 0 127 67q19 51 19 109z" />
    <glyph glyph-name="Acute" unicode="&#xf6c9;" horiz-adv-x="383" 
d="M482 886l-139 -164l-34 7l100 186z" />
    <glyph glyph-name="cyrBreve" unicode="&#xf6d1;" horiz-adv-x="444" 
d="M475 821q-25 -100 -144 -100q-46 0 -77.5 23.5t-24.5 76.5h56q0 -21 16 -35t41 -14q26 0 47.5 13.5t29.5 35.5h56z" />
    <glyph glyph-name="cyrbreve" unicode="&#xf6d4;" horiz-adv-x="401" 
d="M420 639q-7 -56 -45 -89t-94 -33q-51 0 -86 26.5t-35 77.5q0 10 1 18h61q0 -63 59 -63q33 0 52.5 18t25.5 45h61z" />
    <glyph glyph-name="uniF6DC" unicode="&#xf6dc;" horiz-adv-x="245" 
d="M239 683l-146 -683h-82l122 570h-83l8 38q41 5 74.5 24t46.5 35l13 16h47z" />
    <glyph glyph-name="Euro.fitted" horiz-adv-x="533" 
d="M520 677l-20 -73q-27 21 -105 21q-121 0 -199 -135q-18 -32 -34 -73h247l-24 -50h-238q-4 -16 -10 -52h226l-24 -50h-207q-1 -9 -1 -28q0 -185 143 -185q62 0 122 36l-16 -71q-62 -31 -134 -31q-85 0 -143 63t-58 178q0 26 1 38h-30l24 50h1h1h9q5 33 10 52h-45l24 50h37
q26 71 62 120q109 153 270 153q22 0 42 -1.5t30.5 -3.5t23.5 -5t15 -3z" />
    </font>
</defs>
</svg>
