<?xml version="1.0" standalone="no"?>
<!DOCTYPE svg PUBLIC "-//W3C//DTD SVG 1.1//EN" "http://www.w3.org/Graphics/SVG/1.1/DTD/svg11.dtd" >
<svg>
<metadata>
Created by FontForge 20110222 at Tue Mar 26 15:31:23 2013
 By Orthosie Webmaster
Copyright (c) 1990-2001 ParaType, Inc. All Rights Reserved. ITC Officina is a registered trade mark of International Typeface Corporation.
</metadata>
<defs>
<font id="OfficinaSerifBookCItalic" horiz-adv-x="500" >
  <font-face 
    font-family="OfficinaSerifBookCItalic"
    font-weight="400"
    font-style="italic"
    font-stretch="normal"
    units-per-em="1000"
    panose-1="2 0 5 3 0 0 0 0 0 0"
    ascent="800"
    descent="-200"
    x-height="480"
    cap-height="685"
    bbox="-150 -250 981.562 882"
    underline-thickness="50"
    underline-position="-100"
    slope="-12"
    unicode-range="U+0020-2265"
  />
<missing-glyph horiz-adv-x="233" 
 />
    <glyph glyph-name=".notdef" horiz-adv-x="233" 
 />
    <glyph glyph-name=".null" horiz-adv-x="0" 
 />
    <glyph glyph-name="nonmarkingreturn" horiz-adv-x="333" 
 />
    <glyph glyph-name="space" unicode=" " horiz-adv-x="233" 
 />
    <glyph glyph-name="exclam" unicode="!" horiz-adv-x="333" 
d="M217 685h76q13 0 9 -16l-106 -394q-3 -10 -13 -10h-32q-9 0 -10.5 4t0.5 11l62 393q1 12 14 12zM190 53q0 -25 -18.5 -46t-48.5 -21q-29 0 -48 19t-19 48t19 48t48 19q30 0 48.5 -21t18.5 -46z" />
    <glyph glyph-name="quotedbl" unicode="&#x22;" horiz-adv-x="407" 
d="M105 473l-16 242q-1 9 12 9h58q13 0 12 -9l-16 -242q-1 -13 -12 -13h-26q-11 0 -12 13zM253 473l-16 242q-1 9 12 9h58q13 0 12 -9l-16 -242q-1 -13 -12 -13h-26q-11 0 -12 13z" />
    <glyph glyph-name="numbersign" unicode="#" 
d="M344 177l63 200h-122l-63 -200h122zM387 112l-56 -178q-2 -6 -3 -8t-4 -4t-8 -2h-39q-13 0 -10 14l56 178h-122l-56 -178q-2 -6 -3 -8t-4 -4t-8 -2h-39q-13 0 -10 14l56 178h-64q-8 0 -6 8l10 49q3 8 10 8h71l63 200h-70q-8 0 -6 8l10 49q2 8 10 8h76l64 201q1 7 4 11
q2 3 11 3h45q6 0 6 -2q0 -6 -2 -12l-64 -201h122l64 201q1 7 4 11q2 3 11 3h45q6 0 6 -2q0 -6 -2 -12l-64 -201h59q8 0 6 -8l-10 -49q-2 -8 -10 -8h-65l-63 -200h64q7 0 6 -8l-10 -49q-2 -8 -10 -8h-71z" />
    <glyph glyph-name="dollar" unicode="$" 
d="M347 595l-48 -229q57 -44 82.5 -81.5t25.5 -94.5q0 -80 -52 -136t-134 -59l-11 -54q-2 -9 -8 -10q-3 -1 -7 -1h-26q-10 0 -8 15l10 50q-58 2 -111 28q-26 14 -26 22q0 3 2 7l24 41q4 7 8 7q1 0 26 -13q55 -29 90 -30l55 261q-59 46 -84.5 80.5t-25.5 88.5
q0 68 50.5 118.5t131.5 51.5l9 39q3 11 15 11h26q13 0 9 -15l-9 -35q49 -5 87 -22q32 -15 32 -24q0 -4 -3 -7l-26 -42q-4 -4 -9 -4q-6 0 -15 7q-31 24 -80 30zM255 393l42 202q-44 -4 -70 -37t-26 -75q0 -47 54 -90zM283 289l-49 -232q46 9 71.5 45t25.5 82q0 67 -48 105z
" />
    <glyph glyph-name="percent" unicode="%" horiz-adv-x="759" 
d="M69 430q0 96 54 161.5t124 65.5q43 0 72 -28.5t29 -87.5q0 -95 -51.5 -160t-125.5 -65q-12 0 -25 3t-32.5 13t-32 35t-12.5 63zM134 428q0 -58 44 -58q42 0 73.5 47.5t31.5 125.5q0 60 -44 60q-42 0 -73.5 -47.5t-31.5 -127.5zM546 657h43q10 0 10 -8q0 -2 -4 -10
l-351 -644q-6 -9 -17 -9h-41q-10 0 -10 7q0 2 4 10l351 645q5 9 15 9zM435 99q0 96 52 162t124 66q45 0 74 -28t29 -90q0 -95 -50.5 -159t-123.5 -64q-45 0 -75 27.5t-30 85.5zM500 98q0 -58 46 -58q39 0 71 47t32 126q0 60 -44 60q-41 0 -73 -47.5t-32 -127.5z" />
    <glyph glyph-name="ampersand" unicode="&#x26;" horiz-adv-x="594" 
d="M411 63l-8 -6q-93 -71 -200 -71q-79 0 -125.5 40.5t-46.5 118.5q0 36 9.5 66.5t22.5 50.5t39.5 42t45.5 34t57 34q-4 7 -15.5 26t-15 25t-10.5 20.5t-9 24t-4.5 23.5t-2.5 29q0 79 54.5 129t140.5 50q69 0 106.5 -38t37.5 -93q0 -52 -40.5 -109t-139.5 -106l124 -184
q33 46 50 98q3 10 5.5 22t4.5 16q3 8 12 8h51q11 0 11 -9q0 -3 -13 -40q-33 -91 -85 -150l49 -73q3 -6 3 -8q0 -7 -7 -11l-41 -27q-6 -3 -9 -3q-5 0 -10 8zM274 405q71 40 104 73.5t33 82.5q0 37 -22 58t-56 21q-44 0 -76.5 -31.5t-32.5 -81.5q0 -18 4.5 -34.5t9.5 -25.5
t17 -29.5t19 -32.5zM375 118l-135 201q-133 -62 -133 -166q0 -46 28 -74t80 -28q81 0 152 60z" />
    <glyph glyph-name="quotesingle" unicode="'" horiz-adv-x="167" 
d="M124 715l-15 -242q-1 -13 -9 -13h-33q-8 0 -9 13l-16 242q-1 9 10 9h62q11 0 10 -9z" />
    <glyph glyph-name="parenleft" unicode="(" horiz-adv-x="427" 
d="M249 -218l-25 -14q-6 -4 -13 -4t-18 19q-89 153 -89 318q0 67 15 136.5t40 126t43 91t36 62.5q69 105 157 193q15 14 20 14q1 0 7 -3l27 -20q6 -4 6 -10q0 -3 -13 -16q-14 -13 -37.5 -39.5t-68 -91t-78.5 -134.5q-74 -153 -74 -331q0 -143 70 -272q4 -8 4 -11
q0 -9 -9 -14z" />
    <glyph glyph-name="parenright" unicode=")" horiz-adv-x="427" 
d="M178 706l25 14q6 4 13 4t18 -19q89 -153 89 -318q0 -67 -15 -136.5t-40 -126t-43 -91t-36 -62.5q-69 -105 -157 -193q-15 -14 -20 -14q-1 0 -7 3l-27 20q-6 5 -6 10q0 3 13 16q14 13 37.5 39.5t68 91t78.5 134.5q74 153 74 331q0 143 -70 272q-4 8 -4 11q0 9 9 14z" />
    <glyph glyph-name="asterisk" unicode="*" horiz-adv-x="493" 
d="M257 517l-110 52q-5 3 -5 9q0 2 3 6l22 38q6 12 13 5l100 -68l17 121q0 7 6 7q2 0 5 -1h2l42 -9q1 0 3.5 -0.5t5 -3.5t1.5 -7l-34 -118l115 22q6 0 9 0.5t4.5 -2t1.5 -3.5v-4l4 -42q0 -2 0.5 -5.5t0.5 -4.5q0 -4 -4 -4h-7l-118 -4l57 -106q3 -9 -8 -14l-38 -17l-2 -2
q-2 -1 -6 -1q-5 0 -7 5l-41 114l-84 -87q-4 -4 -9 -4q-1 0 -5 6l-29 31l-1 1q-1 1 -1 2l-3 3q0 8 3 10z" />
    <glyph glyph-name="plus" unicode="+" 
d="M285 290h180q12 0 12 -12v-48q0 -12 -12 -12h-180v-180q0 -12 -12 -12h-48q-12 0 -12 12v180h-179q-12 0 -12 12v48q0 12 12 12h179v178q0 12 12 12h48q12 0 12 -12v-178z" />
    <glyph glyph-name="comma" unicode="," horiz-adv-x="204" 
d="M144 103l-147 -214q-4 -6 -9 -6q-3 0 -7 2l-21 10q-7 3 -7 7q0 2 2 6l83 202q4 10 15 10h85q10 0 10 -7q0 -6 -4 -10z" />
    <glyph glyph-name="hyphen" unicode="-" horiz-adv-x="296" 
d="M28 235l9 44q2 12 15 12h207q11 0 8 -16l-10 -47q-3 -12 -15 -12h-206q-9 0 -10 5.5t2 13.5z" />
    <glyph glyph-name="period" unicode="." horiz-adv-x="296" 
d="M172 53q0 -29 -19 -48t-48 -19t-48 19t-19 48t19 48t48 19t48 -19t19 -48z" />
    <glyph glyph-name="slash" unicode="/" horiz-adv-x="482" 
d="M450 717h47q10 0 10 -7q0 -2 -5 -10l-521 -894q-4 -8 -18 -8h-46q-10 0 -10 7q0 2 4 10l522 894q5 8 17 8z" />
    <glyph glyph-name="zero" unicode="0" 
d="M485 467q0 -108 -36 -225.5t-101 -185.5q-67 -70 -157 -70q-84 0 -122 64q-26 44 -26 126q0 163 69 308q83 173 226 173q73 0 111 -50q36 -47 36 -140zM206 53q89 0 144 127q59 136 59 287q0 64 -21 92q-23 31 -67 31q-95 0 -151 -141q-22 -56 -36.5 -134.5t-14.5 -145.5
q0 -53 19 -82q22 -34 68 -34z" />
    <glyph glyph-name="one" unicode="1" 
d="M362 48l-8 -38q-2 -10 -12 -10h-264q-10 0 -7 14l8 38q2 10 12 10h98l107 495l-147 -83q-11 -6 -16 3l-16 24q-7 11 4 16l198 120q12 6 19 6h40q9 0 9 -9q0 -2 -0.5 -4.5t-2 -8.5t-2.5 -12l-117 -547h90q10 0 7 -14z" />
    <glyph glyph-name="two" unicode="2" 
d="M170 480l-41 13q-13 4 -7 16l6 13q24 52 75 93.5t129 41.5q68 0 107 -34q40 -35 40 -97q0 -97 -80 -168q-37 -32 -116 -86q-76 -53 -117.5 -95.5t-63.5 -106.5h276q11 0 6 -19l-9 -39q-3 -12 -12 -12h-341q-8 0 -8 8q0 15 7 41q19 70 57 124q26 36 60.5 69.5t50.5 45
t53 38.5q80 57 117.5 97t37.5 90q0 77 -78 77q-43 0 -73 -26q-36 -30 -59 -76q-7 -11 -17 -8z" />
    <glyph glyph-name="three" unicode="3" 
d="M160 323l9 40q3 12 14 12h36q72 0 119 49q38 39 38 95q0 32 -21 52q-20 19 -59 19q-57 0 -121 -57q-6 -6 -11 -6q-4 0 -10 6l-26 28q-2 2 -3 4v3q0 3 10 13q26 28 61 46q57 30 112 30q68 0 105 -34q39 -34 39 -90q0 -64 -39 -115q-39 -50 -97 -69l10 -4q79 -31 79 -125
q0 -88 -60 -155q-71 -79 -189 -79q-70 0 -128 26q-20 8 -20 18q0 5 4 13l21 42q5 5 7 5q4 0 11 -5q56 -32 108 -32q85 0 130 52q40 45 40 107q0 48 -29 72q-28 24 -84 24h-46q-8 0 -10 3t0 12z" />
    <glyph glyph-name="four" unicode="4" 
d="M358 157l-31 -145q-3 -12 -10 -12h-52q-10 0 -10 8q0 2 1.5 7t1.5 8l28 134h-257q-9 0 -9 10q0 3 2 13l7 34q1 8 9 18l345 425q7 9 21 5l45 -10q7 -2 7 -7v-2q0 -1 -1.5 -2.5t-1.5 -2.5l-340 -414h188l46 160q3 11 13 11h37q12 0 9 -16l-33 -155h81q12 0 9 -15l-9 -41
q-2 -9 -8 -10q-3 -1 -7 -1h-81z" />
    <glyph glyph-name="five" unicode="5" 
d="M239 573l-66 -200l2 -2l3 2q56 38 110 38q25 0 47.5 -6.5t46.5 -21.5t38.5 -47t14.5 -77q0 -101 -63 -179q-75 -94 -206 -94q-54 0 -124 21q-15 6 -10 19l12 41q2 10 10 10q3 0 23 -6q55 -18 101 -18q77 0 129 59.5t52 140.5q0 42 -23 66q-24 25 -63 25q-62 0 -116 -45
q-20 -18 -25 -18q-1 0 -9 2l-28 10q-10 3 -10 11q0 2 4 15l96 313q3 11 15 11h263q12 0 9 -17l-9 -41q-4 -12 -14 -12h-210z" />
    <glyph glyph-name="six" unicode="6" 
d="M505 629l-16 -36q-5 -12 -12 -12q-3 0 -8.5 1.5t-7.5 1.5q-20 6 -50 6q-46 0 -85 -20t-67 -53.5t-46 -66.5t-32 -70l2 -2q53 62 128 62q64 0 97 -41q33 -40 33 -122q0 -118 -57 -197q-66 -94 -180 -94q-70 0 -108 42q-39 42 -39 123q0 101 44 230t135 208q79 68 187 68
q31 0 65 -6q21 -4 21 -11q0 -5 -4 -11zM213 53q74 0 116 73q36 64 36 143q0 57 -26 83q-19 21 -54 21q-63 0 -103 -54q-49 -68 -49 -177q0 -43 18 -64q21 -25 62 -25z" />
    <glyph glyph-name="seven" unicode="7" 
d="M500 593l-350 -598q-5 -11 -20 -8l-55 9q-6 2 -7 4q-1 1 -1 3t4 10l337 560h-263q-9 0 -9 3q0 12 1 16l8 39q3 12 15 12h342q12 0 9 -17l-4 -18q-1 -6 -7 -15z" />
    <glyph glyph-name="eight" unicode="8" 
d="M335 342q109 -53 109 -154q0 -77 -54 -133q-67 -69 -185 -69q-81 0 -131 41q-51 41 -51 115q0 93 75 148q51 38 111 52q-89 49 -89 139q0 85 65 134q58 42 139 42q75 0 119 -37q43 -36 43 -93q0 -75 -62 -130q-41 -36 -89 -55zM278 372l2 1l2 1l16 8q15 7 21.5 10.5
t20 12t23.5 17.5t19 20q28 35 28 72q0 38 -27 58q-24 18 -66 18q-59 0 -90 -30t-31 -72q0 -37 20 -62.5t62 -53.5zM263 304q-83 -29 -119 -59q-45 -39 -45 -97q0 -46 34 -72q30 -23 84 -23q68 0 111 37q40 34 40 92q0 45 -35 80q-20 20 -70 42z" />
    <glyph glyph-name="nine" unicode="9" 
d="M42 17l7 36q2 9 10 9q3 0 23 -4.5t39 -4.5q86 0 148 67q33 35 57.5 87t31.5 81l1 4l-2 2q-57 -85 -143 -85q-59 0 -95 44.5t-36 122.5q0 111 63.5 196t174.5 85q45 0 75.5 -15.5t45 -41.5t20 -50t5.5 -52q0 -58 -11.5 -123.5t-38.5 -135.5t-66 -125.5t-99.5 -91.5
t-132.5 -36q-41 0 -58 5q-21 5 -21 14q0 4 2 12zM240 276q64 0 107.5 60.5t43.5 158.5q0 95 -79 95q-68 0 -110.5 -65.5t-42.5 -151.5q0 -97 81 -97z" />
    <glyph glyph-name="colon" unicode=":" horiz-adv-x="296" 
d="M172 53q0 -29 -19 -48t-48 -19t-48 19t-19 48t19 48t48 19t48 -19t19 -48zM245 413q0 -29 -19.5 -48t-47.5 -19t-47.5 19t-19.5 48t19.5 48t47.5 19t47.5 -19t19.5 -48z" />
    <glyph glyph-name="semicolon" unicode=";" horiz-adv-x="296" 
d="M252 413q0 -29 -19 -48t-48 -19t-48 19t-19 48t19 48t48 19t48 -19t19 -48zM183 103l-147 -214q-4 -6 -9 -6q-3 0 -7 2l-21 10q-7 3 -7 7q0 2 2 6l83 202q4 10 15 10h85q10 0 10 -7q0 -6 -4 -10z" />
    <glyph glyph-name="less" unicode="&#x3c;" 
d="M22 230v47q0 12 11 16l404 146q6 3 12 3t9 -10l16 -46l2 -8q0 -7 -9 -9l-322 -115v-2l322 -114q9 -3 9 -10l-1 -2q-1 -3 -1 -5l-16 -46q-3 -10 -9 -10q-3 0 -12 3l-404 146q-11 4 -11 16z" />
    <glyph glyph-name="equal" unicode="=" 
d="M477 346v-48q0 -12 -12 -12h-431q-12 0 -12 12v48q0 12 12 12h431q12 0 12 -12zM477 209v-48q0 -12 -12 -12h-431q-12 0 -12 12v48q0 12 12 12h431q12 0 12 -12z" />
    <glyph glyph-name="greater" unicode="&#x3e;" 
d="M478 277v-47q0 -12 -11 -16l-404 -146q-9 -3 -12 -3q-6 0 -9 10l-16 46q0 2 -1 5l-1 2q0 7 9 10l322 114v2l-322 115q-9 2 -9 9l2 8l16 46q3 10 9 10t12 -3l404 -146q11 -4 11 -16z" />
    <glyph glyph-name="question" unicode="?" horiz-adv-x="463" 
d="M263 369l-20 -95q-2 -10 -12 -10h-49q-8 0 -8 7q0 3 3 15l25 116q0 1 0.5 3.5t0.5 3.5t1 3t2 2.5t3.5 2t5.5 2.5t7.5 2t10.5 3l15 4q65 17 95 48t30 80q0 36 -19 55q-21 21 -64 21q-47 0 -111 -24q-6 -2 -10 -2q-5 0 -9 7l-12 42q-2 6 4 10t16 8q3 0 4 1q75 25 131 25
q69 0 110 -35q42 -37 42 -101q0 -83 -67 -138q-48 -40 -125 -56zM231 53q0 -25 -18.5 -46t-48.5 -21q-28 0 -47.5 19t-19.5 48t19.5 48t47.5 19q30 0 48.5 -21t18.5 -46z" />
    <glyph glyph-name="at" unicode="@" horiz-adv-x="944" 
d="M606 420h48q7 0 5 -11l-49 -229q-3 -15 -3 -17v-9q2 -50 41 -50q60 0 116 73t56 185q0 110 -70 174.5t-193 64.5q-119 0 -214 -57.5t-146 -152.5t-51 -208q0 -137 78 -219t234 -82q139 0 284 66q27 12 28 12q7 0 10 -8l12 -29q7 -15 -15 -27q-45 -24 -130 -48t-185 -24
q-176 0 -280.5 93t-104.5 263q0 202 139 340.5t338 138.5q149 0 240 -79t91 -216q0 -72 -24.5 -134t-62 -100t-79.5 -59.5t-80 -21.5q-44 0 -65.5 26t-19.5 64h-2q-60 -89 -137 -89q-39 0 -62.5 29t-23.5 85q0 58 17.5 113.5t48.5 93.5q49 59 118 59q41 0 70 -33l6 -7l10 24
q2 6 7 6zM558 256l17 82l-2 2q-32 32 -65 32q-52 0 -82 -80q-25 -71 -25 -125q0 -55 36 -55q22 0 47.5 19t39.5 40q24 36 34 85z" />
    <glyph glyph-name="A" unicode="A" horiz-adv-x="552" 
d="M373 206h-213l-72 -144h61q10 0 7 -14l-8 -38q-2 -10 -12 -10h-182q-9 0 -9 7q0 1 4 15l8 30q2 10 11 10h42l317 614q6 9 12 9h56q10 0 12 -13l56 -610h51q10 0 7 -14l-8 -38q-2 -10 -12 -10h-189q-9 0 -9 7q0 1 4 15l8 30q2 10 11 10h59zM367 273l-17 222q-3 36 -3 95
h-2q-13 -41 -40 -95l-112 -222h174z" />
    <glyph glyph-name="B" unicode="B" horiz-adv-x="547" 
d="M70 62l119 561h-67q-8 0 -8 7q0 3 3 15l8 30q2 10 12 10h197q39 0 57 -0.5t52 -9t54 -25.5q36 -31 36 -91q0 -66 -35.5 -120t-102.5 -79v-2q41 -10 66.5 -44.5t25.5 -84.5q0 -83 -54 -151q-63 -78 -189 -78h-254q-9 0 -9 7q0 1 4 15l8 30q2 10 11 10h66zM217 382h63
q74 0 112 33q25 22 42 56.5t17 66.5q0 36 -17 56q-22 24 -64 24h-103zM150 67h88q70 0 111 34q56 46 56 121q0 93 -115 93h-88z" />
    <glyph glyph-name="C" unicode="C" horiz-adv-x="471" 
d="M416 165l-20 -95q-3 -15 -10 -21q-30 -24 -81 -43.5t-93 -19.5q-77 0 -119 53t-42 153q0 179 68 324q26 55 58.5 93.5t65 57t59 25.5t53.5 7q49 0 96 -21q20 -9 37.5 -22.5t17.5 -25.5q0 -6 -2 -12l-23 -103q-2 -10 -12 -10h-46q-8 0 -8 6q0 4 2 11l18 84l-11 6
q-36 20 -74 20q-104 0 -166 -168q-51 -140 -51 -283q0 -63 29 -97q26 -31 73 -31q45 0 89 31l10 7l18 84q2 11 12 11h46q11 0 6 -21z" />
    <glyph glyph-name="D" unicode="D" horiz-adv-x="574" 
d="M70 62l119 561h-67q-8 0 -8 7q0 3 3 15l8 30q2 10 12 10h219q103 0 149 -43q49 -46 49 -150q0 -76 -25 -178.5t-64 -171.5q-42 -74 -105 -108t-165 -34h-205q-9 0 -9 7q0 1 4 15l8 30q2 10 11 10h66zM151 67h69q91 0 148 69q52 64 78 171.5t26 185.5q0 66 -27 95
q-28 30 -90 30h-88z" />
    <glyph glyph-name="E" unicode="E" 
d="M345 67l20 95q0 11 12 11h49q7 0 5 -11l-31 -150q-3 -12 -15 -12h-397q-9 0 -9 7q0 1 4 15l8 30q2 10 11 10h66l119 561h-67q-8 0 -8 7q0 3 3 15l8 30q2 10 12 10h390q11 0 9 -9l-30 -140q-2 -11 -12 -11h-46q-9 0 -9 6q0 1 2 9l16 78h-190l-48 -229h208q12 0 8 -15
l-8 -40q-2 -12 -14 -12h-209l-54 -255h197z" />
    <glyph glyph-name="F" unicode="F" horiz-adv-x="469" 
d="M204 322l-55 -260h80q10 0 7 -14l-8 -38q-2 -10 -12 -10h-226q-9 0 -9 7q0 1 4 15l8 30q2 10 11 10h66l119 561h-67q-8 0 -8 7q0 3 3 15l8 30q2 10 12 10h383q11 0 9 -9l-30 -140q-2 -11 -12 -11h-46q-9 0 -9 6q0 1 2 9l16 78h-183l-48 -229h200q12 0 8 -15l-8 -40
q-2 -12 -14 -12h-201z" />
    <glyph glyph-name="G" unicode="G" horiz-adv-x="538" 
d="M457 284l-50 -235q-3 -15 -7 -19t-19 -11q-69 -33 -149 -33q-34 0 -63 9t-57 30.5t-44.5 66.5t-16.5 108q0 178 74 328q84 171 233 171q54 0 105.5 -21.5t51.5 -42.5q0 -6 -2 -12l-22 -98q-2 -10 -12 -10h-46q-9 0 -9 6q0 1 3 13l17 72l-4 2q-42 24 -92 24
q-103 0 -164 -168q-51 -143 -51 -283q0 -62 28 -95q29 -33 83 -33q42 0 92 14l43 217h-79q-8 0 -8 7q0 3 3 15l8 30q2 10 12 10h221q8 0 8 -7l-4 -16l-8 -29q-4 -10 -12 -10h-63z" />
    <glyph glyph-name="H" unicode="H" horiz-adv-x="612" 
d="M436 322h-233l-55 -260h68q8 0 8 -7l-4 -16l-8 -30q-2 -9 -12 -9h-210q-9 0 -9 7q0 1 4 15l8 30q2 10 11 10h66l119 561h-67q-8 0 -8 7q0 3 3 15l8 30q2 10 12 10h212q8 0 8 -7l-4 -16l-8 -29q-4 -10 -12 -10h-66l-50 -234h233l50 234h-67q-8 0 -8 7q0 3 3 15l8 30
q2 10 12 10h212q8 0 8 -7l-4 -16l-8 -29q-4 -10 -12 -10h-66l-119 -561h68q8 0 8 -7l-4 -16l-8 -30q-2 -9 -12 -9h-210q-9 0 -9 7q0 1 4 15l8 30q2 10 11 10h66z" />
    <glyph glyph-name="I" unicode="I" horiz-adv-x="331" 
d="M85 62l119 561h-94q-8 0 -8 7q0 3 3 15l8 30q2 10 12 10h265q8 0 8 -7l-4 -16l-8 -29q-4 -10 -12 -10h-92l-119 -561h95q8 0 8 -7l-4 -16l-8 -30q-2 -9 -12 -9h-263q-9 0 -9 7q0 1 4 15l8 30q2 10 11 10h92z" />
    <glyph glyph-name="J" unicode="J" horiz-adv-x="426" 
d="M431 669l-97 -457q-22 -104 -55 -152q-51 -74 -150 -74q-72 0 -108.5 39.5t-36.5 94.5q0 49 8 68q4 9 13 9h53q8 0 5 -19q-3 -14 -3 -41q0 -25 8 -44q17 -40 64 -40q28 0 52 12t36 30q13 18 28 84l94 444h-177q-8 0 -8 8q0 3 3 14l8 30q2 10 12 10h242q12 0 9 -16z" />
    <glyph glyph-name="K" unicode="K" horiz-adv-x="548" 
d="M360 62l-148 291h-2l-62 -291h68q8 0 8 -7l-4 -16l-8 -30q-2 -9 -12 -9h-210q-9 0 -9 7q0 1 4 15l8 30q2 10 11 10h66l119 561h-67q-8 0 -8 7q0 3 3 15l8 30q2 10 12 10h212q8 0 8 -7l-4 -16l-8 -29q-4 -10 -12 -10h-66l-55 -260h2l249 260h-51q-8 0 -8 7q0 3 3 15l8 30
q2 10 12 10h183q8 0 8 -7l-4 -16l-8 -29q-4 -10 -12 -10h-41l-257 -266l154 -295h52q8 0 8 -7l-4 -16l-8 -30q-2 -9 -12 -9h-199q-9 0 -9 7q0 1 4 15l8 30q2 10 11 10h59z" />
    <glyph glyph-name="L" unicode="L" horiz-adv-x="481" 
d="M341 67l51 85q6 10 11 10q2 0 8 -3l36 -21q6 -6 6 -9q0 -2 -7 -14l-61 -103q-8 -12 -18 -12h-373q-13 0 -13 7q0 1 4 15l8 30q2 10 11 10h66l119 561h-67q-8 0 -8 7q0 3 3 15l8 30q2 10 12 10h212q8 0 8 -7l-4 -16l-8 -29q-4 -10 -12 -10h-66l-118 -556h192z" />
    <glyph glyph-name="M" unicode="M" horiz-adv-x="685" 
d="M637 623l-88 -561h68q8 0 8 -7l-4 -16l-8 -30q-2 -9 -12 -9h-207q-9 0 -9 7q0 1 4 15l8 30q2 10 11 10h65l86 466q4 21 11 51h-2q-14 -34 -23 -51l-190 -351q-9 -17 -19 -17h-29q-11 0 -13 8q-1 2 -1 5l-37 355q0 1 -1 11t-2 21q0 2 -2 25h-2q-1 -23 -9 -57l-111 -466h68
q8 0 8 -7l-4 -16l-8 -30q-2 -9 -12 -9h-207q-9 0 -9 7q0 1 4 15l8 30q2 10 11 10h65l151 561h-67q-8 0 -8 7q0 3 3 15l8 30q2 10 12 10h134q9 0 11 -2t3 -10l40 -346v-3q0 -2 0.5 -4t0.5 -4v-3l2 -39h2q3 14 23 53l188 349q4 9 15 9h146q8 0 8 -7l-4 -16l-8 -29
q-4 -10 -12 -10h-64z" />
    <glyph glyph-name="N" unicode="N" horiz-adv-x="606" 
d="M579 623l-126 -593q-7 -30 -18 -30h-46q-17 0 -20 12l-115 508q-5 22 -8 71h-2q-1 -35 -10 -75l-97 -454h74q8 0 8 -7l-4 -16l-8 -30q-2 -9 -12 -9h-205q-9 0 -9 7q0 1 4 15l8 30q2 10 11 10h63l119 561h-65q-8 0 -8 7q0 3 3 15l8 30q3 10 13 10h137q4 0 6.5 -0.5t3.5 -2
t1.5 -2t1.5 -4.5l1 -3l109 -478q4 -15 10 -75h2q6 55 11 81l89 422h-61q-14 0 -14 7q0 3 3 15l8 30q2 10 12 10h203q8 0 8 -7l-4 -16l-8 -29q-4 -10 -12 -10h-65z" />
    <glyph glyph-name="O" unicode="O" horiz-adv-x="537" 
d="M223 -14q-49 0 -80.5 14.5t-55.5 48.5q-35 49 -35 138q0 131 34.5 253.5t103.5 191.5q67 67 162 67q86 0 130 -53q40 -48 40 -149q0 -131 -36 -255.5t-103 -190.5q-65 -65 -160 -65zM230 53q52 0 85 33t60 98q65 157 65 321q0 75 -32 105q-23 22 -62 22q-42 0 -77 -26
t-66 -92q-32 -68 -50.5 -165t-18.5 -178q0 -57 22 -86q24 -32 74 -32z" />
    <glyph glyph-name="P" unicode="P" horiz-adv-x="523" 
d="M148 62h78q8 0 8 -7l-4 -16l-8 -30q-2 -9 -12 -9h-220q-9 0 -9 7q0 1 4 15l8 30q2 10 11 10h66l119 561h-67q-8 0 -8 7q0 3 3 15l8 30q2 10 11 10h220q79 0 117 -27q50 -36 50 -120q0 -67 -27.5 -119.5t-63.5 -81.5q-57 -46 -162 -46h-73zM212 358h62q81 0 115 34
q23 22 37.5 57.5t14.5 73.5q0 60 -28 82q-17 13 -50 13h-96z" />
    <glyph glyph-name="Q" unicode="Q" horiz-adv-x="537" 
d="M217 -14q-89 0 -131 58q-34 47 -34 141q0 129 34.5 252t108.5 195q70 67 162 67q84 0 126 -51q40 -48 40 -144q0 -81 -19 -176.5t-47 -160.5q-28 -66 -72 -110q25 -30 71 -66q3 -2 10 -7.5t11 -8.5t7.5 -8t3.5 -8t-6 -9l-46 -25q-3 -3 -10 -3q-31 0 -99 90l-2 -1
q-50 -25 -108 -25zM218 53q97 0 155 125q31 66 49.5 157.5t18.5 174.5q0 65 -23 94q-22 28 -63 28q-92 0 -150 -116q-28 -55 -49.5 -156t-21.5 -174q0 -69 16 -97q21 -36 68 -36z" />
    <glyph glyph-name="R" unicode="R" horiz-adv-x="529" 
d="M437 62h62q9 0 8 -7l-7 -45q-2 -10 -14 -10h-97q-15 0 -19 10l-99 301h-70l-53 -249h78q8 0 8 -7l-4 -16l-8 -30q-2 -9 -12 -9h-220q-9 0 -9 7q0 1 4 15l8 30q2 10 11 10h66l119 561h-67q-8 0 -8 7q0 3 3 15l8 30q2 10 11 10h214q100 0 139 -39q34 -36 34 -103
q0 -86 -49 -149q-46 -60 -125 -76zM216 378h61q55 0 89.5 16t56.5 60q18 36 18 73q0 31 -8 51t-22 28t-24 10t-24 2h-96z" />
    <glyph glyph-name="S" unicode="S" horiz-adv-x="435" 
d="M372 527l17 79l-5 3q-39 23 -84 23q-50 0 -87 -31t-37 -91q0 -26 7 -41t28 -33q16 -14 40.5 -32.5t43.5 -34.5q26 -22 40.5 -36.5t32.5 -52t18 -81.5q0 -93 -63.5 -153t-165.5 -60q-71 0 -138 35q-28 16 -24 33l27 125q0 1 1 3.5t4 5t7 2.5h47q8 0 8 -7q0 -1 -3 -13
l-19 -91l8 -4q44 -22 91 -22q65 0 101.5 40t36.5 98q0 33 -15.5 61.5t-32 43.5t-45.5 37q-1 0 -17 12.5t-18.5 15t-17 14t-18 17t-14 17.5t-14 21t-9 22t-7.5 27t-2 29q0 86 63 141q58 50 149 50q84 0 135 -30q25 -16 21 -34l-25 -115q0 -1 -1 -3.5t-4 -5t-7 -2.5h-48
q-7 0 -7 6q0 4 2 12z" />
    <glyph glyph-name="T" unicode="T" horiz-adv-x="444" 
d="M338 618l-119 -556h76q8 0 8 -7l-4 -16l-8 -30q-2 -9 -12 -9h-218q-9 0 -9 7q0 1 4 15l8 30q2 10 11 10h66l119 556h-98l-22 -106q-2 -10 -13 -10h-46q-8 0 -8 7q0 1 3 15l31 150q2 11 14 11h386q8 0 8 -7l-3 -15l-32 -151q-2 -10 -13 -10h-46q-8 0 -8 7q0 3 3 15l20 94
h-98z" />
    <glyph glyph-name="U" unicode="U" horiz-adv-x="600" 
d="M506 623h-67q-8 0 -8 7q0 3 3 15l8 30q2 10 12 10h212q8 0 8 -7l-4 -16l-8 -29q-4 -10 -12 -10h-66l-92 -435q-7 -31 -15.5 -55t-27 -53.5t-44 -48.5t-67.5 -32t-96 -13q-170 0 -170 140q0 27 7 62l92 435h-67q-8 0 -8 7q0 3 3 15l8 30q2 10 12 10h212q8 0 8 -7l-4 -16
l-8 -29q-4 -10 -12 -10h-66l-92 -435q-8 -38 -8 -56q0 -79 104 -79q133 0 161 135z" />
    <glyph glyph-name="V" unicode="V" horiz-adv-x="520" 
d="M548 623l-296 -613q-5 -10 -19 -10h-59q-10 0 -12.5 3t-2.5 10l-34 610h-45q-8 0 -8 7q0 3 3 15l8 30q2 10 12 10h190q8 0 8 -7l-4 -16l-8 -29q-4 -10 -12 -10h-62l14 -471q1 -10 0 -33.5t-1 -42.5h2q10 34 29 76l217 471h-63q-8 0 -8 7q0 3 3 15l8 30q2 10 12 10h183
q8 0 8 -7l-4 -16l-8 -29q-4 -10 -12 -10h-39z" />
    <glyph glyph-name="W" unicode="W" horiz-adv-x="742" 
d="M752 623l-258 -613q-5 -10 -17 -10h-63q-9 0 -8 11l28 532h-2l-211 -524q-5 -13 -8.5 -16t-10.5 -3h-60q-7 0 -10 2.5t-3 4.5v7l14 609h-52q-8 0 -8 7q0 3 3 15l8 30q2 10 12 10h190q8 0 8 -7l-4 -16l-8 -29q-4 -10 -12 -10h-62l-21 -445q0 -18 -11 -108h2q24 85 34 108
l205 497q5 10 15 10h45q10 0 12 -2.5t2 -7.5v-1l-22 -501q-2 -28 -9 -96h2q22 79 29 96l177 450h-63q-8 0 -8 7q0 3 3 15l8 30q2 10 12 10h183q8 0 8 -7l-4 -16l-8 -29q-4 -10 -12 -10h-45z" />
    <glyph glyph-name="X" unicode="X" horiz-adv-x="502" 
d="M257 283l-164 -221h68q8 0 8 -7l-4 -16l-8 -30q-2 -9 -12 -9h-203q-9 0 -9 7q0 1 4 15l8 30q2 10 11 10h49l222 296l-88 265h-58q-8 0 -8 7q0 3 3 15l8 30q2 10 12 10h197q8 0 8 -7l-4 -16l-8 -29q-4 -10 -12 -10h-55l48 -146l16 -52l8 15q15 27 26 41l108 142h-60
q-8 0 -8 7q0 3 3 15l8 30q2 10 12 10h193q8 0 8 -7l-4 -16l-8 -29q-4 -10 -12 -10h-43l-205 -265l102 -296h58q8 0 8 -7l-4 -16l-8 -30q-2 -9 -12 -9h-201q-9 0 -9 7q0 1 4 15l8 30q2 10 11 10h59z" />
    <glyph glyph-name="Y" unicode="Y" horiz-adv-x="490" 
d="M208 290l-91 333h-45q-8 0 -8 7q0 3 3 15l8 30q2 10 12 10h178q8 0 8 -7l-4 -16l-8 -29q-4 -10 -12 -10h-55l55 -211q3 -10 9 -62h2l3 6q7 15 31 53l136 214h-60q-8 0 -8 7q0 3 3 15l8 30q2 10 12 10h188q8 0 8 -7l-4 -16l-8 -29q-4 -10 -12 -10h-38l-232 -333l-48 -228
h76q8 0 8 -7l-4 -16l-8 -30q-2 -9 -12 -9h-218q-9 0 -9 7q0 1 4 15l8 30q2 10 11 10h66z" />
    <glyph glyph-name="Z" unicode="Z" horiz-adv-x="463" 
d="M336 67l55 90q5 6 8 6q5 0 8 -3l34 -24q10 -7 4 -16l-69 -108q-8 -12 -19 -12h-362q-10 0 -10 6v2l13 63l413 547h-214l-17 -84q-2 -10 -12 -10h-46q-9 0 -9 7q0 3 2 11l28 133q2 10 14 10h349q12 0 8 -18l-9 -43l-421 -557h252z" />
    <glyph glyph-name="bracketleft" unicode="[" horiz-adv-x="424" 
d="M146 -140h120q10 0 7 -14l-8 -38q-2 -10 -12 -10h-172q-21 0 -21 13q0 2 0.5 4.5t1.5 7t2 8.5l186 872q3 14 15 14h175q10 0 7 -14l-8 -38q-2 -10 -12 -10h-112z" />
    <glyph glyph-name="backslash" unicode="\" horiz-adv-x="444" 
d="M192 717h39q12 0 13 -11l106 -884q2 -8 0 -16t-13 -8h-39q-12 0 -13 11l-106 884q-2 8 0 16t13 8z" />
    <glyph glyph-name="bracketright" unicode="]" horiz-adv-x="425" 
d="M278 655h-120q-10 0 -7 14l8 38q2 10 12 10h172q21 0 21 -13q0 -2 -0.5 -4.5t-1.5 -7t-2 -8.5l-186 -872q-3 -14 -15 -14h-175q-10 0 -7 14l8 38q2 10 12 10h112z" />
    <glyph glyph-name="asciicircum" unicode="^" 
d="M223 685h55q9 0 13 -8l143 -319q5 -11 5 -13q0 -5 -10 -8l-48 -14q-11 -4 -15 6l-116 258l-115 -258q-2 -7 -10 -7q-3 0 -5 1l-48 14q-10 3 -10 8q0 2 5 13l143 319q4 8 13 8z" />
    <glyph glyph-name="underscore" unicode="_" 
d="M0 -125v50h500v-50h-500z" />
    <glyph glyph-name="grave" unicode="`" horiz-adv-x="333" 
d="M306 577l-22 -22q-5 -5 -10 -5q-1 0 -7 3l-131 80q-4 3 -4 6t4 7l49 51q7 7 11 7q6 0 8 -4l103 -110q3 -3 3 -6t-4 -7z" />
    <glyph glyph-name="a" unicode="a" 
d="M375 58h67q11 0 7 -13l-8 -35q-2 -10 -12 -10h-75q-46 0 -49 59v18l1 16q-66 -107 -158 -107q-17 0 -33.5 5.5t-36 19.5t-31.5 45.5t-12 76.5q0 112 50 218q23 48 52.5 80t58 44t45 15.5t31.5 3.5q57 0 98 -48l5 -6l14 31q4 9 9 9h44q10 0 7 -13l-68 -314q-7 -33 -7 -67
q0 -19 1 -28zM330 248l29 136q-9 9 -17 15q-37 28 -73 28q-59 0 -100 -72q-26 -44 -42 -106t-16 -112q0 -84 61 -84q54 0 97 57.5t61 137.5z" />
    <glyph glyph-name="b" unicode="b" horiz-adv-x="492" 
d="M254 710l-52 -245q-2 -10 -14 -49h2q25 35 66 57q39 21 84 21q114 0 114 -135q0 -127 -71 -259q-60 -114 -168 -114q-79 0 -166 54q-7 5 -7 10q0 1 2 9l127 600h-69q-8 0 -8 7q0 2 1.5 7t1.5 8l5 24q2 12 13 12h132q9 0 7 -7zM163 280l-44 -203q63 -26 96 -26
q63 0 106 83q14 26 27 66q30 90 30 150q0 77 -66 77q-56 0 -99 -49q-38 -44 -50 -98z" />
    <glyph glyph-name="c" unicode="c" horiz-adv-x="397" 
d="M372 331h-44q-9 0 -9 7q0 4 2 11l15 68l-3 1q-27 9 -48 9q-34 0 -71 -22t-61 -68q-19 -35 -30.5 -89t-11.5 -94q0 -54 26 -76t64 -22q15 0 29 3t26 8t20 9t17.5 10t11.5 7q6 3 10 4h3q3 0 5 -4l15 -35q0 -1 1.5 -3.5t1.5 -4.5q0 -7 -14 -16q-70 -48 -151 -48
q-74 0 -109 47q-32 44 -32 118q0 140 70 241q72 102 190 102q50 0 90 -20q16 -8 19.5 -15t1.5 -19l-21 -98q-2 -11 -13 -11z" />
    <glyph glyph-name="d" unicode="d" 
d="M420 659h-72q-7 0 -7 7q0 2 2 10l6 29q2 12 13 12h129q10 0 11 -6.5t-2 -14.5l-115 -543q-7 -37 -7 -67q0 -19 1 -28h67q11 0 7 -13l-8 -35q-3 -10 -12 -10h-76q-31 0 -42 33q-5 14 -5 37v7v11h-2q-67 -102 -162 -102q-113 0 -113 148q0 129 48 227q65 133 190 133
q53 0 98 -27l10 -6zM331 237l34 160l-11 7q-37 23 -80 23q-83 0 -127 -96q-38 -85 -38 -196q0 -82 61 -82q52 0 97 49q46 50 64 135z" />
    <glyph glyph-name="e" unicode="e" horiz-adv-x="444" 
d="M354 98l24 -36q2 -2 2 -5q0 -5 -15 -15q-80 -56 -173 -56q-74 0 -116.5 46t-42.5 137q0 88 36 167q10 22 25 44t41.5 50.5t67 46t87.5 17.5q61 0 94.5 -34.5t33.5 -91.5q0 -97 -80.5 -137t-224.5 -40h-4l-1 -25q-2 -51 22 -80.5t72 -29.5q61 0 126 39q14 9 17 9q6 0 9 -6
zM118 253q103 -4 165 24q64 28 64 86q0 29 -17 49t-52 20q-21 0 -41.5 -7t-44.5 -24.5t-43.5 -55.5t-30.5 -92z" />
    <glyph glyph-name="f" unicode="f" horiz-adv-x="314" 
d="M350 422h-135l-85 -450q-20 -100 -70 -141q-43 -35 -116 -35q-35 0 -62 8q-18 5 -13 18l14 41q3 6 7 6q2 0 18 -4q20 -5 39 -5q68 0 94 59q10 23 16 57l86 446h-70q-8 0 -8 6q0 2 3 16l5 24q2 12 13 12h70l20 96q15 78 51 112q38 36 106 36q59 0 101 -21q11 -6 9 -13
l-18 -43q-3 -8 -19 -1q-44 20 -77 20q-40 0 -60 -30q-13 -20 -23 -69l-18 -87h142q11 0 5 -15l-12 -31q-4 -12 -13 -12z" />
    <glyph glyph-name="g" unicode="g" horiz-adv-x="491" 
d="M439 488l28 -26q4 -4 4 -7t-8 -13q-2 -3 -7.5 -9t-7.5 -9t-6 -9.5t-6.5 -13t-6.5 -16.5t-7.5 -23.5t-7.5 -31.5q-24 -108 -41 -206t-30 -160q-17 -82 -49 -118q-50 -56 -146 -56q-71 0 -140 32q-2 1 -10 4t-11.5 6t-3.5 7l4 12l17 43q3 6 9 6q5 0 15 -5q75 -38 129 -38
q62 0 93 53q15 25 28 86q7 33 12 61.5t9 44.5l-2 2q-62 -104 -146 -104q-17 0 -34 5.5t-36 19.5t-31 45.5t-12 76.5q0 81 29 166t77 130q54 51 126 51q55 0 117 -47q18 31 32 40q12 9 20 1zM325 248l30 142q-42 37 -92 37q-46 0 -77 -38q-30 -37 -51 -111.5t-21 -129.5
q0 -81 57 -81q51 0 95 56q44 55 59 125z" />
    <glyph glyph-name="h" unicode="h" horiz-adv-x="544" 
d="M167 228l-46 -218q-2 -10 -12 -10h-52q-8 0 -8 8q0 2 1.5 6.5t1.5 7.5l135 637h-72q-7 0 -7 7q0 2 2 10l6 29q2 12 13 12h129q10 0 11 -6.5t-2 -14.5l-49 -231q-11 -47 -24 -77h3q32 46 73 74q47 32 106 32q50 0 71.5 -23.5t21.5 -56.5q0 -22 -10 -70l-61 -286h67
q11 0 8 -13l-8 -35q-3 -10 -11 -10h-77q-27 0 -42 19q-8 11 -8 29q0 15 4 31l56 265q6 30 6 40q0 43 -46 43q-58 0 -108 -54q-26 -28 -45.5 -68.5t-26.5 -76.5z" />
    <glyph glyph-name="i" unicode="i" horiz-adv-x="278" 
d="M133 422h-80q-8 0 -8 7q0 4 2 11l6 28q4 11 13 12h138q14 0 9 -21l-85 -401h66q11 0 8 -13l-8 -35q-2 -10 -11 -10h-77q-27 0 -42 19q-8 11 -8 29q0 17 4 31zM272 661q0 -24 -16.5 -40t-39.5 -16t-39.5 16.5t-16.5 39.5t16 39.5t40 16.5q23 0 39.5 -16.5t16.5 -39.5z" />
    <glyph glyph-name="j" unicode="j" horiz-adv-x="291" 
d="M234 459l-103 -483q-22 -100 -56 -138q-42 -48 -113 -48q-53 0 -99 25q-13 4 -13 13q0 3 3 9l18 39q3 7 9 7q4 0 18 -7q38 -19 68 -19q46 0 70 49q13 27 29 100l89 416h-80q-8 0 -8 7l3 15l5 24q2 12 13 12h138q11 0 11 -10q0 -5 -2 -11zM293 661q0 -24 -16.5 -40
t-39.5 -16t-39.5 16.5t-16.5 39.5t16 39.5t40 16.5q23 0 39.5 -16.5t16.5 -39.5z" />
    <glyph glyph-name="k" unicode="k" horiz-adv-x="510" 
d="M248 255l138 -197h56q7 0 7 -6l-2 -12l-6 -28q-2 -12 -13 -12h-79q-11 0 -15 7l-163 242l-50 -239q-2 -10 -12 -10h-52q-8 0 -8 6q0 2 3 16l136 637h-71q-7 0 -7 7l3 15l5 24q2 12 13 12h132q9 0 7 -7l-95 -444h2l173 156h-54q-8 0 -8 7q0 1 0.5 2t1 3.5t0.5 4.5l6 29
q2 12 13 12h179q7 0 7 -7q0 -4 -2 -11l-6 -28q-2 -12 -13 -12h-31z" />
    <glyph glyph-name="l" unicode="l" horiz-adv-x="272" 
d="M218 58l7 -39q1 -8 -16 -16q-32 -17 -73 -17q-81 0 -81 76q0 37 16 110l104 487h-78q-8 0 -8 7l3 15l5 24q2 12 13 12h140q9 0 7 -7l-112 -528q-16 -73 -16 -101q0 -33 28 -33q20 0 42 12q8 5 13 5t6 -7z" />
    <glyph glyph-name="m" unicode="m" horiz-adv-x="768" 
d="M52 22l71 335q5 20 5 47q0 12 -1 18h-69q-8 0 -8 7q0 1 0.5 2t1 3t0.5 4l6 30q4 11 13 12h103q27 0 22 -76l-1 -16h2q28 47 67 76q41 30 93 30q41 0 63.5 -26.5t20.5 -64.5h2q27 42 70 66.5t89 24.5q40 0 66 -20.5t26 -62.5q0 -22 -10 -67l-61 -286h66q11 0 8 -13l-8 -35
q-3 -10 -11 -10h-77q-21 0 -33.5 11t-14.5 19.5t-2 14.5v8q0 7 2 15l59 276q6 30 6 40q0 43 -43 43q-68 0 -108 -62q-35 -51 -57 -154l-43 -201q-2 -10 -12 -10h-52q-8 0 -8 8q0 2 1.5 6.5t1.5 7.5l68 322q6 30 6 40q0 43 -42 43q-33 0 -66 -22.5t-56 -64.5
q-28 -48 -41 -112l-46 -218q-2 -10 -12 -10h-52q-8 0 -8 8q0 2 1.5 6.5t1.5 7.5z" />
    <glyph glyph-name="n" unicode="n" horiz-adv-x="544" 
d="M52 22l71 335q5 27 5 47q0 12 -1 18h-69q-8 0 -8 7q0 1 0.5 2t1 3t0.5 4l6 30q4 11 13 12h103q27 0 22 -76l-1 -16h2q72 106 178 106q47 0 70.5 -22.5t23.5 -57.5q0 -23 -10 -70l-60 -286h66q11 0 8 -13l-8 -35q-3 -10 -11 -10h-77q-21 0 -33.5 11t-14.5 19.5t-2 14.5v8
q0 7 2 15l58 276q6 30 6 40q0 43 -44 43q-79 0 -135 -87q-35 -55 -47 -112l-46 -218q-2 -10 -12 -10h-52q-8 0 -8 8q0 2 1.5 6.5t1.5 7.5z" />
    <glyph glyph-name="o" unicode="o" horiz-adv-x="481" 
d="M289 494q68 0 110 -42q43 -43 43 -127q0 -127 -62 -225q-38 -61 -91 -87.5t-105 -26.5q-66 0 -107 38q-44 42 -44 129q0 127 59 224q72 117 197 117zM366 324q0 55 -28 81q-23 22 -60 22q-80 0 -126 -85q-43 -81 -43 -187q0 -47 20 -74q21 -28 61 -28q84 0 131 84
q45 78 45 187z" />
    <glyph glyph-name="p" unicode="p" horiz-adv-x="509" 
d="M17 -144l101 471q8 37 8 62q0 11 -2 33h-71q-8 0 -8 7q0 1 3 15l5 24q2 12 13 12h99q28 0 31 -45q1 -5 1 -8l1 -10h2q72 77 157 77q113 0 113 -148q0 -143 -55 -243q-34 -62 -84.5 -89.5t-101.5 -27.5q-47 0 -93 26l-12 7l-35 -163h68q10 0 5 -18l-7 -30q-2 -10 -12 -10
h-194q-8 0 -8 7q0 3 3 15l5 24q2 12 13 12h55zM172 243l-34 -160l10 -6q40 -24 79 -24q72 0 114 69q53 88 53 221q0 84 -60 84q-50 0 -96.5 -47t-65.5 -137z" />
    <glyph glyph-name="q" unicode="q" horiz-adv-x="488" 
d="M316 -144h61q11 0 7 -18l-7 -30q-2 -10 -12 -10h-195q-8 0 -8 9q0 3 2 10l6 27q3 12 13 12h60l47 215l-2 2q-64 -87 -145 -87q-35 0 -58.5 17t-33.5 44t-13 47t-3 41q0 127 51 227q67 132 186 132q58 0 103 -36l15 -12l4 7q26 41 37 41l6 -3l32 -21q4 -2 4 -8
q0 -2 -8 -13q-31 -36 -46 -112zM324 228l35 167q-42 32 -86 32q-76 0 -117 -80q-45 -89 -45 -201q0 -93 62 -93q54 0 96 53q40 48 55 122z" />
    <glyph glyph-name="r" unicode="r" horiz-adv-x="345" 
d="M169 228l-46 -218q-3 -10 -12 -10h-52q-10 0 -7 13l71 336q4 20 4 45v22v6h-69q-8 0 -8 7q0 1 3 15l5 24q2 12 13 12h103q25 0 22 -61l-1 -24l2 -2q23 46 60.5 73.5t74.5 27.5q20 0 30 -6q6 -2 6 -7q0 -4 -3 -10l-20 -46q-4 -9 -14 -5t-19 4q-22 0 -48 -18.5t-47 -50.5
q-31 -47 -48 -127z" />
    <glyph glyph-name="s" unicode="s" horiz-adv-x="389" 
d="M37 156h45q8 0 8 -7q0 -1 -0.5 -2t-1 -3.5t-0.5 -4.5l-14 -69q37 -17 82 -17q42 0 65 24.5t23 56.5q0 21 -11.5 39t-22.5 26.5t-37 26.5q-30 21 -43.5 31.5t-27.5 34.5t-14 54q0 71 56 114q46 34 113 34q42 0 78 -14t31 -37l-19 -91q-2 -10 -13 -10h-44q-12 0 -8 15
l14 63q-27 7 -48 7q-36 0 -60 -19t-24 -52q0 -25 15 -41t51 -39q21 -13 30.5 -20.5t26.5 -24t25 -38t8 -47.5q0 -65 -45 -112.5t-131 -47.5q-71 0 -131 35q-12 7 -12 15q0 3 2 9t2 9l19 92q2 10 13 10z" />
    <glyph glyph-name="t" unicode="t" horiz-adv-x="333" 
d="M283 72l7 -41q1 -7 -15 -17q-50 -28 -119 -28q-54 0 -78 32q-18 23 -18 63q0 19 9 64l59 277h-73q-8 0 -8 7q0 5 2 15l5 24q3 12 14 12h73l28 138q2 9 11 11l53 15q13 3 13 -4q0 -3 -3 -12l-31 -148h137q11 0 5 -13l-19 -37q-4 -8 -8 -8h-127l-59 -275q-5 -30 -5 -48
q0 -25 12 -36q11 -10 32 -10q36 0 84 22q8 4 13 4q6 0 6 -7z" />
    <glyph glyph-name="u" unicode="u" horiz-adv-x="534" 
d="M209 459l-62 -289q-9 -48 -9 -61q0 -56 51 -56q49 0 98 41q48 41 71 149l46 218q2 10 10 12l52 13q3 2 9 1t5 -9l-74 -347q-8 -38 -8 -52q0 -9 1 -14l1 -7h68q11 0 8 -13l-8 -35q-2 -10 -11 -10h-58q-33 0 -48 13q-13 11 -15 36v21v10h-2q-32 -44 -77.5 -69t-94.5 -25
q-51 0 -75.5 33t-24.5 72q0 19 9 58l58 273h-72q-8 0 -8 7q0 1 0.5 2.5t1 4t0.5 4.5l5 28q1 5 1.5 6.5t3 3.5t8.5 2h131q14 0 9 -21z" />
    <glyph glyph-name="v" unicode="v" horiz-adv-x="440" 
d="M79 422h-56q-8 0 -8 7q0 2 1.5 7.5t1.5 6.5l5 25q2 12 13 12h104q11 0 12 -15l29 -297q0 -2 0.5 -8t1.5 -22t2 -36h2q10 23 41 79l157 300q0 1 2.5 4t5.5 2l56 -14q10 -3 3 -15l-264 -457q-5 -8 -11 -8h-37q-6 0 -8 10z" />
    <glyph glyph-name="w" unicode="w" horiz-adv-x="616" 
d="M627 458l-221 -452q-7 -13 -19 -13h-33q-5 0 -7.5 1.5t-2.5 3v4.5v2l-11 358h-2l-31 -69l-150 -292q-5 -8 -11 -8h-37q-8 0 -8 11l-15 418h-56q-8 0 -8 6q0 3 2 11l6 29q2 12 13 12h103q13 0 13 -15l-5 -363h2q8 20 17 38l160 326q8 14 16 14h41q6 0 6 -11l6 -380h2
l38 97l125 295q4 7 9 6l54 -14q7 -2 7 -7q0 -2 -3 -8z" />
    <glyph glyph-name="x" unicode="x" horiz-adv-x="426" 
d="M336 58h55q8 0 8 -7q0 -1 -0.5 -2t-1 -3.5t-0.5 -4.5l-6 -29q-2 -12 -13 -12h-89q-9 0 -13 9l-66 151q-6 14 -10 27q-5 -7 -10.5 -14t-7.5 -9l-135 -163q-5 -8 -11 -8q-2 0 -14 5l-44 18q-6 2 -6 6q0 3 5 8l199 219l-79 173h-56q-8 0 -8 7q0 3 2 11l6 28q2 12 13 12h89
q7 0 10 -7l72 -169q20 29 22 31l122 148q5 5 7 5q3 0 7 -2l52 -21q4 -2 4 -6q0 -3 -4 -7l-186 -203z" />
    <glyph glyph-name="y" unicode="y" horiz-adv-x="463" 
d="M152 471l56 -432h2l192 442q3 6 8 6q2 0 6 -2l47 -19q5 -2 5 -6t-2 -8l-187 -418q-36 -81 -69 -134q-42 -68 -95 -93q-36 -17 -75 -17q-50 0 -90 27q-14 9 -14 15q0 2 5 10l23 38q2 5 7 5q6 0 14 -6q33 -22 66 -22q60 0 104 80l34 63h-36q-10 0 -12 10l-60 412h-59
q-9 0 -6 13l7 34q2 11 13 11h106q8 0 10 -9z" />
    <glyph glyph-name="z" unicode="z" horiz-adv-x="409" 
d="M358 93l-52 -82q-8 -11 -20 -11h-296q-9 0 -6 13l9 39l322 366h-160l-14 -64q-2 -11 -12 -11h-42q-12 0 -8 15q1 2 1 3l23 109q2 10 12 10h292q9 0 6 -13l-9 -39l-315 -366h178l39 62q7 10 13 10q3 0 9 -4l30 -19q4 -2 4 -7q0 -3 -4 -11z" />
    <glyph glyph-name="braceleft" unicode="{" horiz-adv-x="463" 
d="M137 -54l42 199q4 19 4 32q0 22 -11 36q-10 12 -23 16q-15 5 -37 5h-22q-10 0 -10 8q0 5 2 11l7 31q1 7 4 9.5t3.5 2.5h6.5h22q43 0 67 18q29 22 39 72l38 178q16 73 52 108q46 45 148 45h18h5t4 -2t1 -6l-8 -42q-3 -12 -13 -12h-2h-28q-43 0 -65 -18q-28 -22 -38 -73
l-38 -178q-20 -96 -98 -122q52 -24 52 -79q0 -10 -6 -40l-42 -199q-4 -14 -4 -34q0 -12 3 -22q10 -30 67 -30h28q15 0 9 -20l-7 -30q-3 -12 -15 -12h-19q-96 0 -127 46q-15 23 -15 56q0 16 6 46z" />
    <glyph glyph-name="bar" unicode="|" horiz-adv-x="304" 
d="M188 738v-976q0 -12 -12 -12h-48q-12 0 -12 12v976q0 12 12 12h48q12 0 12 -12z" />
    <glyph glyph-name="braceright" unicode="}" horiz-adv-x="463" 
d="M326 569l-42 -199q-4 -19 -4 -32q0 -22 11 -36q10 -12 23 -16q15 -5 37 -5h22q10 0 10 -8q0 -5 -2 -11l-7 -31q-1 -7 -4 -9.5t-3.5 -2.5h-6.5h-22q-43 0 -67 -18q-29 -22 -39 -72l-38 -178q-16 -73 -52 -108q-46 -45 -148 -45h-18h-5t-4 2t-1 6l8 42q3 12 13 12h2h28
q43 0 65 18q28 22 38 73l38 178q20 96 98 122q-52 24 -52 79q0 10 6 40l42 199q4 14 4 34q0 11 -3 22q-10 30 -67 30h-28q-15 0 -9 20l7 30q3 12 15 12h19q96 0 127 -46q15 -23 15 -56q0 -16 -6 -46z" />
    <glyph glyph-name="asciitilde" unicode="~" horiz-adv-x="469" 
d="M428 314l28 -17q1 0 3 -1t3 -2.5t1 -3.5q0 -6 -7 -16q-26 -40 -55 -62.5t-77 -22.5q-43 0 -91 28q-56 34 -87 34q-52 0 -84 -48q-8 -13 -21 -5l-28 17q-7 5 -7 8q0 5 8 18q54 83 131 83q43 0 102 -33q47 -27 64 -29q7 -1 15 -1q47 0 80 47q10 14 22 6z" />
    <glyph glyph-name="nbspace" unicode="&#xa0;" horiz-adv-x="233" 
 />
    <glyph glyph-name="sterling" unicode="&#xa3;" 
d="M436 0h-405q-7 0 -9 3t-1.5 6t2.5 12l7 33q2 10 8 12q3 1 7 1h85l4 10q53 131 48 212l-1 19h-92h-5t-4 2t-1 6l9 47q3 12 15 12h77l-1 39q-2 98 52 163q66 80 186 80q70 0 122 -27q19 -10 19 -17q0 -1 -0.5 -2l-1.5 -3l-2 -4l-17 -35q-3 -6 -9 -6q-4 0 -14 5
q-47 27 -102 27q-88 0 -131 -64q-30 -45 -30 -140v-16h136q10 0 10 -7q0 -1 -0.5 -2.5t-1 -4t-0.5 -5.5l-7 -36q-1 -10 -8 -11q-3 -1 -7 -1h-119v-17q0 -65 -16 -125.5t-31 -90.5l-4 -8h266q11 0 11 -8q0 -6 -4 -10l-25 -40q-5 -9 -15 -9z" />
    <glyph glyph-name="currency" unicode="&#xa4;" horiz-adv-x="491" 
d="M17 118l60 61q-48 60 -48 135t48 135l-60 61q-10 10 0 20l12 12q10 10 20 0l61 -60q60 48 135 48t135 -48l61 60q10 10 20 0l12 -12q10 -10 0 -20l-60 -61q48 -60 48 -135t-48 -135l60 -60q11 -11 0 -21l-12 -12q-10 -10 -20 0l-61 60q-62 -48 -136 -48q-72 0 -134 48
l-61 -60q-10 -10 -20 0l-12 12q-10 10 0 20zM125 194q50 -50 120 -50t120 50t50 120t-50 120t-120 50t-120 -50t-50 -120t50 -120z" />
    <glyph glyph-name="section" unicode="&#xa7;" 
d="M473 640l-22 -34q-3 -6 -6 -6q-4 0 -10 3q-48 29 -91 29q-44 0 -72 -24q-25 -22 -25 -50q0 -29 38 -55q28 -19 56.5 -34.5t41.5 -24.5q59 -42 59 -104q0 -103 -150 -170q2 -1 5.5 -3.5t5.5 -3.5q22 -14 32 -26q30 -34 30 -77q0 -67 -53.5 -112t-128.5 -45q-74 0 -141 45
q-14 9 -14 15q0 5 6 14l19 30q5 8 10 8q2 0 18 -9q61 -36 106 -36q43 0 71 26q25 23 25 54q0 17 -7 31.5t-24.5 28t-25.5 18.5t-31 18q-25 13 -37.5 21.5t-32 25t-28.5 37t-9 46.5q0 66 53 113q40 37 100 60q-1 1 -3.5 2.5t-3.5 1.5q-26 17 -37 29q-26 28 -26 66
q0 75 58 115q52 36 121 36t118 -37q10 -7 10 -12zM241 204q51 27 81 53q38 33 38 77q0 24 -16 44q-10 13 -49 36q-58 -23 -93 -58q-32 -32 -32 -66q0 -27 21 -51q18 -21 50 -35z" />
    <glyph glyph-name="dieresis" unicode="&#xa8;" horiz-adv-x="333" 
d="M229 625q0 -21 -15.5 -36t-35.5 -15t-35.5 15.5t-15.5 35.5t15.5 35.5t35.5 15.5t35.5 -15.5t15.5 -35.5zM412 625q0 -21 -15.5 -36t-35.5 -15t-35.5 15.5t-15.5 35.5t15.5 35.5t35.5 15.5t35.5 -15.5t15.5 -35.5z" />
    <glyph glyph-name="copyright" unicode="&#xa9;" horiz-adv-x="492" 
d="M40 468q0 85 60.5 145.5t145.5 60.5t145.5 -60.5t60.5 -145.5t-60.5 -145.5t-145.5 -60.5t-145.5 60.5t-60.5 145.5zM84 468q0 -67 47.5 -114.5t114.5 -47.5t114.5 47.5t47.5 114.5t-47.5 114.5t-114.5 47.5t-114.5 -47.5t-47.5 -114.5zM276 523v22q-14 4 -27 4
q-23 0 -29.5 -20.5t-6.5 -55.5q0 -26 2 -42t12 -30.5t29 -14.5q4 0 20 3v22q0 10 10 10h15q10 0 10 -10v-35q0 -11 -21 -18t-38 -7q-50 0 -70 35t-20 82q0 117 85 117q20 0 35.5 -5.5t22 -11.5t6.5 -11v-34q0 -10 -10 -10h-15q-10 0 -10 10z" />
    <glyph glyph-name="guillemotleft" unicode="&#xab;" horiz-adv-x="518" 
d="M143 234l85 -188q0 -1 1.5 -3.5t1.5 -4.5q0 -6 -9 -10l-28 -13l-10 -4q-3 0 -7 6l-123 212q-3 6 -3 9t6 9l214 214q6 6 10 6q2 0 8 -3l30 -19q5 -3 5 -8q0 -4 -4 -8zM328 234l85 -188q0 -1 1.5 -3.5t1.5 -4.5q0 -6 -9 -10l-28 -13l-10 -4q-3 0 -7 6l-123 212q-3 6 -3 9
t6 9l214 214q6 6 10 6q2 0 8 -3l30 -19q5 -3 5 -8q0 -4 -4 -8z" />
    <glyph glyph-name="logicalnot" unicode="&#xac;" 
d="M22 300v44q0 7 1.5 10t3 3.5t5.5 0.5h3h428q11 0 13 -4q1 -3 1 -10v-181q0 -14 -13 -14h-46q-13 0 -13 14v123h-370h-2q-4 0 -6 0.5t-3.5 3.5t-1.5 10z" />
    <glyph glyph-name="registered" unicode="&#xae;" horiz-adv-x="492" 
d="M40 468q0 85 60.5 145.5t145.5 60.5t145.5 -60.5t60.5 -145.5t-60.5 -145.5t-145.5 -60.5t-145.5 60.5t-60.5 145.5zM84 468q0 -67 47.5 -114.5t114.5 -47.5t114.5 47.5t47.5 114.5t-47.5 114.5t-114.5 47.5t-114.5 -47.5t-47.5 -114.5zM177 388v163h-14q-10 0 -10 10v12
q0 10 10 10h91q70 0 70 -61q0 -48 -44 -61l44 -73h11q10 0 10 -10v-12q0 -10 -10 -10h-32q-11 0 -16 9l-51 89h-14v-66h14q10 0 10 -10v-12q0 -10 -10 -10h-73q-10 0 -10 10v12q0 10 10 10h14zM222 551v-65h20q35 0 35 35q0 12 -9 21t-22 9h-24z" />
    <glyph glyph-name="degree" unicode="&#xb0;" 
d="M404 531q0 -64 -45.5 -109t-108.5 -45q-64 0 -109.5 45t-45.5 109t45.5 109t109.5 45q63 0 108.5 -45t45.5 -109zM249 440q38 0 65 26.5t27 64.5t-27 64.5t-65 26.5t-64.5 -26.5t-26.5 -64.5t26.5 -64.5t64.5 -26.5z" />
    <glyph glyph-name="plusminus" unicode="&#xb1;" 
d="M285 290h180q12 0 12 -12v-48q0 -12 -12 -12h-180v-146q0 -12 -12 -12h-48q-12 0 -12 12v146h-179q-12 0 -12 12v48q0 12 12 12h179v178q0 12 12 12h48q12 0 12 -12v-178zM477 9v-47q0 -12 -12 -12h-431q-12 0 -12 12v47q0 13 12 13h431q12 0 12 -13z" />
    <glyph glyph-name="acute" unicode="&#xb4;" horiz-adv-x="333" 
d="M355 693l28 -46q3 -3 3 -8q0 -6 -5 -8l-175 -79q-6 -2 -7 -2q-4 0 -7 5l-14 21q-1 1 -1 4q0 5 5 8l155 109q5 3 8 3q7 0 10 -7z" />
    <glyph glyph-name="paragraph" unicode="&#xb6;" horiz-adv-x="611" 
d="M501 620v-794q0 -12 -12 -12h-45q-12 0 -12 12v794h-64v-794q0 -12 -12 -12h-45q-12 0 -12 12v348l-16 -2q-32 -5 -58 -5q-33 0 -62 10t-59 35.5t-47.5 80t-17.5 133.5q0 105 37 168q24 41 69.5 66t141.5 25h283q12 0 12 -12v-41q0 -12 -12 -12h-69zM299 238v382h-23
q-26 0 -39 -0.5t-34 -7.5t-36 -21q-41 -38 -41 -162q0 -32 1.5 -54.5t8.5 -51.5t20 -47t38 -31t59 -13q16 0 46 6z" />
    <glyph glyph-name="guillemotright" unicode="&#xbb;" horiz-adv-x="518" 
d="M181 244l-85 188q0 1 -1.5 3.5t-1.5 4.5q0 6 9 10l28 13l10 4q3 0 7 -6l123 -212q3 -6 3 -9t-6 -9l-214 -214q-6 -6 -10 -6q-2 0 -8 3l-30 19q-5 3 -5 8q0 4 4 8zM366 244l-85 188q0 1 -1.5 3.5t-1.5 4.5q0 6 9 10l28 13l10 4q3 0 7 -6l123 -212q3 -6 3 -9t-6 -9
l-214 -214q-6 -6 -10 -6q-2 0 -8 3l-30 19q-5 3 -5 8q0 4 4 8z" />
    <glyph glyph-name="divide" unicode="&#xf7;" 
d="M305 427q0 -24 -16.5 -40t-39.5 -16q-24 0 -40 16.5t-16 39.5q0 24 16 40t40 16t40 -16t16 -40zM476 276v-44v-2q0 -4 -0.5 -6t-3.5 -4t-10 -2h-427h-2q-4 0 -6 0.5t-3.5 3.5t-1.5 10v44q0 7 1.5 10t3 3.5t5.5 0.5h3h427q7 0 10 -1.5t3.5 -3t0.5 -5.5v-4zM305 81
q0 -24 -16.5 -40t-39.5 -16q-24 0 -40 16.5t-16 39.5q0 24 16 40t40 16t40 -16t16 -40z" />
    <glyph glyph-name="dotlessi" unicode="&#x131;" horiz-adv-x="278" 
d="M133 422h-80q-8 0 -8 7q0 4 2 11l6 28q4 11 13 12h138q14 0 9 -21l-85 -401h66q11 0 8 -13l-8 -35q-2 -10 -11 -10h-77q-27 0 -42 19q-8 11 -8 29q0 17 4 31z" />
    <glyph glyph-name="florin" unicode="&#x192;" 
d="M288 422l-122 -445q-7 -26 -12 -40.5t-20.5 -44.5t-34.5 -47.5t-53 -32t-76 -14.5q-15 0 -47 4q-24 3 -28 8t0 12l18 43q2 6 7 6q2 0 4 -0.5t6.5 -1.5t8.5 -2q22 -4 35 -4q30 0 53 11.5t36.5 32t20.5 36.5t13 37l120 442h-68q-14 0 -8 16l10 31q4 11 10 11h72l28 99
q8 26 17.5 45.5t28 43t49.5 36.5t73 13q56 0 94 -17q18 -9 14 -16l-22 -45q-1 -4 -8 -4q-4 0 -17 5q-38 15 -67 15q-24 0 -41.5 -7.5t-27.5 -22.5t-15.5 -27t-10.5 -31l-24 -87h141q8 0 8 -7q0 -4 -2 -8l-14 -31q-5 -12 -16 -12h-133z" />
    <glyph glyph-name="dotaccent" unicode="&#x2d9;" horiz-adv-x="333" 
d="M246 625q0 -23 -16 -39t-39 -16t-39 16t-16 39t16 39t39 16t39 -16t16 -39z" />
    <glyph glyph-name="Delta" unicode="&#x394;" horiz-adv-x="554" 
d="M463 674l64 -662v-5.5t-3.5 -4.5t-11.5 -2h-475q-9 0 -9 2q0 6 3 10l343 662q6 11 18 11h59q11 0 12 -11zM429 70l-32 497h-2l-248 -497h282z" />
    <glyph glyph-name="mu" unicode="&#x3bc;" horiz-adv-x="536" 
d="M131 422h-72q-8 0 -8 7q0 1 0.5 2.5t1 4t0.5 4.5l5 28q1 5 1.5 6.5t3 3.5t8.5 2h131q14 0 9 -21l-62 -289q-9 -48 -9 -61q0 -56 51 -56q49 0 98 41q10 9 19 19q32 39 52 130l46 218q2 10 10 12l52 13q3 2 9 1t5 -9l-74 -347q-8 -38 -8 -52q0 -9 1 -14l1 -7h68q11 0 8 -13
l-8 -35q-2 -10 -11 -10h-58q-11 0 -20.5 1.5t-16 4.5t-11 5.5t-7.5 9t-5 9.5t-2.5 11t-0.5 10.5v11.5v11v6h-2q-27 -36 -64 -62q-50 -32 -101 -32q-10 0 -18.5 2.5t-11.5 4t-10.5 7t-8.5 5.5l-7 5l-31 -154h69q10 0 5 -18l-7 -30q-2 -10 -12 -10h-194q-8 0 -8 7q0 3 3 15
l5 24q2 12 13 12h55z" />
    <glyph glyph-name="afii10023" unicode="&#x401;" 
d="M345 67l20 95q0 11 12 11h49q7 0 5 -11l-31 -150q-3 -12 -15 -12h-397q-9 0 -9 7q0 1 4 15l8 30q2 10 11 10h66l119 561h-67q-8 0 -8 7q0 3 3 15l8 30q2 10 12 10h390q11 0 9 -9l-30 -140q-2 -11 -12 -11h-46q-9 0 -9 6q0 1 2 9l16 78h-190l-48 -229h208q12 0 8 -15
l-8 -40q-2 -12 -14 -12h-209l-54 -255h197zM318 786q0 -21 -15.5 -36t-35.5 -15t-35.5 15.5t-15.5 35.5t15.5 35.5t35.5 15.5t35.5 -15.5t15.5 -35.5zM501 786q0 -21 -15.5 -36t-35.5 -15t-35.5 15.5t-15.5 35.5t15.5 35.5t35.5 15.5t35.5 -15.5t15.5 -35.5z" />
    <glyph glyph-name="afii10051" unicode="&#x402;" horiz-adv-x="627" 
d="M330 618l-50 -236q74 33 125 33q61 0 99 -29q47 -36 47 -107q0 -31 -5.5 -67t-20 -77t-36.5 -73.5t-58 -54t-81 -21.5q-37 0 -77 17q-15 6 -10 15l19 43q8 19 25 9q30 -18 55 -17q39 1 60 34.5t35 85.5q12 46 12 93q0 43 -31 65q-24 17 -66 17q-49 0 -106 -33l-65 -306
q-2 -9 -12 -9h-135q-9 0 -9 7q0 1 4 15l8 30q2 10 11 10h66l118 556h-88l-22 -106q-2 -10 -13 -10h-46q-8 0 -8 7q0 1 3 15l31 150q2 11 14 11h386q8 0 8 -7l-3 -15l-32 -151q-2 -10 -13 -10h-46q-8 0 -8 7q0 3 3 15l20 94h-108z" />
    <glyph glyph-name="afii10052" unicode="&#x403;" horiz-adv-x="469" 
d="M267 618l-118 -556h80q10 0 7 -14l-8 -38q-2 -10 -12 -10h-226q-9 0 -9 7q0 1 4 15l8 30q2 10 11 10h66l119 561h-67q-8 0 -8 7q0 3 3 15l8 30q2 10 12 10h383q11 0 9 -9l-35 -163q-2 -11 -12 -11h-46q-9 0 -9 6q0 1 2 9l21 101h-183zM323 776l167 103q6 3 8 3q3 0 8 -7
l28 -51q2 -4 2 -6q0 -7 -8 -10l-180 -72q-4 -2 -8 -2t-7 5l-14 23q-2 4 -2 7q0 1 6 7z" />
    <glyph glyph-name="afii10053" unicode="&#x404;" horiz-adv-x="471" 
d="M416 165l-20 -95q-3 -15 -10 -21q-30 -24 -81 -43.5t-93 -19.5q-77 0 -119 53t-42 153q0 179 68 324q26 55 58.5 93.5t65 57t59 25.5t53.5 7q49 0 96 -21q20 -9 37.5 -22.5t17.5 -25.5q0 -6 -2 -12l-23 -103q-2 -10 -12 -10h-46q-8 0 -8 6q0 4 2 11l18 84l-11 6
q-36 20 -74 20q-67 0 -119 -73q-44 -62 -70 -169h197q13 0 10 -12l-9 -43q-2 -12 -15 -12h-198q-13 -78 -13 -142q0 -63 29 -97q26 -31 73 -31q45 0 89 31l10 7l18 84q2 11 12 11h46q11 0 6 -21z" />
    <glyph glyph-name="afii10054" unicode="&#x405;" horiz-adv-x="435" 
d="M372 527l17 79l-5 3q-39 23 -84 23q-50 0 -87 -31t-37 -91q0 -26 7 -41t28 -33q16 -14 40.5 -32.5t43.5 -34.5q26 -22 40.5 -36.5t32.5 -52t18 -81.5q0 -93 -63.5 -153t-165.5 -60q-71 0 -138 35q-28 16 -24 33l27 125q0 1 1 3.5t4 5t7 2.5h47q8 0 8 -7q0 -1 -3 -13
l-19 -91l8 -4q44 -22 91 -22q65 0 101.5 40t36.5 98q0 33 -15.5 61.5t-32 43.5t-45.5 37q-1 0 -17 12.5t-18.5 15t-17 14t-18 17t-14 17.5t-14 21t-9 22t-7.5 27t-2 29q0 86 63 141q58 50 149 50q84 0 135 -30q25 -16 21 -34l-25 -115q0 -1 -1 -3.5t-4 -5t-7 -2.5h-48
q-7 0 -7 6q0 4 2 12z" />
    <glyph glyph-name="afii10055" unicode="&#x406;" horiz-adv-x="331" 
d="M85 62l119 561h-94q-8 0 -8 7q0 3 3 15l8 30q2 10 12 10h265q8 0 8 -7l-4 -16l-8 -29q-4 -10 -12 -10h-92l-119 -561h95q8 0 8 -7l-4 -16l-8 -30q-2 -9 -12 -9h-263q-9 0 -9 7q0 1 4 15l8 30q2 10 11 10h92z" />
    <glyph glyph-name="afii10056" unicode="&#x407;" horiz-adv-x="331" 
d="M85 62l119 561h-94q-8 0 -8 7q0 3 3 15l8 30q2 10 12 10h265q8 0 8 -7l-4 -16l-8 -29q-4 -10 -12 -10h-92l-119 -561h95q8 0 8 -7l-4 -16l-8 -30q-2 -9 -12 -9h-263q-9 0 -9 7q0 1 4 15l8 30q2 10 11 10h92zM137 803q0 22 15 37t37 15t37 -15t15 -37t-15 -37t-37 -15
t-37 15t-15 37zM320 803q0 22 15 37t37 15t37 -15t15 -37t-15 -37t-37 -15t-37 15t-15 37z" />
    <glyph glyph-name="afii10057" unicode="&#x408;" horiz-adv-x="426" 
d="M431 669l-97 -457q-22 -104 -55 -152q-51 -74 -150 -74q-72 0 -108.5 39.5t-36.5 94.5q0 49 8 68q4 9 13 9h53q8 0 5 -19q-3 -14 -3 -41q0 -25 8 -44q17 -40 64 -40q28 0 52 12t36 30q13 18 28 84l94 444h-177q-8 0 -8 8q0 3 3 14l8 30q2 10 12 10h242q12 0 9 -16z" />
    <glyph glyph-name="afii10058" unicode="&#x409;" horiz-adv-x="809" 
d="M511 394h83q95 0 141 -43q44 -40 44 -112q0 -62 -29.5 -120t-77.5 -87q-54 -32 -127 -32h-263q-9 0 -9 7q0 1 4 15l8 30q2 10 11 10h66l118 556h-150l-35 -146q-12 -50 -29 -109t-54.5 -151t-74.5 -139q-56 -72 -141 -85q-14 -2 -22 -2q-14 0 -14 9l1 52q0 19 14 20l11 1
q41 4 69.5 26.5t53.5 70.5q35 68 71 175.5t57 194.5l21 88h-67q-8 0 -8 7q0 3 3 15l8 30q2 10 11 10h437q7 0 7 -7t-3 -16l-8 -29q-3 -10 -13 -10h-66zM441 67h88q103 0 144 75q24 46 24 86q0 54 -33 78q-29 21 -86 21h-80z" />
    <glyph glyph-name="afii10059" unicode="&#x40a;" horiz-adv-x="828" 
d="M529 391h96q95 0 141 -54q32 -37 32 -99q0 -61 -29.5 -118.5t-77.5 -87.5q-52 -32 -139 -32h-251q-9 0 -9 7q0 1 4 15l8 30q2 10 11 10h66l56 262h-233l-56 -262h68q8 0 8 -7l-4 -16l-8 -30q-2 -9 -12 -9h-210q-9 0 -9 7q0 1 4 15l8 30q2 10 11 10h66l119 561h-67
q-8 0 -8 7q0 3 3 15l8 30q2 10 12 10h212q8 0 8 -7l-4 -16l-8 -29q-4 -10 -12 -10h-66l-50 -232h233l50 232h-67q-8 0 -8 7q0 3 3 15l8 30q2 11 12 10h212q8 0 8 -7l-4 -16l-8 -29q-4 -10 -12 -10h-66zM460 67h105q37 0 72 19t55 56q24 46 24 85q0 51 -31 75q-27 22 -90 22
h-80z" />
    <glyph glyph-name="afii10060" unicode="&#x40b;" horiz-adv-x="662" 
d="M330 618l-49 -233q76 35 143 35q71 0 106 -32q36 -32 36 -92q0 -22 -4 -41l-41 -193h63q13 0 10 -12l-8 -38q-2 -12 -15 -12h-204q-12 0 -9 12l8 38q2 12 14 12h63l41 193q4 20 4 30q0 24 -14 41q-22 27 -71 27q-63 0 -136 -33l-55 -258h76q8 0 8 -7l-4 -16l-8 -30
q-2 -9 -12 -9h-218q-9 0 -9 7q0 1 4 15l8 30q2 10 11 10h66l118 556h-88l-22 -106q-2 -10 -13 -10h-46q-8 0 -8 7q0 1 3 15l31 150q2 11 14 11h386q8 0 8 -7l-3 -15l-32 -151q-2 -10 -13 -10h-46q-8 0 -8 7q0 3 3 15l20 94h-108z" />
    <glyph glyph-name="afii10061" unicode="&#x40c;" horiz-adv-x="585" 
d="M214 389h90q14 0 23 2t22 10t26 27t26 49l32 76q33 79 66 107q36 30 87 36l16 2q15 4 17 -10l6 -45q1 -6 -3 -10t-7 -5t-8 -2l-23 -3q-32 -4 -51 -29q-12 -15 -33 -64l-24 -56q-11 -26 -16 -36t-18.5 -31t-31 -34t-41.5 -22q8 -5 17.5 -12.5t24.5 -29t18 -46.5l16 -130
q4 -43 15 -54q10 -12 30 -15l18 -3q15 -3 11 -16l-23 -48q-5 -10 -13 -11t-21 2q-31 6 -47.5 14.5t-28.5 27.5q-14 22 -20 102l-8 99q-7 91 -87 91h-71l-55 -260h63q13 0 10 -12l-8 -38q-2 -12 -15 -12h-204q-12 0 -9 12l8 38q2 12 14 12h63l119 561h-63q-12 0 -9 12l8 38
q2 12 14 12h204q13 0 10 -12l-8 -38q-2 -12 -15 -12h-63zM361 776l167 103q6 3 8 3q3 0 8 -7l28 -51q2 -4 2 -6q0 -7 -8 -10l-180 -72q-4 -2 -8 -2t-7 5l-14 23q-2 4 -2 7q0 1 6 7z" />
    <glyph glyph-name="afii10062" unicode="&#x40e;" horiz-adv-x="534" 
d="M479 864l47 -7q5 0 6 -5v-3q-1 -12 -9 -25q-23 -44 -60 -63q-32 -17 -83 -17q-50 0 -76 17q-38 25 -38 80v5q0 9 10 11l44 7q1 0 3 0.5t3 0.5q6 0 6 -9v-8q0 -26 10 -38q13 -14 41 -14q27 0 48 14q18 12 30 38q2 4 3 7l1.5 4.5t1.5 2.5q3 4 12 2zM482 623h-63q-8 0 -8 7
q0 3 3 15l8 30q2 10 12 10h183q8 0 8 -7l-4 -16l-8 -29q-4 -10 -12 -10h-38l-257 -503q-32 -64 -72 -97q-46 -37 -109 -37q-51 0 -94 29q-23 15 -12 30l24 33q5 7 11 7q4 0 19 -10q35 -22 64 -22q40 0 68 30q19 20 45 74l11 23h-31q-7 0 -10 2.5t-4 11.5l-72 429h-58
q-8 0 -8 7q0 3 3 15l8 30q2 10 12 10h188q8 0 8 -7l-4 -16l-8 -29q-4 -10 -12 -10h-49l47 -277l15 -118h3q13 29 63 135z" />
    <glyph glyph-name="afii10145" unicode="&#x40f;" horiz-adv-x="605" 
d="M150 67h226l118 556h-68q-8 0 -8 7l4 16l8 30q2 9 12 9h210q9 0 9 -7q0 -1 -4 -15l-8 -30q-2 -10 -11 -10h-66l-119 -561h67q8 0 8 -7q0 -3 -3 -15l-8 -30q-2 -10 -12 -10h-217l-37 -173q-5 -10 -14 -10h-54q-12 0 -9 15l36 168h-221q-8 0 -8 7l4 16l8 29q4 10 12 10h66
l119 561h-68q-8 0 -8 7l4 16l8 30q2 9 12 9h210q9 0 9 -7q0 -1 -4 -15l-8 -30q-2 -10 -11 -10h-66z" />
    <glyph glyph-name="afii10017" unicode="&#x410;" horiz-adv-x="552" 
d="M373 206h-213l-72 -144h61q10 0 7 -14l-8 -38q-2 -10 -12 -10h-182q-9 0 -9 7q0 1 4 15l8 30q2 10 11 10h42l317 614q6 9 12 9h56q10 0 12 -13l56 -610h51q10 0 7 -14l-8 -38q-2 -10 -12 -10h-189q-9 0 -9 7q0 1 4 15l8 30q2 10 11 10h59zM367 273l-17 222q-3 36 -3 95
h-2q-13 -41 -40 -95l-112 -222h174z" />
    <glyph glyph-name="afii10018" unicode="&#x411;" horiz-adv-x="531" 
d="M221 394h97q99 0 143 -61q28 -40 28 -96q0 -60 -30 -118t-77 -87q-52 -32 -136 -32h-256q-9 0 -9 7q0 1 4 15l8 30q2 10 11 10h66l119 561h-67q-8 0 -8 7q0 3 3 15l8 30q2 10 12 10h390q11 0 9 -9l-35 -163q-2 -11 -12 -11h-46q-9 0 -9 6q0 1 2 9l21 101h-190zM151 67h88
q103 0 144 75q24 44 24 89q0 41 -21 64q-28 32 -99 32h-80z" />
    <glyph glyph-name="afii10019" unicode="&#x412;" horiz-adv-x="547" 
d="M70 62l119 561h-67q-8 0 -8 7q0 3 3 15l8 30q2 10 12 10h197q39 0 57 -0.5t52 -9t54 -25.5q36 -31 36 -91q0 -66 -35.5 -120t-102.5 -79v-2q41 -10 66.5 -44.5t25.5 -84.5q0 -83 -54 -151q-63 -78 -189 -78h-254q-9 0 -9 7q0 1 4 15l8 30q2 10 11 10h66zM217 382h63
q74 0 112 33q25 22 42 56.5t17 66.5q0 36 -17 56q-22 24 -64 24h-103zM150 67h88q70 0 111 34q56 46 56 121q0 93 -115 93h-88z" />
    <glyph glyph-name="afii10020" unicode="&#x413;" horiz-adv-x="469" 
d="M267 618l-118 -556h80q10 0 7 -14l-8 -38q-2 -10 -12 -10h-226q-9 0 -9 7q0 1 4 15l8 30q2 10 11 10h66l119 561h-67q-8 0 -8 7q0 3 3 15l8 30q2 10 12 10h383q11 0 9 -9l-35 -163q-2 -11 -12 -11h-46q-9 0 -9 6q0 1 2 9l21 101h-183z" />
    <glyph glyph-name="afii10021" unicode="&#x414;" horiz-adv-x="608" 
d="M575 623l-118 -556h55q14 0 16 -2t0 -16l-46 -220q-4 -12 -15 -12h-54q-12 0 -9 15l36 168h-388l-36 -171q-4 -12 -15 -12h-54q-12 0 -9 15l46 217q1 7 3 11t6.5 5.5t5.5 1.5h9h34q95 135 142.5 261t75.5 274l4 21h-67q-8 0 -8 7q0 3 3 15l8 30q2 10 12 10h443q9 0 9 -7
q0 -1 -4 -15l-8 -30q-2 -10 -11 -10h-66zM379 67l117 551h-160l-24 -111q-52 -241 -189 -440h256z" />
    <glyph glyph-name="afii10022" unicode="&#x415;" 
d="M345 67l20 95q0 11 12 11h49q7 0 5 -11l-31 -150q-3 -12 -15 -12h-397q-9 0 -9 7q0 1 4 15l8 30q2 10 11 10h66l119 561h-67q-8 0 -8 7q0 3 3 15l8 30q2 10 12 10h390q11 0 9 -9l-30 -140q-2 -11 -12 -11h-46q-9 0 -9 6q0 1 2 9l16 78h-190l-48 -229h208q12 0 8 -15
l-8 -40q-2 -12 -14 -12h-209l-54 -255h197z" />
    <glyph glyph-name="afii10024" unicode="&#x416;" horiz-adv-x="811" 
d="M481 389h54q19 0 31 4t30.5 24.5t35.5 59.5l32 74q28 66 49 92q34 42 104 53l13 2q15 2 17 -10l4 -45q0 -4 -0.5 -6.5t-2 -4t-3.5 -3t-3.5 -1.5t-4.5 -1t-4 -1l-14 -3q-30 -7 -42 -17q-19 -16 -44 -76l-24 -56q-41 -97 -107 -123q55 -33 61 -88l13 -130q5 -44 10 -51
q10 -14 35 -18l18 -3q16 -5 11 -16l-23 -48q-5 -11 -12 -12t-21 3q-66 9 -84 55q-8 20 -13 91l-8 101q-5 87 -71 87h-51l-55 -260h63q13 0 10 -12l-8 -38q-2 -12 -15 -12h-204q-12 0 -9 12l8 38q2 12 14 12h63l55 260h-54q-23 0 -40 -7t-29.5 -23t-17.5 -25.5t-15 -31.5
l-47 -101q-34 -73 -43 -85q-32 -46 -107 -59l-12 -2q-16 -4 -22.5 -3t-7.5 12l-4 48v2v3.5t1 3t2.5 3t5 2.5t8.5 2l20 3q32 4 51 30q8 12 22 39l70 136q36 70 103 94q-28 13 -39 37.5t-17 71.5l-8 66q-7 52 -14 63q-11 15 -32 21l-15 4q-11 3 -13 6.5t2 8.5q1 1 1 2l21 45
q6 13 21 10l9 -2q45 -9 66 -42q11 -17 16 -51q2 -11 3.5 -28.5t2.5 -23.5l7 -60q3 -23 6.5 -38.5t11.5 -31.5t22.5 -24t36.5 -8h42l50 234h-63q-12 0 -9 12l8 38q2 12 14 12h204q13 0 10 -12l-8 -38q-2 -12 -15 -12h-63z" />
    <glyph glyph-name="afii10025" unicode="&#x417;" 
d="M195 331l9 43q2 12 16 12h23q65 0 106 35q25 21 41 55t16 71q0 29 -11 48t-28.5 26t-28 9t-20.5 2q-43 0 -87 -20l-13 -6l-18 -84q-2 -13 -4 -15t-6 -2h-4h-46q-10 0 -8 10l21 103q4 19 21 31q65 50 162 50q72 0 112 -39q38 -38 38 -98q0 -95 -69 -159q-29 -27 -69 -41
q84 -24 84 -130q0 -50 -22 -98.5t-58 -82.5q-67 -65 -169 -65q-73 0 -134 35q-28 15 -24 33l27 125q0 1 1 3.5t4 5t7 2.5h47q8 0 8 -7q0 -1 -3 -13l-19 -91l7 -4q16 -9 43 -15.5t44 -6.5q64 0 111.5 52t47.5 123q0 45 -28 69q-26 22 -80 22h-37q-13 0 -10 12z" />
    <glyph glyph-name="afii10026" unicode="&#x418;" horiz-adv-x="640" 
d="M267 623l-89 -421l346 410l2 11h-65q-8 0 -8 7q0 3 3 15l8 30q2 10 12 10h212q8 0 8 -7l-4 -16l-8 -29q-4 -10 -12 -10h-68l-119 -561h66q8 0 8 -7l-4 -16l-8 -30q-2 -9 -12 -9h-210q-9 0 -9 7q0 1 4 15l8 30q2 10 11 10h68l90 421l-346 -410l-3 -11h68q8 0 8 -7l-4 -16
l-8 -30q-2 -9 -12 -9h-210q-9 0 -9 7q0 1 4 15l8 30q2 10 11 10h66l119 561h-67q-8 0 -8 7q0 3 3 15l8 30q2 10 12 10h212q8 0 8 -7l-4 -16l-8 -29q-4 -10 -12 -10h-66z" />
    <glyph glyph-name="afii10027" unicode="&#x419;" horiz-adv-x="640" 
d="M267 623l-89 -421l346 410l2 11h-65q-8 0 -8 7q0 3 3 15l8 30q2 10 12 10h212q8 0 8 -7l-4 -16l-8 -29q-4 -10 -12 -10h-68l-119 -561h66q8 0 8 -7l-4 -16l-8 -30q-2 -9 -12 -9h-210q-9 0 -9 7q0 1 4 15l8 30q2 10 11 10h68l90 421l-346 -410l-3 -11h68q8 0 8 -7l-4 -16
l-8 -30q-2 -9 -12 -9h-210q-9 0 -9 7q0 1 4 15l8 30q2 10 11 10h66l119 561h-67q-8 0 -8 7q0 3 3 15l8 30q2 10 12 10h212q8 0 8 -7l-4 -16l-8 -29q-4 -10 -12 -10h-66zM524 859l42 -7q10 -2 10 -8q0 -4 -5 -17q-20 -48 -53 -73q-43 -33 -101 -33q-67 0 -93 43
q-15 24 -17 73q0 6 1 9.5t4 4.5t6 1h2l36 7q10 4 14 0.5t4 -4.5v-8v-6q0 -36 10 -48q12 -16 42 -16q43 0 67 40q13 26 15 34q1 5 1 5.5t4 3t11 -0.5z" />
    <glyph glyph-name="afii10028" unicode="&#x41a;" horiz-adv-x="585" 
d="M214 389h90q14 0 23 2t22 10t26 27t26 49l32 76q33 79 66 107q36 30 87 36l16 2q15 4 17 -10l6 -45q1 -6 -3 -10t-7 -5t-8 -2l-23 -3q-32 -4 -51 -29q-12 -15 -33 -64l-24 -56q-11 -26 -16 -36t-18.5 -31t-31 -34t-41.5 -22q8 -5 17.5 -12.5t24.5 -29t18 -46.5l16 -130
q4 -43 15 -54q10 -12 30 -15l18 -3q15 -3 11 -16l-23 -48q-5 -10 -13 -11t-21 2q-31 6 -47.5 14.5t-28.5 27.5q-14 22 -20 102l-8 99q-7 91 -87 91h-71l-55 -260h63q13 0 10 -12l-8 -38q-2 -12 -15 -12h-204q-12 0 -9 12l8 38q2 12 14 12h63l119 561h-63q-12 0 -9 12l8 38
q2 12 14 12h204q13 0 10 -12l-8 -38q-2 -12 -15 -12h-63z" />
    <glyph glyph-name="afii10029" unicode="&#x41b;" horiz-adv-x="593" 
d="M559 623l-119 -561h68q8 0 8 -7l-4 -16l-8 -30q-2 -9 -12 -9h-210q-9 0 -9 7q0 1 4 15l8 30q2 10 11 10h66l118 556h-150l-35 -146q-12 -50 -29 -109t-54.5 -151t-74.5 -139q-56 -72 -141 -85q-36 -6 -36 7l1 52q0 19 14 20l11 1q41 4 69.5 26.5t53.5 70.5
q35 68 71 175.5t57 194.5l21 88h-67q-8 0 -8 7q0 3 3 15l8 30q2 10 11 10h437q7 0 7 -7t-3 -16l-8 -29q-3 -10 -13 -10h-66z" />
    <glyph glyph-name="afii10030" unicode="&#x41c;" horiz-adv-x="685" 
d="M637 623l-88 -561h68q8 0 8 -7l-4 -16l-8 -30q-2 -9 -12 -9h-207q-9 0 -9 7q0 1 4 15l8 30q2 10 11 10h65l86 466q4 21 11 51h-2q-14 -34 -23 -51l-190 -351q-9 -17 -19 -17h-29q-11 0 -13 8q-1 2 -1 5l-37 355q0 1 -1 11t-2 21q0 2 -2 25h-2q-1 -23 -9 -57l-111 -466h68
q8 0 8 -7l-4 -16l-8 -30q-2 -9 -12 -9h-207q-9 0 -9 7q0 1 4 15l8 30q2 10 11 10h65l151 561h-67q-8 0 -8 7q0 3 3 15l8 30q2 10 12 10h134q9 0 11 -2t3 -10l40 -346v-3q0 -2 0.5 -4t0.5 -4v-3l2 -39h2q3 14 23 53l188 349q4 9 15 9h146q8 0 8 -7l-4 -16l-8 -29
q-4 -10 -12 -10h-64z" />
    <glyph glyph-name="afii10031" unicode="&#x41d;" horiz-adv-x="612" 
d="M436 322h-233l-55 -260h68q8 0 8 -7l-4 -16l-8 -30q-2 -9 -12 -9h-210q-9 0 -9 7q0 1 4 15l8 30q2 10 11 10h66l119 561h-67q-8 0 -8 7q0 3 3 15l8 30q2 10 12 10h212q8 0 8 -7l-4 -16l-8 -29q-4 -10 -12 -10h-66l-50 -234h233l50 234h-67q-8 0 -8 7q0 3 3 15l8 30
q2 10 12 10h212q8 0 8 -7l-4 -16l-8 -29q-4 -10 -12 -10h-66l-119 -561h68q8 0 8 -7l-4 -16l-8 -30q-2 -9 -12 -9h-210q-9 0 -9 7q0 1 4 15l8 30q2 10 11 10h66z" />
    <glyph glyph-name="afii10032" unicode="&#x41e;" horiz-adv-x="537" 
d="M223 -14q-49 0 -80.5 14.5t-55.5 48.5q-35 49 -35 138q0 131 34.5 253.5t103.5 191.5q67 67 162 67q86 0 130 -53q40 -48 40 -149q0 -131 -36 -255.5t-103 -190.5q-65 -65 -160 -65zM230 53q52 0 85 33t60 98q65 157 65 321q0 75 -32 105q-23 22 -62 22q-42 0 -77 -26
t-66 -92q-32 -68 -50.5 -165t-18.5 -178q0 -57 22 -86q24 -32 74 -32z" />
    <glyph glyph-name="afii10033" unicode="&#x41f;" horiz-adv-x="605" 
d="M492 618h-226l-118 -556h68q8 0 8 -7l-4 -16l-8 -30q-2 -9 -12 -9h-210q-9 0 -9 7q0 1 4 15l8 30q2 10 11 10h66l119 561h-67q-8 0 -8 7q0 3 3 15l8 30q2 10 12 10h516q8 0 8 -7l-4 -16l-8 -29q-4 -10 -12 -10h-66l-119 -561h68q8 0 8 -7l-4 -16l-8 -30q-2 -9 -12 -9
h-210q-9 0 -9 7q0 1 4 15l8 30q2 10 11 10h66z" />
    <glyph glyph-name="afii10034" unicode="&#x420;" horiz-adv-x="523" 
d="M148 62h78q8 0 8 -7l-4 -16l-8 -30q-2 -9 -12 -9h-220q-9 0 -9 7q0 1 4 15l8 30q2 10 11 10h66l119 561h-67q-8 0 -8 7q0 3 3 15l8 30q2 10 11 10h220q79 0 117 -27q50 -36 50 -120q0 -67 -27.5 -119.5t-63.5 -81.5q-57 -46 -162 -46h-73zM212 358h62q81 0 115 34
q23 22 37.5 57.5t14.5 73.5q0 60 -28 82q-17 13 -50 13h-96z" />
    <glyph glyph-name="afii10035" unicode="&#x421;" horiz-adv-x="471" 
d="M416 165l-20 -95q-3 -15 -10 -21q-30 -24 -81 -43.5t-93 -19.5q-77 0 -119 53t-42 153q0 179 68 324q26 55 58.5 93.5t65 57t59 25.5t53.5 7q49 0 96 -21q20 -9 37.5 -22.5t17.5 -25.5q0 -6 -2 -12l-23 -103q-2 -10 -12 -10h-46q-8 0 -8 6q0 4 2 11l18 84l-11 6
q-36 20 -74 20q-104 0 -166 -168q-51 -140 -51 -283q0 -63 29 -97q26 -31 73 -31q45 0 89 31l10 7l18 84q2 11 12 11h46q11 0 6 -21z" />
    <glyph glyph-name="afii10036" unicode="&#x422;" horiz-adv-x="444" 
d="M338 618l-119 -556h76q8 0 8 -7l-4 -16l-8 -30q-2 -9 -12 -9h-218q-9 0 -9 7q0 1 4 15l8 30q2 10 11 10h66l119 556h-98l-22 -106q-2 -10 -13 -10h-46q-8 0 -8 7q0 1 3 15l31 150q2 11 14 11h386q8 0 8 -7l-3 -15l-32 -151q-2 -10 -13 -10h-46q-8 0 -8 7q0 3 3 15l20 94
h-98z" />
    <glyph glyph-name="afii10037" unicode="&#x423;" horiz-adv-x="534" 
d="M482 623h-63q-8 0 -8 7q0 3 3 15l8 30q2 10 12 10h183q8 0 8 -7l-4 -16l-8 -29q-4 -10 -12 -10h-38l-257 -503q-32 -64 -72 -97q-46 -37 -109 -37q-51 0 -94 29q-23 15 -12 30l24 33q5 7 11 7q4 0 19 -10q35 -22 64 -22q40 0 68 30q19 20 45 74l11 23h-31q-7 0 -10 2.5
t-4 11.5l-72 429h-58q-8 0 -8 7q0 3 3 15l8 30q2 10 12 10h188q8 0 8 -7l-4 -16l-8 -29q-4 -10 -12 -10h-49l47 -277l15 -118h3q13 29 63 135z" />
    <glyph glyph-name="afii10038" unicode="&#x424;" horiz-adv-x="611" 
d="M352 0h-204q-12 0 -9 12l8 40q3 12 15 12h63l12 59h-15q-92 0 -136 50q-34 39 -34 99q0 75 33 154q29 69 88.5 109t144.5 40h15l13 59h-63q-13 0 -10 12l9 40q2 12 14 12h204q13 0 10 -12l-9 -40q-2 -12 -14 -12h-63l-13 -59h15q85 0 129 -43q41 -41 41 -108
q0 -40 -15 -102q-20 -76 -59 -119q-72 -80 -192 -80h-15l-12 -59h63q11 0 9 -12l-8 -40q-2 -12 -15 -12zM398 513l-70 -328h9q58 0 96 25q37 25 57 74q28 68 28 136q0 44 -24 67q-27 26 -87 26h-9zM250 185l70 328h-9q-112 0 -153 -100q-28 -70 -28 -137q0 -46 28 -68
q29 -23 83 -23h9z" />
    <glyph glyph-name="afii10039" unicode="&#x425;" horiz-adv-x="502" 
d="M257 283l-164 -221h68q8 0 8 -7l-4 -16l-8 -30q-2 -9 -12 -9h-203q-9 0 -9 7q0 1 4 15l8 30q2 10 11 10h49l222 296l-88 265h-58q-8 0 -8 7q0 3 3 15l8 30q2 10 12 10h197q8 0 8 -7l-4 -16l-8 -29q-4 -10 -12 -10h-55l48 -146l16 -52l8 15q15 27 26 41l108 142h-60
q-8 0 -8 7q0 3 3 15l8 30q2 10 12 10h193q8 0 8 -7l-4 -16l-8 -29q-4 -10 -12 -10h-43l-205 -265l102 -296h58q8 0 8 -7l-4 -16l-8 -30q-2 -9 -12 -9h-201q-9 0 -9 7q0 1 4 15l8 30q2 10 11 10h59z" />
    <glyph glyph-name="afii10040" unicode="&#x426;" horiz-adv-x="605" 
d="M150 67h226l118 556h-68q-8 0 -8 7l4 16l8 30q2 9 12 9h210q9 0 9 -7q0 -1 -4 -15l-8 -30q-2 -10 -11 -10h-66l-118 -556h56q14 0 16 -2t0 -16l-47 -222q-5 -10 -14 -10h-54q-12 0 -9 15l36 168h-449q-8 0 -8 7l4 16l8 29q4 10 12 10h66l119 561h-68q-8 0 -8 7l4 16l8 30
q2 9 12 9h210q9 0 9 -7q0 -1 -4 -15l-8 -30q-2 -10 -11 -10h-66z" />
    <glyph glyph-name="afii10041" unicode="&#x427;" horiz-adv-x="581" 
d="M350 62l52 243q-84 -33 -145 -33q-82 0 -117 51q-20 31 -20 71q0 20 5 43l39 186h-67q-8 0 -8 7q0 3 3 15l8 30q2 10 12 10h212q8 0 8 -7l-4 -16l-8 -29q-4 -10 -12 -10h-66l-39 -186q-3 -15 -3 -30q0 -20 7 -35q17 -33 70 -33q32 0 72 10q42 12 67 23l53 251h-67
q-8 0 -8 7q0 3 3 15l8 30q2 10 12 10h212q8 0 8 -7l-4 -16l-8 -29q-4 -10 -12 -10h-66l-119 -561h68q8 0 8 -7l-4 -16l-8 -30q-2 -9 -12 -9h-220q-9 0 -9 7q0 1 4 15l8 30q2 10 11 10h76z" />
    <glyph glyph-name="afii10042" unicode="&#x428;" horiz-adv-x="817" 
d="M150 67h180l130 609q2 9 12 9h58q9 0 9 -7q0 -3 -2 -8.5t-2 -6.5l-127 -596h180l118 556h-68q-8 0 -8 7l4 16l8 30q2 9 12 9h210q9 0 9 -7q0 -1 -4 -15l-8 -30q-2 -10 -11 -10h-66l-119 -561h67q8 0 8 -7q0 -3 -3 -15l-8 -30q-2 -10 -12 -10h-728q-8 0 -8 7l4 16l8 29
q4 10 12 10h66l119 561h-68q-8 0 -8 7l4 16l8 30q2 9 12 9h210q9 0 9 -7q0 -1 -4 -15l-8 -30q-2 -10 -11 -10h-66z" />
    <glyph glyph-name="afii10043" unicode="&#x429;" horiz-adv-x="817" 
d="M150 67h180l130 609q2 9 12 9h58q9 0 9 -7q0 -3 -2 -8.5t-2 -6.5l-127 -596h180l118 556h-68q-8 0 -8 7l4 16l8 30q2 9 12 9h210q9 0 9 -7q0 -1 -4 -15l-8 -30q-2 -10 -11 -10h-66l-118 -556h56q14 0 16 -2t0 -16l-47 -222q-5 -10 -14 -10h-54q-12 0 -9 15l36 168h-661
q-8 0 -8 7l4 16l8 29q4 10 12 10h66l119 561h-68q-8 0 -8 7l4 16l8 30q2 9 12 9h210q9 0 9 -7q0 -1 -4 -15l-8 -30q-2 -10 -11 -10h-66z" />
    <glyph glyph-name="afii10044" unicode="&#x42a;" horiz-adv-x="591" 
d="M293 394h83q51 0 85 -9.5t62 -39.5q38 -42 38 -106q0 -69 -31.5 -124.5t-75.5 -82.5q-52 -32 -138 -32h-252q-9 0 -9 7q0 1 4 15l8 30q2 10 11 10h66l118 556h-98l-22 -106q-2 -10 -13 -10h-47q-8 0 -8 7q0 3 3 15l32 150q2 11 14 11h300q8 0 8 -7l-4 -16l-8 -29
q-4 -10 -12 -10h-66zM223 67h88q103 0 144 75q24 44 24 91q0 44 -26 68q-27 26 -94 26h-80z" />
    <glyph glyph-name="afii10045" unicode="&#x42b;" horiz-adv-x="769" 
d="M219 394h83q32 0 53 -2.5t51 -16t50 -38.5q31 -38 31 -98q0 -63 -29.5 -120t-77.5 -87q-52 -32 -150 -32h-240q-9 0 -9 7q0 1 4 15l8 30q2 10 11 10h66l119 561h-67q-8 0 -8 7q0 3 3 15l8 30q2 10 12 10h212q8 0 8 -7l-4 -16l-8 -29q-4 -10 -12 -10h-66zM149 67h104
q38 0 73 19t55 56q24 46 24 86q0 41 -20 66q-28 33 -100 33h-80zM538 62l119 561h-67q-8 0 -8 7q0 3 3 15l8 30q2 10 12 10h212q8 0 8 -7l-4 -16l-8 -29q-4 -10 -12 -10h-66l-119 -561h68q8 0 8 -7l-4 -16l-8 -30q-2 -9 -12 -9h-210q-9 0 -9 7q0 1 4 15l8 30q2 10 11 10h66z
" />
    <glyph glyph-name="afii10046" unicode="&#x42c;" horiz-adv-x="517" 
d="M219 394h83q104 0 151 -53q34 -39 34 -102q0 -70 -31.5 -125.5t-75.5 -81.5q-52 -32 -135 -32h-255q-9 0 -9 7q0 1 4 15l8 30q2 10 11 10h66l119 561h-67q-8 0 -8 7q0 3 3 15l8 30q2 11 12 10h212q8 0 8 -7l-4 -16l-8 -29q-4 -10 -12 -10h-66zM149 67h96q93 0 136 75
q24 46 24 86q0 51 -32 76q-31 23 -78 23h-90z" />
    <glyph glyph-name="afii10047" unicode="&#x42d;" horiz-adv-x="513" 
d="M116 170l-19 -91l11 -6q38 -20 71 -20q136 0 207 259l3 11h-197q-13 0 -10 12l9 43q2 12 15 12h197l4 20q10 49 10 98q0 61 -27 94q-26 30 -69 30q-49 0 -91 -20l-13 -6l-18 -84q-2 -13 -4 -15t-6 -2h-4h-46q-10 0 -8 10l21 103q3 18 21 31q70 50 159 50q81 0 124 -51
t43 -148q0 -75 -24.5 -175t-60.5 -170q-86 -169 -239 -169q-63 0 -126 35q-28 15 -24 33l27 125q0 1 1 3.5t4 5t7 2.5h47q8 0 8 -7q0 -1 -3 -13z" />
    <glyph glyph-name="afii10048" unicode="&#x42e;" horiz-adv-x="779" 
d="M217 389h107q10 62 40.5 130.5t73.5 112.5q64 67 156 67q170 0 170 -203q0 -131 -35.5 -255t-103.5 -190q-66 -65 -160 -65q-84 0 -129 62q-34 48 -34 148q0 69 9 126h-108l-55 -260h68q8 0 8 -7l-4 -16l-8 -30q-2 -9 -12 -9h-210q-9 0 -9 7q0 1 4 15l8 30q2 10 11 10h66
l119 561h-67q-8 0 -8 7q0 3 3 15l8 30q2 10 12 10h212q8 0 8 -7l-4 -16l-8 -29q-4 -10 -12 -10h-66zM475 53q49 0 82 33t60 98q65 156 65 321q0 69 -26 99q-23 28 -68 28t-78.5 -28.5t-61.5 -89.5q-37 -79 -52.5 -174.5t-15.5 -169.5q0 -57 22 -85q24 -32 73 -32z" />
    <glyph glyph-name="afii10049" unicode="&#x42f;" horiz-adv-x="565" 
d="M387 312h-54q-23 0 -40.5 -7.5t-30.5 -23.5t-19 -26t-15 -28l-49 -99q-32 -63 -39 -74q-35 -54 -109 -64l-14 -2q-3 0 -8 -1t-7 -1h-5.5t-5 1t-3 3.5t-1.5 6.5l-4 48v2v3.5t1 3t2.5 3t5 2.5t8.5 2l20 3q26 4 40 17t35 52l68 125q27 49 69 73q-45 12 -71.5 46.5
t-26.5 82.5q0 89 60 152q30 32 66.5 49t62 20.5t59.5 3.5h231q8 0 8 -7l-4 -16l-8 -29q-4 -10 -12 -10h-66l-119 -561h68q8 0 8 -7l-4 -16l-8 -30q-2 -9 -12 -9h-210q-9 0 -9 7q0 1 4 15l8 30q2 10 11 10h66zM401 377l51 238h-77q-81 0 -120 -44t-39 -109q0 -37 21.5 -57
t44 -24t54.5 -4h65z" />
    <glyph glyph-name="afii10065" unicode="&#x430;" 
d="M375 58h67q11 0 7 -13l-8 -35q-2 -10 -12 -10h-75q-46 0 -49 59v18l1 16q-66 -107 -158 -107q-17 0 -33.5 5.5t-36 19.5t-31.5 45.5t-12 76.5q0 112 50 218q23 48 52.5 80t58 44t45 15.5t31.5 3.5q57 0 98 -48l5 -6l14 31q4 9 9 9h44q10 0 7 -13l-68 -314q-7 -33 -7 -67
q0 -19 1 -28zM330 248l29 136q-9 9 -17 15q-37 28 -73 28q-59 0 -100 -72q-26 -44 -42 -106t-16 -112q0 -84 61 -84q54 0 97 57.5t61 137.5z" />
    <glyph glyph-name="afii10066" unicode="&#x431;" horiz-adv-x="493" 
d="M130 380h3q28 42 71.5 73t98.5 31q27 0 51.5 -8t47.5 -25.5t37 -51.5t14 -81q0 -86 -29 -160t-90 -123t-142 -49q-74 0 -114 49q-38 46 -38 147q0 119 44 239q37 103 92.5 156t134.5 86l185 76q18 7 22 -7l9 -35q3 -14 -13 -20l-211 -88q-128 -53 -164 -178zM203 51
q32 0 68 19.5t61 60.5q45 74 45 185q0 103 -94 103q-33 0 -68 -20t-57 -59q-19 -32 -30.5 -86.5t-11.5 -100.5q0 -102 87 -102z" />
    <glyph glyph-name="afii10067" unicode="&#x432;" horiz-adv-x="466" 
d="M39 39l58 276q20 100 78 142q49 37 119 37q66 0 103 -37q31 -31 31 -77q0 -41 -26.5 -76t-72.5 -52q32 -10 52 -34.5t20 -61.5q0 -79 -56 -127q-50 -43 -147 -43q-43 0 -89 9t-65 25q-8 7 -5 19zM162 277h86q50 0 78.5 27t28.5 65q0 6 -1.5 13t-7 20t-21 21.5t-39.5 8.5
q-39 0 -66 -21q-35 -26 -47 -82zM149 217l-34 -157l19 -5q32 -7 67 -7q56 0 86 23q38 28 38 76q0 34 -23 53q-20 17 -60 17h-93z" />
    <glyph glyph-name="afii10068" unicode="&#x433;" horiz-adv-x="412" 
d="M315 81l12 -40q3 -11 -21 -23q-74 -32 -148 -32q-64 0 -100 37q-28 28 -28 73q0 57 32.5 92.5t95.5 64.5q24 10 36 16q5 2 16 7.5l17 8.5q44 21 61.5 40t17.5 48q0 25 -13 39q-16 17 -51 17q-34 0 -74 -15l-13 -52q-4 -15 -14 -15h-39q-12 0 -9 10l19 83q3 16 24 25
q64 29 126 29q66 0 93 -34t27 -78q0 -91 -118 -146l-41 -19q-76 -36 -89 -47q-28 -24 -28 -60q0 -28 18.5 -43.5t50.5 -15.5q41 0 101 23q8 3 15.5 6t10.5 4.5t5 1.5h3q3 -1 5 -5z" />
    <glyph glyph-name="afii10069" unicode="&#x434;" 
d="M174 656l-1 33v8q0 9 28 14q36 6 59 6q40 0 74 -11t66.5 -38t51 -81t18.5 -130q0 -123 -44 -251q-11 -33 -23 -59.5t-33 -58t-45.5 -52.5t-61 -35.5t-78.5 -14.5q-152 0 -152 164q0 136 62 227q36 53 86.5 80t98.5 27q38 0 74 -20t51 -69h2q2 22 2 66q0 189 -159 189
q-28 0 -51 -6q-12 -5 -18 -3.5t-7 15.5zM197 51q77 0 124 84q21 37 32.5 88.5t11.5 92.5q0 50 -22 76q-24 27 -66 27q-75 0 -121 -73q-23 -36 -35 -90.5t-12 -102.5q0 -102 88 -102z" />
    <glyph glyph-name="afii10070" unicode="&#x435;" horiz-adv-x="444" 
d="M354 98l24 -36q2 -2 2 -5q0 -5 -15 -15q-80 -56 -173 -56q-74 0 -116.5 46t-42.5 137q0 88 36 167q10 22 25 44t41.5 50.5t67 46t87.5 17.5q61 0 94.5 -34.5t33.5 -91.5q0 -97 -80.5 -137t-224.5 -40h-4l-1 -25q-2 -51 22 -80.5t72 -29.5q61 0 126 39q14 9 17 9q6 0 9 -6
zM118 253q103 -4 165 24q64 28 64 86q0 29 -17 49t-52 20q-21 0 -41.5 -7t-44.5 -24.5t-43.5 -55.5t-30.5 -92z" />
    <glyph glyph-name="afii10072" unicode="&#x436;" horiz-adv-x="653" 
d="M298 0h-52q-8 0 -8 8l44 210h-39q-23 0 -38.5 -10t-31.5 -43l-34 -71q-33 -69 -57 -85q-34 -23 -85 -23q-9 0 -10 8l-3 45q-1 7 1.5 10t12.5 4l13 2q20 3 29.5 10t20.5 28l52 96q9 16 15 25t22.5 22t38.5 19q-39 17 -45 77l-5 43q-2 25 -9 37t-26 15l-13 2q-13 2 -9 12
l20 45q4 8 13 8q49 0 71 -38q8 -15 15 -70l4 -36q2 -18 3.5 -26.5t7 -21t16 -17.5t26.5 -5h38l40 188q3 10 9 12l54 13q1 0 3.5 0.5t3.5 0.5q3 0 5 -2v-7l-43 -205h39q45 0 69 54l23 52q25 57 52 80q34 28 82 28q8 0 8 -8l2 -45q0 -10 -15 -12l-11 -2q-20 -3 -28 -11
t-25 -44l-19 -40q-9 -20 -16 -31.5t-24.5 -27t-40.5 -22.5q43 -15 49 -75l9 -83q2 -20 9 -27q9 -9 25 -11l11 -2q10 -3 10 -4q0 -4 -2 -10l-21 -45q-3 -8 -18 -8q-27 0 -46 10q-16 8 -24.5 27t-10.5 31.5t-4 39.5l-6 71q-2 25 -10 37t-16.5 14t-24.5 2h-40l-44 -210
q-1 -8 -12 -8z" />
    <glyph glyph-name="afii10073" unicode="&#x437;" horiz-adv-x="416" 
d="M147 412l-11 -52q-2 -12 -15 -12h-36q-12 0 -9 12l17 80v2.5t0.5 3t3.5 4.5t9 6q29 16 61 25q41 13 86 13q70 0 101 -39q23 -29 23 -71q0 -45 -27.5 -80t-73.5 -50q32 -10 50 -35t18 -62q0 -53 -37 -100q-56 -71 -167 -71q-82 0 -135 34q-12 9 -12 13q0 6 4 12l16 28
q7 10 12 10q2 0 16 -7q49 -28 107 -28q60 0 95 40q25 28 25 65q0 33 -21 50q-19 16 -61 16h-39q-13 0 -10 13l7 33q3 14 16 14h24q52 0 83 23q37 27 37 71q0 21 -13 38q-17 21 -56 21q-43 0 -88 -20z" />
    <glyph glyph-name="afii10074" unicode="&#x438;" horiz-adv-x="534" 
d="M209 459l-62 -289q-9 -48 -9 -61q0 -56 51 -56q49 0 98 41q48 41 71 149l46 218q2 10 10 12l52 13q3 2 9 1t5 -9l-74 -347q-8 -38 -8 -52q0 -9 1 -14l1 -7h68q11 0 8 -13l-8 -35q-2 -10 -11 -10h-58q-33 0 -48 13q-13 11 -15 36v21v10h-2q-32 -44 -77.5 -69t-94.5 -25
q-51 0 -75.5 33t-24.5 72q0 19 9 58l58 273h-72q-8 0 -8 7q0 1 0.5 2.5t1 4t0.5 4.5l5 28q1 5 1.5 6.5t3 3.5t8.5 2h131q14 0 9 -21z" />
    <glyph glyph-name="afii10075" unicode="&#x439;" horiz-adv-x="534" 
d="M209 459l-62 -289q-9 -48 -9 -61q0 -56 51 -56q49 0 98 41q48 41 71 149l46 218q2 10 10 12l52 13q3 2 9 1t5 -9l-74 -347q-8 -38 -8 -52q0 -9 1 -14l1 -7h68q11 0 8 -13l-8 -35q-2 -10 -11 -10h-58q-33 0 -48 13q-13 11 -15 36v21v10h-2q-32 -44 -77.5 -69t-94.5 -25
q-51 0 -75.5 33t-24.5 72q0 19 9 58l58 273h-72q-8 0 -8 7q0 1 0.5 2.5t1 4t0.5 4.5l5 28q1 5 1.5 6.5t3 3.5t8.5 2h131q14 0 9 -21zM410 688l40 -6q10 -2 10 -8q0 -3 -5 -16q-21 -47 -51 -70q-41 -31 -96 -31q-62 0 -88 40q-15 23 -17 70q0 6 1 9.5t4 4.5t6 1h2l34 6
q5 2 8 0.5t5 -0.5t3 -2l1 -2v-4v-3v-6q0 -33 9 -45q12 -16 39 -16q42 0 66 39q10 16 14 32q1 4 2 5t4 2.5t9 -0.5z" />
    <glyph glyph-name="afii10076" unicode="&#x43a;" horiz-adv-x="488" 
d="M137 422h-80q-8 0 -8 7q0 1 0.5 2.5t1 4t0.5 4.5l5 28q1 5 1.5 6.5t3 3.5t8.5 2h139q14 0 9 -21l-39 -179h57q45 0 69 54l23 52q17 37 30 56t36 33q34 19 67 19q4 0 6.5 -1t2.5 -2v-3v-2l2 -45q0 -10 -15 -12l-13 -2q-16 -2 -27 -13q-10 -10 -24 -42l-19 -40
q-9 -20 -16 -31.5t-24.5 -27t-40.5 -22.5q43 -15 49 -75l9 -83q3 -21 9 -27q9 -9 25 -11l11 -2q10 -3 10 -4q0 -4 -2 -10l-21 -45q-4 -8 -19 -8q-28 0 -45 10q-16 8 -24.5 27t-10.5 31.5t-4 39.5l-6 71q-2 25 -10 37t-16.5 14t-24.5 2h-57l-44 -208q-3 -10 -12 -10h-52
q-10 0 -7 13z" />
    <glyph glyph-name="afii10077" unicode="&#x43b;" horiz-adv-x="530" 
d="M386 415h-114l-7 -30q-25 -111 -58 -201q-25 -69 -57 -116t-87 -69q-35 -13 -62 -13h-5q-16 0 -16 11v43q0 7 3 9.5t15 3.5l9 1q22 3 38 9.5t36 23t38.5 51.5t36.5 87q28 84 45 157l9 40h-69q-8 0 -8 7q0 1 0.5 2.5t1 4t0.5 4.5l5 28q1 5 1.5 6.5t3 3.5t8.5 2h306
q11 0 11 -7q0 -5 -1 -8l-87 -407h67q11 0 8 -13l-8 -35q-3 -10 -11 -10h-77q-27 0 -42 19q-8 11 -8 29q0 15 4 31z" />
    <glyph glyph-name="afii10078" unicode="&#x43c;" horiz-adv-x="653" 
d="M289 471l34 -217q6 -41 5 -70h3q13 36 33 70l126 217q3 9 11 9h74q6 0 6 -4v-5l-63 -413h62q11 0 8 -13l-8 -35q-2 -10 -11 -10h-75q-27 0 -42 19q-8 11 -8 29q0 3 0.5 9t2 12.5t1.5 9.5l50 276q1 4 3 15l4 22h-2q-4 -12 -18 -37l-140 -243q-6 -10 -14 -10h-37q-5 0 -7 1
t-3 9l-37 243q-3 15 -3 37h-2q-5 -25 -8 -37q-32 -126 -45 -171q-34 -111 -83 -155q-48 -43 -105 -43h-5q-16 0 -16 11v43q0 12 18 13q43 3 67 27.5t41 66.5q40 98 79 275h-69q-8 0 -8 7q0 1 0.5 2.5t1 4t0.5 4.5l5 28q1 5 1.5 6.5t3 3.5t8.5 2h154q6 0 7 -9z" />
    <glyph glyph-name="afii10079" unicode="&#x43d;" horiz-adv-x="540" 
d="M165 216l-43 -204q-2 -12 -15 -12h-48q-12 0 -9 12l87 410h-80q-8 0 -8 7q0 1 0.5 2.5t1 4t0.5 4.5l5 28q1 5 1.5 6.5t3 3.5t8.5 2h139q14 0 9 -21l-39 -181h193l39 183q2 10 10 12l52 13q17 4 14 -8l-90 -420h67q11 0 8 -13l-8 -35q-3 -10 -11 -10h-77q-27 0 -42 19
q-8 11 -8 29q0 15 4 31l29 137h-193z" />
    <glyph glyph-name="afii10080" unicode="&#x43e;" horiz-adv-x="481" 
d="M289 494q68 0 110 -42q43 -43 43 -127q0 -127 -62 -225q-38 -61 -91 -87.5t-105 -26.5q-66 0 -107 38q-44 42 -44 129q0 127 59 224q72 117 197 117zM366 324q0 55 -28 81q-23 22 -60 22q-80 0 -126 -85q-43 -81 -43 -187q0 -47 20 -74q21 -28 61 -28q84 0 131 84
q45 78 45 187z" />
    <glyph glyph-name="afii10081" unicode="&#x43f;" horiz-adv-x="544" 
d="M52 22l71 335q5 27 5 47q0 12 -1 18h-69q-8 0 -8 7q0 1 0.5 2t1 3t0.5 4l6 30q4 11 13 12h103q27 0 22 -76l-1 -16h2q72 106 178 106q47 0 70.5 -22.5t23.5 -57.5q0 -23 -10 -70l-60 -286h66q11 0 8 -13l-8 -35q-3 -10 -11 -10h-77q-21 0 -33.5 11t-14.5 19.5t-2 14.5v8
q0 7 2 15l58 276q6 30 6 40q0 43 -44 43q-79 0 -135 -87q-35 -55 -47 -112l-46 -218q-2 -10 -12 -10h-52q-8 0 -8 8q0 2 1.5 6.5t1.5 7.5z" />
    <glyph glyph-name="afii10082" unicode="&#x440;" horiz-adv-x="509" 
d="M17 -144l101 471q8 37 8 62q0 11 -2 33h-71q-8 0 -8 7q0 1 3 15l5 24q2 12 13 12h99q28 0 31 -45q1 -5 1 -8l1 -10h2q72 77 157 77q113 0 113 -148q0 -143 -55 -243q-34 -62 -84.5 -89.5t-101.5 -27.5q-47 0 -93 26l-12 7l-35 -163h68q10 0 5 -18l-7 -30q-2 -10 -12 -10
h-194q-8 0 -8 7q0 3 3 15l5 24q2 12 13 12h55zM172 243l-34 -160l10 -6q40 -24 79 -24q72 0 114 69q53 88 53 221q0 84 -60 84q-50 0 -96.5 -47t-65.5 -137z" />
    <glyph glyph-name="afii10083" unicode="&#x441;" horiz-adv-x="397" 
d="M372 331h-44q-9 0 -9 7q0 4 2 11l15 68l-3 1q-27 9 -48 9q-34 0 -71 -22t-61 -68q-19 -35 -30.5 -89t-11.5 -94q0 -54 26 -76t64 -22q15 0 29 3t26 8t20 9t17.5 10t11.5 7q6 3 10 4h3q3 0 5 -4l15 -35q0 -1 1.5 -3.5t1.5 -4.5q0 -7 -14 -16q-70 -48 -151 -48
q-74 0 -109 47q-32 44 -32 118q0 140 70 241q72 102 190 102q50 0 90 -20q16 -8 19.5 -15t1.5 -19l-21 -98q-2 -11 -13 -11z" />
    <glyph glyph-name="afii10084" unicode="&#x442;" horiz-adv-x="768" 
d="M52 22l71 335q5 20 5 47q0 12 -1 18h-69q-8 0 -8 7q0 1 0.5 2t1 3t0.5 4l6 30q4 11 13 12h103q27 0 22 -76l-1 -16h2q28 47 67 76q41 30 93 30q41 0 63.5 -26.5t20.5 -64.5h2q27 42 70 66.5t89 24.5q40 0 66 -20.5t26 -62.5q0 -22 -10 -67l-61 -286h66q11 0 8 -13l-8 -35
q-3 -10 -11 -10h-77q-21 0 -33.5 11t-14.5 19.5t-2 14.5v8q0 7 2 15l59 276q6 30 6 40q0 43 -43 43q-68 0 -108 -62q-35 -51 -57 -154l-43 -201q-2 -10 -12 -10h-52q-8 0 -8 8q0 2 1.5 6.5t1.5 7.5l68 322q6 30 6 40q0 43 -42 43q-33 0 -66 -22.5t-56 -64.5
q-28 -48 -41 -112l-46 -218q-2 -10 -12 -10h-52q-8 0 -8 8q0 2 1.5 6.5t1.5 7.5z" />
    <glyph glyph-name="afii10085" unicode="&#x443;" horiz-adv-x="463" 
d="M152 471l56 -432h2l192 442q3 6 8 6q2 0 6 -2l47 -19q5 -2 5 -6t-2 -8l-187 -418q-36 -81 -69 -134q-42 -68 -95 -93q-36 -17 -75 -17q-50 0 -90 27q-14 9 -14 15q0 2 5 10l23 38q2 5 7 5q6 0 14 -6q33 -22 66 -22q60 0 104 80l34 63h-36q-10 0 -12 10l-60 412h-59
q-9 0 -6 13l7 34q2 11 13 11h106q8 0 10 -9z" />
    <glyph glyph-name="afii10086" unicode="&#x444;" horiz-adv-x="654" 
d="M334 455l37 177h-80q-6 0 -6 7q0 1 0.5 3t0.5 3v5l6 28v5q0 1 1 2l2 2q0 1 0.5 1t0.5 1t8 1h139q14 0 9 -21l-46 -214q50 39 95 39q11 0 22.5 -1.5t29 -10.5t30.5 -24t22.5 -45t9.5 -70q0 -49 -18 -119.5t-42 -116.5q-33 -63 -77 -92q-43 -29 -91.5 -29.5t-73.5 31.5
l-35 -161h68q10 0 6 -18l-8 -30q-3 -10 -12 -10h-194q-7 0 -7 7l3 15l5 24q1 6 4 9t4 3h4h55l35 161q-39 -31 -84 -31q-58 0 -90 39q-34 43 -34 116q0 50 18 121t41 115q60 117 160 117q44 0 82 -39zM392 391l-66 -310q32 -33 61 -33q73 0 111 100q15 41 28 100.5t13 99.5
q0 41 -14 60q-18 24 -55 24t-78 -41zM254 81l66 310q-22 41 -64 41q-60 0 -96 -76q-20 -43 -35.5 -113.5t-15.5 -108.5q0 -40 16 -61q19 -25 55 -25q33 0 74 33z" />
    <glyph glyph-name="afii10087" unicode="&#x445;" horiz-adv-x="426" 
d="M336 58h55q8 0 8 -7q0 -1 -0.5 -2t-1 -3.5t-0.5 -4.5l-6 -29q-2 -12 -13 -12h-89q-9 0 -13 9l-66 151q-6 14 -10 27q-5 -7 -10.5 -14t-7.5 -9l-135 -163q-5 -8 -11 -8q-2 0 -14 5l-44 18q-6 2 -6 6q0 3 5 8l199 219l-79 173h-56q-8 0 -8 7q0 3 2 11l6 28q2 12 13 12h89
q7 0 10 -7l72 -169q20 29 22 31l122 148q5 5 7 5q3 0 7 -2l52 -21q4 -2 4 -6q0 -3 -4 -7l-186 -203z" />
    <glyph glyph-name="afii10088" unicode="&#x446;" horiz-adv-x="529" 
d="M200 459l-62 -289q-9 -48 -9 -61q0 -56 51 -56q49 0 98 41q48 41 71 149l46 218q2 10 10 12l52 13q3 2 9 1t5 -9l-74 -347q-4 -20 -4 -34q0 -22 13 -35h52h4h4l3 -2q3 -1 1 -3.5t-1 -7.5l-37 -181q-2 -10 -11 -12l-42 -12q-6 -3 -13 -2t-5 11l31 147q-40 3 -55 28
q-10 16 -10 46v6h-2q-24 -35 -62 -60q-49 -34 -109 -34q-53 0 -77 33t-24 72q0 19 9 58l58 273h-72q-8 0 -8 7q0 1 0.5 2.5t1 4t0.5 4.5l5 28q1 5 1.5 6.5t3 3.5t8.5 2h131q14 0 9 -21z" />
    <glyph glyph-name="afii10089" unicode="&#x447;" horiz-adv-x="487" 
d="M343 58h67q11 0 8 -13l-8 -35q-2 -10 -11 -10h-77q-29 0 -42 19q-8 12 -8 29t4 31l24 112q-73 -27 -118 -27q-52 0 -84 28q-29 26 -29 72q0 24 6 49l23 109h-80q-8 0 -8 7q0 1 0.5 2.5t1 4t0.5 4.5l5 28q1 5 1.5 6.5t3 3.5t8.5 2h139q14 0 9 -21l-33 -157q-2 -12 -2 -18
q0 -53 57 -53q50 0 113 22l44 208q2 10 10 12l52 13q17 4 14 -8z" />
    <glyph glyph-name="afii10090" unicode="&#x448;" horiz-adv-x="758" 
d="M704 478l-76 -355q-5 -20 -5 -47q0 -12 1 -18h69q8 0 8 -7q0 -1 -0.5 -2t-1 -3t-0.5 -4l-6 -30q-4 -11 -13 -12h-103q-27 0 -22 76l1 16h-2q-23 -39 -57 -68q-46 -38 -103 -38q-41 0 -65 28q-22 26 -19 63h-2q-22 -35 -55 -58q-48 -33 -104 -33q-48 0 -73 29
q-19 21 -19 54q0 22 10 67l61 286h-80q-8 0 -8 7q0 1 0.5 2.5t1 4t0.5 4.5l5 28q1 5 1.5 6.5t3 3.5t8.5 2h139q14 0 9 -21l-69 -323q-6 -30 -6 -40q0 -43 43 -43q69 0 111 65q34 53 54 151l41 192q2 10 10 12l52 13q17 4 14 -8l-73 -342q-6 -30 -6 -40q0 -43 42 -43
q33 0 66 22.5t56 64.5q28 48 41 112l44 209q2 10 10 12l52 13q17 4 14 -8z" />
    <glyph glyph-name="afii10091" unicode="&#x449;" horiz-adv-x="758" 
d="M704 478l-74 -347q-4 -20 -4 -34q0 -22 13 -35h52h5h3l3 -2q3 -1 1 -3.5t-1 -7.5l-37 -181q-2 -10 -11 -12l-42 -12q-6 -3 -13 -2t-5 11l31 147q-64 2 -69 75v17h-2q-23 -41 -63 -73.5t-94 -32.5q-45 0 -67 27q-21 27 -20 64h-2q-27 -43 -69.5 -67t-87.5 -24
q-44 0 -71 23q-23 20 -23 60q0 22 10 67l61 286h-80q-8 0 -8 7q0 1 0.5 2.5t1 4t0.5 4.5l5 28q1 5 1.5 6.5t3 3.5t8.5 2h139q14 0 9 -21l-69 -323q-6 -30 -6 -40q0 -43 43 -43q69 0 111 66q34 54 54 150l41 192q2 10 10 12l52 13q17 4 14 -8l-73 -342q-6 -30 -6 -40
q0 -43 42 -43q33 0 66 22.5t56 64.5q28 48 41 112l44 209q2 10 10 12l52 13q3 2 9 1t5 -9z" />
    <glyph glyph-name="afii10092" unicode="&#x44a;" horiz-adv-x="515" 
d="M202 415h-87l-12 -58q-4 -15 -14 -15h-40q-11 0 -9 10l24 116q4 11 13 12h198q14 0 9 -21l-37 -172q37 11 76 11q64 0 103 -33.5t39 -94.5q0 -74 -45 -124q-54 -60 -150 -60q-44 0 -87 12.5t-56 21.5q-8 7 -5 19zM234 229l-36 -169l16 -4q27 -8 58 -8q57 0 87 33.5
t30 79.5q0 27 -11.5 44.5t-30 24t-28 8t-20.5 1.5q-31 0 -65 -10z" />
    <glyph glyph-name="afii10093" unicode="&#x44b;" horiz-adv-x="677" 
d="M217 459l-37 -171q40 10 73 10q9 0 18.5 -1t28.5 -4t34 -12t30.5 -22.5t24.5 -37t9 -54.5q0 -74 -51.5 -127.5t-142.5 -53.5q-45 0 -89 12.5t-55 21.5q-6 5 -6 11q0 5 1 8l82 383h-80q-8 0 -8 7q0 1 0.5 2.5t1 4t0.5 4.5l5 28q1 5 1.5 6.5t3 3.5t8.5 2h139q14 0 9 -21z
M166 223l-34 -160l15 -4q34 -8 59 -8q54 0 86 32q30 30 30 75q0 37 -24 57q-22 18 -68 18q-32 0 -64 -10zM541 422h-80q-8 0 -8 7q0 1 0.5 2.5t1 4t0.5 4.5l5 28q2 12 13 12h139q14 0 9 -21l-86 -401h67q11 0 8 -13l-8 -35q-2 -10 -11 -10h-77q-21 0 -35.5 13t-14.5 35
q0 17 4 31z" />
    <glyph glyph-name="afii10094" unicode="&#x44c;" horiz-adv-x="449" 
d="M218 459l-37 -171q31 10 73 10q68 0 105 -33q40 -36 40 -95q0 -73 -45 -124q-52 -59 -146 -59q-50 0 -92.5 11.5t-54.5 21.5q-6 5 -6 11q0 5 1 8l82 383h-80q-8 0 -8 7q0 1 0.5 2.5t1 4t0.5 4.5l5 28q1 5 1.5 6.5t3 3.5t8.5 2h139q14 0 9 -21zM167 223l-34 -160l15 -4
q26 -7 59 -7q54 0 86 31q30 28 30 75q0 35 -22 55t-71 20q-30 0 -63 -10z" />
    <glyph glyph-name="afii10095" unicode="&#x44d;" horiz-adv-x="428" 
d="M65 352l19 91q3 18 23 27q53 24 118 24q83 0 125 -49q39 -45 39 -129q0 -64 -21.5 -133.5t-67.5 -122.5q-64 -74 -168 -74q-19 0 -36.5 2.5t-32.5 8t-23.5 9.5t-20.5 10.5t-14 7.5q-12 8 -12 13q0 4 2 6l26 43q2 4 6 5h2q2 0 10 -5q57 -35 99 -35q67 0 109 56
q32 44 49 109h-152q-13 0 -10 12l8 38q2 12 15 12h153q3 19 3 38q0 55 -21 82q-23 31 -79 31q-37 0 -69 -14l-12 -58q-4 -15 -14 -15h-44q-11 0 -9 10z" />
    <glyph glyph-name="afii10096" unicode="&#x44e;" horiz-adv-x="687" 
d="M178 278h83q31 119 106 173q60 43 128 43q74 0 114 -44q39 -43 39 -125q0 -127 -66 -229q-72 -110 -195 -110q-81 0 -118 57q-25 39 -25 110q0 35 4 63h-83l-43 -204q-2 -12 -15 -12h-48q-12 0 -9 12l87 410h-80q-8 0 -8 7q0 1 0.5 2.5t1 4t0.5 4.5l5 28q1 5 1.5 6.5
t3 3.5t8.5 2h139q14 0 9 -21zM572 324q0 55 -29 82q-23 21 -59 21q-71 0 -116 -72q-50 -80 -50 -200q0 -49 19 -74q21 -28 62 -28q5 0 11.5 0.5t23 5t31 12.5t32.5 25.5t31 41.5q44 79 44 186z" />
    <glyph glyph-name="afii10097" unicode="&#x44f;" horiz-adv-x="488" 
d="M305 205h-62q-20 0 -36 -11t-20.5 -18.5t-13.5 -23.5l-34 -64q-30 -57 -45 -71q-25 -24 -65 -29q-16 -2 -30 -2q-9 0 -10 8l-5 45q-1 13 12 14l15 2q13 1 26 10q10 7 22 28l47 83q21 38 59 56q-35 11 -56 37.5t-21 62.5q0 24 10 48t31.5 47.5t64 38t100.5 14.5h130
q12 0 9 -12l-87 -410h67q11 0 8 -13l-8 -35q-3 -10 -11 -10h-77q-27 0 -42 19q-8 11 -8 29q0 15 4 31zM319 267l32 151h-72q-53 0 -83 -23q-32 -24 -32 -66q0 -27 19 -43q23 -19 58 -19h78z" />
    <glyph glyph-name="afii10071" unicode="&#x451;" horiz-adv-x="494" 
d="M354 98l24 -36q2 -2 2 -5q0 -5 -15 -15q-80 -56 -173 -56q-74 0 -116.5 46t-42.5 137q0 88 36 167q10 22 25 44t41.5 50.5t67 46t87.5 17.5q61 0 94.5 -34.5t33.5 -91.5q0 -97 -80.5 -137t-224.5 -40h-4l-1 -25q-2 -51 22 -80.5t72 -29.5q61 0 126 39q14 9 17 9q6 0 9 -6
zM118 253q103 -4 165 24q64 28 64 86q0 29 -17 49t-52 20q-21 0 -41.5 -7t-44.5 -24.5t-43.5 -55.5t-30.5 -92zM285 625q0 -21 -15.5 -36t-35.5 -15t-35.5 15.5t-15.5 35.5t15.5 35.5t35.5 15.5t35.5 -15.5t15.5 -35.5zM468 625q0 -21 -15.5 -36t-35.5 -15t-35.5 15.5
t-15.5 35.5t15.5 35.5t35.5 15.5t35.5 -15.5t15.5 -35.5z" />
    <glyph glyph-name="afii10099" unicode="&#x452;" horiz-adv-x="509" 
d="M167 228l-46 -218q-2 -10 -12 -10h-52q-8 0 -8 8q0 2 1.5 6.5t1.5 7.5l112 527h-57q-13 0 -10 12l6 29q2 12 15 12h57l12 57h-72q-7 0 -7 7q0 2 2 10l6 29q2 12 13 12h129q10 0 11 -6.5t-2 -14.5l-20 -94h137q14 0 10 -15l-6 -26q-2 -12 -14 -12h-138l-18 -84
q-5 -27 -22 -75l1 -2q29 42 69 70q50 36 110 36q46 0 70 -28q24 -27 24 -83q0 -101 -31 -203q-47 -161 -131 -272q-47 -62 -120 -126q-17 -16 -25 -16q-3 0 -8 3l-17 16q-3 3 -4 6v5q1 5 13 17q31 29 73 86q106 141 156 340q18 74 18 118q0 70 -55 70q-50 0 -103 -60
q-52 -60 -69 -139z" />
    <glyph glyph-name="afii10100" unicode="&#x453;" horiz-adv-x="412" 
d="M315 81l12 -40q3 -11 -21 -23q-74 -32 -148 -32q-64 0 -100 37q-28 28 -28 73q0 57 32.5 92.5t95.5 64.5q24 10 36 16q5 2 16 7.5l17 8.5q44 21 61.5 40t17.5 48q0 25 -13 39q-16 17 -51 17q-34 0 -74 -15l-13 -52q-4 -15 -14 -15h-39q-12 0 -9 10l19 83q3 16 24 25
q64 29 126 29q66 0 93 -34t27 -78q0 -91 -118 -146l-41 -19q-76 -36 -89 -47q-28 -24 -28 -60q0 -28 18.5 -43.5t50.5 -15.5q41 0 101 23q8 3 15.5 6t10.5 4.5t5 1.5h3q3 -1 5 -5zM394 693l28 -46q3 -3 3 -8q0 -6 -5 -8l-175 -79q-6 -2 -7 -2q-4 0 -7 5l-14 21q-1 1 -1 4
q0 5 5 8l155 109q5 3 8 3q6 0 10 -7z" />
    <glyph glyph-name="afii10101" unicode="&#x454;" horiz-adv-x="397" 
d="M375 343h-44q-9 0 -9 7q0 4 2 11l12 56l-3 1q-27 9 -48 9q-50 0 -91 -37q-48 -42 -64 -112h152q13 0 10 -12l-8 -38q-2 -12 -15 -12h-153q-5 -40 -5 -60q0 -100 90 -100q48 0 104 31q4 2 10 4h3q3 0 5 -4l15 -35q0 -1 1.5 -3.5t1.5 -4.5q0 -7 -14 -16q-70 -42 -151 -42
q-74 0 -109 47q-32 44 -32 118q0 140 70 241q72 102 190 102q50 0 90 -20q16 -8 19.5 -15t1.5 -19l-18 -86q-2 -11 -13 -11z" />
    <glyph glyph-name="afii10102" unicode="&#x455;" horiz-adv-x="389" 
d="M37 156h45q8 0 8 -7q0 -1 -0.5 -2t-1 -3.5t-0.5 -4.5l-14 -69q37 -17 82 -17q42 0 65 24.5t23 56.5q0 21 -11.5 39t-22.5 26.5t-37 26.5q-30 21 -43.5 31.5t-27.5 34.5t-14 54q0 71 56 114q46 34 113 34q42 0 78 -14t31 -37l-19 -91q-2 -10 -13 -10h-44q-12 0 -8 15
l14 63q-27 7 -48 7q-36 0 -60 -19t-24 -52q0 -25 15 -41t51 -39q21 -13 30.5 -20.5t26.5 -24t25 -38t8 -47.5q0 -65 -45 -112.5t-131 -47.5q-71 0 -131 35q-12 7 -12 15q0 3 2 9t2 9l19 92q2 10 13 10z" />
    <glyph glyph-name="afii10103" unicode="&#x456;" horiz-adv-x="278" 
d="M133 422h-80q-8 0 -8 7q0 4 2 11l6 28q4 11 13 12h138q14 0 9 -21l-85 -401h66q11 0 8 -13l-8 -35q-2 -10 -11 -10h-77q-27 0 -42 19q-8 11 -8 29q0 17 4 31zM272 661q0 -24 -16.5 -40t-39.5 -16t-39.5 16.5t-16.5 39.5t16 39.5t40 16.5q23 0 39.5 -16.5t16.5 -39.5z" />
    <glyph glyph-name="afii10104" unicode="&#x457;" horiz-adv-x="278" 
d="M133 422h-80q-8 0 -8 7q0 4 2 11l6 28q4 11 13 12h138q14 0 9 -21l-85 -401h66q11 0 8 -13l-8 -35q-2 -10 -11 -10h-77q-27 0 -42 19q-8 11 -8 29q0 17 4 31zM181 625q0 -21 -15.5 -36t-35.5 -15t-35.5 15.5t-15.5 35.5t15.5 35.5t35.5 15.5t35.5 -15.5t15.5 -35.5z
M323 625q0 -21 -15.5 -36t-35.5 -15t-35.5 15.5t-15.5 35.5t15.5 35.5t35.5 15.5t35.5 -15.5t15.5 -35.5z" />
    <glyph glyph-name="afii10105" unicode="&#x458;" horiz-adv-x="291" 
d="M234 459l-103 -483q-22 -100 -56 -138q-42 -48 -113 -48q-53 0 -99 25q-13 4 -13 13q0 3 3 9l18 39q3 7 9 7q4 0 18 -7q38 -19 68 -19q46 0 70 49q13 27 29 100l89 416h-80q-8 0 -8 7l3 15l5 24q2 12 13 12h138q11 0 11 -10q0 -5 -2 -11zM293 661q0 -24 -16.5 -40
t-39.5 -16t-39.5 16.5t-16.5 39.5t16 39.5t40 16.5q23 0 39.5 -16.5t16.5 -39.5z" />
    <glyph glyph-name="afii10106" unicode="&#x459;" horiz-adv-x="699" 
d="M467 459l-36 -171q37 10 74 10q67 0 105 -34q39 -34 39 -94q0 -73 -45 -124q-54 -60 -149 -60q-45 0 -89 12.5t-55 21.5q-6 5 -6 11q0 5 1 8l80 376h-114l-7 -30q-25 -111 -58 -201q-25 -69 -57 -116t-87 -69q-35 -13 -62 -13h-5q-16 0 -16 11v43q0 7 3 9.5t15 3.5l9 1
q22 3 38 9.5t36 23t38.5 51.5t36.5 87q28 84 45 157l9 40h-69q-8 0 -8 7q0 1 0.5 2.5t1 4t0.5 4.5l5 28q1 5 1.5 6.5t3 3.5t8.5 2h305q14 0 9 -21zM417 223l-34 -160l15 -4q29 -8 61 -8q52 0 84 32q30 30 30 77q0 37 -23 55q-22 18 -68 18q-29 0 -65 -10z" />
    <glyph glyph-name="afii10107" unicode="&#x45a;" horiz-adv-x="713" 
d="M165 216l-43 -204q-2 -12 -15 -12h-48q-12 0 -9 12l86 410h-79q-8 0 -8 7q0 1 0.5 2.5t1 4t0.5 4.5l5 28q1 5 1.5 6.5t3 3.5t8.5 2h139q6 0 8 -3t0 -18l-38 -181h193l39 183q2 10 10 12l52 13q10 2 13 -1t1 -5q-1 -1 -1 -2l-40 -190q34 10 76 10q65 0 103 -34
q39 -34 39 -95q0 -73 -45 -123q-54 -60 -149 -60q-45 0 -89 12.5t-55 21.5q-8 7 -5 19l38 177h-193zM431 223l-34 -160l15 -4q27 -8 58 -8q55 0 87 32q30 30 30 76q0 38 -23 56q-22 18 -68 18q-29 0 -65 -10z" />
    <glyph glyph-name="afii10108" unicode="&#x45b;" horiz-adv-x="544" 
d="M167 228l-46 -218q-2 -10 -12 -10h-52q-8 0 -8 8q0 2 1.5 6.5t1.5 7.5l112 527h-57q-13 0 -10 12l6 29q2 12 15 12h57l12 57h-72q-7 0 -7 7q0 2 2 10l6 29q2 12 13 12h129q10 0 11 -6.5t-2 -14.5l-20 -94h137q14 0 10 -15l-6 -26q-2 -12 -14 -12h-138l-18 -84
q-7 -33 -24 -77h3q71 106 179 106q50 0 71.5 -24t21.5 -58q0 -24 -10 -68l-61 -286h67q11 0 8 -13l-8 -35q-3 -10 -11 -10h-77q-27 0 -42 19q-8 11 -8 29q0 15 4 31l56 265q6 30 6 40q0 20 -11 31q-10 12 -36 12q-58 0 -107 -54q-53 -58 -72 -145z" />
    <glyph glyph-name="afii10109" unicode="&#x45c;" horiz-adv-x="488" 
d="M137 422h-80q-8 0 -8 7q0 1 0.5 2.5t1 4t0.5 4.5l5 28q1 5 1.5 6.5t3 3.5t8.5 2h139q14 0 9 -21l-39 -179h57q45 0 69 54l23 52q17 37 30 56t36 33q34 19 67 19q4 0 6.5 -1t2.5 -2v-3v-2l2 -45q0 -10 -15 -12l-13 -2q-16 -2 -27 -13q-10 -10 -24 -42l-19 -40
q-9 -20 -16 -31.5t-24.5 -27t-40.5 -22.5q43 -15 49 -75l9 -83q3 -21 9 -27q9 -9 25 -11l11 -2q10 -3 10 -4q0 -4 -2 -10l-21 -45q-4 -8 -19 -8q-28 0 -45 10q-16 8 -24.5 27t-10.5 31.5t-4 39.5l-6 71q-2 25 -10 37t-16.5 14t-24.5 2h-57l-44 -208q-3 -10 -12 -10h-52
q-10 0 -7 13zM417 693l28 -46q3 -3 3 -8q0 -6 -5 -8l-175 -79q-6 -2 -7 -2q-4 0 -7 5l-14 21q-1 1 -1 4q0 5 5 8l155 109q5 3 8 3q7 0 10 -7z" />
    <glyph glyph-name="afii10110" unicode="&#x45e;" horiz-adv-x="463" 
d="M384 688l40 -6q10 -2 10 -8q0 -3 -5 -16q-15 -33 -36 -56q-16 -18 -35 -27q-36 -18 -78 -18q-67 0 -91 48q-10 21 -12 62v5q1 8 13 10l34 6q4 1 10 1q7 0 7 -12v-6q0 -32 10 -45q12 -16 38 -16q44 0 66 39q11 20 14 32q2 6 4 7t11 0zM152 471l56 -432h2l192 442q3 6 8 6
q2 0 6 -2l47 -19q5 -2 5 -6t-2 -8l-187 -418q-36 -81 -69 -134q-42 -68 -95 -93q-36 -17 -75 -17q-50 0 -90 27q-14 9 -14 15q0 2 5 10l23 38q2 5 7 5q6 0 14 -6q33 -22 66 -22q60 0 104 80l34 63h-36q-10 0 -12 10l-60 412h-59q-9 0 -6 13l7 34q2 11 13 11h106q8 0 10 -9z
" />
    <glyph glyph-name="afii10193" unicode="&#x45f;" horiz-adv-x="534" 
d="M209 459l-62 -289q-9 -48 -9 -61q0 -56 51 -56q49 0 98 41q48 41 71 149l46 218q2 10 10 12l52 13q3 2 9 1t5 -9l-74 -347q-8 -38 -8 -52q0 -9 1 -14l1 -7h68q11 0 8 -13l-8 -35q-2 -10 -11 -10h-58q-33 0 -48 13q-13 11 -15 36v21v10h-2q-32 -44 -77.5 -69t-94.5 -25
q-51 0 -75.5 33t-24.5 72q0 19 9 58l58 273h-72q-8 0 -8 7q0 1 0.5 2.5t1 4t0.5 4.5l5 28q1 5 1.5 6.5t3 3.5t8.5 2h131q14 0 9 -21zM224 -56l47 34q8 6 13 3t3 -12l-28 -129q-3 -10 -11 -12l-47 -12q-6 -3 -13.5 -2t-4.5 11z" />
    <glyph glyph-name="afii10050" unicode="&#x490;" horiz-adv-x="469" 
d="M267 618l-118 -556h80q10 0 7 -14l-8 -38q-2 -10 -12 -10h-226q-9 0 -9 7q0 1 4 15l8 30q2 10 11 10h66l119 561h-67q-8 0 -8 7q0 3 3 15l8 30q2 10 12 10h327l23 105q2 11 12 11h46q9 0 9 -6q0 -1 -2 -9l-33 -158q-2 -10 -12 -10h-240z" />
    <glyph glyph-name="afii10098" unicode="&#x491;" horiz-adv-x="345" 
d="M201 422l-78 -412q-2 -10 -12 -10h-53q-8 0 -8 8q0 6 2 14l77 400h-72q-8 0 -8 7q0 1 0.5 2.5t1 4t0.5 4.5l5 28q1 5 1.5 6.5t3 3.5t8.5 2h228l28 136q2 10 11 12l42 12q6 3 13 2t5 -11l-41 -197q-4 -11 -13 -12h-141z" />
    <glyph glyph-name="endash" unicode="&#x2013;" 
d="M30 242l9 34q3 10 9 11q2 1 6 1h420q11 0 6 -19l-9 -34q-3 -12 -13 -12h-420q-13 0 -8 19z" />
    <glyph glyph-name="emdash" unicode="&#x2014;" horiz-adv-x="1000" 
d="M30 242l9 34q3 10 9 11q2 1 6 1h920q11 0 6 -19l-9 -34q-3 -12 -13 -12h-920q-13 0 -8 19z" />
    <glyph glyph-name="quoteleft" unicode="&#x2018;" horiz-adv-x="204" 
d="M84 497l147 214q4 6 9 6q3 0 7 -2l21 -10q7 -3 7 -7q0 -2 -2 -6l-83 -202q-4 -10 -15 -10h-85q-10 0 -10 7q0 6 4 10z" />
    <glyph glyph-name="quoteright" unicode="&#x2019;" horiz-adv-x="204" 
d="M262 700l-147 -214q-4 -6 -9 -6q-3 0 -7 2l-21 10q-7 4 -7 7q0 2 2 6l83 202q4 10 15 10h85q10 0 10 -7q0 -6 -4 -10z" />
    <glyph glyph-name="quotedblleft" unicode="&#x201c;" horiz-adv-x="464" 
d="M115 497l147 214q4 6 9 6q3 0 7 -2l21 -10q7 -3 7 -7q0 -2 -2 -6l-83 -202q-4 -10 -15 -10h-85q-10 0 -10 7q0 6 4 10zM301 497l147 214q4 6 9 6q3 0 7 -2l21 -10q7 -3 7 -7q0 -2 -2 -6l-83 -202q-4 -10 -15 -10h-85q-10 0 -10 7q0 6 4 10z" />
    <glyph glyph-name="quotedblright" unicode="&#x201d;" horiz-adv-x="501" 
d="M316 700l-147 -214q-4 -6 -9 -6q-3 0 -7 2l-21 10q-7 4 -7 7q0 2 2 6l83 202q4 10 15 10h85q10 0 10 -7q0 -6 -4 -10zM502 700l-147 -214q-4 -6 -9 -6q-3 0 -7 2l-21 10q-7 4 -7 7q0 2 2 6l83 202q4 10 15 10h85q10 0 10 -7q0 -6 -4 -10z" />
    <glyph glyph-name="quotedblbase" unicode="&#x201e;" horiz-adv-x="464" 
d="M177 97l-147 -214q-4 -6 -9 -6q-3 0 -7 2l-21 10q-7 3 -7 7q0 2 2 6l83 202q4 10 15 10h85q10 0 10 -7q0 -6 -4 -10zM363 97l-147 -214q-4 -6 -9 -6q-3 0 -7 2l-21 10q-7 3 -7 7q0 2 2 6l83 202q4 10 15 10h85q10 0 10 -7q0 -6 -4 -10z" />
    <glyph glyph-name="dagger" unicode="&#x2020;" 
d="M314 389l-125 -587q-2 -12 -15 -12h-48q-13 0 -9 11l125 588h-121q-10 0 -10 7q0 4 2 11l8 37q3 12 14 12h121l46 218q2 11 13 11h50q9 0 10 -5.5t-2 -13.5l-45 -210h121q10 0 10.5 -6t-2.5 -12l-8 -37q-2 -12 -14 -12h-121z" />
    <glyph glyph-name="bullet" unicode="&#x2022;" 
d="M451 360q0 -75 -53 -127.5t-128 -52.5t-128 52.5t-53 127.5t53 128.5t128 53.5t128 -53.5t53 -128.5z" />
    <glyph glyph-name="ellipsis" unicode="&#x2026;" horiz-adv-x="976" 
d="M172 53q0 -29 -19 -48t-48 -19t-48 19t-19 48t19 48t48 19t48 -19t19 -48zM512 53q0 -29 -19 -48t-48 -19t-48 19t-19 48t19 48t48 19t48 -19t19 -48zM852 53q0 -29 -19 -48t-48 -19t-48 19t-19 48t19 48t48 19t48 -19t19 -48z" />
    <glyph glyph-name="Euro" unicode="&#x20ac;" 
d="M372 164h43q8 0 8 -9l-2 -12l-17 -81q-3 -17 -19 -27q-69 -49 -149 -49q-24 0 -46 7t-47.5 25t-40.5 59t-16 100v23q0 38 5 74h-64q-12 0 -12 6l3 20q1 11 21 11h58q2 9 5.5 26.5t6.5 29.5h-61q-12 0 -12 6l3 20q-2 4 4 8q1 1 2 1t4 1t5 1h6h57q23 102 92 177.5t161 75.5
q41 0 86 -17t52 -48l-1 -8l-23 -100q-2 -10 -11 -10h-44q-7 0 -7 7v1v1l1 1q1 1 0 3l17 78q-23 25 -71 25q-50 0 -99 -50t-69 -136h195q9 0 10 -6q0 -3 -1 -4t-1 -3l-7 -15q-3 -9 -25 -9h-182l-13 -56h176q11 0 10 -6l-1 -4l-8 -18q0 -6 -5 -6q-6 -3 -20 -3h-158
q-9 -53 -9 -96q0 -125 96 -125q45 0 88 33l15 68q2 10 11 10z" />
    <glyph glyph-name="afii61352" unicode="&#x2116;" horiz-adv-x="865" 
d="M579 623l-126 -593q-7 -30 -18 -30h-46q-17 0 -20 12l-115 508q-5 22 -8 71h-2q-1 -35 -10 -75l-97 -454h74q8 0 8 -7l-4 -16l-8 -30q-2 -9 -12 -9h-205q-9 0 -9 7q0 1 4 15l8 30q2 10 11 10h63l119 561h-65q-8 0 -8 7q0 3 3 15l8 30q3 10 13 10h137q4 0 6.5 -0.5t3.5 -2
t1.5 -2t1.5 -4.5l1 -3l109 -478q4 -15 10 -75h2q6 55 11 81l89 422h-61q-14 0 -14 7q0 3 3 15l8 30q2 10 12 10h203q8 0 8 -7l-4 -16l-8 -29q-4 -10 -12 -10h-65zM686 268q-44 0 -67 29q-21 27 -21 67q0 33 12.5 73.5t33.5 69.5q43 57 111 57q43 0 68 -27q22 -24 22 -65
q0 -42 -14.5 -85.5t-36.5 -68.5q-42 -50 -108 -50zM701 318q15 0 26.5 5.5t19.5 15.5t12.5 18t9.5 20q17 41 17 81q0 31 -14 44q-12 12 -29 12q-44 0 -68 -53q-18 -41 -18 -86q0 -28 9 -41q12 -16 35 -16zM541 83l7 35q3 12 15 12h211q11 0 9 -12l-7 -35q-2 -12 -15 -12
h-211q-12 0 -9 12z" />
    <glyph glyph-name="trademark" unicode="&#x2122;" horiz-adv-x="759" 
d="M143 604h-52v-57q0 -12 -12 -12h-27q-12 0 -12 12v95q0 12 12 12h243q12 0 12 -12v-95q0 -12 -12 -12h-27q-12 0 -12 12v57h-52v-294h38q12 0 12 -12v-21q0 -12 -12 -12h-137q-12 0 -12 12v21q0 12 12 12h38v294zM366 310l19 299h-36q-12 0 -12 12v21q0 12 12 12h87
q4 0 7 -1.5t4 -2.5t2 -4l1 -3l72 -201h2l72 203q2 9 11 9h91q12 0 12 -12v-22q0 -12 -12 -12h-36l17 -298h28q12 0 12 -12v-21q0 -12 -12 -12h-124q-12 0 -12 12v21q0 12 12 12h36l-7 237l-67 -182q-5 -14 -12 -14h-25q-6 0 -12 14l-63 181l-9 -236h36q12 0 12 -12v-21
q0 -12 -12 -12h-122q-12 0 -12 12v21q0 12 12 12h28z" />
    <glyph glyph-name="radical" unicode="&#x221a;" horiz-adv-x="483" 
d="M76 423h-47q-8 0 -11 3t-3 11v29q0 8 3 11t11 3h82q10 0 15 -2t6.5 -3t2.5 -7.5t1 -7.5l104 -373h3l167 596q0 1 1 7.5t2.5 7.5t6.5 3t15 2h19q18 0 14 -14l-202 -726q-3 -12 -6 -14.5t-9 -2.5h-1h-31q-4 0 -5.5 0.5t-4.5 4.5t-5 12z" />
    <glyph glyph-name="infinity" unicode="&#x221e;" horiz-adv-x="840" 
d="M420 341l12 12q53 53 91.5 76.5t93.5 23.5q77 0 125 -45t48 -117q0 -75 -48.5 -118.5t-118.5 -43.5q-56 0 -98.5 25t-92.5 75l-12 12l-12 -12q-50 -50 -92.5 -75t-98.5 -25q-70 0 -118.5 43.5t-48.5 118.5q0 72 48 117t125 45q55 0 93.5 -23.5t91.5 -76.5zM447 291
l31 -30q39 -38 70.5 -56.5t70.5 -18.5q47 0 79 30t32 75t-32 75t-81 30q-30 0 -60.5 -15t-42 -25.5t-36.5 -34.5zM393 291l-31 30q-25 24 -36.5 34.5t-42 25.5t-60.5 15q-49 0 -81 -30t-32 -75t32 -75t79 -30q39 0 70.5 18.5t70.5 56.5z" />
    <glyph glyph-name="approxequal" unicode="&#x2248;" horiz-adv-x="517" 
d="M452 385l28 -16q1 0 3 -1t3 -2.5t1 -3.5q0 -6 -7 -16q-26 -40 -55 -62.5t-77 -22.5q-43 0 -91 28q-56 34 -87 34q-52 0 -84 -48q-8 -13 -21 -5l-28 17q-7 5 -7 8q0 5 8 18q54 83 131 83q43 0 102 -33q3 -2 10.5 -6t9.5 -5.5t7.5 -4.5t8 -4t7 -3t7 -2.5t6.5 -2t7.5 -1.5
t7.5 -0.5t8 -0.5q47 0 80 47q3 4 5 6.5t5 2.5h3.5t4 -2t4.5 -2zM452 237l28 -17q1 0 3 -1t3 -2.5t1 -3.5q0 -5 -7 -16q-26 -40 -55 -62.5t-77 -22.5q-43 0 -91 28q-56 34 -87 34q-52 0 -84 -48q-8 -13 -21 -5l-28 17q-7 5 -7 8q0 5 8 18q54 83 131 83q43 0 102 -33
q47 -27 64 -29q7 -1 15 -1q47 0 80 47q10 14 22 6z" />
    <glyph glyph-name="notequal" unicode="&#x2260;" horiz-adv-x="490" 
d="M477 346v-48q0 -12 -12 -12h-152l-46 -65h198q12 0 12 -12v-48q0 -12 -12 -12h-248l-64 -91q-7 -9 -16 -3l-34 23q-9 7 -3 16l39 55h-105q-12 0 -12 12v48q0 12 12 12h155l46 65h-201q-12 0 -12 12v48q0 12 12 12h251l63 90q7 9 16 3l34 -23q9 -7 3 -16l-38 -54h102
q12 0 12 -12z" />
    <glyph glyph-name="lessequal" unicode="&#x2264;" 
d="M24 297v38q0 12 11 16l404 146q6 3 12 3t9 -10l16 -46l2 -8q0 -7 -9 -9l-322 -115v-2l322 -114q9 -3 9 -10q0 -1 -2 -7l-11 -37q-3 -10 -9 -10q-3 0 -12 3l-409 146q-11 4 -11 16zM63 231l406 -143q9 -3 9 -10l-1 -2q-1 -3 -1 -5l-13 -37q-3 -10 -9 -10q-4 0 -12 3
l-406 143q-9 3 -9 10l1 2q0 3 1 5l13 37q3 10 9 10q5 0 12 -3z" />
    <glyph glyph-name="greaterequal" unicode="&#x2265;" 
d="M478 335v-38q0 -12 -11 -16l-409 -146q-8 -3 -12 -3q-6 0 -9 10l-11 37q-2 6 -2 7q0 7 9 10l322 114v2l-322 115q-9 2 -9 9l2 8l16 46q3 10 9 10t12 -3l404 -146q11 -4 11 -16zM33 88l406 143q7 3 12 3q6 0 9 -10l13 -37q1 -2 1 -5q1 -1 1 -2q0 -7 -9 -10l-406 -143
q-8 -3 -12 -3q-6 0 -9 10l-13 37q0 2 -1 5l-1 2q0 7 9 10z" />
    <glyph glyph-name="Acute" horiz-adv-x="497" 
d="M303 776l167 103q6 3 8 3q3 0 8 -7l28 -51q2 -4 2 -6q0 -7 -8 -10l-180 -72q-4 -2 -8 -2t-7 5l-14 23q-2 4 -2 7q0 1 6 7z" />
    <glyph glyph-name="Dieresis" horiz-adv-x="493" 
d="M224 803q0 22 15 37t37 15t37 -15t15 -37t-15 -37t-37 -15t-37 15t-15 37zM407 803q0 22 15 37t37 15t37 -15t15 -37t-15 -37t-37 -15t-37 15t-15 37z" />
    <glyph glyph-name="cyrBreve" 
d="M465 859l42 -7q10 -2 10 -8q0 -4 -5 -17q-20 -48 -53 -73q-43 -33 -101 -33q-67 0 -93 43q-15 24 -17 73v5q1 8 13 10l36 7q3 1 10 1q8 0 8 -13v-6q0 -36 10 -48q12 -16 42 -16q43 0 67 40q13 26 15 34q1 5 1 5.5t4 3t11 -0.5z" />
    <glyph glyph-name="cyrbreve" 
d="M416 688l40 -6q10 -2 10 -8q0 -3 -5 -16q-21 -47 -51 -70q-41 -31 -96 -31q-62 0 -88 40q-15 23 -17 70v5q1 8 13 10l34 6q4 1 10 1q7 0 7 -12v-6q0 -33 9 -45q12 -16 39 -16q42 0 66 39q10 16 14 32q1 4 2 5t4 2.5t9 -0.5z" />
  </font>
</defs>
</svg>
